<svg width="12" height="15" viewBox="0 0 12 15" fill="none" xmlns="http://www.w3.org/2000/svg">
<path fill-rule="evenodd" clip-rule="evenodd" d="M11.3429 3.73578C11.3429 3.46372 11.1221 3.24292 10.8501 3.24292H1.65008C1.37803 3.24292 1.15723 3.46372 1.15723 3.73578V12.6072C1.15723 13.1737 1.38197 13.7171 1.78283 14.1173C2.18303 14.5182 2.72648 14.7429 3.29294 14.7429H9.20723C9.77368 14.7429 10.3171 14.5182 10.7173 14.1173C11.1182 13.7171 11.3429 13.1737 11.3429 12.6072C11.3429 9.65006 11.3429 3.73578 11.3429 3.73578ZM10.3572 4.22863V12.6072C10.3572 12.9121 10.2363 13.2045 10.0201 13.4201C9.80457 13.6363 9.51214 13.7572 9.20723 13.7572C7.53677 13.7572 4.9634 13.7572 3.29294 13.7572C2.98803 13.7572 2.6956 13.6363 2.48006 13.4201C2.26386 13.2045 2.14294 12.9121 2.14294 12.6072V4.22863H10.3572Z" fill="#353535"/>
<path fill-rule="evenodd" clip-rule="evenodd" d="M9.20719 4.22854C9.47925 4.22854 9.70005 4.00774 9.70005 3.73569C9.70005 3.73569 9.70005 3.07854 9.70005 2.4214C9.70005 1.94234 9.50948 1.48234 9.17105 1.14326C8.83196 0.804829 8.37196 0.614258 7.89291 0.614258C6.91508 0.614258 5.58502 0.614258 4.60719 0.614258C4.12813 0.614258 3.66813 0.804829 3.32905 1.14326C2.99062 1.48234 2.80005 1.94234 2.80005 2.4214V3.73569C2.80005 4.00774 3.02085 4.22854 3.29291 4.22854H9.20719ZM8.71433 3.24283H3.78576V2.4214C3.78576 2.20323 3.87251 1.99492 4.02628 1.84049C4.18071 1.68672 4.38902 1.59997 4.60719 1.59997H7.89291C8.11108 1.59997 8.31939 1.68672 8.47382 1.84049C8.62759 1.99492 8.71433 2.20323 8.71433 2.4214V3.24283Z" fill="#353535"/>
<path fill-rule="evenodd" clip-rule="evenodd" d="M11.5071 3.24292H0.992857C0.7208 3.24292 0.5 3.46372 0.5 3.73578C0.5 4.00783 0.7208 4.22863 0.992857 4.22863H11.5071C11.7792 4.22863 12 4.00783 12 3.73578C12 3.46372 11.7792 3.24292 11.5071 3.24292Z" fill="#353535"/>
<path fill-rule="evenodd" clip-rule="evenodd" d="M4.11426 6.69281V11.2928C4.11426 11.5649 4.33506 11.7857 4.60711 11.7857C4.87917 11.7857 5.09997 11.5649 5.09997 11.2928V6.69281C5.09997 6.42075 4.87917 6.19995 4.60711 6.19995C4.33506 6.19995 4.11426 6.42075 4.11426 6.69281Z" fill="#353535"/>
<path fill-rule="evenodd" clip-rule="evenodd" d="M7.3999 6.69281V11.2928C7.3999 11.5649 7.6207 11.7857 7.89276 11.7857C8.16482 11.7857 8.38562 11.5649 8.38562 11.2928V6.69281C8.38562 6.42075 8.16482 6.19995 7.89276 6.19995C7.6207 6.19995 7.3999 6.42075 7.3999 6.69281Z" fill="#353535"/>
</svg>
