<svg width="12" height="11" viewBox="0 0 12 11" fill="none" xmlns="http://www.w3.org/2000/svg">
<path d="M12 5.45567C12.0001 6.53543 11.6849 7.59173 11.0929 8.49485C10.5009 9.39797 9.65807 10.1086 8.66778 10.5395C7.67748 10.9704 6.58289 11.1027 5.5184 10.9203C4.45391 10.7379 3.46587 10.2487 2.67561 9.51273C2.59208 9.43547 2.54267 9.3282 2.53825 9.21451C2.53383 9.10083 2.57476 8.99004 2.65204 8.90653C2.72932 8.82302 2.83662 8.77362 2.95033 8.7692C3.06404 8.76478 3.17485 8.80571 3.25838 8.88297C4.04332 9.61402 5.05529 10.0538 6.12541 10.1289C7.19554 10.2041 8.25906 9.90999 9.13848 9.29578C10.0179 8.68158 10.66 7.7844 10.9577 6.754C11.2553 5.7236 11.1904 4.62231 10.7739 3.63394C10.3574 2.64557 9.61447 1.82991 8.66905 1.3231C7.72362 0.816289 6.63293 0.648991 5.57902 0.849124C4.5251 1.04926 3.57173 1.60472 2.87801 2.42279C2.18429 3.24087 1.79219 4.27207 1.76717 5.34429H2.40993C2.48544 5.34399 2.55969 5.36364 2.62515 5.40126C2.69062 5.43887 2.74498 5.49312 2.78274 5.55849C2.82035 5.62362 2.84015 5.6975 2.84015 5.7727C2.84015 5.8479 2.82035 5.92178 2.78274 5.98691L1.79288 7.70055C1.7555 7.76648 1.70131 7.82132 1.63581 7.85948C1.57032 7.89763 1.49587 7.91774 1.42007 7.91774C1.34427 7.91774 1.26983 7.89763 1.20433 7.85948C1.13884 7.82132 1.08464 7.76648 1.04727 7.70055L0.0574096 5.98691C0.0197999 5.92178 0 5.8479 0 5.7727C0 5.6975 0.0197999 5.62362 0.0574096 5.55849C0.0951632 5.49312 0.149526 5.43887 0.214993 5.40126C0.280459 5.36364 0.354706 5.34399 0.430214 5.34429H0.914431C0.966423 3.89983 1.58064 2.5328 2.62616 1.53455C3.67169 0.536288 5.06585 -0.0142455 6.5115 0.000280306C7.95714 0.0148061 9.33995 0.593242 10.3652 1.61231C11.3904 2.63137 11.9771 4.01047 12 5.45567ZM8.47764 7.86335C8.54771 7.77457 8.57982 7.66169 8.56698 7.54934C8.55413 7.43698 8.49738 7.33426 8.40908 7.26357L6.42936 5.67845V2.02838C6.42936 1.91476 6.38422 1.80579 6.30385 1.72545C6.22349 1.6451 6.1145 1.59997 6.00085 1.59997C5.8872 1.59997 5.77821 1.6451 5.69785 1.72545C5.61749 1.80579 5.57234 1.91476 5.57234 2.02838V5.88409C5.57264 5.94844 5.58743 6.01189 5.61562 6.06974C5.64381 6.12759 5.68467 6.17835 5.73518 6.21825L7.87773 7.9319C7.95312 7.99237 8.04675 8.02559 8.1434 8.02615C8.20777 8.02585 8.27124 8.01106 8.3291 7.98288C8.38697 7.95469 8.43774 7.91384 8.47764 7.86335Z" fill="#353535"/>
</svg>
