<svg width="43" height="40" viewBox="0 0 43 40" fill="none" xmlns="http://www.w3.org/2000/svg">
<rect width="43" height="40" rx="10" fill="url(#paint0_linear_352_177)"/>
<path d="M29.2742 11H14.6385C14.2859 11 14 11.2859 14 11.6385V15.4699C14 15.8225 14.2859 16.1084 14.6385 16.1084H15.9156C16.2683 16.1084 16.5542 15.8225 16.5542 15.4699V14.1928H20.3599V26.3253H18.7636C18.4109 26.3253 18.125 26.6112 18.125 26.9638V28.2409C18.125 28.5935 18.4109 28.8795 18.7636 28.8795H25.1491C25.5018 28.8795 25.7876 28.5935 25.7876 28.2409V26.9638C25.7876 26.6112 25.5017 26.3253 25.1491 26.3253H23.5527V14.1928H27.3585V15.4699C27.3585 15.8225 27.6444 16.1084 27.997 16.1084H29.2741C29.6267 16.1084 29.9126 15.8225 29.9126 15.4699V11.6385C29.9127 11.2859 29.6268 11 29.2742 11Z" fill="white"/>
<defs>
<linearGradient id="paint0_linear_352_177" x1="2.38889" y1="7.87234" x2="44.1008" y2="23.1542" gradientUnits="userSpaceOnUse">
<stop stop-color="#55CBF3"/>
<stop offset="1" stop-color="#3084ED"/>
</linearGradient>
</defs>
</svg>
