<svg width="708" height="753" viewBox="0 0 708 753" fill="none" xmlns="http://www.w3.org/2000/svg">
<path d="M0.172363 339.969V426.266C0.172363 441.858 12.8639 454.548 28.4565 454.548H338.131C353.723 454.548 366.415 441.858 366.415 426.266V353.203L405.034 312.774L28.6378 311.686C12.8639 311.505 0.172363 324.196 0.172363 339.969Z" fill="#F5F5F5"/>
<path d="M320.725 363.9L39.6975 362.631L39.8788 353.928L320.907 355.379L320.725 363.9Z" fill="#E0E0E0"/>
<path d="M320.725 392.363L39.6975 391.094L39.8788 382.392L320.907 383.661L320.725 392.363Z" fill="#E0E0E0"/>
<path d="M209.689 410.816L209.646 419.518L320.788 420.064L320.831 411.362L209.689 410.816Z" fill="#E0E0E0"/>
<path d="M287.183 638.384V724.681C287.183 740.273 299.875 752.964 315.467 752.964H625.142C640.734 752.964 653.426 740.273 653.426 724.681V651.618L692.045 611.189L315.649 610.101C299.875 609.92 287.183 622.611 287.183 638.384Z" fill="#F5F5F5"/>
<path d="M609.187 660.139L328.159 658.87V650.168L609.187 651.437V660.139Z" fill="#E0E0E0"/>
<path d="M609.187 688.603L328.159 687.153V678.632L609.187 679.901V688.603Z" fill="#E0E0E0"/>
<path d="M497.883 707.005L497.84 715.707L608.982 716.254L609.025 707.551L497.883 707.005Z" fill="#E0E0E0"/>
<path d="M166 15H348.674C357.744 15 365 22.2511 365 31.315V120.685C365 129.749 357.744 137 348.674 137H193.573C184.503 137 177.247 129.749 177.247 120.685V26.4205L166 15Z" fill="#F5F5F5"/>
<path d="M271.591 101.382V158.671C271.591 169.005 263.251 177.526 252.735 177.526H47.494C37.1594 177.526 28.6379 169.187 28.6379 158.671V110.265L3.07349 83.4332L252.735 82.708C263.07 82.708 271.591 91.0477 271.591 101.382Z" fill="#E0E0E0"/>
<path d="M58.9165 117.336L245.301 116.429V110.809L58.9165 111.716V117.336Z" fill="#F5F5F5"/>
<path d="M58.9165 136.191L245.301 135.284V129.664L58.9165 130.57V136.191Z" fill="#F5F5F5"/>
<path d="M132.696 148.52L58.9036 148.883L58.9321 154.685L132.725 154.322L132.696 148.52Z" fill="#F5F5F5"/>
<path d="M660.678 366.982V424.272C660.678 434.606 652.338 443.127 641.822 443.127H436.581C426.247 443.127 417.725 434.787 417.725 424.272V375.865L392.161 349.033L641.822 348.308C652.338 348.308 660.678 356.648 660.678 366.982Z" fill="#E0E0E0"/>
<path d="M448.004 382.936L634.389 382.211V376.409L448.004 377.316V382.936Z" fill="#F5F5F5"/>
<path d="M448.004 401.791L634.389 401.066V395.264L448.004 396.171V401.791Z" fill="#F5F5F5"/>
<path d="M521.788 414.124L447.996 414.487L448.024 420.289L521.817 419.926L521.788 414.124Z" fill="#F5F5F5"/>
<path d="M484.809 651.437C454.168 621.523 453.624 575.292 461.602 535.044C462.871 528.336 463.415 521.084 467.585 515.646C471.755 510.207 479.914 507.487 485.535 511.294C490.067 514.558 491.336 520.722 493.331 525.98C496.05 533.05 500.764 539.214 506.748 543.747C510.736 546.647 515.813 548.823 520.346 547.191C526.692 545.016 528.686 537.039 529.774 530.331C531.768 517.821 533.763 505.312 535.757 492.802C536.845 486.094 537.933 479.205 541.015 473.222C544.097 467.239 549.718 461.982 556.426 461.256C563.134 460.531 570.387 465.426 570.749 472.316C570.931 475.216 569.843 477.936 569.662 480.655C569.48 483.556 570.206 486.819 572.744 487.907C575.282 489.176 578.364 487.726 580.54 486.094C588.518 480.474 594.682 472.497 600.484 464.52C606.286 456.543 612.088 448.384 619.521 442.039C626.955 435.694 636.746 431.161 646.355 432.249C655.964 433.337 665.392 440.951 666.118 450.741C667.024 460.531 659.953 469.234 652.701 475.942C642.004 485.913 629.675 494.071 616.62 500.598C614.263 501.686 611.725 502.955 610.456 505.312C608.28 509.481 611.725 514.739 615.895 516.915C620.609 519.453 626.048 519.815 631.306 521.266C636.383 522.716 641.641 525.98 642.91 531.237C644.542 538.489 637.652 544.834 631.125 548.642C618.252 556.256 604.11 561.514 589.606 564.415C584.348 565.502 578.908 566.227 574.376 568.947C569.843 571.848 566.398 577.468 568.03 582.544C569.662 587.621 575.645 590.159 580.903 590.159C586.161 589.977 591.237 587.983 596.495 586.895C606.286 584.901 618.071 587.439 622.604 596.504C625.686 602.306 624.779 609.739 621.878 615.722C618.977 621.704 614.082 626.418 609.005 630.588C591.419 645.454 570.206 656.332 547.542 660.321C524.878 663.947 504.753 662.678 484.809 651.437Z" fill="#58E3A6"/>
<path d="M479.37 681.351C483.54 665.578 490.067 647.267 499.314 627.868C508.561 608.47 520.527 587.983 533.763 567.134C537.026 561.876 540.29 556.8 543.553 551.724C546.817 546.647 550.08 541.571 553.525 536.857C560.415 527.43 567.667 518.728 574.92 510.932C582.172 502.955 589.243 495.703 595.951 488.995C602.66 482.287 609.006 476.123 615.17 470.684C627.318 459.806 638.015 452.373 645.63 447.478C649.437 444.94 652.52 443.308 654.514 442.039C655.42 441.495 656.327 440.951 656.871 440.77C657.415 440.407 657.596 440.407 657.777 440.407C657.777 440.407 657.596 440.589 657.052 440.951C656.508 441.314 655.783 441.858 654.695 442.402C652.701 443.671 649.8 445.484 645.992 448.022C638.559 453.098 627.862 460.713 615.895 471.409C609.912 476.848 603.566 483.012 596.858 489.72C590.149 496.428 583.078 503.861 576.007 511.657C568.755 519.634 561.503 528.155 554.794 537.583C551.35 542.296 548.267 547.191 545.004 552.449C541.74 557.525 538.477 562.783 535.213 567.859C521.978 588.708 510.011 609.195 500.765 628.412C491.336 647.811 484.809 665.941 480.639 681.714" fill="#263238"/>
<path d="M553.888 536.676C553.888 536.676 553.707 535.588 553.707 533.775C553.707 531.781 553.707 529.062 553.707 525.617C553.888 518.728 554.432 509.3 554.976 498.966C555.52 488.632 556.064 479.205 556.064 472.316C556.064 468.871 556.064 466.151 556.064 464.157C556.064 462.163 556.064 461.256 556.245 461.256C556.245 461.256 556.426 462.344 556.607 464.157C556.789 466.151 556.97 468.871 556.97 472.316C557.151 479.205 556.97 488.632 556.245 498.966C555.701 509.3 554.976 518.546 554.613 525.617C554.432 528.88 554.251 531.6 554.251 533.775C554.069 535.588 554.069 536.676 553.888 536.676Z" fill="#263238"/>
<path d="M642.729 534.682C642.729 534.682 641.46 534.682 639.284 534.5C637.108 534.319 633.845 534.138 629.856 533.957C621.878 533.594 610.637 533.231 598.49 533.594C586.161 533.957 575.101 534.682 567.123 535.407C563.135 535.77 559.871 536.132 557.695 536.313C555.52 536.495 554.25 536.676 554.25 536.676C554.25 536.676 555.52 536.313 557.695 535.951C559.871 535.588 563.135 535.044 567.123 534.5C575.101 533.413 586.342 532.506 598.671 532.325C611 531.962 622.241 532.325 630.219 533.05C634.207 533.413 637.471 533.775 639.647 534.138C641.641 534.319 642.729 534.682 642.729 534.682Z" fill="#263238"/>
<path d="M500.583 626.418C500.583 626.418 500.402 626.056 500.221 625.33C500.039 624.424 499.677 623.336 499.314 621.886C498.407 618.985 497.32 614.634 496.05 609.376C493.512 598.861 490.43 584.176 487.348 567.859C484.265 551.542 481.365 536.857 479.008 526.342C477.92 521.266 477.013 516.915 476.288 513.833C475.925 512.382 475.744 511.294 475.563 510.388C475.381 509.663 475.381 509.119 475.381 509.119C475.381 509.119 475.563 509.481 475.744 510.207C475.925 511.113 476.288 512.201 476.65 513.651C477.557 516.552 478.645 520.903 479.914 526.161C482.452 536.676 485.535 551.361 488.617 567.678C491.699 583.995 494.6 598.68 496.957 609.195C498.045 614.271 498.951 618.622 499.677 621.704C500.039 623.155 500.221 624.243 500.402 625.149C500.583 625.874 500.764 626.418 500.583 626.418Z" fill="#263238"/>
<path d="M621.335 608.288C621.335 608.288 620.972 608.47 620.065 608.651C619.159 608.832 617.89 609.014 616.621 609.195C613.357 609.739 609.006 610.283 603.748 611.189C592.869 612.821 577.821 615.359 561.14 618.078C544.46 620.798 529.411 623.155 518.533 624.605C513.094 625.33 508.561 625.874 505.479 626.237C504.028 626.418 502.94 626.418 501.852 626.599C501.127 626.599 500.583 626.599 500.583 626.599C500.583 626.599 500.946 626.418 501.852 626.237C502.759 626.056 504.028 625.874 505.297 625.693C508.561 625.149 512.912 624.605 518.17 623.699C529.049 622.067 544.097 619.529 560.778 616.809C577.458 614.09 592.507 611.733 603.385 610.283C608.824 609.557 613.357 609.014 616.439 608.651C617.89 608.47 618.978 608.47 620.065 608.288C620.791 608.107 621.335 608.107 621.335 608.288Z" fill="#263238"/>
<path d="M179.667 243.7C174.047 239.349 171.509 231.734 172.778 224.664C173.866 217.593 178.398 211.429 184.381 207.44C187.101 205.627 190.365 204.177 193.628 205.084C196.529 205.99 198.705 208.891 199.249 211.792C199.793 214.874 199.249 217.956 198.161 220.856C194.716 230.828 189.458 239.711 179.667 243.7Z" fill="#455A64"/>
<path d="M170.602 260.742C159.542 250.589 143.406 246.419 128.901 249.864C125.275 250.77 121.105 252.765 120.38 256.391C119.836 260.198 123.099 263.28 126.363 265.274C140.142 273.251 158.636 271.801 170.965 261.648" fill="#455A64"/>
<path d="M117.297 182.24C123.462 180.608 130.17 182.059 135.61 185.322C141.049 188.586 145.219 193.662 148.664 198.919C155.191 209.253 157.548 223.213 157.91 235.541C144.312 234.998 132.709 224.301 127.088 218.5C118.204 209.253 107.869 187.316 117.297 182.24Z" fill="#455A64"/>
<path d="M191.09 279.234C190.365 277.784 188.914 276.696 187.645 274.158C185.107 268.9 181.662 261.286 180.03 252.221C178.398 243.156 179.486 234.635 181.662 229.196C182.75 226.477 184.019 224.301 184.925 222.851C185.832 221.582 186.557 220.856 186.557 220.856C186.738 221.038 184.381 223.938 182.568 229.377C180.574 234.816 179.667 243.156 181.299 251.858C182.931 260.56 186.195 268.175 188.552 273.614" fill="#263238"/>
<path d="M191.271 279.415C189.458 277.059 187.101 273.976 184.2 270.351C178.217 262.555 169.877 251.858 160.63 240.255C151.383 228.652 142.862 218.137 136.516 210.522C133.615 206.897 131.077 203.814 129.264 201.639C127.632 199.463 126.544 198.376 126.725 198.194C126.725 198.194 127.813 199.282 129.626 201.276C131.439 203.271 134.159 206.171 137.241 209.979C143.587 217.412 152.29 227.746 161.718 239.349C170.964 250.952 179.123 261.83 184.925 269.625C187.826 273.614 190.183 276.877 191.634 279.053" fill="#263238"/>
<path d="M137.423 257.841C137.423 257.66 138.329 257.478 139.78 257.116C140.505 256.935 141.593 256.753 142.681 256.572C143.768 256.391 145.038 256.209 146.488 256.209C149.389 256.028 152.834 256.028 156.46 256.572C160.267 257.116 164.256 258.022 168.426 259.654C172.415 261.286 176.223 263.28 179.305 265.455C182.387 267.631 184.925 269.807 186.92 271.982C188.008 272.889 188.733 273.976 189.458 274.883C190.183 275.789 190.727 276.515 191.271 277.24C192.178 278.509 191.996 279.234 191.996 279.234C191.815 279.415 190.365 276.515 186.376 272.707C184.381 270.713 181.843 268.719 178.761 266.543C175.679 264.549 172.052 262.555 168.064 261.104C164.075 259.654 160.086 258.566 156.46 258.022C152.834 257.478 149.389 257.297 146.669 257.297C140.867 257.297 137.423 258.204 137.423 257.841Z" fill="#263238"/>
<path d="M441.477 720.511L232.066 719.605C206.864 719.424 186.557 698.937 186.739 673.737L188.914 148.7C189.096 123.5 209.583 103.195 234.785 103.195L444.196 104.101C469.398 104.282 489.705 124.769 489.523 149.969L487.348 675.006C487.166 700.206 466.678 720.511 441.477 720.511Z" fill="#263238"/>
<path d="M443.834 122.412L403.221 122.231C397.781 122.231 393.43 126.763 393.249 132.565V139.998C393.249 145.618 388.716 150.332 383.277 150.332L304.045 149.969C298.606 149.969 294.254 145.256 294.254 139.635V132.202C294.254 126.582 289.903 121.868 284.464 121.868H270.14L234.785 121.506C217.198 121.506 202.694 135.647 202.694 153.233L200.518 665.578C200.518 683.164 214.66 697.668 232.247 697.668L441.295 698.574C458.882 698.574 473.387 684.433 473.387 666.847L475.563 154.502C475.744 136.916 461.421 122.412 443.834 122.412Z" fill="#FAFAFA"/>
<path d="M325.621 649.624C325.621 651.618 323.626 653.25 321.269 653.25C318.912 653.25 316.918 651.619 316.918 649.443C316.918 647.449 318.912 645.817 321.269 645.817C323.626 645.998 325.621 647.63 325.621 649.624Z" fill="#455A64"/>
<path d="M338.856 649.624C338.856 651.618 336.862 653.25 334.505 653.25C332.148 653.25 330.153 651.619 330.153 649.443C330.153 647.449 332.148 645.817 334.505 645.817C336.862 645.817 338.856 647.63 338.856 649.624Z" fill="#455A64"/>
<path d="M352.273 649.805C352.273 651.8 350.279 653.431 347.922 653.431C345.565 653.431 343.57 651.8 343.57 649.624C343.57 647.63 345.565 645.998 347.922 645.998C350.46 645.998 352.273 647.63 352.273 649.805Z" fill="#455A64"/>
<path d="M265 369C268.447 369.547 474 410 474 410V369H265Z" fill="#EBEBEB"/>
<path d="M201 628C201 628 423.976 597.132 421.987 598.019C419.998 598.906 201 598.019 201 598.019V628Z" fill="#EBEBEB"/>
<path d="M460.151 29.9505C460.333 29.9505 460.695 41.1909 460.695 55.1508C460.695 69.1107 460.514 80.3511 460.151 80.3511C459.789 80.3511 459.607 69.1107 459.607 55.1508C459.607 41.3722 459.789 29.9505 460.151 29.9505Z" fill="#263238"/>
<path d="M549.536 88.1469C549.718 88.3282 539.383 93.2232 526.691 98.8434C514 104.464 503.484 108.815 503.484 108.633C503.303 108.452 513.637 103.557 526.329 97.9369C539.02 92.3167 549.355 87.7843 549.536 88.1469Z" fill="#263238"/>
<path d="M547.361 0.0364685C547.361 0.0364685 547.18 0.399063 546.817 0.942954C546.454 1.66814 545.91 2.57463 545.185 3.66241C543.916 6.01927 541.74 9.28262 539.202 13.4525C534.125 21.6108 526.873 32.67 518.533 44.8169C510.193 56.9638 502.94 67.8416 497.682 76C495.144 79.9885 492.968 83.2519 491.518 85.6087C490.793 86.6965 490.249 87.603 489.886 88.1469C489.523 88.6908 489.342 89.0534 489.161 89.0534C489.161 89.0534 489.342 88.6908 489.705 88.1469C490.067 87.4217 490.611 86.5152 491.337 85.4274C492.606 83.0706 494.781 79.8072 497.32 75.6374C502.396 67.479 509.649 56.4199 517.989 44.273C526.329 32.1261 533.581 21.2482 538.839 13.0899C541.378 9.10133 543.553 5.83798 545.004 3.48111C545.729 2.39333 546.273 1.48685 546.636 0.942954C546.998 0.399063 547.179 0.0364685 547.361 0.0364685Z" fill="#263238"/>
<path d="M672.645 213.423H263.976C255.092 213.423 248.021 220.494 248.021 229.377V356.104C248.021 364.988 255.092 372.058 263.976 372.058H294.436C296.974 385.293 299.694 401.972 299.694 401.972L327.252 372.058H672.645C681.529 372.058 688.6 364.988 688.6 356.104V229.377C688.6 220.675 681.529 213.423 672.645 213.423Z" fill="#58E3A6"/>
<path d="M504.028 282.316C504.028 282.497 455.438 282.86 395.425 282.86C335.412 282.86 286.821 282.679 286.821 282.316C286.821 282.135 335.412 281.772 395.425 281.772C455.256 281.772 504.028 281.954 504.028 282.316Z" fill="#F5F5F5"/>
<path d="M504.028 262.736C504.028 262.917 455.438 263.28 395.425 263.28C335.412 263.28 286.821 263.099 286.821 262.736C286.821 262.555 335.412 262.192 395.425 262.192C455.256 262.373 504.028 262.555 504.028 262.736Z" fill="#F5F5F5"/>
<path d="M504.028 301.534C504.028 301.715 455.438 302.078 395.425 302.078C335.412 302.078 286.821 301.896 286.821 301.534C286.821 301.352 335.412 300.99 395.425 300.99C455.256 300.99 504.028 301.171 504.028 301.534Z" fill="#F5F5F5"/>
<path d="M428.967 321.476C428.967 321.658 397.057 322.02 357.713 322.02C318.369 322.02 286.458 321.839 286.458 321.476C286.458 321.114 318.369 320.932 357.713 320.932C397.238 320.932 428.967 321.295 428.967 321.476Z" fill="#F5F5F5"/>
<path d="M487.892 441.495H75.778C69.6135 441.495 64.5369 446.571 64.5369 452.735V586.895C64.5369 593.06 69.6135 598.136 75.778 598.136H375.118L402.314 627.687C402.314 627.687 405.215 611.008 407.572 598.136H487.892C494.056 598.136 499.133 593.06 499.133 586.895V452.735C499.133 446.39 494.056 441.495 487.892 441.495Z" fill="#455A64"/>
<path d="M471.755 510.569C471.755 510.751 423.165 511.113 363.152 511.113C303.139 511.113 254.548 510.932 254.548 510.569C254.548 510.388 303.139 510.025 363.152 510.025C423.165 510.025 471.755 510.388 471.755 510.569Z" fill="#F5F5F5"/>
<path d="M471.755 491.17C471.755 491.352 423.165 491.714 363.152 491.714C303.139 491.714 254.548 491.533 254.548 491.17C254.548 490.808 303.139 490.627 363.152 490.627C423.165 490.627 471.755 490.808 471.755 491.17Z" fill="#F5F5F5"/>
<path d="M471.755 529.787C471.755 529.968 423.165 530.331 363.152 530.331C303.139 530.331 254.548 530.149 254.548 529.787C254.548 529.424 303.139 529.243 363.152 529.243C423.165 529.424 471.755 529.605 471.755 529.787Z" fill="#F5F5F5"/>
<path d="M396.875 549.729C396.875 549.911 364.965 550.273 325.621 550.273C286.277 550.273 254.367 550.092 254.367 549.729C254.367 549.548 286.277 549.186 325.621 549.186C364.965 549.367 396.875 549.548 396.875 549.729Z" fill="#F5F5F5"/>
<path d="M569.843 159.759C570.024 156.496 567.123 151.782 564.404 149.244C561.684 146.525 559.871 143.08 561.321 137.641C562.409 133.471 565.129 133.834 566.035 131.477C566.761 129.664 566.398 127.67 566.579 125.675C567.123 118.967 574.376 113.71 580.903 115.523C582.716 109.177 588.699 104.282 595.226 103.557C601.753 102.832 608.643 106.458 611.725 112.259C615.533 110.265 620.247 110.446 623.873 112.441C627.499 114.435 630.037 118.423 630.4 122.593C634.026 119.874 639.647 120.962 642.548 124.406C645.448 127.851 645.63 133.109 643.454 137.097C641.278 141.086 636.927 143.624 632.576 144.349C628.043 145.074 623.51 143.986 619.521 141.992C615.533 139.998 611.906 137.097 608.824 133.834" fill="#263238"/>
<path d="M599.578 368.07C642.936 368.07 678.084 333.735 678.084 291.381C678.084 249.027 642.936 214.692 599.578 214.692C556.22 214.692 521.071 249.027 521.071 291.381C521.071 333.735 556.22 368.07 599.578 368.07Z" fill="#E0E0E0"/>
<path d="M678.265 291.381L669.562 269.081L638.377 288.662L666.118 331.448C666.299 331.448 677.54 316.944 678.265 291.381Z" fill="#EB996E"/>
<path d="M592.325 243.156C603.566 243.156 612.813 234.454 613.357 223.395C613.901 214.148 614.264 205.265 614.264 205.265C614.264 205.265 631.306 203.996 632.938 187.316C634.57 170.637 634.751 131.839 634.751 131.839C615.895 121.868 593.05 122.956 575.101 134.378L573.469 135.465L571.475 222.125C571.293 233.728 580.721 243.156 592.325 243.156Z" fill="#FFBE9D"/>
<path d="M602.297 157.765C603.566 158.128 604.291 159.578 603.929 160.847C603.566 162.116 602.116 162.841 600.846 162.479C599.577 162.116 598.852 160.666 599.215 159.397C599.577 157.946 600.846 157.221 602.297 157.765Z" fill="#263238"/>
<path d="M606.83 158.49C606.467 158.853 605.017 157.402 602.66 157.221C600.303 157.04 598.489 158.128 598.308 157.765C598.127 157.584 598.489 157.04 599.215 156.677C599.94 156.133 601.209 155.771 602.66 155.771C604.11 155.952 605.379 156.496 605.923 157.04C606.83 157.946 607.011 158.49 606.83 158.49Z" fill="#263238"/>
<path d="M627.68 157.765C628.949 158.128 629.675 159.578 629.312 160.847C628.949 162.116 627.499 162.841 626.23 162.479C624.961 162.116 624.235 160.666 624.598 159.397C625.142 157.946 626.411 157.221 627.68 157.765Z" fill="#263238"/>
<path d="M632.757 158.671C632.394 159.034 630.944 157.584 628.587 157.402C626.23 157.221 624.417 158.309 624.235 157.946C624.054 157.765 624.417 157.221 625.142 156.859C625.867 156.315 627.136 155.952 628.587 155.952C630.037 156.133 631.306 156.677 631.85 157.221C632.757 157.946 632.938 158.49 632.757 158.671Z" fill="#263238"/>
<path d="M615.17 176.62C615.17 176.439 616.62 176.257 618.977 176.076C619.521 176.076 620.065 175.895 620.065 175.713C620.247 175.351 620.065 174.626 619.703 173.9C619.159 172.269 618.796 170.818 618.252 169.005C616.258 162.116 614.989 156.496 615.351 156.315C615.714 156.133 617.527 161.754 619.521 168.643C620.065 170.274 620.428 171.906 620.79 173.538C620.972 174.263 621.334 175.17 620.972 176.076C620.79 176.62 620.247 176.801 619.884 176.982C619.521 176.982 619.159 176.982 618.796 176.982C616.62 176.982 615.17 176.801 615.17 176.62Z" fill="#263238"/>
<path d="M614.263 205.084C614.263 205.084 603.566 205.084 592.688 197.106C592.688 197.106 596.858 209.616 613.901 209.435L614.263 205.084Z" fill="#EB996E"/>
<path d="M572.925 160.122C572.925 158.853 571.837 157.584 570.568 157.584C567.486 157.402 562.228 158.49 561.503 167.192C560.596 179.521 572.563 176.62 572.744 176.257C572.744 176.076 572.925 165.017 572.925 160.122Z" fill="#FFBE9D"/>
<path d="M570.024 171.362C570.024 171.362 569.843 171.544 569.48 171.725C569.118 171.906 568.574 171.906 567.848 171.725C566.579 171.181 565.673 169.005 565.673 166.83C565.673 165.742 566.035 164.654 566.579 163.748C566.942 162.841 567.667 162.297 568.392 162.297C569.118 162.116 569.48 162.66 569.662 163.023C569.843 163.385 569.662 163.566 569.843 163.566C569.843 163.566 570.205 163.385 570.024 162.841C570.024 162.66 569.843 162.297 569.662 162.116C569.299 161.935 568.936 161.754 568.574 161.754C567.667 161.754 566.761 162.479 566.217 163.566C565.673 164.473 565.31 165.742 565.129 167.011C564.948 169.549 566.217 171.906 567.848 172.631C568.755 172.994 569.48 172.631 569.843 172.45C570.024 171.725 570.205 171.362 570.024 171.362Z" fill="#EB996E"/>
<path d="M595.951 151.964C596.495 152.689 598.671 152.326 601.572 152.326C604.292 152.145 606.467 152.145 607.011 151.42C607.555 150.513 604.835 148.519 601.391 148.7C597.583 148.881 595.226 151.238 595.951 151.964Z" fill="#263238"/>
<path d="M622.966 151.238C623.329 152.326 625.323 152.689 627.68 152.689C630.037 152.689 632.032 152.326 632.213 151.238C632.575 150.151 630.4 148.7 627.499 148.7C624.779 148.519 622.604 150.151 622.966 151.238Z" fill="#263238"/>
<path d="M637.108 137.278C637.108 137.278 626.955 142.173 613.719 135.647C605.017 131.296 594.863 129.12 592.688 130.933C590.512 132.746 589.968 141.63 581.447 144.168C581.447 144.168 581.99 161.21 575.282 160.666C568.392 160.122 572.744 133.652 572.744 133.652L589.424 125.494L607.555 122.049L624.598 124.406L637.833 128.032L637.108 137.278Z" fill="#263238"/>
<path d="M523.247 235.904C541.015 217.593 572.381 219.587 572.381 219.587L598.308 238.08L612.994 221.038C612.994 221.038 628.405 222.669 642.91 230.284L643.998 230.646V230.828C655.42 236.992 671.557 251.858 686.787 266.181L668.475 283.223L648.168 301.352C648.168 301.352 648.168 301.534 648.168 301.715C647.987 302.803 651.069 327.64 654.151 346.495C635.658 364.081 612.088 371.696 585.798 367.163C577.458 365.713 573.469 363.719 565.673 361.724C554.25 358.824 546.091 348.852 545.004 337.068C543.553 321.295 542.647 301.715 542.647 301.715" fill="#455A64"/>
<path d="M629.131 224.301C629.131 224.301 629.675 225.389 630.218 227.202C630.944 229.015 631.85 231.916 632.938 235.36C635.114 242.249 637.833 251.858 640.372 262.373C642.91 273.07 644.904 282.86 646.174 289.931C646.718 293.557 647.261 296.276 647.443 298.27C647.805 300.265 647.805 301.352 647.805 301.352C647.805 301.352 647.443 300.265 647.08 298.27C646.718 296.095 646.174 293.375 645.448 289.931C643.998 282.86 642.004 273.251 639.465 262.555C636.927 251.858 634.207 242.431 632.213 235.541C631.306 232.278 630.4 229.377 629.856 227.383C629.493 225.389 629.131 224.301 629.131 224.301Z" fill="#263238"/>
<path d="M645.993 289.568C645.811 289.387 653.608 282.86 663.398 274.883C673.189 266.906 681.166 260.742 681.348 260.923C681.529 261.104 673.733 267.631 663.942 275.608C654.151 283.585 645.993 289.749 645.993 289.568Z" fill="#263238"/>
<path opacity="0.2" d="M546.635 261.104L530.68 313.499L536.663 316.581L542.465 301.715C542.465 301.715 548.448 270.532 546.635 261.104Z" fill="black"/>
<g opacity="0.2">
<path d="M627.499 224.301C636.02 228.833 614.626 239.711 604.835 239.349L611.906 220.675C611.906 220.856 624.598 222.851 627.499 224.301Z" fill="black"/>
</g>
<path d="M569.662 220.856V207.078C569.662 207.078 596.677 213.967 597.764 230.284C597.764 230.284 601.209 212.335 615.17 211.429L617.164 236.629L600.847 250.77H584.348L571.293 239.53L569.662 222.125" fill="#455A64"/>
<path d="M603.929 307.879C603.929 307.879 603.929 306.791 603.929 304.978C603.929 302.984 603.929 300.265 603.929 296.82C603.929 289.931 603.748 280.503 602.841 270.169C601.934 259.835 600.665 250.408 599.396 243.7C598.852 240.437 598.308 237.717 597.946 235.723C597.583 233.91 597.402 232.822 597.583 232.822C597.583 232.822 597.946 233.91 598.308 235.723C598.852 237.536 599.396 240.255 599.94 243.7C601.209 250.408 602.66 259.835 603.566 270.351C604.473 280.866 604.473 290.293 604.292 297.183C604.11 300.627 604.11 303.347 603.929 305.341C604.11 306.791 603.929 307.879 603.929 307.879Z" fill="#263238"/>
<path d="M596.495 225.389C596.495 225.389 595.951 225.208 594.863 225.57C593.776 225.933 592.869 227.202 592.144 229.015C590.512 232.641 588.336 237.898 587.067 244.062L586.886 244.606L586.342 244.244C584.71 243.337 583.078 242.249 581.447 241.162C578.183 238.986 575.282 236.629 572.744 234.454C571.475 233.366 570.387 231.916 569.843 230.465C569.299 229.015 568.936 227.564 568.936 226.295C568.755 223.757 569.299 221.582 569.48 220.313C569.843 218.862 570.024 218.137 570.024 218.137C570.024 218.137 570.024 218.862 569.843 220.313C569.662 221.763 569.299 223.757 569.48 226.295C569.662 227.564 569.843 228.833 570.387 230.284C570.931 231.553 572.019 232.822 573.288 233.91C575.826 236.085 578.908 238.261 581.991 240.437C583.622 241.524 585.254 242.612 586.886 243.519L586.161 243.881C587.611 237.717 589.787 232.459 591.6 228.833C591.963 227.927 592.506 227.202 593.05 226.477C593.594 225.933 594.138 225.389 594.863 225.389C595.951 225.026 596.677 225.389 596.495 225.389Z" fill="#263238"/>
<path d="M615.17 211.429C615.17 211.429 615.351 212.154 615.351 213.605C615.533 215.236 615.533 217.23 615.714 219.587C615.895 222.125 616.258 225.026 616.802 228.29C616.983 229.921 617.527 231.553 617.164 233.547C616.62 235.541 615.17 236.992 613.538 238.08C611.362 239.711 609.187 240.98 607.555 242.612L606.83 243.337V242.249C606.467 236.448 604.473 231.734 602.841 228.833C601.209 225.751 599.759 224.12 599.759 224.12C599.759 224.12 600.121 224.482 600.847 225.208C601.572 225.933 602.297 227.021 603.385 228.652C605.198 231.734 607.374 236.448 607.736 242.431L607.011 242.249C608.643 240.437 611 239.167 612.994 237.536C614.445 236.448 615.714 234.998 616.258 233.547C616.62 231.916 616.077 230.284 615.895 228.652C615.351 225.389 615.17 222.307 614.989 219.95C614.807 217.412 614.807 215.417 614.807 213.967C614.989 212.154 615.17 211.429 615.17 211.429Z" fill="#263238"/>
<path d="M702.379 214.874C701.292 216.143 661.404 269.444 661.404 269.444L667.024 272.707L708 220.131L702.379 214.874Z" fill="#263238"/>
<path d="M542.284 256.935C542.284 256.935 584.166 317.306 586.705 318.394C591.6 320.751 649.075 271.076 654.514 266.362C655.239 265.274 656.871 263.28 659.953 258.929C659.953 258.929 664.486 238.261 669.381 239.893C674.277 241.524 666.662 250.408 669.925 258.204C673.007 265.999 687.512 247.326 688.056 245.694L691.682 240.799C691.682 240.799 695.49 251.858 695.308 256.391C694.402 271.257 680.441 288.662 680.441 288.662C680.441 288.662 617.708 366.438 574.557 368.795C562.228 369.52 540.109 334.348 525.423 308.06C516.538 292.106 520.89 272.164 535.757 261.286L542.284 256.935Z" fill="#FFBE9D"/>
<path d="M688.056 259.291C687.875 259.291 689.325 256.753 690.776 253.852C692.226 250.77 693.314 248.414 693.495 248.414C693.677 248.414 692.77 251.133 691.32 254.034C689.869 257.116 688.237 259.291 688.056 259.291Z" fill="#EB996E"/>
<path d="M535.032 227.564C535.032 227.564 490.067 243.519 523.428 319.301L575.464 287.936L568.03 270.169L535.032 227.564Z" fill="#455A64"/>
<path d="M531.587 228.833C531.587 228.833 533.581 228.471 537.026 229.377C538.658 229.74 540.834 230.646 543.009 231.916C545.185 233.185 547.361 234.998 549.536 237.354C553.888 241.887 558.058 248.232 561.684 255.665C565.492 263.099 569.118 271.438 572.744 280.141C573.832 282.86 574.92 285.398 576.007 287.755L576.189 288.118L575.826 288.299C560.778 296.457 547.723 304.253 538.477 309.873C533.763 312.774 530.136 315.131 527.598 316.763C526.329 317.488 525.422 318.213 524.697 318.576C523.972 318.938 523.609 319.119 523.609 319.119C523.609 319.119 523.972 318.757 524.516 318.394C525.241 317.85 526.148 317.306 527.417 316.4C529.955 314.587 533.581 312.23 538.114 309.329C547.361 303.528 560.415 295.732 575.463 287.392L575.282 287.936C574.194 285.398 573.106 282.86 572.019 280.322C568.392 271.438 564.766 263.099 561.14 255.847C557.333 248.595 553.525 242.249 549.174 237.717C546.998 235.36 544.822 233.547 542.828 232.278C540.834 231.009 538.839 230.103 537.026 229.74C533.581 228.833 531.587 229.015 531.587 228.833Z" fill="#263238"/>
<path d="M628.406 116.611C628.406 116.611 628.587 116.792 628.587 117.336C628.587 117.88 628.768 118.605 628.768 119.693C628.587 121.687 627.862 124.769 625.323 127.488C622.785 130.208 618.071 132.021 613.176 130.57C610.819 129.845 608.462 128.395 607.011 126.038C606.286 124.95 605.923 123.319 606.105 121.868C606.286 120.418 607.011 118.967 608.28 118.061C609.549 117.154 611.363 117.154 612.632 117.698C613.901 118.242 615.17 119.33 615.533 120.599C616.62 123.319 615.895 126.219 614.264 128.214C611.181 132.383 605.561 132.746 602.297 130.752C600.665 130.027 599.215 129.301 597.764 129.12C596.314 128.757 595.226 129.12 594.32 129.483C592.507 130.389 591.781 131.296 591.781 131.114C591.781 131.114 591.963 130.933 592.325 130.57C592.507 130.389 592.688 130.208 593.05 129.845C593.413 129.664 593.776 129.301 594.138 129.12C595.045 128.576 596.314 128.395 597.764 128.576C599.215 128.757 600.847 129.483 602.478 130.208C603.385 130.57 604.11 130.933 605.017 131.114C605.923 131.296 607.011 131.296 607.918 131.114C609.912 130.752 611.907 129.664 613.357 127.851C614.626 126.038 615.351 123.5 614.445 121.143C613.72 118.967 610.637 117.517 608.462 118.786C607.374 119.511 606.83 120.599 606.649 121.868C606.467 123.137 606.83 124.225 607.374 125.313C608.643 127.488 610.819 128.757 612.994 129.483C617.527 130.752 622.06 129.301 624.417 126.763C626.955 124.225 627.68 121.324 628.043 119.33C628.768 117.698 628.406 116.611 628.406 116.611Z" fill="#455A64"/>
<path d="M618.615 184.96C618.615 185.141 618.071 185.322 616.983 185.322C616.077 185.322 614.626 185.141 613.176 184.416C611.725 183.69 610.819 182.784 610.275 181.878C609.731 180.971 609.55 180.427 609.731 180.427C609.912 180.246 611.181 182.421 613.72 183.509C616.258 184.96 618.615 184.778 618.615 184.96Z" fill="#263238"/>
<path d="M571.112 176.982C571.112 176.982 571.656 177.708 571.112 178.977C570.749 179.521 570.206 180.246 569.299 180.427C568.392 180.608 567.305 180.427 566.398 179.702C565.673 178.977 565.129 178.07 565.129 176.982C565.129 176.076 565.492 175.351 566.035 174.807C566.942 173.719 567.849 173.719 567.849 173.719C567.849 173.9 567.123 174.263 566.579 175.169C566.035 176.076 565.673 177.708 566.942 178.795C567.486 179.339 568.392 179.521 568.936 179.339C569.662 179.158 570.024 178.795 570.387 178.433C571.112 177.708 570.931 176.982 571.112 176.982Z" fill="#263238"/>
<path d="M631.488 122.775C631.488 122.775 632.213 123.862 632.395 126.038C632.576 128.214 631.851 131.296 629.675 133.834C627.499 136.372 624.417 137.46 622.241 137.641C620.066 137.822 618.796 137.278 618.796 137.278C618.796 137.097 620.066 137.278 622.06 137.097C624.054 136.735 626.774 135.647 628.768 133.29C630.763 130.933 631.488 128.032 631.488 126.038C631.669 124.044 631.307 122.775 631.488 122.775Z" fill="#455A64"/>
<path d="M570.206 274.339C570.387 274.52 558.421 280.684 543.553 288.118C528.686 295.551 516.538 301.171 516.357 300.99C516.176 300.808 528.142 294.644 543.009 287.211C557.877 279.959 570.024 274.158 570.206 274.339Z" fill="#E0E0E0"/>
<path d="M559.327 253.852C559.508 254.034 548.811 260.017 535.576 267.087C522.34 274.158 511.462 279.778 511.28 279.597C511.099 279.415 521.796 273.433 535.032 266.362C548.267 259.11 559.146 253.671 559.327 253.852Z" fill="#E0E0E0"/>
<path d="M548.811 237.173C548.811 237.354 546.817 238.442 543.553 240.255C539.927 242.249 535.576 244.788 530.499 247.507C525.604 250.408 521.071 252.946 517.626 254.94C514.362 256.753 512.187 258.022 512.187 257.841C512.187 257.66 514 256.391 517.263 254.396C520.527 252.402 525.06 249.683 530.136 246.782C535.213 243.881 539.927 241.524 543.372 239.711C546.454 238.08 548.63 237.173 548.811 237.173Z" fill="#E0E0E0"/>
<path d="M588.518 233.366C588.518 233.547 587.067 233.366 585.073 232.459C583.079 231.553 580.359 229.921 577.821 227.746C575.282 225.389 573.288 223.032 571.837 221.4C570.387 219.587 569.662 218.5 569.843 218.5C570.024 218.5 570.931 219.406 572.381 221.038C573.832 222.669 576.008 225.026 578.365 227.202C580.903 229.377 583.441 231.009 585.436 232.097C587.249 232.822 588.518 233.185 588.518 233.366Z" fill="#E0E0E0"/>
<path d="M614.989 223.395C615.17 223.395 614.082 226.477 611.181 228.833C608.28 231.19 605.198 231.915 605.198 231.553C605.017 231.372 607.918 230.284 610.637 228.108C613.357 225.933 614.807 223.395 614.989 223.395Z" fill="#E0E0E0"/>
<path d="M662.129 250.77C662.129 250.77 661.766 250.952 661.041 250.952C660.316 251.133 659.228 251.133 658.14 251.314C655.602 251.677 651.976 251.858 647.443 252.221C638.378 252.946 625.686 253.671 611.907 254.215C597.946 254.759 585.436 254.94 576.189 254.759C571.656 254.759 567.849 254.578 565.31 254.578C564.041 254.578 563.135 254.396 562.409 254.396C561.684 254.396 561.322 254.396 561.322 254.215C561.322 254.215 561.684 254.215 562.409 254.215C563.135 254.215 564.222 254.215 565.31 254.215C568.03 254.215 571.656 254.215 576.189 254.215C585.254 254.034 597.946 253.852 611.725 253.309C625.686 252.765 638.196 252.221 647.262 251.677C651.794 251.314 655.42 251.133 657.959 250.952C659.228 250.952 660.135 250.77 660.86 250.77C661.766 250.77 662.129 250.77 662.129 250.77Z" fill="#E0E0E0"/>
<path d="M647.806 272.163C647.806 272.163 646.718 272.345 644.905 272.707C642.91 272.889 640.191 273.251 636.746 273.614C629.856 274.339 620.247 274.883 609.731 275.427C599.215 275.789 589.606 275.971 582.716 275.971C579.271 275.971 576.37 275.789 574.557 275.789C572.563 275.789 571.475 275.608 571.475 275.608C571.475 275.608 572.563 275.427 574.557 275.427C576.733 275.427 579.452 275.427 582.716 275.246C589.606 275.064 599.215 274.883 609.731 274.52C620.247 274.158 629.856 273.614 636.746 273.07C640.009 272.889 642.91 272.707 644.905 272.526C646.718 272.163 647.806 272.163 647.806 272.163Z" fill="#E0E0E0"/>
<path d="M615.351 298.814C615.351 298.995 612.994 299.358 609.368 299.721C605.561 300.083 600.484 300.446 594.863 300.808C589.243 301.171 583.985 301.171 580.177 301.171C576.37 301.171 574.194 300.99 574.194 300.99C574.194 300.808 576.551 300.808 580.177 300.627C584.166 300.446 589.243 300.265 594.863 299.902C600.484 299.539 605.379 299.358 609.368 299.177C612.994 298.814 615.351 298.633 615.351 298.814Z" fill="#E0E0E0"/>
<path d="M573.832 235.904C573.832 236.085 568.211 236.267 561.503 236.448C554.613 236.811 549.174 237.173 548.992 236.811C548.992 236.629 554.432 235.723 561.321 235.541C568.211 235.179 573.832 235.541 573.832 235.904Z" fill="#E0E0E0"/>
<path d="M650.344 234.816C650.344 234.998 643.091 235.179 634.207 235.179C625.323 235.179 618.071 234.816 618.071 234.635C618.071 234.454 625.323 234.272 634.207 234.272C643.091 234.272 650.344 234.635 650.344 234.816Z" fill="#E0E0E0"/>
<path d="M653.064 345.226C653.064 345.226 652.52 345.589 651.432 346.133C650.344 346.677 648.712 347.402 646.718 348.308C642.729 349.94 636.927 351.934 630.4 353.566C623.873 355.016 617.89 355.741 613.538 355.923C611.363 356.104 609.55 356.104 608.28 356.104C607.011 356.104 606.467 356.104 606.467 355.923C606.467 355.741 609.187 355.741 613.538 355.198C617.89 354.835 623.873 353.928 630.219 352.478C636.746 351.028 642.366 349.033 646.536 347.583C650.525 346.133 653.064 345.045 653.064 345.226Z" fill="#E0E0E0"/>
<path d="M163.35 591.972C206.708 591.972 241.856 558.449 241.856 517.096C241.856 475.743 206.708 442.22 163.35 442.22C119.992 442.22 84.8433 475.743 84.8433 517.096C84.8433 558.449 119.992 591.972 163.35 591.972Z" fill="#E0E0E0"/>
<path d="M147.213 336.524C134.703 337.249 129.808 350.121 128.357 353.022C126.907 355.923 126.726 359.186 126.363 362.449C126 365.713 125.638 368.976 124.006 371.877C121.286 376.228 115.484 378.585 113.853 383.48C112.04 389.1 116.572 394.902 115.484 400.703C114.759 403.785 112.583 406.323 111.858 409.405C110.952 412.487 111.858 415.932 113.49 418.833C117.66 425.903 126 429.348 134.159 429.711C142.318 430.073 150.296 427.535 157.911 425.178" fill="#263238"/>
<path d="M202.15 352.659C200.881 355.379 202.15 358.461 203.963 360.636C205.957 362.812 208.496 364.262 210.671 366.075C212.847 367.888 215.023 370.245 215.204 373.146C215.385 375.865 214.116 378.404 214.479 381.123C215.385 387.831 226.264 390.007 226.808 396.715C227.17 401.247 222.456 405.417 223.907 409.768C224.451 411.4 225.72 412.669 226.626 414.3C229.709 419.377 227.533 426.447 223.182 430.436C218.649 434.424 212.484 435.875 206.683 436.056C201.606 436.237 195.985 435.512 193.084 431.342C190.365 427.716 190.909 422.64 191.453 418.108C193.991 396.896 193.628 375.322 193.084 353.928" fill="#263238"/>
<path d="M150.477 450.922C150.658 439.682 150.477 428.079 150.477 428.079C150.477 428.079 136.154 425.541 133.434 406.686C130.714 388.738 135.247 350.121 135.247 350.121C156.097 341.963 179.486 345.045 193.991 361.906L191.815 452.554C191.634 463.069 182.206 471.228 170.965 470.865C159.542 470.503 150.477 461.619 150.477 450.922Z" fill="#FFBE9D"/>
<path d="M139.236 379.854C139.236 381.123 140.142 382.211 141.593 382.392C142.862 382.392 143.95 381.486 144.131 380.217C144.131 378.948 143.225 377.86 141.774 377.678C140.324 377.678 139.236 378.585 139.236 379.854Z" fill="#263238"/>
<path d="M135.247 378.041C135.61 378.404 137.423 376.953 139.961 377.135C144.856 377.86 144.675 378.585 144.675 378.222C144.856 378.041 144.494 377.497 143.769 376.953C143.043 376.409 141.593 375.684 139.961 375.684C138.329 375.684 137.06 376.228 136.154 376.772C135.428 377.316 135.247 377.86 135.247 378.041Z" fill="#263238"/>
<path d="M165.707 380.579C165.707 381.848 166.613 382.936 168.064 383.117C169.333 383.117 170.421 382.211 170.602 380.942C170.602 379.673 169.696 378.585 168.245 378.404C166.795 378.404 165.707 379.31 165.707 380.579Z" fill="#263238"/>
<path d="M162.262 378.948C162.625 379.31 164.438 377.86 166.976 378.041C169.514 378.041 171.509 379.31 171.69 379.129C171.871 378.948 171.509 378.404 170.784 377.86C170.058 377.316 168.608 376.591 166.976 376.591C165.344 376.591 164.075 377.135 163.169 377.678C162.443 378.222 162.081 378.766 162.262 378.948Z" fill="#263238"/>
<path d="M152.653 397.44C152.653 397.259 151.021 397.077 148.483 396.715C147.757 396.715 147.213 396.533 147.032 395.989C146.851 395.446 147.213 394.72 147.576 393.995C148.301 392.363 148.845 390.732 149.571 388.919C152.29 381.848 154.466 375.865 154.103 375.865C153.741 375.684 151.384 381.486 148.483 388.556C147.757 390.369 147.213 392.001 146.488 393.633C146.307 394.358 145.763 395.264 146.126 396.171C146.307 396.715 146.851 397.077 147.213 397.077C147.576 397.259 147.939 397.259 148.301 397.259C151.021 397.621 152.653 397.621 152.653 397.44Z" fill="#263238"/>
<path d="M150.477 428.079C150.477 428.079 163.169 428.986 175.679 421.734C175.679 421.734 169.514 434.606 150.658 432.611L150.477 428.079Z" fill="#EB996E"/>
<path d="M153.74 403.785C154.647 402.516 156.279 401.972 157.91 402.154C158.998 402.335 160.086 402.879 160.811 403.785C161.537 404.692 161.537 405.961 160.993 406.867C160.267 407.774 158.817 408.136 157.548 407.774C156.279 407.411 155.191 406.505 154.284 405.779C153.922 405.598 153.74 405.236 153.559 405.054C153.378 404.51 153.378 404.148 153.74 403.785Z" fill="#EB996E"/>
<path d="M160.267 399.434C159.905 399.434 159.724 402.154 157.366 404.148C155.009 406.142 151.927 405.779 151.927 406.142C151.927 406.323 152.652 406.686 153.922 406.686C155.191 406.686 157.004 406.323 158.454 405.236C159.905 403.967 160.63 402.335 160.63 401.247C160.811 399.978 160.449 399.434 160.267 399.434Z" fill="#263238"/>
<path d="M185.832 348.671C178.942 358.461 160.811 368.614 147.757 370.789C149.208 368.795 157.185 363.9 158.817 361.906C152.834 366.257 144.494 372.24 136.697 372.602C135.791 372.602 134.703 372.602 133.978 372.24C132.89 371.696 132.709 370.427 132.527 369.339C131.983 364.806 132.346 356.829 133.071 352.297C133.796 347.764 135.972 343.232 139.78 340.15C144.856 336.343 151.927 335.255 158.817 335.074C164.438 334.892 170.421 335.255 175.497 337.249C180.755 339.243 185.107 343.413 185.832 348.127" fill="#263238"/>
<path d="M205.595 392.363C206.501 387.468 207.226 382.936 207.408 379.854C207.952 370.245 205.232 334.53 171.871 337.249L170.602 347.402C170.602 347.402 165.525 382.211 187.101 382.392C187.101 382.392 188.37 392.726 198.161 402.879C197.798 403.06 203.6 402.879 205.595 392.363Z" fill="#263238"/>
<path d="M186.92 382.573C188.914 382.211 191.09 382.211 192.903 383.117C194.716 383.843 196.529 385.293 197.254 387.106C197.98 388.919 197.98 391.094 197.254 393.089C196.529 395.083 195.26 396.715 193.809 398.165C192.722 399.253 191.634 400.159 190.183 400.522C188.733 400.884 187.101 400.703 186.013 399.797" fill="#FFBE9D"/>
<path d="M187.826 394.72C187.645 394.72 188.37 395.989 190.365 395.627C191.271 395.446 192.178 394.72 192.722 393.633C193.266 392.726 193.628 391.638 193.81 390.369C193.991 389.1 193.628 387.831 193.084 386.743C192.359 385.837 191.453 385.112 190.546 385.112C188.733 385.112 188.008 386.381 188.189 386.381C188.37 386.562 189.096 385.837 190.365 386.199C191.634 386.381 192.722 388.012 192.359 390.188C192.178 392.182 191.271 394.176 190.183 394.539C188.914 395.083 188.008 394.539 187.826 394.72Z" fill="#EB996E"/>
<path d="M190.546 344.864C193.084 346.314 196.167 346.677 199.068 345.951C201.968 345.226 204.507 343.232 205.957 340.694C206.864 339.062 207.408 337.068 207.045 335.255C206.32 332.717 203.963 331.085 201.425 330.36C197.798 329.453 193.628 330.36 190.909 332.898C188.189 335.436 186.92 339.606 188.189 343.232C189.458 346.858 193.084 349.396 196.892 349.215" fill="#263238"/>
<path d="M193.628 399.072C191.815 400.341 189.821 401.791 188.37 403.604C186.92 405.417 185.832 407.592 186.195 409.949C186.376 411.218 186.739 412.487 186.557 413.757C186.376 415.57 184.925 416.839 183.838 418.289C181.481 422.096 182.387 427.535 185.469 430.799C188.552 434.062 193.266 435.694 197.798 435.875C200.518 435.875 203.238 435.512 205.413 434.062C208.496 431.886 209.765 427.716 209.765 423.909" fill="#263238"/>
<path d="M195.804 352.478C195.985 352.478 195.26 353.928 193.81 355.923C192.359 357.917 190.183 360.455 187.464 362.993C184.563 365.35 181.662 367.163 179.486 368.251C177.31 369.339 175.86 369.701 175.86 369.701C175.679 369.339 181.299 367.163 186.92 362.268C192.359 357.373 195.623 352.297 195.804 352.478Z" fill="#455A64"/>
<path d="M199.249 352.297C199.43 352.297 199.249 354.11 198.705 356.829C197.98 359.549 196.71 363.356 194.535 367.163C192.178 370.97 189.639 373.871 187.464 375.684C185.288 377.497 183.838 378.404 183.656 378.404C183.475 378.222 189.277 374.052 193.81 366.619C198.161 359.186 199.067 352.116 199.249 352.297Z" fill="#455A64"/>
<path d="M126.907 367.345C127.269 367.345 127.632 370.427 128.539 374.234C129.626 377.86 130.896 380.761 130.714 380.942C130.533 381.123 128.72 378.404 127.632 374.596C126.544 370.608 126.544 367.345 126.907 367.345Z" fill="#455A64"/>
<path d="M206.864 431.524C206.864 431.342 207.77 432.43 209.583 432.43C210.49 432.43 211.759 432.249 212.847 431.342C213.935 430.617 214.841 429.348 215.204 427.716C215.567 426.085 215.567 424.272 215.204 422.278C214.841 420.283 214.116 418.289 213.391 416.113C212.666 413.938 212.122 411.4 212.666 408.862C213.028 406.142 214.841 403.967 215.567 401.61C216.473 399.253 216.111 396.533 215.023 394.539C213.935 392.364 212.122 390.732 210.127 390.007C209.04 389.644 207.952 389.1 207.045 388.556C206.139 388.012 205.051 387.287 204.507 386.381C203.419 384.386 203.419 382.392 203.419 380.76C203.419 378.948 203.6 377.497 203.238 376.228C202.875 374.959 202.512 373.871 201.787 373.146C200.518 371.696 199.249 371.696 199.43 371.696C199.43 371.696 199.793 371.696 200.155 371.696C200.699 371.877 201.425 372.24 202.15 372.965C202.875 373.69 203.419 374.778 203.782 376.228C204.144 377.678 204.144 379.31 204.144 380.942C204.144 382.573 204.144 384.568 205.232 386.199C206.32 387.831 208.314 388.556 210.49 389.463C212.666 390.188 214.841 392.001 215.929 394.358C217.017 396.715 217.561 399.615 216.473 402.154C215.567 404.692 213.935 406.867 213.572 409.224C213.21 411.581 213.754 413.938 214.297 416.113C215.023 418.289 215.748 420.465 216.111 422.459C216.473 424.453 216.473 426.447 215.929 428.26C215.385 430.073 214.479 431.342 213.21 432.249C211.94 432.974 210.671 433.337 209.765 433.155C208.677 433.155 207.952 432.793 207.589 432.43C207.045 431.705 206.864 431.524 206.864 431.524Z" fill="#455A64"/>
<path d="M193.809 430.255C193.809 430.255 193.991 430.799 194.897 431.161C195.623 431.524 197.436 431.524 198.342 430.255C199.249 428.804 199.249 426.629 197.98 424.634C196.892 422.64 194.897 420.646 194.353 417.564C193.991 416.113 194.353 414.482 195.441 413.394C196.348 412.306 197.436 411.581 197.98 410.675C199.43 408.862 199.43 406.686 199.249 404.873C199.067 403.06 198.523 401.791 198.161 400.703C197.798 399.797 197.617 399.253 197.798 399.253C197.798 399.253 198.161 399.797 198.523 400.703C198.886 401.61 199.611 403.06 199.793 404.873C200.155 406.686 200.155 409.224 198.523 411.218C197.798 412.306 196.71 413.031 195.985 413.938C195.26 414.844 194.897 416.113 195.26 417.383C195.623 419.921 197.617 421.915 198.705 424.272C199.793 426.447 199.974 429.167 198.705 430.799C198.161 431.705 197.073 432.068 196.348 432.068C195.623 432.068 194.897 432.068 194.353 431.705C193.628 430.98 193.628 430.255 193.809 430.255Z" fill="#455A64"/>
<path d="M122.736 425.541C122.736 425.541 122.193 424.997 121.286 424.09C120.379 423.003 119.11 421.552 118.204 419.377C117.66 418.289 117.479 416.839 117.479 415.388C117.479 413.938 118.022 412.306 119.11 411.037C120.198 409.768 121.83 409.043 122.918 407.774C124.006 406.505 124.006 404.873 123.643 403.06C123.28 401.428 122.374 399.797 121.649 398.346C120.923 396.896 120.198 395.264 119.836 393.633C119.473 392.001 119.836 390.188 120.742 389.1C121.649 387.831 122.555 387.106 123.462 386.199C125.275 384.749 126.363 383.117 126.544 381.848C126.725 380.579 126.363 379.854 126.544 379.854C126.544 379.854 126.725 380.035 126.907 380.398C127.088 380.76 127.088 381.304 127.088 382.03C126.907 383.48 125.819 385.293 124.006 386.925C123.099 387.831 122.193 388.556 121.467 389.825C120.742 390.913 120.379 392.363 120.742 393.814C120.923 395.264 121.649 396.715 122.555 398.346C123.28 399.797 124.187 401.428 124.731 403.423C125.093 405.236 125.093 407.411 123.824 408.862C122.555 410.312 120.923 410.856 120.017 412.125C119.11 413.213 118.566 414.663 118.566 415.932C118.566 417.201 118.748 418.47 119.11 419.558C120.017 421.734 121.105 423.184 122.011 424.272C122.193 424.816 122.736 425.36 122.736 425.541Z" fill="#455A64"/>
<path d="M198.342 347.221C198.161 347.402 196.892 344.501 193.991 342.507C191.09 340.331 188.189 339.787 188.189 339.606C188.189 339.425 191.453 339.425 194.535 341.782C197.617 344.138 198.524 347.221 198.342 347.221Z" fill="#58E3A6"/>
<path d="M200.88 329.997C201.062 329.997 201.606 330.722 202.149 331.992C202.693 333.442 202.875 335.436 202.331 337.793C201.787 339.969 200.336 341.782 199.249 342.688C198.161 343.595 197.254 343.957 197.254 343.776C197.254 343.595 197.979 343.232 198.886 342.144C199.792 341.056 200.88 339.606 201.606 337.612C202.149 335.617 201.968 333.623 201.787 332.354C201.062 330.722 200.699 329.997 200.88 329.997Z" fill="#455A64"/>
<path opacity="0.3" d="M108.776 552.993C108.776 552.993 153.74 595.779 180.574 587.983C207.408 580.187 215.204 560.063 215.204 560.063L215.929 552.811L213.209 550.998L110.045 542.659L108.776 552.993Z" fill="black"/>
<path d="M82.1235 512.926L90.8263 490.627L122.011 510.207L94.2712 552.993C94.2712 552.993 83.0301 538.308 82.1235 512.926Z" fill="#EB996E"/>
<path d="M117.297 451.285C131.802 443.671 150.477 441.495 150.477 441.495C155.916 452.373 173.14 453.823 183.475 446.39L192.178 440.407C192.178 440.407 193.447 440.407 195.804 440.589C216.292 442.402 233.153 457.63 237.323 477.936C238.774 485.188 240.043 493.709 239.499 501.504C238.411 521.266 217.923 523.079 217.923 523.079C217.923 523.079 216.836 542.659 215.566 558.432C214.479 570.216 208.495 579.1 197.617 583.995C189.639 587.621 185.107 589.434 174.772 591.065C148.482 595.235 123.28 585.264 106.6 567.497C109.682 548.642 112.765 524.167 112.402 523.079C112.402 522.897 112.402 522.716 112.402 522.716L92.0954 504.586L80.4917 494.978C80.673 494.978 105.875 457.449 117.297 451.285Z" fill="#58E3A6"/>
<path d="M142.499 463.613C142.499 463.795 140.686 462.163 137.423 462.163C135.791 462.163 133.797 462.707 132.165 463.976C131.44 464.701 130.714 465.608 129.808 466.514C129.083 467.421 127.995 468.508 126.544 468.69C125.094 469.052 123.643 468.327 122.737 467.602C121.649 466.877 120.742 466.151 119.836 465.608C118.023 464.52 116.028 464.701 114.578 465.064C113.127 465.608 112.04 466.514 111.496 467.239C110.952 467.964 110.77 468.508 110.589 468.327C110.589 468.327 110.589 467.783 111.133 466.877C111.677 466.151 112.584 465.064 114.215 464.338C115.847 463.613 118.204 463.432 120.198 464.701C121.286 465.245 122.193 465.97 123.099 466.514C124.006 467.058 125.094 467.602 126.182 467.421C127.269 467.239 128.176 466.333 128.901 465.608C129.626 464.701 130.352 463.795 131.44 463.069C133.253 461.619 135.428 461.256 137.241 461.256C139.055 461.256 140.324 461.8 141.049 462.344C142.137 463.069 142.499 463.432 142.499 463.613Z" fill="#FAFAFA"/>
<path d="M163.168 490.627C162.987 490.808 161.899 488.814 158.817 487.726C157.367 487.182 155.372 487.001 153.378 487.726C152.471 488.088 151.383 488.814 150.477 489.357C149.389 489.901 148.12 490.627 146.669 490.445C145.219 490.264 144.131 489.176 143.406 488.27C142.681 487.363 141.955 486.275 141.23 485.55C139.961 483.919 137.967 483.375 136.335 483.375C134.703 483.375 133.434 483.919 132.709 484.463C131.983 485.006 131.621 485.369 131.439 485.369C131.439 485.369 131.621 484.825 132.346 484.281C133.071 483.737 134.34 483.012 136.153 482.831C137.785 482.649 140.142 483.193 141.774 485.006C142.499 485.913 143.224 486.819 143.95 487.726C144.675 488.632 145.582 489.358 146.669 489.539C147.757 489.72 148.845 489.176 149.933 488.632C151.021 488.088 151.927 487.363 153.015 487.001C155.191 486.275 157.367 486.457 158.998 487.182C160.63 487.726 161.718 488.814 162.262 489.539C162.987 490.083 163.168 490.627 163.168 490.627Z" fill="#FAFAFA"/>
<path d="M209.039 450.922C209.039 451.104 207.045 450.016 203.781 450.56C202.15 450.922 200.337 451.829 199.067 453.461C198.342 454.186 197.98 455.274 197.254 456.361C196.71 457.449 195.804 458.537 194.535 459.262C193.084 459.806 191.634 459.443 190.546 459.081C189.458 458.718 188.37 458.174 187.282 457.812C185.288 457.087 183.294 457.63 182.024 458.537C180.574 459.443 179.849 460.531 179.486 461.256C179.123 461.982 178.942 462.526 178.942 462.526C178.942 462.526 178.942 461.982 179.123 461.075C179.486 460.169 180.211 458.9 181.662 457.993C183.112 457.087 185.288 456.361 187.645 457.087C188.733 457.449 189.821 457.993 190.908 458.356C191.996 458.718 193.084 458.9 194.172 458.537C195.26 458.174 195.985 457.087 196.529 456.18C197.073 455.092 197.617 454.005 198.342 453.098C199.793 451.285 201.968 450.379 203.6 450.197C205.232 449.835 206.682 450.197 207.589 450.379C208.677 450.56 209.039 450.922 209.039 450.922Z" fill="#FAFAFA"/>
<path d="M187.826 480.655C187.645 480.837 186.92 479.205 184.563 478.298C183.475 477.936 181.843 477.754 180.393 478.117C179.667 478.298 178.942 478.842 178.036 479.205C177.129 479.567 176.223 480.111 174.953 479.93C173.866 479.749 172.959 478.842 172.415 478.117C171.871 477.392 171.327 476.485 170.965 475.941C170.058 474.672 168.608 474.129 167.338 474.129C164.8 474.129 163.712 475.398 163.531 475.398C163.531 475.398 163.712 475.035 164.256 474.491C164.8 474.129 165.888 473.585 167.338 473.585C168.608 473.585 170.421 474.128 171.69 475.579C172.234 476.304 172.778 477.029 173.322 477.754C173.866 478.48 174.41 479.024 175.316 479.205C176.948 479.567 178.58 477.936 180.211 477.573C182.024 477.029 183.656 477.392 184.925 477.936C187.464 479.024 188.008 480.837 187.826 480.655Z" fill="#FAFAFA"/>
<path d="M141.23 505.856C141.049 506.037 140.324 504.405 137.967 503.499C136.879 503.136 135.247 502.955 133.796 503.317C133.071 503.499 132.346 504.043 131.439 504.405C130.533 504.768 129.626 505.312 128.357 505.13C127.269 504.949 126.363 504.043 125.819 503.317C125.275 502.592 124.731 501.686 124.368 501.142C123.462 499.873 122.011 499.329 120.742 499.329C118.204 499.329 117.116 500.598 116.935 500.598C116.935 500.598 117.116 500.235 117.66 499.691C118.204 499.329 119.292 498.785 120.742 498.785C122.011 498.785 123.825 499.329 125.094 500.779C125.638 501.504 126.182 502.23 126.725 502.955C127.269 503.68 127.813 504.224 128.72 504.405C130.352 504.768 131.983 503.136 133.615 502.773C135.428 502.23 137.06 502.592 138.329 503.136C140.686 504.043 141.23 505.856 141.23 505.856Z" fill="#FAFAFA"/>
<path d="M184.744 506.399C184.744 506.581 183.475 505.312 180.937 505.312C179.667 505.312 178.217 505.493 176.948 506.581C176.404 507.125 175.679 507.668 175.135 508.394C174.41 509.119 173.684 509.844 172.415 510.025C171.146 510.207 170.239 509.663 169.333 509.119C168.608 508.575 167.882 508.031 167.157 507.487C165.888 506.581 164.256 506.581 163.168 506.943C160.811 507.669 160.086 509.481 160.086 509.3C160.086 509.3 160.086 508.938 160.449 508.212C160.811 507.668 161.718 506.762 162.987 506.218C164.256 505.674 166.069 505.674 167.701 506.581C168.426 507.125 169.152 507.668 169.877 508.212C170.602 508.756 171.327 509.119 172.234 508.938C173.866 508.756 174.953 506.762 176.404 505.674C177.854 504.586 179.667 504.405 180.937 504.405C183.838 504.768 184.925 506.399 184.744 506.399Z" fill="#FAFAFA"/>
<path d="M170.421 526.342C170.421 526.523 169.151 525.254 166.613 525.254C165.344 525.254 163.894 525.436 162.624 526.523C162.08 527.067 161.355 527.611 160.811 528.336C160.086 529.062 159.361 529.787 158.092 529.968C156.822 530.149 155.916 529.605 155.009 529.062C154.284 528.518 153.559 527.974 152.834 527.43C151.565 526.523 149.933 526.523 148.845 526.886C146.488 527.611 145.763 529.424 145.763 529.243C145.763 529.243 145.763 528.88 146.125 528.155C146.488 527.611 147.394 526.705 148.664 526.161C149.933 525.617 151.746 525.617 153.378 526.523C154.103 527.067 154.828 527.611 155.553 528.155C156.279 528.699 157.004 529.062 157.91 528.88C159.542 528.699 160.63 526.705 162.08 525.617C163.531 524.529 165.344 524.348 166.613 524.348C169.333 524.71 170.421 526.161 170.421 526.342Z" fill="#FAFAFA"/>
<path d="M139.961 575.655C139.78 575.836 139.054 574.205 136.697 573.298C135.609 572.935 133.978 572.754 132.527 573.298C131.802 573.479 131.077 574.023 130.17 574.386C129.264 574.748 128.357 575.292 127.088 575.111C126 574.93 125.094 574.023 124.55 573.298C124.006 572.573 123.462 571.848 123.099 571.122C122.193 569.853 120.742 569.31 119.473 569.31C116.935 569.31 115.847 570.76 115.666 570.579C115.666 570.579 115.847 570.216 116.391 569.672C116.935 569.128 118.023 568.766 119.292 568.584C120.561 568.584 122.374 568.947 123.643 570.397C124.187 571.123 124.731 571.848 125.275 572.573C125.819 573.298 126.544 573.842 127.269 574.023C128.901 574.205 130.533 572.754 132.165 572.21C133.978 571.666 135.609 572.029 136.879 572.573C139.417 573.842 139.961 575.655 139.961 575.655Z" fill="#FAFAFA"/>
<path d="M175.498 586.17C175.498 586.351 174.228 585.082 171.69 584.901C170.421 584.901 168.97 585.082 167.701 585.989C167.157 586.533 166.432 587.077 165.888 587.802C165.163 588.527 164.438 589.252 163.169 589.434C161.899 589.615 160.993 589.071 160.268 588.527C159.542 587.983 158.817 587.439 158.092 586.895C156.823 585.989 155.191 585.989 154.103 586.351C151.746 587.077 151.021 588.708 150.84 588.708C150.84 588.708 150.84 588.346 151.384 587.621C151.746 587.077 152.653 586.17 153.922 585.808C155.191 585.264 157.004 585.264 158.636 586.351C159.361 586.895 160.086 587.439 160.812 587.983C161.537 588.527 162.262 588.89 163.169 588.708C164.8 588.527 165.888 586.533 167.339 585.626C168.789 584.538 170.602 584.357 171.871 584.538C174.591 584.72 175.679 586.17 175.498 586.17Z" fill="#FAFAFA"/>
<path d="M58.1909 436.237C59.2787 437.507 99.1665 490.808 99.1665 490.808L93.546 494.071L52.5703 441.495L58.1909 436.237Z" fill="#263238"/>
<path d="M213.753 474.31C213.753 474.31 176.404 538.852 173.866 539.939C168.97 542.296 111.495 492.621 106.056 487.907C105.331 486.819 103.699 484.825 100.617 480.474C100.617 480.474 96.0843 459.806 91.189 461.438C86.2936 463.069 93.9086 471.953 90.645 479.749C87.5628 487.545 73.0581 468.871 72.5142 467.239L68.8881 462.344C68.8881 462.344 65.0806 473.403 65.2619 477.936C66.1684 492.802 80.1292 510.207 80.1292 510.207C80.1292 510.207 136.879 581.456 180.03 583.813C192.359 584.538 216.11 548.823 230.796 522.535C239.68 506.581 235.51 490.445 220.824 479.749L213.753 474.31Z" fill="#FFBE9D"/>
<path d="M72.3331 480.655C72.1518 480.655 70.7013 478.48 69.0695 475.398C67.6191 472.316 66.7125 469.777 66.8938 469.777C67.0751 469.777 68.163 472.316 69.6135 475.216C71.2452 478.298 72.5144 480.655 72.3331 480.655Z" fill="#EB996E"/>
<path d="M211.94 456.361C210.49 457.268 175.679 521.81 175.679 521.81L220.462 556.8C220.462 556.8 232.066 528.155 238.23 504.768C239.862 498.422 238.955 481.562 236.598 475.035C233.335 465.789 228.258 468.146 220.643 462.707L211.94 456.361Z" fill="#58E3A6"/>
<g opacity="0.7">
<path d="M226.626 456.361C226.626 456.361 226.264 456.18 225.357 455.636C224.451 455.274 223.181 454.73 221.368 454.73C219.555 454.73 217.561 455.636 215.566 457.087C213.572 458.537 211.578 460.713 209.765 463.432C207.951 465.97 206.32 469.234 204.325 472.497C202.512 475.76 200.518 479.386 198.342 483.012C194.172 490.445 189.458 498.604 184.563 507.125C181.662 512.382 178.761 517.277 176.041 521.991L175.86 521.447C188.008 531.056 198.523 539.395 206.138 545.378C209.765 548.279 212.847 550.636 214.841 552.449C215.748 553.174 216.654 553.899 217.198 554.443C217.742 554.806 217.923 555.168 217.923 555.168C217.923 555.168 217.561 554.987 217.017 554.624C216.473 554.081 215.566 553.537 214.66 552.811C212.484 551.18 209.402 548.823 205.776 545.922C198.161 539.939 187.464 531.781 175.316 522.172L174.953 521.991L175.135 521.628C177.854 516.915 180.755 511.838 183.656 506.762C188.551 498.241 193.266 490.083 197.436 482.831C199.611 479.205 201.606 475.579 203.419 472.316C205.413 469.052 207.045 465.97 208.858 463.251C210.852 460.713 212.847 458.537 214.841 456.905C217.017 455.455 219.193 454.548 221.006 454.548C222.819 454.548 224.269 455.092 224.994 455.636C225.357 455.818 225.72 456.18 225.901 456.18C226.626 456.18 226.626 456.361 226.626 456.361Z" fill="black"/>
</g>
<path d="M213.391 516.915C213.209 517.096 212.484 515.464 210.127 514.558C209.039 514.195 207.408 514.014 205.957 514.377C205.232 514.558 204.507 515.102 203.6 515.464C202.694 515.827 201.787 516.371 200.518 516.189C199.43 516.008 198.523 515.102 197.98 514.377C197.436 513.651 196.892 512.745 196.529 512.201C195.623 510.932 194.172 510.388 192.903 510.388C190.365 510.388 189.277 511.657 189.095 511.657C189.095 511.657 189.277 511.294 189.821 510.751C190.365 510.388 191.452 509.844 192.903 509.844C194.172 509.844 195.985 510.388 197.254 511.838C197.798 512.563 198.342 513.289 198.886 514.014C199.43 514.739 199.974 515.283 200.88 515.464C202.512 515.827 204.144 514.195 205.776 513.833C207.589 513.289 209.221 513.651 210.49 514.195C212.847 515.102 213.391 516.915 213.391 516.915Z" fill="#FAFAFA"/>
<path d="M233.879 508.575C233.697 508.575 233.335 506.943 231.34 505.493C230.434 504.768 228.983 504.224 227.352 504.224C226.626 504.224 225.72 504.586 224.813 504.768C223.907 504.949 222.819 505.13 221.731 504.586C220.643 504.043 220.099 502.955 219.737 502.048C219.374 501.142 219.193 500.235 218.83 499.51C218.286 498.06 217.017 497.153 215.748 496.791C213.391 496.065 211.759 497.153 211.759 496.972C211.759 496.972 211.94 496.609 212.666 496.428C213.391 496.065 214.479 495.884 215.748 496.247C217.017 496.609 218.649 497.516 219.374 499.329C219.737 500.235 219.918 500.96 220.281 501.867C220.643 502.773 221.006 503.499 221.731 503.861C223.181 504.586 225.176 503.499 226.989 503.499C228.802 503.499 230.434 504.224 231.34 505.13C233.879 506.762 233.879 508.575 233.879 508.575Z" fill="#FAFAFA"/>
<path d="M234.785 481.924C234.604 481.924 234.241 480.293 232.247 478.842C231.34 478.117 229.89 477.573 228.258 477.573C227.533 477.573 226.626 477.936 225.72 478.117C224.813 478.298 223.725 478.48 222.637 477.936C221.55 477.392 221.006 476.304 220.643 475.398C220.28 474.491 220.099 473.585 219.737 472.859C219.193 471.409 217.923 470.503 216.654 470.14C214.297 469.415 212.666 470.503 212.666 470.321C212.666 470.321 212.847 469.959 213.572 469.777C214.297 469.415 215.385 469.234 216.654 469.596C217.923 469.959 219.555 470.865 220.28 472.678C220.643 473.585 220.824 474.31 221.187 475.216C221.55 476.123 221.912 476.848 222.637 477.211C224.088 477.936 226.082 476.848 227.895 476.848C229.709 476.848 231.34 477.573 232.247 478.48C234.785 479.93 234.966 481.924 234.785 481.924Z" fill="#FAFAFA"/>
<path d="M224.995 543.203C224.813 543.203 224.451 541.571 222.456 540.121C221.55 539.395 220.099 538.852 218.468 538.852C217.742 538.852 216.836 539.214 215.929 539.396C215.023 539.577 213.935 539.758 212.847 539.214C211.759 538.67 211.215 537.583 210.853 536.676C210.49 535.77 210.309 534.863 209.946 534.138C209.402 532.688 208.133 531.781 206.864 531.418C204.507 530.693 202.875 531.781 202.875 531.6C202.875 531.6 203.056 531.237 203.782 531.056C204.507 530.693 205.595 530.512 206.864 530.875C208.133 531.237 209.765 532.144 210.49 533.957C210.853 534.863 211.034 535.588 211.396 536.495C211.759 537.401 212.122 538.126 212.847 538.489C214.297 539.214 216.292 538.126 218.105 538.126C219.918 538.126 221.55 538.852 222.456 539.758C224.995 541.39 224.995 543.203 224.995 543.203Z" fill="#FAFAFA"/>
</svg>
