<svg width="207" height="207" viewBox="0 0 207 207" fill="none" xmlns="http://www.w3.org/2000/svg">
<circle cx="103.5" cy="103.5" r="96" fill="#455A64" stroke="white" stroke-width="15"/>
<path d="M53.3411 150C53.2079 149.866 53.0748 149.731 52.9417 149.597C53.0215 149.409 53.1014 149.248 53.1547 149.06C55.3647 140.947 57.5748 132.834 59.8381 124.721C60.0512 123.915 59.9979 123.297 59.5985 122.572C53.8204 111.826 52.0363 100.409 54.2198 88.4548C56.4032 76.5272 62.1813 66.6413 71.5009 59.012C83.2169 49.4484 96.6638 45.4994 111.575 47.5142C123.051 49.0723 132.93 54.0959 140.865 62.7192C152.954 75.8019 157.401 91.2486 153.886 108.683C149.226 131.813 128.563 148.737 105.078 149.14C96.4507 149.302 88.3028 147.314 80.6341 143.338C80.1814 143.096 79.5424 143.042 79.0631 143.15C73.3915 144.6 67.7198 146.078 62.0482 147.582C59.1458 148.388 56.2434 149.194 53.3411 150ZM65.2435 137.562C65.6163 137.508 65.8559 137.481 66.0689 137.428C70.7287 136.219 75.3619 135.01 79.995 133.747C80.8471 133.506 81.4862 133.667 82.2051 134.097C94.001 141.081 106.463 142.559 119.164 137.455C135.513 130.9 144.833 118.542 146.35 100.758C147.256 89.9592 144.22 80.0733 137.377 71.6649C126.806 58.7165 113.119 53.5317 96.717 56.1644C86.359 57.83 77.8648 63.1221 71.3145 71.4231C64.3648 80.2882 61.276 90.4159 62.1547 101.672C62.7139 108.71 65.0571 115.158 68.8914 121.068C69.3441 121.739 69.424 122.33 69.211 123.109C67.8796 127.864 66.6015 132.646 65.2435 137.562Z" fill="white"/>
<path d="M117.806 122.357C114.69 122.438 112.108 121.417 109.445 120.53C99.8324 117.387 92.5365 111.101 86.359 103.257C83.6696 99.8452 81.0601 96.3798 79.4891 92.2696C77.1459 86.064 78.424 80.5838 82.8442 75.7751C83.8826 74.6469 85.2406 74.2708 86.7051 74.2439C87.6371 74.217 88.569 74.2708 89.4744 74.3782C90.4063 74.4857 90.8856 75.211 91.2318 75.9901C91.9774 77.7093 92.6963 79.4286 93.4152 81.1479C94.0809 82.706 94.6667 84.3179 95.3857 85.8491C95.8916 86.9505 95.8649 87.9176 95.1726 88.8579C94.2939 90.0667 93.4152 91.2756 92.4566 92.4308C91.2584 93.8546 91.2052 94.2306 92.1637 95.7888C96.2111 102.532 101.776 107.501 109.045 110.456C110.537 111.074 111.149 110.94 112.161 109.704C113.332 108.254 114.531 106.803 115.676 105.325C116.581 104.17 117.087 103.902 118.498 104.466C120.602 105.352 122.652 106.373 124.756 107.313C126.034 107.878 127.338 108.388 128.643 108.898C129.682 109.301 130.108 110.053 130.054 111.155C129.895 115.05 128.537 118.193 124.995 120.208C122.652 121.605 120.229 122.438 117.806 122.357Z" fill="white"/>
</svg>
