<svg width="9" height="14" viewBox="0 0 9 14" fill="none" xmlns="http://www.w3.org/2000/svg">
<path d="M7.50669 13.9999C7.31458 14.0004 7.12476 13.9675 6.95118 13.9034C6.77761 13.8394 6.62469 13.746 6.50366 13.63L0.292537 7.63053C0.103398 7.45162 0 7.2272 0 6.99559C0 6.76399 0.103398 6.53957 0.292537 6.36065L6.72227 0.361218C6.94054 0.157021 7.2542 0.0286085 7.59423 0.0042311C7.93427 -0.0201463 8.27284 0.0615079 8.53545 0.23123C8.79806 0.400953 8.96321 0.644841 8.99456 0.909243C9.02591 1.17364 8.9209 1.4369 8.70262 1.6411L2.95444 7.00059L8.50973 12.3601C8.66698 12.5069 8.76687 12.6856 8.79758 12.8751C8.82828 13.0646 8.78853 13.257 8.68301 13.4296C8.57749 13.6021 8.41062 13.7475 8.20216 13.8485C7.99369 13.9496 7.75235 14.0022 7.50669 13.9999Z" fill="#2D2D2D"/>
</svg>
