<svg width="18" height="21" viewBox="0 0 18 21" fill="none" xmlns="http://www.w3.org/2000/svg">
<path d="M15.3639 2.70328C14.5283 1.84636 13.5362 1.16657 12.4443 0.702739C11.3524 0.238906 10.1821 0.000113624 9.00011 4.05396e-08C7.81817 -0.000113543 6.64778 0.238454 5.55579 0.702077C4.46379 1.1657 3.47158 1.8453 2.63582 2.70206C1.80007 3.55882 1.13713 4.57596 0.684867 5.6954C0.232608 6.81483 -0.00011076 8.01463 3.95459e-08 9.22627C0.000110839 10.4379 0.23305 11.6377 0.685513 12.757C1.13798 13.8764 1.8011 14.8934 2.63702 15.75L6.87899 20.0991C7.15752 20.3847 7.48821 20.6113 7.85217 20.7658C8.21614 20.9204 8.60625 21 9.00022 21C9.39419 21 9.78429 20.9204 10.1483 20.7658C10.5122 20.6113 10.8429 20.3847 11.1214 20.0991L15.3639 15.75C16.1996 14.8934 16.8626 13.8764 17.3149 12.7571C17.7672 11.6378 18 10.4382 18 9.22663C18 8.01511 17.7672 6.81545 17.3149 5.69617C16.8626 4.57688 16.1996 3.5599 15.3639 2.70328ZM9.00046 5.53175C9.71333 5.53175 10.4102 5.74845 11.0029 6.15445C11.5956 6.56045 12.0576 7.13751 12.3304 7.81267C12.6032 8.48782 12.6746 9.23074 12.5355 9.94748C12.3965 10.6642 12.0532 11.3226 11.5491 11.8393C11.045 12.3561 10.4028 12.708 9.70364 12.8505C9.00447 12.9931 8.27976 12.9199 7.62116 12.6403C6.96255 12.3606 6.39964 11.887 6.00359 11.2794C5.60754 10.6718 5.39615 9.95741 5.39616 9.22663C5.39731 8.24705 5.77742 7.30794 6.45311 6.61527C7.1288 5.9226 8.0449 5.53294 9.00046 5.53175Z" fill="white"/>
</svg>
