<svg width="19" height="22" viewBox="0 0 19 22" fill="none" xmlns="http://www.w3.org/2000/svg">
<path d="M8.92043 10.4587C10.3573 10.4587 11.6014 9.94332 12.618 8.92658C13.6346 7.91 14.1499 6.66615 14.1499 5.22916C14.1499 3.79267 13.6346 2.54865 12.6179 1.53174C11.6011 0.515329 10.3571 0 8.92043 0C7.48343 0 6.23958 0.515329 5.223 1.53191C4.20641 2.54849 3.69092 3.7925 3.69092 5.22916C3.69092 6.66615 4.20641 7.91016 5.22316 8.92674C6.23991 9.94316 7.48393 10.4587 8.92043 10.4587Z" fill="white"/>
<path d="M18.0704 16.6952C18.0411 16.2721 17.9818 15.8106 17.8945 15.3233C17.8063 14.8323 17.6929 14.3682 17.557 13.9439C17.4167 13.5055 17.2259 13.0725 16.99 12.6575C16.7452 12.2268 16.4576 11.8518 16.135 11.5432C15.7975 11.2204 15.3844 10.9608 14.9067 10.7715C14.4306 10.5831 13.903 10.4877 13.3387 10.4877C13.117 10.4877 12.9027 10.5787 12.4887 10.8482C12.2339 11.0143 11.9359 11.2065 11.6033 11.419C11.3189 11.6002 10.9336 11.77 10.4577 11.9237C9.99339 12.074 9.52195 12.1502 9.05665 12.1502C8.59134 12.1502 8.12007 12.074 7.65526 11.9237C7.17985 11.7702 6.79456 11.6004 6.51047 11.4192C6.181 11.2086 5.88283 11.0165 5.62425 10.848C5.21079 10.5785 4.99628 10.4875 4.77464 10.4875C4.21011 10.4875 3.68269 10.5831 3.20678 10.7716C2.72938 10.9606 2.31609 11.2202 1.97834 11.5434C1.65582 11.8522 1.36809 12.227 1.12359 12.6575C0.887874 13.0725 0.697047 13.5053 0.556578 13.9441C0.420912 14.3683 0.307443 14.8323 0.219318 15.3233C0.132022 15.81 0.0727196 16.2716 0.0433998 16.6957C0.014577 17.1111 0 17.5423 0 17.9778C0 19.1112 0.360285 20.0287 1.07075 20.7054C1.77244 21.3731 2.70089 21.7118 3.82995 21.7118H14.2843C15.4134 21.7118 16.3415 21.3732 17.0434 20.7054C17.754 20.0292 18.1143 19.1115 18.1143 17.9776C18.1141 17.5402 18.0994 17.1086 18.0704 16.6952Z" fill="white"/>
</svg>
