<svg width="20" height="19" viewBox="0 0 20 19" fill="none" xmlns="http://www.w3.org/2000/svg">
<path d="M17.1772 11.6784C16.9646 11.4752 16.7119 11.3141 16.4337 11.2041C16.1555 11.0941 15.8573 11.0375 15.5561 11.0375C15.2548 11.0375 14.9566 11.0941 14.6784 11.2041C14.4002 11.3141 14.1475 11.4752 13.9349 11.6784L12.8287 12.7315C11.5832 11.9789 10.4292 11.0972 9.38798 10.1024C8.34298 9.11116 7.41675 8.01262 6.62627 6.82692L7.73248 5.77384C7.94585 5.57142 8.11514 5.3309 8.23066 5.06606C8.34617 4.80122 8.40564 4.51729 8.40564 4.23053C8.40564 3.94377 8.34617 3.65983 8.23066 3.39499C8.11514 3.13015 7.94585 2.88963 7.73248 2.68721L5.57346 0.639147C5.36383 0.435352 5.11331 0.273757 4.83678 0.163965C4.56025 0.0541723 4.26335 -0.00157586 3.96374 3.38924e-05C3.66199 -0.000669983 3.36308 0.0554345 3.0842 0.165119C2.80532 0.274803 2.55198 0.435902 2.33875 0.639147L1.3012 1.6196C0.806666 2.12579 0.437574 2.73104 0.221057 3.39087C0.00453982 4.0507 -0.0538974 4.74834 0.0500405 5.43249C0.29417 8.15599 2.17091 11.4314 5.06232 14.1912C7.95372 16.9511 11.4326 18.7304 14.2934 18.9919C14.5069 19.0027 14.7208 19.0027 14.9343 18.9919C15.5501 19.0165 16.1649 18.9238 16.7426 18.7193C17.3204 18.5147 17.8494 18.2025 18.2987 17.8008L19.3286 16.8131C19.5421 16.6101 19.7113 16.3689 19.8266 16.1034C19.9418 15.8379 20.0007 15.5534 20 15.2661C20.0017 14.9809 19.9431 14.6983 19.8278 14.435C19.7124 14.1718 19.5427 13.9333 19.3286 13.7337L17.1772 11.6784Z" fill="white"/>
</svg>
