<svg width="20" height="20" viewBox="0 0 20 20" fill="none" xmlns="http://www.w3.org/2000/svg">
<path d="M6 0H14C18 0 20 2 20 6V19C20 19.2652 19.8946 19.5196 19.7071 19.7071C19.5196 19.8946 19.2652 20 19 20H6C2 20 0 18 0 14V6C0 2 2 0 6 0ZM8 13.25H15C15.1989 13.25 15.3897 13.171 15.5303 13.0303C15.671 12.8897 15.75 12.6989 15.75 12.5C15.75 12.3011 15.671 12.1103 15.5303 11.9697C15.3897 11.829 15.1989 11.75 15 11.75H8C7.80109 11.75 7.61032 11.829 7.46967 11.9697C7.32902 12.1103 7.25 12.3011 7.25 12.5C7.25 12.6989 7.32902 12.8897 7.46967 13.0303C7.61032 13.171 7.80109 13.25 8 13.25ZM5 8.25H15C15.1989 8.25 15.3897 8.17098 15.5303 8.03033C15.671 7.88968 15.75 7.69891 15.75 7.5C15.75 7.30109 15.671 7.11032 15.5303 6.96967C15.3897 6.82902 15.1989 6.75 15 6.75H5C4.80109 6.75 4.61032 6.82902 4.46967 6.96967C4.32902 7.11032 4.25 7.30109 4.25 7.5C4.25 7.69891 4.32902 7.88968 4.46967 8.03033C4.61032 8.17098 4.80109 8.25 5 8.25Z" fill="white"/>
</svg>
