<svg width="16" height="18" viewBox="0 0 16 18" fill="none" xmlns="http://www.w3.org/2000/svg">
<path d="M15.2742 0H0.638544C0.285914 0 0 0.285914 0 0.638544V4.46988C0 4.82251 0.285914 5.10843 0.638544 5.10843H1.91563C2.26826 5.10843 2.55418 4.82251 2.55418 4.46988V3.19279H6.35993V15.3253H4.76357C4.41087 15.3253 4.12502 15.6112 4.12502 15.9638V17.2409C4.12502 17.5935 4.41093 17.8795 4.76357 17.8795H11.1491C11.5018 17.8795 11.7876 17.5935 11.7876 17.2409V15.9638C11.7876 15.6112 11.5017 15.3253 11.1491 15.3253H9.55272V3.19279H13.3585V4.46988C13.3585 4.82251 13.6444 5.10843 13.997 5.10843H15.2741C15.6267 5.10843 15.9126 4.82251 15.9126 4.46988V0.638544C15.9127 0.285914 15.6268 0 15.2742 0Z" fill="white"/>
</svg>
