<svg width="20" height="20" viewBox="0 0 20 20" fill="none" xmlns="http://www.w3.org/2000/svg">
<path fill-rule="evenodd" clip-rule="evenodd" d="M13.2323 3.23224C14.2085 2.25593 15.7914 2.25593 16.7678 3.23224C17.744 4.20854 17.744 5.79146 16.7678 6.76777L13.0178 10.5178C12.0414 11.4941 10.4585 11.4941 9.48223 10.5178C8.99406 10.0296 8.20261 10.0296 7.71446 10.5178C7.2263 11.0059 7.2263 11.7974 7.71446 12.2855C9.66708 14.2381 12.8329 14.2381 14.7855 12.2855L18.5355 8.53555C20.4882 6.58292 20.4882 3.41709 18.5355 1.46446C16.5829 -0.488154 13.4171 -0.488154 11.4645 1.46446L9.58946 3.33946C9.1013 3.82763 9.1013 4.61908 9.58946 5.10724C10.0776 5.59539 10.869 5.59539 11.3573 5.10724L13.2323 3.23224ZM6.98225 9.48225C7.95855 8.50594 9.54146 8.50594 10.5178 9.48225C11.0059 9.9704 11.7974 9.9704 12.2855 9.48225C12.7738 8.99409 12.7738 8.20264 12.2855 7.71447C10.3329 5.76186 7.1671 5.76186 5.21447 7.71447L1.46446 11.4645C-0.488154 13.4171 -0.488154 16.5829 1.46446 18.5355C3.41709 20.4882 6.58292 20.4882 8.53555 18.5355L10.4105 16.6605C10.8988 16.1724 10.8988 15.3809 10.4105 14.8928C9.92239 14.4046 9.13094 14.4046 8.64277 14.8928L6.76777 16.7678C5.79146 17.7442 4.20855 17.7442 3.23224 16.7678C2.25593 15.7915 2.25593 14.2085 3.23224 13.2323L6.98225 9.48225Z" fill="white"/>
</svg>
