<svg width="22" height="18" viewBox="0 0 22 18" fill="none" xmlns="http://www.w3.org/2000/svg">
<path d="M12.6231 15.7642C12.8042 14.6472 12.0455 13.5948 10.9284 13.4137C9.81133 13.2327 8.75897 13.9914 8.57788 15.1085C8.3968 16.2255 9.15556 17.2779 10.2726 17.459C11.3897 17.6401 12.442 16.8813 12.6231 15.7642Z" fill="white"/>
<path d="M21.3883 4.81217C18.4351 2.04056 14.6373 0.773438 11 0.773438C7.3627 0.773438 3.56486 2.04056 0.611661 4.81217C-0.204487 5.57903 -0.200749 6.76651 0.604055 7.52502C1.60909 8.47876 2.92497 8.09912 3.5142 7.5276C5.51457 5.65271 8.17283 4.62017 11 4.62017C13.8272 4.62017 16.4854 5.65271 18.4858 7.5276C19.075 8.09912 20.3909 8.47876 21.3959 7.52502C22.2007 6.76651 22.2045 5.57903 21.3883 4.81217Z" fill="white"/>
<path d="M11.0002 7.19019C8.99824 7.19019 6.85012 7.88906 5.18555 9.45171C4.37342 10.2143 4.38959 11.3869 5.19365 12.134C5.99202 12.8785 7.23416 12.8754 8.03232 12.1259C8.82507 11.3816 9.87905 10.9716 11.0002 10.9716C12.1213 10.9716 13.1753 11.3816 13.968 12.1259C14.7662 12.8754 16.0084 12.8785 16.8067 12.134C17.6107 11.3869 17.6269 10.2143 16.8148 9.45171C15.1503 7.8891 13.0022 7.19019 11.0002 7.19019Z" fill="white"/>
</svg>
