<svg width="207" height="207" viewBox="0 0 207 207" fill="none" xmlns="http://www.w3.org/2000/svg">
<circle cx="103.5" cy="103.5" r="96" fill="#455A64" stroke="white" stroke-width="15"/>
<path d="M93.8257 116.831C93.8257 111.567 98.0294 107.303 103.167 107.303C108.172 107.303 112.375 111.501 112.442 116.564C112.509 121.894 108.372 126.092 103.167 126.025C98.0294 126.025 93.8924 121.961 93.8257 116.831Z" fill="white"/>
<path d="M112.442 90.9131C112.442 96.0433 108.372 100.241 103.301 100.374C98.1628 100.507 93.8256 96.1766 93.8924 90.9131C93.9591 85.7828 98.0293 81.652 103.167 81.652C108.305 81.652 112.375 85.7828 112.442 90.9131Z" fill="white"/>
<path d="M128.99 81.652C134.061 81.7186 138.265 85.9827 138.265 91.0463C138.265 96.0433 133.994 100.374 128.99 100.441C123.852 100.507 119.582 96.11 119.648 90.8465C119.715 85.6496 123.852 81.5854 128.99 81.652Z" fill="white"/>
<path d="M128.857 56.0008C133.994 56.0008 138.198 59.9984 138.265 65.1286C138.332 70.3255 133.928 74.6562 128.79 74.5896C123.652 74.523 119.648 70.3255 119.648 65.1953C119.648 59.9984 123.585 56.0008 128.857 56.0008Z" fill="white"/>
<path d="M86.6193 90.9797C86.6193 96.1099 82.4823 100.307 77.4112 100.374C72.2734 100.374 67.8695 95.9101 68.003 90.7798C68.1364 85.7162 72.4068 81.5854 77.4779 81.652C82.6158 81.7186 86.6193 85.8495 86.6193 90.9797Z" fill="white"/>
<path d="M86.6193 116.764C86.6193 121.961 82.4823 126.025 77.3445 126.025C72.2734 126.025 68.0029 121.828 68.0029 116.764C67.9362 111.567 72.4068 107.17 77.5447 107.303C82.549 107.436 86.686 111.634 86.6193 116.764Z" fill="white"/>
<path d="M119.648 116.764C119.648 111.634 123.719 107.436 128.79 107.303C133.861 107.17 138.332 111.634 138.265 116.764C138.198 121.828 133.928 126.025 128.857 126.025C123.719 126.025 119.648 121.894 119.648 116.764Z" fill="white"/>
<path d="M112.442 142.282C112.509 147.546 108.572 151.61 103.368 151.676C98.0962 151.743 93.9593 147.879 93.8925 142.748C93.7591 137.418 97.8961 133.154 103.101 133.088C108.172 133.021 112.375 137.152 112.442 142.282Z" fill="white"/>
<path d="M77.478 56.0008C82.7493 56.0674 86.6194 60.065 86.6194 65.3285C86.6194 70.4588 82.4824 74.5896 77.4113 74.6562C72.2067 74.5896 67.8695 70.1923 68.003 65.062C68.1365 59.9318 72.3401 55.9342 77.478 56.0008Z" fill="white"/>
<path d="M93.8257 65.1953C93.8924 59.9984 97.8959 56.0008 103.1 56.0008C108.305 56.0008 112.375 59.9318 112.442 65.1286C112.509 70.3921 108.238 74.6562 103.034 74.5896C97.8959 74.523 93.8257 70.3255 93.8257 65.1953Z" fill="white"/>
</svg>
