<svg width="207" height="207" viewBox="0 0 207 207" fill="none" xmlns="http://www.w3.org/2000/svg">
<circle cx="103.5" cy="103.5" r="96" fill="#455A64" stroke="white" stroke-width="15"/>
<path d="M150.033 129.239C150.033 130.07 150.033 130.876 150.033 131.707C149.986 131.754 149.914 131.802 149.914 131.849C149.202 135.361 145.308 137.947 140.94 136.31C136.073 134.483 131.111 132.917 126.196 131.209C125.532 130.971 124.985 130.995 124.321 131.28C113.708 135.978 102.929 136.429 92.1268 132.134C73.632 124.802 62.5208 105.203 67.2691 84.6316C72.065 63.8939 92.5067 50.1557 113.376 53.5013C122.255 54.9249 129.9 58.7925 136.239 65.1752C143.243 72.2222 147.208 80.7403 148.063 90.6347C148.68 97.7766 147.445 104.634 144.478 111.183C144.264 111.657 144.193 112.369 144.359 112.867C145.285 115.738 146.306 118.586 147.279 121.457C148.181 124.043 149.107 126.653 150.033 129.239ZM107.179 96.3767C112.616 96.3767 118.029 96.3767 123.466 96.3767C123.917 96.3767 124.344 96.3767 124.796 96.3055C126.624 96.0682 127.716 94.265 127.099 92.5329C126.647 91.2753 125.603 90.6109 123.941 90.6109C112.806 90.6109 101.647 90.6109 90.5124 90.6109C90.085 90.6109 89.6339 90.6584 89.2066 90.7533C87.7821 91.1092 86.8799 92.604 87.2123 94.0514C87.5447 95.5937 88.613 96.353 90.5361 96.353C96.068 96.3767 101.624 96.3767 107.179 96.3767ZM107.274 78.771C103.001 78.771 98.7508 78.771 94.4773 78.771C92.9103 78.771 91.3196 78.7472 89.7526 78.7947C88.5893 78.8421 87.6159 79.6252 87.2835 80.6692C86.9036 81.8081 87.1648 83.0656 88.1382 83.73C88.7555 84.1334 89.5865 84.4655 90.2987 84.4655C101.576 84.513 112.83 84.4893 124.107 84.4893C124.511 84.4893 124.938 84.4181 125.318 84.2995C126.457 83.9435 127.241 82.8521 127.265 81.6657C127.288 80.5031 126.624 79.4116 125.508 79.0082C124.985 78.8184 124.392 78.771 123.846 78.771C118.338 78.771 112.806 78.771 107.274 78.771ZM100.531 108.24C103.95 108.24 107.345 108.24 110.764 108.24C111.168 108.24 111.595 108.217 111.975 108.122C113.352 107.718 114.183 106.39 113.993 104.99C113.779 103.542 112.569 102.546 110.978 102.546C104.093 102.546 97.2076 102.546 90.3225 102.546C88.4468 102.546 87.1173 103.732 87.0936 105.393C87.0936 107.078 88.3994 108.24 90.2987 108.24C93.7175 108.24 97.1364 108.24 100.531 108.24Z" fill="white"/>
<path d="M60.7166 98.963C62.0224 110.091 66.5571 119.535 74.4156 127.294C82.2504 135.005 91.7234 139.418 102.716 140.557C102.74 140.652 102.787 140.723 102.811 140.818C101.363 141.767 99.9381 142.788 98.4423 143.618C92.863 146.679 86.8563 147.794 80.541 147.035C77.6445 146.703 74.843 145.943 72.1839 144.757C71.6141 144.496 71.0918 144.472 70.4745 144.686C67.0319 145.896 63.5893 147.106 60.0993 148.245C56.8704 149.289 53.6653 147.533 53.0717 144.306C52.8818 143.262 53.0955 142.028 53.4041 140.984C54.4725 137.615 55.6833 134.317 56.7992 130.971C56.9416 130.544 56.9654 129.951 56.7754 129.571C54.8049 125.063 53.9739 120.365 54.2588 115.454C54.6387 109.83 56.8229 103.661 60.7166 98.963Z" fill="white"/>
</svg>
