<svg width="768" height="767" viewBox="0 0 768 767" fill="none" xmlns="http://www.w3.org/2000/svg">
<path d="M707.422 458.654V538.616C707.422 553.138 695.73 564.83 681.208 564.83H394.361C379.84 564.83 368.147 553.138 368.147 538.616V471.101L332.503 433.571L681.208 432.439C695.541 432.439 707.422 444.132 707.422 458.654Z" fill="#F5F5F5"/>
<path d="M410.391 480.907L670.647 479.587V471.666L410.391 472.798V480.907Z" fill="#E6E6E6"/>
<path d="M410.391 507.121L670.647 505.99V498.069L410.391 499.201V507.121Z" fill="#E6E6E6"/>
<path d="M513.348 524.414L410.378 524.92L410.417 532.841L513.387 532.335L513.348 524.414Z" fill="#E6E6E6"/>
<path d="M199.169 0H368.335C376.633 0 383.423 6.78928 383.423 15.0873V97.8788C383.423 106.177 376.633 112.966 368.335 112.966H224.818C216.52 112.966 209.73 106.177 209.73 97.8788V10.3725L199.169 0Z" fill="#F5F5F5"/>
<path d="M411.523 150.684V180.482C411.523 184.631 414.917 188.025 419.066 188.025H585.215C589.364 188.025 592.759 184.631 592.759 180.482V164.074L611.807 143.706L419.066 143.141C414.917 143.141 411.523 146.347 411.523 150.684Z" fill="#F0F0F0"/>
<path d="M299.688 91.4667V144.461C299.688 154.079 291.956 161.811 282.338 161.811H92.0495C82.4314 161.811 74.6991 154.079 74.6991 144.461V99.7647L50.9367 74.8706L282.149 74.1163C291.768 74.1163 299.688 81.8485 299.688 91.4667Z" fill="#E0E0E0"/>
<path d="M102.611 106.177L275.36 105.422V100.142L102.611 100.896V106.177Z" fill="#F0F0F0"/>
<path d="M102.611 123.716L275.36 122.961V117.681L102.611 118.435V123.716Z" fill="#F0F0F0"/>
<path d="M170.869 135.054L102.599 135.39L102.625 140.67L170.895 140.335L170.869 135.054Z" fill="#F0F0F0"/>
<path d="M19.2533 266.479V346.442C19.2533 360.963 30.946 372.656 45.4675 372.656H332.315C346.836 372.656 358.529 360.963 358.529 346.442V278.926L394.172 241.397L45.4675 240.265C31.1346 240.265 19.2533 252.146 19.2533 266.479Z" fill="#F0F0F0"/>
<path d="M316.284 288.733L56.0286 287.601V279.681L316.284 280.812V288.733Z" fill="#E6E6E6"/>
<path d="M316.284 315.136L56.0286 314.004V305.895L316.284 307.215V315.136Z" fill="#E6E6E6"/>
<path d="M213.199 332.259L213.16 340.18L316.131 340.687L316.17 332.766L213.199 332.259Z" fill="#E6E6E6"/>
<path d="M582.31 78.0589C590.215 60.4857 582.376 39.8323 564.803 31.9282C547.23 24.0241 526.576 31.8625 518.672 49.4357C510.768 67.0089 518.607 87.6623 536.18 95.5664C553.753 103.47 574.406 95.6321 582.31 78.0589Z" fill="#F5F5F5"/>
<path d="M538.445 55.0686C539.765 54.88 540.896 56.3887 541.085 58.2746C541.273 60.1605 540.33 61.8578 539.01 61.8578C537.69 62.0464 536.559 60.5377 536.37 58.6518C536.181 56.7659 537.124 55.0686 538.445 55.0686Z" fill="#E0E0E0"/>
<path d="M541.651 46.2048C541.651 46.582 538.633 46.2048 535.427 47.5249C532.221 48.6565 530.147 50.731 529.958 50.5424C529.769 50.3538 531.655 47.9021 535.239 46.582C538.633 45.0732 541.651 46.0162 541.651 46.2048Z" fill="#E0E0E0"/>
<path d="M560.698 54.5028C559.378 54.5028 558.247 56.0115 558.247 57.8974C558.247 59.7834 559.19 61.4807 560.51 61.4807C561.83 61.4807 562.961 59.9719 562.961 58.086C562.961 56.2001 562.018 54.5028 560.698 54.5028Z" fill="#E0E0E0"/>
<path d="M557.304 45.8276C557.115 45.639 560.321 44.696 563.904 45.8276C567.488 46.9591 569.562 49.4108 569.185 49.5994C568.996 49.788 566.922 47.7135 563.527 46.7705C560.133 45.8276 557.304 46.2048 557.304 45.8276Z" fill="#E0E0E0"/>
<path d="M567.676 63.3666C567.676 63.3666 567.676 64.1209 567.488 65.2525C567.299 66.384 566.545 68.0814 565.413 69.9673C564.282 71.8532 562.584 73.7391 560.133 75.4364C557.681 77.1337 554.663 78.2653 551.269 78.4539C547.874 78.6425 544.668 77.6995 542.216 76.3794C539.576 75.0592 537.69 73.1733 536.37 71.476C535.05 69.7787 534.296 68.0814 533.918 66.9498C533.541 65.8183 533.353 65.0639 533.541 65.0639C533.73 65.0639 534.296 67.7042 536.936 70.9102C538.256 72.6075 540.142 74.1163 542.594 75.4364C545.045 76.7565 548.063 77.5109 551.269 77.3223C554.475 77.1337 557.304 76.0022 559.567 74.4935C561.83 72.9847 563.716 71.0988 564.847 69.4015C567.299 66.1954 567.488 63.3666 567.676 63.3666Z" fill="#E0E0E0"/>
<path d="M71.8703 455.259H76.9622L87.9005 440.549V430.931C87.9005 430.931 95.6327 430.553 94.6898 443C93.7468 455.636 94.6898 452.43 94.6898 452.43C94.6898 452.43 111.286 452.43 112.606 453.939C113.549 454.882 114.115 470.723 114.303 479.21C114.303 483.548 111.663 487.508 107.514 488.451C106.948 488.64 106.382 488.64 105.817 488.64C101.668 488.64 80.5455 485.433 80.5455 485.433H71.8703V455.259Z" fill="#F0F0F0"/>
<path d="M57.5373 452.619L60.5548 485.622H69.23V453.184L57.5373 452.619Z" fill="#F0F0F0"/>
<path d="M765.32 168.412C763.057 165.583 758.719 165.772 756.079 168.035C753.438 170.298 752.118 172.938 751.93 176.71C751.175 172.938 749.289 170.675 746.272 168.789C743.255 166.903 738.917 167.28 737.031 170.486C735.899 172.372 735.711 174.635 736.088 176.898C736.465 179.162 737.22 181.425 738.728 182.933C744.009 188.402 746.649 189.345 753.061 193.117C758.908 188.591 760.793 187.271 765.32 181.236C766.64 179.539 767.017 177.087 767.206 175.013C767.206 172.561 766.64 170.109 765.32 168.412Z" fill="#F0F0F0"/>
<path d="M454.522 677.231L258.198 676.288C234.624 676.099 215.577 657.051 215.577 633.289L217.651 141.443C217.84 117.869 237.076 98.8217 260.65 98.8217L456.973 99.7647C480.547 99.9533 499.595 119.19 499.595 142.763L497.52 634.798C497.332 658.372 478.095 677.419 454.522 677.231Z" fill="#263238"/>
<path d="M456.596 116.738L418.689 116.549C413.597 116.549 409.448 120.887 409.448 126.167V133.145C409.448 138.426 405.299 142.763 400.207 142.763L326.091 142.386C320.999 142.386 316.85 138.049 316.85 132.768V125.79C316.85 120.51 312.701 116.172 307.609 116.172H294.219L260.839 115.984C244.243 115.984 230.853 129.185 230.664 145.781L228.589 626.122C228.589 642.718 241.791 656.108 258.387 656.108L454.333 657.051C470.929 657.051 484.319 643.85 484.508 627.254L486.582 146.724C486.582 130.316 473.192 116.738 456.596 116.738Z" fill="white"/>
<path d="M349.099 596.325C349.099 598.588 347.213 600.474 344.95 600.474C342.687 600.474 340.801 598.588 340.801 596.325C340.801 594.062 342.687 592.176 344.95 592.176C347.213 592.176 349.099 594.062 349.099 596.325Z" fill="#455A64"/>
<path d="M364.564 596.325C364.564 598.588 362.678 600.474 360.415 600.474C358.152 600.474 356.266 598.588 356.266 596.325C356.266 594.062 358.152 592.176 360.415 592.176C362.678 592.176 364.564 594.062 364.564 596.325Z" fill="#455A64"/>
<path d="M380.217 596.325C380.217 598.588 378.331 600.474 376.068 600.474C373.805 600.474 371.919 598.588 371.919 596.325C371.919 594.062 373.805 592.176 376.068 592.176C378.331 592.176 380.217 594.062 380.217 596.325Z" fill="#455A64"/>
<path d="M267.251 250.638C267.251 250.638 267.251 250.26 267.251 249.506C267.251 248.752 267.439 247.809 267.816 246.489C268.194 245.168 268.948 243.66 270.08 241.962C271.211 240.265 273.097 238.756 275.36 237.625C277.623 236.305 280.829 236.116 283.847 236.305C287.053 236.305 290.447 236.305 294.219 236.305C301.574 236.305 310.061 236.305 319.49 236.305C357.209 236.305 410.014 236.493 470.363 236.682H471.495L470.74 237.436C464.517 243.848 458.105 250.826 451.316 257.804L451.504 257.427C451.504 263.839 451.504 270.817 451.504 277.795C451.504 282.321 451.504 286.658 451.504 291.185C451.504 293.448 451.693 295.711 450.938 297.974C450.373 300.237 449.241 302.312 447.732 303.82C446.224 305.518 444.338 306.838 442.263 307.781C440.189 308.724 437.926 308.912 435.663 308.912C431.325 308.912 427.176 308.912 422.838 308.912C405.865 308.912 389.646 308.912 374.182 308.912C343.064 308.912 315.153 308.912 291.579 308.724C288.561 308.724 285.733 308.724 282.904 308.724C280.075 308.724 277.246 308.535 274.794 307.215C269.891 304.952 266.873 299.86 266.685 295.145C266.685 285.716 266.685 277.795 266.685 271.194C266.685 264.593 266.685 259.501 266.685 256.107C266.685 254.409 266.685 253.089 266.685 252.146C267.251 251.203 267.251 250.638 267.251 250.638C267.251 250.638 267.251 251.015 267.251 251.958C267.251 252.901 267.251 254.221 267.251 255.918C267.251 259.501 267.251 264.405 267.251 271.005C267.251 277.606 267.251 285.715 267.439 294.956C267.628 299.483 270.645 304.197 275.36 306.461C277.623 307.592 280.452 307.969 283.092 307.781C285.921 307.781 288.75 307.781 291.767 307.781C315.341 307.781 343.253 307.781 374.37 307.592C389.835 307.592 406.242 307.592 423.027 307.592C427.176 307.592 431.514 307.592 435.851 307.592C437.926 307.592 440 307.403 442.075 306.649C443.961 305.895 445.658 304.575 447.167 303.066C448.487 301.557 449.618 299.483 450.184 297.597C450.75 295.522 450.561 293.448 450.561 291.185C450.561 286.847 450.561 282.321 450.561 277.795C450.561 270.817 450.561 264.028 450.561 257.427V257.238L450.75 257.05C457.35 250.072 463.951 243.283 470.175 236.682L470.552 237.436C410.203 237.248 357.397 236.87 319.679 236.87C310.249 236.87 301.763 236.682 294.408 236.682C290.636 236.682 287.241 236.682 284.035 236.682C280.829 236.493 278 236.87 275.737 238.002C273.474 239.134 271.588 240.642 270.457 242.151C269.325 243.66 268.571 245.357 268.194 246.489C267.062 249.317 267.251 250.638 267.251 250.638Z" fill="#455A64"/>
<path d="M428.119 262.707L287.053 262.142V257.804L428.119 258.37V262.707Z" fill="#455A64"/>
<path d="M428.119 277.04L287.053 276.286V271.948L428.119 272.703V277.04Z" fill="#455A64"/>
<path d="M372.231 286.378L372.21 290.715L428.033 290.99L428.054 286.652L372.231 286.378Z" fill="#455A64"/>
<path d="M458.859 346.253V389.629C458.859 397.55 452.447 403.774 444.715 403.774H289.316C281.395 403.774 275.171 397.361 275.171 389.629V353.043L255.747 332.675L444.715 332.109C452.447 331.92 458.859 338.332 458.859 346.253Z" fill="#58E3A6"/>
<path d="M297.991 358.323L439.057 357.569V353.231L297.991 353.985V358.323Z" fill="white"/>
<path d="M297.991 372.467L439.057 371.902V367.564L297.991 368.13V372.467Z" fill="white"/>
<path d="M353.807 381.764L297.984 382.039L298.005 386.377L353.828 386.102L353.807 381.764Z" fill="white"/>
<path d="M374.37 180.105C377.011 178.973 378.897 176.333 378.897 173.127C378.897 168.978 375.691 165.583 371.73 165.394C367.77 165.394 364.564 168.789 364.564 172.938C364.564 176.144 366.45 178.973 369.09 180.105C358.152 181.802 358.529 193.683 358.529 193.683L384.554 193.872C384.554 193.872 385.309 181.802 374.37 180.105Z" fill="#58E3A6"/>
<path opacity="0.5" d="M374.37 180.105C377.011 178.973 378.897 176.333 378.897 173.127C378.897 168.978 375.691 165.583 371.73 165.394C367.77 165.394 364.564 168.789 364.564 172.938C364.564 176.144 366.45 178.973 369.09 180.105C358.152 181.802 358.529 193.683 358.529 193.683L384.554 193.872C384.554 193.872 385.309 181.802 374.37 180.105Z" fill="white"/>
<path d="M360.037 180.105C362.678 178.973 364.564 176.333 364.564 173.127C364.564 168.978 361.358 165.583 357.397 165.394C353.437 165.394 350.231 168.789 350.231 172.938C350.231 176.144 352.117 178.973 354.757 180.105C343.819 181.802 344.196 193.683 344.196 193.683L370.221 193.872C370.41 193.872 370.976 181.802 360.037 180.105Z" fill="#58E3A6"/>
<path d="M399.854 199.316L329.887 198.993L329.847 207.668L399.814 207.992L399.854 199.316Z" fill="#58E3A6"/>
<path opacity="0.3" d="M399.854 199.316L329.887 198.993L329.847 207.668L399.814 207.992L399.854 199.316Z" fill="white"/>
<path d="M270.457 444.886C270.457 444.886 270.457 444.509 270.457 443.943C270.457 443.189 270.645 442.246 271.4 441.115C272.154 439.983 273.286 438.663 275.171 437.909C277.057 437.154 279.32 437.343 281.961 437.343C292.145 437.343 306.855 437.343 325.148 437.343C361.923 437.343 413.032 437.531 470.74 437.72H471.872L471.118 438.474C465.083 445.075 458.671 451.864 452.07 458.842L452.258 458.465C452.258 459.031 452.258 459.597 452.258 460.162C452.258 464.123 452.258 468.272 452.258 472.232C452.258 473.175 452.258 474.118 452.258 475.25C452.258 476.381 451.881 477.324 451.504 478.267C450.561 480.153 448.864 481.662 446.978 482.416C446.035 482.793 444.903 482.982 443.96 482.793H440.943C439.057 482.793 436.983 482.793 435.097 482.793C431.136 482.793 427.364 482.793 423.593 482.793C408.317 482.793 393.607 482.793 379.651 482.793C351.739 482.793 326.468 482.793 305.157 482.605C299.877 482.605 294.785 482.605 290.07 482.605C287.618 482.605 285.355 482.605 283.092 482.605C281.961 482.605 280.829 482.605 279.698 482.605C278.566 482.605 277.435 482.605 276.492 482.416C274.417 482.039 272.531 480.53 271.4 478.833C270.834 477.89 270.457 476.947 270.268 476.004C270.08 475.061 270.079 474.118 270.079 473.175C270.079 469.592 270.079 466.197 270.079 463.368C270.079 457.522 270.079 452.807 270.079 449.79C270.079 448.281 270.079 447.15 270.079 446.207C270.457 445.452 270.457 444.886 270.457 444.886C270.457 444.886 270.457 445.264 270.457 446.018C270.457 446.772 270.457 448.092 270.457 449.601C270.457 452.807 270.457 457.333 270.457 463.18C270.457 466.197 270.457 469.403 270.457 472.986C270.457 473.929 270.457 474.872 270.645 475.627C270.834 476.57 271.211 477.324 271.588 478.267C272.531 479.964 274.229 481.096 276.303 481.473C277.246 481.662 278.378 481.662 279.509 481.662C280.641 481.662 281.772 481.662 282.904 481.662C285.167 481.662 287.43 481.662 289.882 481.662C294.596 481.662 299.688 481.662 304.969 481.662C326.091 481.662 351.362 481.662 379.462 481.473C393.418 481.473 408.128 481.473 423.404 481.473C427.176 481.473 431.136 481.473 434.908 481.473C436.794 481.473 438.869 481.473 440.754 481.473H443.772C444.715 481.473 445.658 481.473 446.601 481.096C448.298 480.53 449.807 479.21 450.561 477.513C450.938 476.758 451.127 475.815 451.316 474.872C451.316 473.929 451.316 472.986 451.316 471.855C451.316 467.895 451.316 463.934 451.316 459.785C451.316 459.219 451.316 458.654 451.316 458.088V458.276L451.504 458.088C458.105 451.11 464.517 444.132 470.552 437.72L470.929 438.474C413.22 438.286 362.112 438.097 325.337 437.909C307.043 437.72 292.333 437.72 282.149 437.531C279.698 437.531 277.246 437.154 275.549 438.097C273.851 438.852 272.531 439.983 271.965 441.115C271.211 442.246 271.022 443.189 271.022 443.943C270.457 444.698 270.457 444.886 270.457 444.886Z" fill="#455A64"/>
<path d="M434.342 456.39L293.465 455.825V451.487L434.342 452.053V456.39Z" fill="#455A64"/>
<path d="M377.198 465.761L377.177 470.099L434.32 470.378L434.342 466.041L377.198 465.761Z" fill="#455A64"/>
<path d="M453.956 522.397V552.195C453.956 556.344 450.561 559.738 446.412 559.738H280.263C276.114 559.738 272.72 556.344 272.72 552.195V535.976L253.672 515.608L446.412 515.042C450.561 514.854 453.956 518.06 453.956 522.397Z" fill="#58E3A6"/>
<path d="M290.07 533.713L430.948 533.147V528.809L290.07 529.375V533.713Z" fill="white"/>
<path d="M290.07 547.669L430.948 547.103V542.765L290.07 543.331V547.669Z" fill="white"/>
<path d="M681.208 166.149C693.394 166.149 703.273 156.27 703.273 144.084C703.273 131.897 693.394 122.018 681.208 122.018C669.022 122.018 659.143 131.897 659.143 144.084C659.143 156.27 669.022 166.149 681.208 166.149Z" fill="#E8505B"/>
<path d="M681.208 166.149C693.394 166.149 703.273 156.27 703.273 144.084C703.273 131.897 693.394 122.018 681.208 122.018C669.022 122.018 659.143 131.897 659.143 144.084C659.143 156.27 669.022 166.149 681.208 166.149Z" fill="#C7FCE5"/>
<path d="M673.853 137.86C674.607 137.86 675.362 138.803 675.55 139.935C675.55 141.066 674.985 142.198 674.23 142.198C673.476 142.198 672.722 141.255 672.533 140.123C672.344 138.803 673.099 137.86 673.853 137.86Z" fill="#263238"/>
<path d="M675.928 132.202C675.928 132.58 674.042 132.391 671.967 133.145C669.893 133.9 668.573 135.031 668.384 134.843C668.195 134.654 669.327 132.957 671.59 132.202C674.042 131.259 676.116 132.014 675.928 132.202Z" fill="#263238"/>
<path d="M691.958 141.255C691.769 141.443 690.449 140.123 688.563 139.935C686.677 139.746 685.169 140.689 684.98 140.5C684.791 140.312 685.169 139.935 685.734 139.557C686.3 139.18 687.432 138.803 688.563 138.803C689.695 138.992 690.638 139.557 691.203 140.123C691.958 140.689 692.146 141.066 691.958 141.255Z" fill="#263238"/>
<path d="M693.844 137.483C693.655 137.671 691.958 136.729 689.506 136.729C687.054 136.54 685.169 137.483 685.169 137.106C684.98 136.917 686.866 135.408 689.695 135.597C692.335 135.786 694.032 137.294 693.844 137.483Z" fill="#263238"/>
<path d="M692.335 143.706C692.524 143.706 692.524 145.592 691.015 148.044C689.506 150.307 686.3 153.325 681.774 153.513C677.248 153.702 673.853 151.061 672.156 148.798C670.458 146.535 670.458 144.649 670.458 144.649C670.647 144.649 671.024 146.347 672.722 148.233C674.419 150.307 677.625 152.57 681.585 152.382C685.546 152.193 688.752 149.741 690.261 147.667C691.769 145.404 692.146 143.706 692.335 143.706Z" fill="#263238"/>
<path d="M62.2521 535.41C61.6863 552.572 47.3534 566.15 30.1916 565.585C13.0298 565.019 -0.548715 550.686 0.0170586 533.524C0.582832 516.362 14.9158 502.784 32.0775 503.35C49.2393 503.915 62.6293 518.248 62.2521 535.41Z" fill="#E8505B"/>
<path d="M62.2521 535.41C61.6863 552.572 47.3534 566.15 30.1916 565.585C13.0298 565.019 -0.548715 550.686 0.0170586 533.524C0.582832 516.362 14.9157 502.784 32.0775 503.35C49.2393 503.915 62.6293 518.248 62.2521 535.41Z" fill="#C7FCE5"/>
<path d="M24.9111 525.981C23.7795 524.472 21.705 524.283 20.1963 525.226C18.6876 526.169 17.9332 527.489 17.556 529.375C17.3674 527.489 16.6131 526.169 15.1043 525.038C13.5956 523.906 11.5211 523.906 10.201 525.415C9.44661 526.358 9.25802 527.489 9.44661 528.621C9.63521 529.752 9.8238 530.884 10.5782 531.827C13.0298 535.033 14.35 535.599 17.556 537.862C20.7621 535.787 21.8936 535.222 24.3453 532.393C25.0997 531.638 25.4769 530.318 25.6654 529.187C25.854 528.055 25.6654 526.735 24.9111 525.981Z" fill="#58E3A6"/>
<path d="M52.4454 526.735C51.3138 525.226 49.2393 525.038 47.7306 525.981C46.2219 526.924 45.4675 528.244 45.0903 530.13C44.9017 528.244 44.1474 526.924 42.6386 525.792C41.1299 524.66 39.0554 524.66 37.7353 526.169C36.9809 527.112 36.7923 528.244 36.9809 529.375C37.1695 530.507 37.3581 531.638 38.1125 532.581C40.5641 535.787 41.8843 536.353 45.0903 538.616C48.2964 536.542 49.4279 535.976 51.8796 533.147C52.634 532.393 53.0112 531.073 53.1997 529.941C53.1997 528.809 53.0111 527.678 52.4454 526.735Z" fill="#58E3A6"/>
<path d="M41.558 542.871C40.9922 547.963 36.0427 553.055 30.9507 552.866C25.8588 552.677 21.3326 547.963 21.144 542.871H41.558Z" fill="white"/>
<path d="M149.004 538.993C149.57 535.787 148.25 524.095 148.25 524.095C148.25 524.095 135.991 522.774 135.237 510.705C134.482 498.635 135.237 470.723 135.237 470.723L157.491 459.785L182.007 478.267L178.236 538.805L149.004 538.993Z" fill="#B78876"/>
<path d="M138.82 490.903C138.82 491.846 139.574 492.411 140.329 492.411C141.272 492.411 141.838 491.657 141.838 490.903C141.838 490.148 141.083 489.394 140.329 489.394C139.574 489.394 138.82 490.148 138.82 490.903Z" fill="#263238"/>
<path d="M136.557 489.771C136.746 489.96 137.877 489.017 139.574 488.828C141.272 488.64 142.592 489.582 142.592 489.394C142.592 489.205 142.403 489.017 141.838 488.64C141.272 488.262 140.329 487.885 139.386 488.074C138.254 488.074 137.5 488.639 136.934 489.017C136.557 489.394 136.368 489.771 136.557 489.771Z" fill="#263238"/>
<path d="M158.434 492.223C159.267 492.223 159.942 491.547 159.942 490.714C159.942 489.881 159.267 489.205 158.434 489.205C157.6 489.205 156.925 489.881 156.925 490.714C156.925 491.547 157.6 492.223 158.434 492.223Z" fill="#263238"/>
<path d="M154.473 489.582C154.662 489.771 155.793 488.828 157.491 488.64C159.188 488.451 160.508 489.394 160.508 489.205C160.508 489.017 160.319 488.828 159.754 488.451C159.188 488.074 158.245 487.697 157.302 487.885C156.17 487.885 155.416 488.451 154.85 488.828C154.662 489.017 154.473 489.394 154.473 489.582Z" fill="#263238"/>
<path d="M148.815 503.538C148.815 503.538 147.684 503.35 146.175 503.161C145.798 503.161 145.421 503.161 145.232 502.784C145.044 502.407 145.232 502.029 145.421 501.464C145.798 500.332 146.175 499.201 146.552 498.069C148.061 493.166 149.193 489.017 149.193 489.017C149.004 489.017 147.495 492.977 145.987 497.88C145.609 499.012 145.232 500.332 144.855 501.275C144.666 501.841 144.478 502.407 144.666 502.972C144.855 503.35 145.044 503.538 145.421 503.538C145.609 503.538 145.987 503.538 146.175 503.538C147.684 503.727 148.815 503.538 148.815 503.538Z" fill="#263238"/>
<path d="M154.285 505.047C153.53 505.613 149.57 507.876 146.175 507.876C146.175 507.876 148.25 510.893 151.644 509.385C155.416 507.876 154.285 505.047 154.285 505.047Z" fill="white"/>
<path d="M148.438 524.095C148.438 524.095 156.548 524.095 164.468 518.626C164.468 518.626 160.885 527.489 148.627 527.112L148.438 524.095Z" fill="#A36957"/>
<path d="M198.226 487.319C198.226 487.319 203.13 515.231 179.556 520.323L180.31 486.754L198.226 487.319Z" fill="#263238"/>
<path d="M197.472 481.096C195.586 474.118 192.757 468.837 189.363 464.688C192.757 466.197 195.02 467.517 195.586 467.14C195.775 466.952 195.209 465.82 193.7 464.5C192.191 463.18 189.928 461.86 187.099 460.917C186.722 460.728 186.345 460.728 185.968 460.539C187.477 459.974 188.985 459.031 190.117 457.899C192.946 455.07 194.266 450.544 192.38 446.961C190.871 443.755 187.099 442.058 183.516 442.435C179.933 442.812 176.915 445.075 175.218 448.281C174.841 449.035 174.464 449.79 174.275 450.544C174.275 449.413 174.464 447.904 174.652 446.584C175.407 441.869 177.104 438.474 176.916 438.286C176.727 438.097 174.464 441.492 173.709 446.395C173.709 446.772 173.521 447.338 173.521 447.715C173.144 446.395 172.578 445.264 172.201 444.132C171.069 441.68 169.938 440.36 169.56 440.549C168.806 440.926 171.069 446.018 172.012 452.807C168.995 451.864 166.543 451.676 165.411 451.676C161.262 451.676 154.473 449.79 144.855 457.522C142.026 459.408 139.009 462.048 136.557 465.443C132.785 470.912 131.465 476.947 131.465 481.284C131.465 483.359 131.654 485.245 131.842 486.376C132.031 487.508 132.219 488.262 132.219 488.262C132.408 488.262 131.842 485.622 132.219 481.473C132.408 478.833 132.974 475.627 134.294 472.421C131.842 480.907 135.237 487.697 135.237 487.697L156.736 484.302C155.416 479.587 156.359 472.044 156.925 468.46C160.697 485.999 175.973 494.486 175.973 494.486L198.603 490.903C198.415 488.828 198.038 482.982 197.472 481.096Z" fill="#263238"/>
<path d="M249.712 751.347C250.466 751.724 306.1 762.662 304.026 755.119C301.951 747.764 250.089 735.694 250.089 735.694L249.712 751.347Z" fill="#58E3A6"/>
<path d="M274.983 746.255C275.171 746.255 275.549 747.575 275.549 749.272C275.549 750.97 275.171 752.29 274.794 752.29C274.606 752.29 274.417 750.97 274.417 749.272C274.794 747.764 274.794 746.444 274.983 746.255Z" fill="#263238"/>
<path d="M272.154 745.312C272.343 745.312 272.908 746.821 272.72 748.707C272.531 750.593 271.777 752.101 271.588 752.101C271.4 752.101 271.588 750.593 271.777 748.707C271.777 746.821 271.777 745.312 272.154 745.312Z" fill="#263238"/>
<path d="M268.571 744.935C268.759 744.935 269.137 746.444 269.325 748.329C269.325 750.215 269.137 751.724 268.759 751.724C268.571 751.724 268.382 750.215 268.382 748.329C268.194 746.632 268.194 745.123 268.571 744.935Z" fill="#263238"/>
<path d="M261.593 739.654C261.593 739.654 261.97 739.654 262.536 739.843C263.102 740.031 263.856 740.031 264.988 740.409C267.062 740.786 270.268 741.54 273.851 742.672C277.623 743.615 281.961 744.935 286.864 746.632C289.316 747.386 291.956 748.329 294.408 749.461C297.048 750.593 299.688 751.913 301.763 754.176C301.951 754.364 302.329 754.742 302.517 755.119C302.706 755.685 302.517 756.439 302.14 756.627C301.197 757.193 300.443 757.005 299.688 757.193C298.18 757.382 296.859 757.382 295.351 757.382C292.522 757.382 289.882 757.382 287.241 757.193C282.149 756.816 277.435 756.25 273.663 755.685C269.891 755.119 266.685 754.553 264.61 753.987C263.667 753.799 262.913 753.61 262.159 753.421C261.593 753.233 261.404 753.233 261.404 753.233C261.404 753.233 262.536 753.233 264.799 753.61C267.062 753.987 270.268 754.364 273.851 754.93C277.623 755.496 282.338 756.062 287.43 756.25C290.07 756.439 292.71 756.439 295.539 756.439C296.859 756.439 298.368 756.25 299.688 756.25C300.443 756.25 301.197 756.25 301.574 755.873C301.763 755.684 301.763 755.685 301.763 755.496C301.763 755.307 301.386 755.119 301.197 754.742C299.123 752.667 296.671 751.347 294.031 750.215C291.579 749.084 288.939 748.329 286.487 747.386C281.584 745.689 277.246 744.369 273.474 743.238C269.702 742.106 266.685 741.352 264.61 740.786C262.724 740.031 261.593 739.654 261.593 739.654Z" fill="#263238"/>
<path d="M291.39 747.952C291.579 747.952 291.202 750.215 291.39 752.667C291.579 755.307 292.333 757.382 292.145 757.382C291.956 757.57 290.636 755.496 290.447 752.667C290.07 749.838 291.013 747.764 291.39 747.952Z" fill="#263238"/>
<path d="M65.4582 740.22C64.7038 740.031 8.50366 747.952 12.8413 754.364C17.1788 760.776 69.9844 755.119 69.9844 755.119L65.4582 740.22Z" fill="#58E3A6"/>
<path d="M43.2044 753.233C43.0158 753.421 42.2615 752.29 41.6957 750.593C41.1299 749.084 41.1299 747.575 41.3185 747.575C41.5071 747.575 42.0729 748.707 42.6386 750.215C43.0158 751.724 43.393 753.044 43.2044 753.233Z" fill="#263238"/>
<path d="M46.2219 753.233C46.0333 753.421 45.0903 752.101 44.5246 750.215C43.9588 748.329 44.336 746.632 44.5246 746.632C44.7131 746.632 45.0903 748.141 45.4675 749.838C46.0333 751.536 46.5991 753.044 46.2219 753.233Z" fill="#263238"/>
<path d="M49.8051 752.29C49.6165 752.478 48.6736 751.158 48.1078 749.272C47.542 747.575 47.3534 745.878 47.542 745.878C47.7306 745.878 48.485 747.198 49.0507 748.895C49.6165 750.781 49.9937 752.101 49.8051 752.29Z" fill="#263238"/>
<path d="M58.1031 755.119C58.1031 755.119 57.7259 755.307 57.1602 755.307C56.5944 755.307 55.84 755.496 54.7085 755.685C52.634 755.873 49.4279 756.25 45.4675 756.439C41.5071 756.627 36.9809 756.816 31.889 757.005C29.2487 757.005 26.6084 757.005 23.7795 756.816C20.9507 756.627 17.9332 756.062 15.2929 754.742C14.9158 754.553 14.5386 754.364 14.1614 753.987C13.7842 753.61 13.7842 752.667 14.1614 752.29C14.7272 751.536 15.6701 751.347 16.2359 750.97C17.556 750.404 18.8762 749.838 20.1963 749.461C22.8366 748.518 25.4769 747.764 27.9285 747.009C32.8319 745.689 37.5467 744.746 41.3185 743.992C45.0903 743.238 48.2964 742.86 50.3709 742.483C51.3138 742.295 52.2568 742.295 52.8226 742.106C53.3883 742.106 53.7655 742.106 53.7655 742.106C53.7655 742.106 52.634 742.483 50.3709 742.86C48.1078 743.237 45.0903 743.803 41.3185 744.558C37.5467 745.312 33.0205 746.255 28.1171 747.764C25.6654 748.518 23.0252 749.272 20.5735 750.215C19.2533 750.781 17.9332 751.158 16.6131 751.724C15.8587 752.101 15.2929 752.29 14.9158 752.667C14.7272 752.856 14.7272 752.856 14.9158 753.044C15.1043 753.233 15.2929 753.421 15.6701 753.421C18.3104 754.742 21.1393 755.119 23.9681 755.307C26.797 755.496 29.4373 755.496 32.0775 755.496C37.1695 755.496 41.8843 755.307 45.6561 755.307C49.6165 755.119 52.634 754.93 54.8971 754.742C56.783 755.119 58.1031 755.119 58.1031 755.119Z" fill="#263238"/>
<path d="M27.3628 757.005C26.9856 757.005 26.9856 754.742 25.854 752.478C24.9111 750.027 23.4024 748.518 23.5909 748.141C23.7795 747.952 25.6655 749.461 26.797 751.913C27.9285 754.742 27.5514 757.005 27.3628 757.005Z" fill="#263238"/>
<path d="M239.905 671.95H211.239L105.628 674.59L75.4535 670.63C70.7387 669.687 67.7213 669.121 66.5897 669.498C63.7609 670.441 59.6118 673.27 56.2172 677.419C44.7132 691.186 51.8796 712.309 69.23 717.023L85.4488 721.361L49.8051 732.865L61.8749 767C61.8749 767 115.058 755.496 166.543 743.426L248.957 765.68L260.839 727.396C260.839 727.396 255.558 725.698 246.883 722.87C255.558 720.229 261.216 718.155 261.97 716.835C267.439 708.725 276.68 671.384 239.905 671.95Z" fill="#455A64"/>
<path opacity="0.2" d="M246.694 723.058L185.402 748.329L166.92 743.426L246.694 723.058Z" fill="black"/>
<path opacity="0.2" d="M86.0146 674.779L164.468 697.221L224.063 676.853L86.0146 674.779Z" fill="black"/>
<path d="M74.6991 764.548C74.5105 764.548 73.5676 762.662 72.2474 759.645C70.9273 756.627 69.0414 752.101 67.3441 747.198C65.6468 742.295 64.138 737.768 63.1951 734.562C62.2521 731.356 61.8749 729.282 61.8749 729.093C62.0635 729.093 62.6293 730.979 63.7608 734.185C64.8924 737.391 66.4011 741.917 68.0984 746.821C69.7958 751.724 71.4931 756.062 72.8132 759.268C74.1334 762.474 74.8877 764.548 74.6991 764.548Z" fill="#263238"/>
<path d="M263.856 684.774C263.856 684.774 263.667 684.774 263.29 684.963C262.913 685.151 262.347 685.34 261.782 685.529C260.461 686.094 258.575 686.66 256.124 687.603C251.032 689.3 243.865 691.752 235.19 694.77C217.463 700.616 192.946 708.725 165.6 717.212C138.443 725.699 113.549 733.242 95.6327 738.523C86.769 741.163 79.4139 743.237 74.322 744.746C71.8703 745.501 69.9844 745.878 68.4756 746.444C67.9099 746.632 67.3441 746.821 66.9669 746.821C66.5897 746.821 66.4011 747.009 66.4011 747.009C66.4011 747.009 66.5897 747.009 66.9669 746.821C67.3441 746.632 67.9099 746.444 68.4756 746.255C69.7958 745.878 71.8703 745.312 74.1334 744.558C79.2253 743.049 86.3918 740.786 95.2556 738.146C113.172 732.676 137.877 725.133 165.034 716.646C192.191 708.16 216.897 700.239 234.624 694.392C243.488 691.564 250.655 689.3 255.747 687.603C258.198 686.849 260.084 686.283 261.404 685.717C261.97 685.529 262.536 685.34 262.913 685.34C263.667 684.774 263.856 684.774 263.856 684.774Z" fill="#263238"/>
<path d="M206.713 683.266C206.713 683.266 206.336 683.454 205.581 683.831C204.638 684.209 203.507 684.586 201.998 685.151C198.981 686.283 194.454 687.792 188.985 689.678C178.047 693.449 162.771 698.353 145.798 703.822C128.825 709.291 113.549 714.006 102.422 717.401C96.7643 719.098 92.4267 720.418 89.2206 721.361C87.7119 721.738 86.5804 722.115 85.6374 722.304C84.8831 722.492 84.3173 722.681 84.3173 722.492C84.3173 722.492 84.6945 722.304 85.4488 721.927C86.3918 721.55 87.5233 721.172 89.0321 720.795C92.2381 719.852 96.7643 718.343 102.233 716.646C113.36 713.063 128.636 708.16 145.421 702.879C162.205 697.41 177.481 692.506 188.608 688.923C194.077 687.226 198.603 685.717 201.621 684.774C203.13 684.397 204.261 684.02 205.204 683.643C206.336 683.454 206.713 683.266 206.713 683.266Z" fill="#263238"/>
<path d="M163.903 697.221C163.903 697.41 146.364 692.695 124.676 686.472C103.176 680.248 85.6374 675.156 85.826 674.779C85.826 674.59 103.365 679.305 125.053 685.529C146.741 691.752 164.091 696.844 163.903 697.221Z" fill="#263238"/>
<path d="M249.712 724.944C249.9 725.133 246.883 733.431 242.922 743.615C238.962 753.799 235.567 762.097 235.19 762.097C235.002 761.908 238.019 753.61 241.979 743.426C245.94 733.054 249.334 724.756 249.712 724.944Z" fill="#263238"/>
<path d="M242.357 740.597C242.357 740.786 235.379 739.277 226.892 737.014C218.406 734.751 211.616 732.676 211.805 732.488C211.805 732.299 218.783 733.808 227.269 736.071C235.567 738.334 242.357 740.409 242.357 740.597Z" fill="#263238"/>
<path d="M125.053 709.48C125.053 709.48 123.921 709.291 122.035 708.914C119.961 708.348 117.321 707.782 114.115 707.028C107.514 705.331 98.273 703.068 88.2777 700.05C78.2824 697.033 69.4186 693.638 63.1951 690.809C59.989 689.3 57.5373 688.169 55.84 687.226C54.1427 686.283 53.1997 685.717 53.1997 685.717C53.1997 685.717 54.1427 686.094 55.84 686.849C57.5373 687.603 60.1776 688.735 63.1951 690.055C69.4186 692.695 78.2824 695.901 88.2777 698.919C98.273 701.936 107.514 704.388 113.926 706.274C117.132 707.217 119.772 707.971 121.658 708.537C123.921 708.914 125.053 709.291 125.053 709.48Z" fill="#263238"/>
<path d="M182.95 537.296H180.499L180.122 529.187L148.25 531.073C148.25 531.073 148.627 534.844 148.627 537.485C129.013 539.371 97.5187 549.366 96.7643 593.685L121.847 594.251C119.772 614.43 119.961 626.688 117.886 634.232C114.303 646.867 103.176 673.27 105.439 674.59C107.703 675.911 210.862 677.796 215.765 675.156C220.669 672.516 211.805 637.815 209.542 628.386C208.033 622.351 207.844 608.583 207.844 598.022L236.699 596.702C236.887 596.891 238.962 537.107 182.95 537.296Z" fill="#58E3A6"/>
<path d="M180.499 537.107C180.499 537.296 178.801 537.485 175.784 537.862C172.955 538.239 168.806 538.428 164.28 538.616C159.754 538.616 155.793 538.616 152.776 538.428C149.947 538.239 148.061 537.862 148.061 537.862C148.061 537.673 149.947 537.673 152.776 537.862C155.605 537.862 159.754 537.862 164.091 537.862C168.617 537.862 172.578 537.485 175.407 537.485C178.613 536.919 180.499 536.919 180.499 537.107Z" fill="#263238"/>
<path d="M154.096 530.884C154.285 530.884 154.662 532.393 154.662 534.279C154.662 536.164 154.473 537.673 154.096 537.673C153.907 537.673 153.53 536.164 153.53 534.279C153.719 532.393 153.907 530.884 154.096 530.884Z" fill="#263238"/>
<path d="M162.583 530.318C162.771 530.318 163.148 532.016 163.148 534.09C163.148 536.165 162.96 537.862 162.771 537.862C162.583 537.862 162.205 536.165 162.205 534.09C162.205 532.016 162.394 530.318 162.583 530.318Z" fill="#263238"/>
<path d="M171.446 529.941C171.635 529.941 172.012 531.638 172.201 533.713C172.201 535.787 172.012 537.485 171.635 537.485C171.446 537.485 171.258 535.787 171.258 533.713C171.069 531.827 171.069 530.13 171.446 529.941Z" fill="#263238"/>
<path d="M177.858 529.752C178.047 529.752 178.424 531.45 178.613 533.524C178.801 535.599 178.99 537.296 178.801 537.296C178.613 537.296 177.858 535.787 177.67 533.713C177.293 531.45 177.481 529.752 177.858 529.752Z" fill="#263238"/>
<path d="M125.996 593.873C125.807 593.873 125.43 589.536 125.43 584.444C125.43 579.163 125.619 575.014 125.807 575.014C125.996 575.014 126.373 579.352 126.373 584.444C126.562 589.536 126.373 593.873 125.996 593.873Z" fill="#263238"/>
<path d="M207.09 596.891C206.901 596.891 206.147 592.365 205.77 586.707C205.204 581.049 205.204 576.523 205.393 576.523C205.581 576.523 206.336 581.049 206.713 586.707C207.09 592.365 207.279 596.891 207.09 596.891Z" fill="#263238"/>
<path d="M125.996 593.873C125.996 594.062 124.299 594.062 121.658 594.062C118.641 594.062 115.058 594.062 111.286 594.062C107.514 594.062 103.931 594.062 100.913 594.062C98.273 594.062 96.5757 594.062 96.5757 593.873C96.5757 593.685 98.273 593.496 100.913 593.308C103.554 593.119 107.325 592.93 111.286 592.93C115.435 592.93 119.018 593.119 121.658 593.308C124.487 593.496 125.996 593.685 125.996 593.873Z" fill="#263238"/>
<path d="M236.887 596.891C236.887 597.079 229.91 597.457 221.423 597.457C212.936 597.457 205.959 597.268 205.959 596.891C205.959 596.702 212.936 596.325 221.423 596.325C230.098 596.514 236.887 596.702 236.887 596.891Z" fill="#263238"/>
<path d="M235.567 597.268C235.567 597.268 243.111 667.612 221.612 674.59C200.112 681.568 157.491 648.753 157.491 648.753L169.749 623.859C169.749 623.859 198.038 643.473 204.073 639.135C210.108 634.798 206.901 597.268 206.901 597.268H235.567V597.268Z" fill="#B78876"/>
<path d="M97.3301 593.873C97.3301 593.873 89.5978 663.652 111.286 670.441C132.785 677.419 175.407 644.604 175.407 644.604L163.148 619.71C163.148 619.71 134.671 637.815 128.825 633.289C125.43 630.649 125.242 594.062 125.242 594.062C115.058 593.685 105.817 593.308 97.3301 593.873Z" fill="#B78876"/>
<path d="M222.177 608.395L207.844 678.551C207.844 678.551 119.961 677.796 119.018 677.608C118.075 677.419 109.588 608.395 109.588 608.395H222.177Z" fill="#263238"/>
<path d="M158.999 643.85C158.999 646.49 161.451 648.753 164.28 648.753C167.109 648.753 169.56 646.49 169.56 643.85C169.56 641.21 167.109 638.947 164.28 638.947C161.451 638.947 158.999 641.21 158.999 643.85Z" fill="white"/>
<path d="M177.481 489.96C178.424 489.017 181.63 488.828 182.762 489.582C183.893 490.337 184.459 491.657 184.836 493.166C185.214 495.429 184.836 497.88 183.328 499.578C181.819 501.275 178.99 501.841 177.104 500.332" fill="#B78876"/>
<path d="M179.744 498.446C179.744 498.258 180.31 498.258 181.065 497.692C181.819 497.126 182.573 496.183 182.385 494.863C182.196 493.543 181.442 492.6 180.499 492.411C179.744 492.034 179.179 492.034 178.99 491.846C178.99 491.657 179.556 491.468 180.687 491.657C181.63 491.846 183.139 492.977 183.328 494.863C183.516 496.56 182.385 498.069 181.442 498.446C180.499 498.823 179.744 498.635 179.744 498.446Z" fill="#A36957"/>
<path d="M613.692 734.185L610.109 714.194L574.277 720.607L579.557 750.404L581.821 750.215C591.816 749.084 632.363 742.86 638.587 739.654C645.187 736.071 613.692 734.185 613.692 734.185Z" fill="#E8505B"/>
<path d="M638.775 737.768C638.775 738.146 625.574 740.786 608.978 743.803C592.57 746.821 579.18 749.084 578.992 748.707C578.992 748.329 592.193 745.689 608.789 742.672C625.385 739.466 638.775 737.391 638.775 737.768Z" fill="#263238"/>
<path d="M615.013 738.146C614.635 737.957 614.824 737.014 615.39 735.694C615.956 734.562 616.71 733.808 617.087 733.997C617.464 734.185 617.087 735.128 616.521 736.26C615.956 737.391 615.39 738.334 615.013 738.146Z" fill="#263238"/>
<path d="M617.464 739.088C617.087 739.088 617.087 737.768 617.464 736.448C617.841 735.128 618.784 734.185 618.973 734.374C619.35 734.562 618.973 735.694 618.596 736.825C618.407 738.146 617.841 739.088 617.464 739.088Z" fill="#263238"/>
<path d="M589.93 746.632C589.741 746.821 589.176 746.255 588.233 745.689C587.29 744.935 585.97 743.992 584.461 743.049C582.952 742.295 581.443 741.917 580.312 742.106C579.18 742.106 578.426 742.483 578.426 742.295C578.426 742.106 578.992 741.54 580.123 741.163C581.443 740.786 583.329 740.974 585.027 741.917C586.724 742.86 588.044 743.992 588.798 744.935C589.553 745.878 590.119 746.444 589.93 746.632Z" fill="#263238"/>
<path d="M614.447 734.374C614.635 734.562 614.258 735.505 613.315 736.071C612.372 736.637 611.429 736.637 611.241 736.448C611.052 736.071 611.807 735.694 612.561 735.128C613.504 734.562 614.258 734.185 614.447 734.374Z" fill="#263238"/>
<path d="M613.504 732.676C613.504 733.054 612.75 733.431 611.429 733.619C610.298 733.808 609.166 733.808 609.166 733.431C609.166 733.054 610.109 732.676 611.241 732.488C612.372 732.299 613.504 732.299 613.504 732.676Z" fill="#263238"/>
<path d="M656.691 523.717C645.564 501.275 586.347 414.9 586.347 414.9L554.663 418.295V418.106L519.208 422.067L499.595 424.141L570.317 733.054L619.162 732.111L607.469 674.968C615.578 654.788 662.726 535.976 656.691 523.717ZM606.149 537.107L588.61 584.067L568.808 487.885L606.149 537.107Z" fill="#263238"/>
<path d="M566.922 272.137C566.545 268.931 568.242 255.541 568.242 255.541C568.242 255.541 580.5 254.598 581.632 242.528C582.764 230.458 582.952 202.17 582.952 202.17L560.887 190.477L535.616 208.393L529.015 225.366L537.69 246.489L537.502 253.466V269.497L566.922 272.137Z" fill="#FFBE9D"/>
<path d="M581.255 222.537C581.255 223.48 580.5 224.046 579.557 224.046C578.614 224.046 578.049 223.292 578.049 222.349C578.049 221.406 578.803 220.84 579.746 220.84C580.689 221.029 581.255 221.783 581.255 222.537Z" fill="#263238"/>
<path d="M581.443 221.029C581.255 221.217 580.123 220.274 578.426 220.086C576.729 219.897 575.408 220.652 575.22 220.463C575.22 220.274 575.408 220.086 575.974 219.709C576.54 219.331 577.483 218.954 578.426 219.143C579.557 219.331 580.312 219.709 580.878 220.086C581.443 220.463 581.443 220.84 581.443 221.029Z" fill="#263238"/>
<path d="M561.641 220.652C562.396 221.217 562.396 222.16 562.018 222.915C561.453 223.669 560.51 223.669 559.755 223.292C559.001 222.726 559.001 221.783 559.378 221.029C559.944 220.274 560.887 220.274 561.641 220.652Z" fill="#263238"/>
<path d="M562.773 220.463C562.584 220.652 561.453 219.709 559.755 219.52C558.058 219.331 556.738 220.086 556.549 219.897C556.549 219.709 556.738 219.52 557.304 219.143C557.87 218.766 558.812 218.388 559.755 218.577C560.887 218.766 561.641 219.143 562.207 219.52C562.773 219.897 562.961 220.274 562.773 220.463Z" fill="#263238"/>
<path d="M568.431 234.796C568.431 234.796 569.562 234.607 571.259 234.607C571.637 234.607 572.202 234.607 572.202 234.23C572.391 233.853 572.202 233.476 572.014 232.91C571.637 231.778 571.26 230.647 570.882 229.327C569.374 224.235 568.431 220.274 568.619 220.274C568.619 220.274 568.996 221.217 569.562 222.915C570.128 224.612 570.694 226.875 571.448 229.327C571.825 230.647 572.202 231.778 572.391 232.91C572.58 233.476 572.768 234.042 572.58 234.607C572.391 234.984 572.202 235.173 571.825 235.173C571.637 235.173 571.259 235.173 571.071 235.173C569.374 234.984 568.431 234.796 568.431 234.796Z" fill="#263238"/>
<path d="M562.773 236.116C561.076 234.984 567.299 239.134 570.882 239.134C570.882 239.134 568.619 242.151 565.225 240.454C561.641 238.945 562.773 236.116 562.773 236.116Z" fill="white"/>
<path d="M568.242 255.541C568.242 255.541 559.944 255.352 552.212 249.506C552.212 249.506 555.606 258.558 567.865 258.37L568.242 255.541Z" fill="#EB996E"/>
<path d="M539.199 228.761C539.199 228.761 539.01 228.95 538.822 229.138C538.445 229.327 538.067 229.327 537.502 229.327C536.37 228.95 535.427 227.252 535.239 225.366C535.239 224.423 535.239 223.48 535.616 222.726C535.804 221.972 536.37 221.406 536.936 221.217C537.502 221.029 537.879 221.406 538.067 221.595C538.256 221.783 538.256 222.16 538.256 222.16C538.256 222.16 538.445 221.972 538.445 221.595C538.445 221.406 538.256 221.217 538.067 221.029C537.879 220.84 537.502 220.84 537.124 220.84C536.37 221.029 535.616 221.783 535.427 222.538C535.05 223.292 534.861 224.423 535.05 225.555C535.239 227.629 536.37 229.515 537.879 229.893C538.633 230.081 539.199 229.704 539.576 229.515C539.199 229.138 539.199 228.761 539.199 228.761Z" fill="#EB996E"/>
<path d="M586.158 204.244C585.404 204.433 584.65 204.621 584.084 204.621C586.347 203.49 588.233 201.604 589.553 199.341C591.25 196.135 591.439 191.986 589.553 188.968C587.667 185.951 583.141 184.442 580.123 186.328C581.632 183.876 580.5 180.293 578.049 178.784C575.597 177.087 572.391 177.087 569.751 178.03C566.922 178.973 564.659 180.67 562.207 182.368C562.019 180.482 560.51 178.784 558.812 177.841C557.115 176.898 555.041 176.898 552.966 177.087C547.308 178.03 542.405 182.745 541.462 188.403C539.765 186.517 536.936 185.762 534.484 186.328C532.033 186.894 529.958 188.78 529.015 191.231V191.42C528.072 191.797 526.941 192.552 526.375 193.872C525.432 195.569 525.055 197.832 525.809 199.907C526.563 201.981 528.072 203.678 529.581 204.621C530.335 205.187 530.901 205.753 531.278 206.319C531.655 206.884 531.844 207.45 532.033 208.205C531.844 212.354 529.769 216.125 528.827 220.086C527.506 225.555 530.524 233.099 532.221 238.568C533.918 244.037 534.673 246.111 538.067 246.489L538.633 231.967C534.861 234.985 529.769 224.423 533.164 220.274C536.559 216.125 539.953 217.446 540.519 220.086C540.896 221.783 541.462 223.103 541.462 223.103H545.234L544.857 219.897C544.857 219.897 544.102 205.753 550.892 204.81C553.343 204.433 553.909 204.81 555.984 205.753C558.247 206.884 560.51 206.884 562.962 206.696C565.413 206.696 568.619 203.867 568.619 201.604C571.26 204.81 575.786 206.507 579.935 206.13C581.066 205.941 582.009 205.753 583.141 205.376C584.084 205.753 585.592 205.753 587.101 205.187C588.61 204.621 589.741 203.678 590.307 202.924C590.873 202.17 591.062 201.415 590.873 201.415C590.119 201.227 588.798 203.49 586.158 204.244ZM529.958 203.867C528.449 202.735 527.318 201.415 526.563 199.529C525.998 197.643 526.186 195.758 526.941 194.249C527.318 193.494 527.884 192.929 528.638 192.363C528.072 196.701 530.712 201.038 531.467 205.376C531.09 204.81 530.524 204.244 529.958 203.867Z" fill="#263238"/>
<path d="M650.845 221.972V246.3C650.845 251.769 655.371 256.295 660.84 256.295H702.896V270.251L710.44 257.05C715.155 256.672 718.738 252.901 718.738 248.186V222.16C718.738 216.691 714.212 212.165 708.742 212.165H660.84C655.371 211.976 650.845 216.503 650.845 221.972Z" fill="#58E3A6"/>
<path d="M673.853 235.362C673.853 237.625 671.967 239.511 669.704 239.511C667.441 239.511 665.555 237.625 665.555 235.362C665.555 233.099 667.441 231.213 669.704 231.213C671.967 231.401 673.853 233.099 673.853 235.362Z" fill="white"/>
<path d="M689.506 235.362C689.506 237.625 687.62 239.511 685.357 239.511C683.094 239.511 681.208 237.625 681.208 235.362C681.208 233.099 683.094 231.213 685.357 231.213C687.62 231.401 689.506 233.099 689.506 235.362Z" fill="white"/>
<path d="M705.159 235.362C705.159 237.625 703.273 239.511 701.01 239.511C698.747 239.511 696.861 237.625 696.861 235.362C696.861 233.099 698.747 231.213 701.01 231.213C703.273 231.401 705.159 233.099 705.159 235.362Z" fill="white"/>
<path d="M684.226 294.202C683.471 292.316 629.911 339.653 619.162 341.161L587.856 300.426C587.856 300.426 581.443 290.053 567.488 272.514C558.435 261.199 533.73 263.462 527.129 277.418C516.002 300.991 515.625 332.109 507.138 382.274L499.972 424.707C499.972 424.707 510.722 423.387 510.722 423.576L586.724 415.655L588.61 364.735C603.697 380.011 608.223 383.217 616.144 381.897C635.758 378.88 704.593 317.022 704.593 317.022C704.593 317.022 684.98 296.088 684.226 294.202Z" fill="#455A64"/>
<path d="M695.164 325.697C695.164 325.885 693.655 324.754 691.392 322.679C689.129 320.605 686.111 317.776 683.094 314.193C680.077 310.61 677.625 307.215 676.116 304.763C674.419 302.123 673.664 300.614 673.853 300.426C674.042 300.426 674.985 301.934 676.682 304.386C678.379 306.838 680.831 310.044 683.848 313.627C686.866 317.022 689.695 320.039 691.769 322.114C693.844 324.377 695.352 325.508 695.164 325.697Z" fill="#263238"/>
<path d="M615.956 357.38C615.767 357.38 616.144 353.608 616.899 349.271C617.653 344.745 618.596 341.161 618.784 341.35C618.973 341.35 618.596 345.122 617.842 349.459C617.087 353.797 616.333 357.38 615.956 357.38Z" fill="#263238"/>
<path d="M622.933 355.683C622.745 355.683 621.613 352.665 620.482 348.705C619.35 344.745 618.784 341.538 618.973 341.538C619.162 341.538 620.293 344.556 621.425 348.516C622.556 352.288 623.122 355.683 622.933 355.683Z" fill="#263238"/>
<path opacity="0.2" d="M548.063 311.364L587.667 386.235L588.61 363.981L548.063 311.364Z" fill="black"/>
<path d="M545.423 307.781C545.423 307.781 546.177 308.535 547.308 310.044C548.44 311.741 550.137 313.816 552.023 316.456C555.984 321.736 561.641 329.091 567.865 337.201C574.088 345.122 579.746 352.288 583.895 357.757C585.781 360.209 587.478 362.472 588.798 363.981C589.93 365.49 590.496 366.244 590.496 366.433C590.496 366.433 589.741 365.678 588.61 364.358C587.29 362.849 585.592 360.775 583.518 358.323C579.369 353.231 573.523 346.065 567.299 337.955C561.076 329.846 555.606 322.491 551.646 317.022C549.76 314.381 548.251 312.118 547.12 310.421C545.988 308.535 545.423 307.781 545.423 307.781Z" fill="#263238"/>
<path d="M546.743 331.166C546.743 331.166 546.365 330.412 545.988 328.903C545.611 327.394 545.045 325.32 544.48 322.679L545.045 322.868C542.782 324.188 540.142 325.508 537.313 327.206L536.747 327.583L536.559 327.017C536.182 326.074 535.993 324.942 535.616 323.811C535.239 322.114 534.673 320.416 534.296 318.908L535.05 319.096C532.221 320.605 529.581 322.114 527.318 323.434L526.752 323.622V323.057C526.186 318.719 525.809 316.079 525.998 316.079C526.186 316.079 526.752 318.719 527.506 323.057L526.941 322.868C529.204 321.548 531.655 320.039 534.484 318.342L535.05 317.965L535.239 318.53C535.616 320.039 536.182 321.736 536.559 323.434C536.936 324.565 537.124 325.508 537.502 326.64L536.747 326.263C539.576 324.754 542.216 323.434 544.668 322.114L545.234 321.925L545.423 322.491C545.988 325.131 546.365 327.206 546.554 328.714C546.743 330.223 546.743 331.166 546.743 331.166Z" fill="#263238"/>
<path d="M555.984 288.733C555.984 288.733 555.229 288.356 553.909 287.601C552.589 286.847 550.703 285.527 548.629 284.207L549.194 284.018C548.44 286.47 547.497 289.487 546.554 292.505L546.365 293.071L545.8 292.693C544.857 292.128 543.914 291.562 542.971 290.996C541.462 290.053 539.953 289.299 538.633 288.356L539.388 288.167C538.445 291.373 537.69 294.202 536.936 296.654L536.747 297.22L536.37 296.842C532.975 294.202 530.901 292.505 530.901 292.316C530.901 292.128 533.164 293.636 536.747 296.277L536.181 296.465C536.936 294.014 537.69 291.185 538.445 287.979L538.633 287.413L539.199 287.79C540.519 288.544 542.028 289.487 543.537 290.242C544.48 290.807 545.423 291.373 546.365 291.939L545.611 292.128C546.554 289.11 547.497 286.281 548.44 283.641L548.629 283.075L549.006 283.452C551.269 284.961 552.966 286.281 554.098 287.224C555.418 288.167 556.172 288.733 555.984 288.733Z" fill="#263238"/>
<path d="M583.895 303.254C583.895 303.254 583.141 302.689 582.009 301.746C580.878 300.614 579.369 299.105 577.483 297.22H578.049C576.729 299.483 575.22 302.123 573.711 304.952L573.334 305.518L572.957 305.14C572.202 304.386 571.26 303.632 570.505 302.877C569.185 301.746 568.053 300.614 566.733 299.483L567.488 299.294C565.979 302.123 564.47 304.763 563.15 307.026L562.962 307.592L562.584 307.215C559.755 303.82 558.058 301.746 558.247 301.557C558.435 301.369 560.321 303.443 563.15 306.649H562.584C563.716 304.386 565.225 301.746 566.733 298.917L567.111 298.351L567.488 298.728C568.619 299.86 569.939 300.991 571.259 302.123C572.014 302.877 572.957 303.632 573.711 304.386L572.957 304.575C574.654 301.746 576.163 299.294 577.483 297.031L577.672 296.654L578.049 297.031C579.746 299.105 581.255 300.614 582.198 301.746C583.329 302.5 583.895 303.254 583.895 303.254Z" fill="#E0E0E0"/>
<path d="M657.068 350.968C657.068 350.968 656.503 350.402 655.56 349.082C654.617 347.951 653.297 346.065 651.599 343.99H652.165C650.656 346.065 648.77 348.516 646.885 350.968L646.507 351.534L646.13 351.157C645.376 350.402 644.81 349.459 644.056 348.705C642.924 347.385 641.793 346.065 640.85 344.745H641.604C639.718 347.385 637.832 349.836 636.323 351.911L635.946 352.288L635.758 351.911C633.495 348.139 631.986 345.876 632.174 345.876C632.363 345.876 633.872 347.951 636.323 351.534H635.758C637.266 349.459 638.964 347.008 640.85 344.367L641.227 343.802L641.604 344.367C642.736 345.687 643.678 346.819 644.81 348.328C645.564 349.271 646.319 350.025 646.885 350.968H646.13C648.205 348.516 649.902 346.065 651.599 343.99L651.977 343.613L652.354 343.99C653.862 346.253 655.183 347.951 655.937 349.271C656.691 350.214 657.068 350.968 657.068 350.968Z" fill="#263238"/>
<path d="M611.807 347.196C611.807 347.196 611.052 346.819 609.921 345.876C608.789 344.933 607.092 343.613 605.017 341.916L605.583 341.727C604.451 344.179 603.32 346.819 602 349.836L601.811 350.402L601.245 350.025C600.302 349.459 599.548 348.705 598.605 348.139C597.285 347.196 595.776 346.065 594.456 345.122L595.211 344.933C593.89 347.951 592.759 350.591 591.816 353.043L591.627 353.608L591.25 353.231C588.044 350.214 586.158 348.328 586.347 348.139C586.535 347.951 588.61 349.836 591.816 352.665L591.25 352.854C592.193 350.402 593.325 347.762 594.456 344.556L594.645 343.99L595.211 344.367C596.531 345.31 597.851 346.253 599.36 347.385C600.302 348.139 601.245 348.705 602 349.271L601.245 349.459C602.566 346.442 603.886 343.802 604.829 341.35L605.017 340.784L605.394 341.161C607.469 342.859 608.978 344.367 610.109 345.499C611.241 346.442 611.807 347.008 611.807 347.196Z" fill="#E0E0E0"/>
<path d="M676.682 336.446C676.682 336.446 676.493 335.692 676.116 334.183C675.928 332.675 675.55 330.412 675.173 327.771L675.739 328.148C673.287 329.28 670.647 330.412 667.63 331.732L667.064 331.92L666.875 331.355C666.687 330.223 666.498 329.28 666.309 328.148C665.932 326.451 665.744 324.754 665.366 323.245L666.121 323.622C663.103 324.942 660.463 326.074 658.011 327.206L657.446 327.394V326.828C657.257 322.491 657.257 319.662 657.257 319.662C657.446 319.662 657.634 322.302 658.2 326.64L657.634 326.263C659.897 325.131 662.726 323.811 665.555 322.491L666.121 322.302L666.309 322.868C666.687 324.377 666.875 326.074 667.252 327.771C667.441 328.903 667.63 330.034 667.818 330.977L667.064 330.6C670.081 329.469 672.91 328.337 675.173 327.206L675.739 327.017V327.583C675.928 330.223 676.116 332.486 676.305 333.995C676.682 335.692 676.682 336.446 676.682 336.446Z" fill="#E0E0E0"/>
<path d="M586.158 316.456C586.158 316.456 585.404 317.022 584.084 317.776C582.764 318.53 580.878 319.662 578.426 320.793L578.615 320.228C580.5 322.114 582.575 324.188 584.838 326.64L585.215 327.017L584.649 327.394C583.706 327.96 582.764 328.526 581.821 329.091C580.312 330.034 578.803 330.789 577.483 331.732V330.977C579.746 333.24 581.821 335.315 583.706 337.201L584.084 337.578L583.518 337.767C579.557 339.464 576.917 340.596 576.917 340.407C576.917 340.218 579.18 339.087 583.141 337.012L582.952 337.578C581.066 335.881 578.992 333.806 576.54 331.543L576.163 331.166L576.729 330.789C578.049 329.846 579.557 329.091 581.066 328.149C582.009 327.583 582.952 327.017 583.895 326.451L583.706 327.206C581.443 324.942 579.369 322.679 577.672 320.793L577.294 320.416L577.86 320.228C580.312 319.096 582.198 318.153 583.706 317.399C585.404 316.644 586.158 316.267 586.158 316.456Z" fill="#263238"/>
<path d="M620.859 357.38C620.859 357.38 620.105 357.946 618.784 358.7C617.464 359.455 615.578 360.586 613.127 361.718L613.315 361.152C615.201 363.038 617.276 365.112 619.539 367.564L619.916 367.941L619.35 368.318C618.407 368.884 617.464 369.45 616.521 370.016C615.013 370.959 613.504 371.713 612.184 372.656V371.902C614.447 374.165 616.521 376.239 618.407 378.125L618.784 378.502L618.219 378.691C614.258 380.388 611.618 381.52 611.618 381.331C611.618 381.143 613.881 380.011 617.841 377.937L617.653 378.502C615.767 376.805 613.692 374.731 611.241 372.467L610.864 372.09L611.429 371.713C612.75 370.77 614.258 370.016 615.767 369.073C616.71 368.507 617.653 367.941 618.596 367.375L618.407 368.13C616.144 365.678 614.07 363.604 612.372 361.718L611.995 361.341L612.561 361.152C615.013 360.02 616.899 359.077 618.407 358.323C619.916 357.569 620.859 357.38 620.859 357.38Z" fill="#E0E0E0"/>
<path d="M552.023 356.814C552.023 356.814 551.646 356.06 551.269 354.551C550.892 353.043 550.326 350.968 549.76 348.328L550.326 348.516C548.063 349.836 545.423 351.157 542.594 352.854L542.028 353.231L541.839 352.665C541.462 351.722 541.273 350.591 540.896 349.459C540.519 347.762 539.953 346.065 539.576 344.556L540.331 344.745C537.502 346.253 534.861 347.762 532.598 349.082L532.033 349.271V348.705C531.467 344.367 531.09 341.727 531.278 341.727C531.467 341.727 532.033 344.367 532.787 348.705L532.221 348.516C534.484 347.196 536.936 345.687 539.765 343.99L540.331 343.613L540.519 344.179C540.896 345.687 541.462 347.385 541.839 349.082C542.216 350.214 542.405 351.157 542.782 352.288L542.028 351.911C544.857 350.402 547.497 349.082 549.949 347.762L550.514 347.573L550.703 348.139C551.269 350.779 551.646 352.854 551.835 354.363C552.023 355.871 552.212 356.814 552.023 356.814Z" fill="#E0E0E0"/>
<path d="M583.518 374.542C583.518 374.542 583.141 373.788 582.764 372.279C582.386 370.77 581.821 368.696 581.255 366.055L581.821 366.244C579.557 367.564 576.917 368.884 574.088 370.582L573.523 370.959L573.334 370.393C572.957 369.45 572.768 368.318 572.391 367.187C572.014 365.49 571.448 363.792 571.071 362.284L571.825 362.661C568.996 364.169 566.356 365.678 564.093 366.998L563.527 367.187V366.621C562.961 362.283 562.584 359.643 562.773 359.643C562.961 359.643 563.527 362.283 564.282 366.621L563.716 366.433C565.979 365.112 568.431 363.604 571.259 361.906L571.825 361.529L572.014 362.095C572.391 363.604 572.957 365.301 573.334 366.998C573.711 368.13 573.9 369.073 574.277 370.204L573.523 369.827C576.351 368.318 578.992 366.998 581.443 365.678L582.009 365.49L582.198 366.055C582.764 368.696 583.141 370.77 583.329 372.279C583.518 373.788 583.706 374.542 583.518 374.542Z" fill="#263238"/>
<path d="M537.502 413.957C537.502 413.957 537.125 413.203 536.747 411.694C536.37 410.186 535.804 408.111 535.239 405.471L535.804 405.659C533.541 406.98 530.901 408.3 528.072 409.997L527.506 410.374L527.318 409.808C526.941 408.865 526.752 407.734 526.375 406.602C525.998 404.905 525.432 403.208 525.055 401.699L525.809 402.076C522.98 403.585 520.34 405.094 518.077 406.414L517.511 406.602V406.037C516.945 401.699 516.568 399.059 516.757 399.059C516.945 399.059 517.511 401.699 518.265 406.037L517.7 405.848C519.963 404.528 522.414 403.019 525.243 401.322L525.809 400.945L525.998 401.51C526.375 403.019 526.941 404.716 527.318 406.414C527.695 407.545 527.884 408.488 528.261 409.62L527.506 409.243C530.335 407.734 532.975 406.414 535.427 405.094L535.993 404.905L536.182 405.471C536.747 408.111 537.124 410.186 537.313 411.694C537.502 413.014 537.502 413.957 537.502 413.957Z" fill="#E0E0E0"/>
<path d="M538.256 372.656C538.256 372.656 537.502 372.279 536.181 371.336C535.05 370.393 533.164 369.073 531.09 367.375L531.655 367.187C530.712 369.639 529.392 372.467 528.261 375.296L528.072 375.862L527.506 375.485C526.563 374.919 525.809 374.165 524.866 373.599C523.357 372.656 522.037 371.524 520.717 370.581L521.471 370.393C520.34 373.41 519.208 376.239 518.265 378.502L518.077 379.068L517.7 378.691C514.494 375.673 512.608 373.788 512.608 373.599C512.796 373.41 514.871 375.296 518.077 378.125L517.511 378.314C518.454 375.862 519.397 373.033 520.528 370.016L520.717 369.45L521.283 369.827C522.603 370.77 523.923 371.713 525.432 372.845C526.375 373.599 527.318 374.165 528.072 374.73L527.318 374.919C528.638 371.902 529.769 369.261 530.901 366.81L531.09 366.244L531.467 366.621C533.541 368.318 535.05 369.827 536.181 370.77C537.879 372.09 538.445 372.656 538.256 372.656Z" fill="#263238"/>
<path d="M554.852 373.788C554.852 373.788 554.286 374.353 552.966 375.296C551.646 376.239 549.76 377.371 547.497 378.691V378.125C549.383 379.822 551.646 381.897 554.098 383.971L554.475 384.349L553.909 384.726C552.966 385.292 552.212 386.046 551.269 386.612C549.76 387.555 548.44 388.686 547.12 389.629V388.875C549.571 390.949 551.835 393.024 553.72 394.721L554.098 395.098L553.72 395.287C549.949 397.361 547.497 398.493 547.308 398.304C547.308 398.116 549.571 396.796 553.343 394.533V395.098C551.269 393.401 549.006 391.515 546.554 389.441L545.988 389.063L546.554 388.686C547.874 387.743 549.194 386.8 550.703 385.669C551.646 385.103 552.589 384.349 553.343 383.783V384.537C550.892 382.274 548.817 380.388 546.931 378.502L546.554 378.125L546.931 377.937C549.194 376.616 551.08 375.485 552.4 374.73C553.909 374.165 554.852 373.788 554.852 373.788Z" fill="#263238"/>
<path d="M572.957 386.612C572.957 386.612 572.58 387.366 571.637 388.686C570.694 390.006 569.374 391.704 567.676 393.778L567.488 393.212C569.939 394.155 572.768 395.287 575.786 396.418L576.351 396.607L575.974 397.173C575.408 398.116 574.654 399.059 574.088 399.813C573.145 401.322 572.202 402.642 571.259 403.962L571.071 403.208C574.088 404.339 576.917 405.471 579.369 406.414L579.935 406.602L579.557 406.98C576.54 410.186 574.654 412.26 574.654 412.072C574.466 411.883 576.163 409.808 578.992 406.414L579.18 406.98C576.729 406.037 573.9 405.094 570.882 403.962L570.316 403.774L570.694 403.208C571.637 401.888 572.58 400.379 573.523 399.059C574.088 398.116 574.843 397.173 575.408 396.418L575.597 397.173C572.58 395.853 569.939 394.721 567.488 393.778L566.922 393.59L567.299 393.212C568.996 391.138 570.505 389.441 571.448 388.309C572.202 387.177 572.957 386.612 572.957 386.612Z" fill="#E0E0E0"/>
<path d="M562.584 417.352C562.584 417.352 562.584 417.541 562.773 417.918C562.961 418.295 563.15 419.049 563.339 419.804C563.716 421.501 564.47 423.953 565.225 426.97C565.979 430.176 566.922 433.948 567.676 438.474C568.053 440.737 567.865 443.378 566.733 445.829C565.602 448.281 563.904 450.544 561.83 452.619L562.019 452.241C566.922 475.627 573.9 508.63 581.632 545.028C589.176 580.861 595.776 613.11 600.491 636.684C602.754 648.376 604.64 657.994 605.96 664.595C606.526 667.801 607.092 670.441 607.28 672.139C607.658 673.836 607.658 674.779 607.658 674.779C607.658 674.779 607.469 673.836 607.092 672.139C606.715 670.441 606.149 667.801 605.583 664.595C604.263 657.994 602.188 648.565 599.737 636.872C594.833 613.298 588.044 581.049 580.689 545.217C573.145 508.819 566.356 476.004 561.453 452.43V452.241L561.641 452.053C565.602 448.092 568.431 443 567.299 438.474C566.733 433.948 565.79 429.988 565.036 426.97C564.282 423.953 563.716 421.501 563.339 419.804C563.15 419.049 562.961 418.484 562.961 417.918C562.584 417.541 562.584 417.352 562.584 417.352Z" fill="#455A64"/>
<path d="M522.98 421.878C522.98 421.878 523.357 422.255 523.546 423.198C523.923 424.141 524.112 425.273 524.3 426.97C524.489 430.176 523.735 434.891 520.717 439.04C517.511 443 513.173 444.886 509.967 445.452C508.27 445.829 506.95 445.829 506.196 445.641C505.253 445.641 504.875 445.452 504.875 445.452C504.875 445.264 506.95 445.452 509.967 444.886C512.985 444.132 517.134 442.246 520.151 438.474C523.169 434.702 523.923 430.176 523.923 427.159C523.546 423.764 522.792 421.878 522.98 421.878Z" fill="#455A64"/>
<path d="M554.475 423.953C554.475 423.953 554.475 423.764 554.852 423.387C555.229 423.198 555.984 423.01 556.738 423.198C557.492 423.387 558.624 424.141 558.624 425.273C558.812 426.404 558.247 427.725 556.927 428.29C555.606 428.856 554.286 428.29 553.532 427.347C552.778 426.404 552.778 425.273 553.155 424.519C553.909 423.01 555.229 423.01 555.041 423.01C555.041 423.198 554.098 423.387 553.721 424.707C553.532 425.273 553.532 426.027 554.098 426.782C554.663 427.347 555.606 427.725 556.361 427.347C557.115 426.97 557.681 426.027 557.492 425.273C557.492 424.519 556.927 423.953 556.361 423.764C555.418 423.387 554.663 424.141 554.475 423.953Z" fill="#455A64"/>
<path d="M594.456 428.102C594.456 428.102 593.136 429.045 590.873 429.422C588.421 429.799 585.027 429.422 581.821 427.347C578.615 425.273 576.917 422.067 576.351 419.804C575.597 417.541 575.974 416.032 575.974 416.032C576.163 416.032 576.163 417.541 576.917 419.615C577.672 421.69 579.369 424.519 582.386 426.593C585.404 428.479 588.61 428.856 590.873 428.668C592.947 428.479 594.268 427.913 594.456 428.102Z" fill="#455A64"/>
<path d="M615.013 716.458C615.013 716.458 614.258 716.646 613.127 716.646C611.618 716.646 609.921 716.835 608.035 717.023C603.509 717.212 597.662 717.589 591.062 717.778C584.649 718.155 578.803 718.343 574.088 718.721C572.014 718.721 570.317 718.909 568.996 718.909C567.865 718.909 567.111 718.909 567.111 718.909C567.111 718.909 567.676 718.721 568.996 718.532C570.128 718.343 572.014 718.155 574.088 717.966C578.426 717.589 584.461 717.212 591.062 716.835C597.662 716.458 603.697 716.269 608.035 716.269C610.298 716.269 611.995 716.269 613.127 716.269C614.447 716.269 615.013 716.458 615.013 716.458Z" fill="#455A64"/>
<path d="M529.015 443.378C529.204 443.378 544.102 504.481 562.207 580.106C580.312 655.731 594.645 717.023 594.456 717.023C594.268 717.023 579.369 655.92 561.264 580.295C543.159 504.858 528.638 443.566 529.015 443.378Z" fill="#455A64"/>
<path d="M577.294 445.829C577.294 445.829 577.483 446.018 577.672 446.207C577.86 446.584 578.237 446.961 578.615 447.527C579.369 448.658 580.689 450.356 582.198 452.241C585.215 456.579 589.553 462.614 594.833 469.969C600.114 477.513 606.526 486.376 613.504 496.372C617.087 501.275 620.67 506.556 624.631 512.025C628.403 517.494 632.174 523.529 633.117 530.695C634.06 537.862 631.986 544.84 629.911 551.063C627.648 557.287 625.385 563.322 623.122 568.979C618.784 580.295 614.447 590.479 610.864 598.965C607.28 607.452 604.074 614.241 602 618.956C600.868 621.219 600.114 623.105 599.548 624.236C599.36 624.802 598.982 625.179 598.794 625.557C598.605 625.934 598.605 625.934 598.605 625.934C598.605 625.934 598.605 625.745 598.794 625.368C598.982 624.991 599.171 624.614 599.36 623.859C599.925 622.539 600.68 620.653 601.811 618.39C603.886 613.675 606.903 606.886 610.486 598.399C614.07 589.913 618.219 579.729 622.556 568.414C624.819 562.756 626.894 556.721 629.157 550.497C631.231 544.274 633.306 537.485 632.363 530.695C631.42 523.717 627.648 517.871 624.065 512.402C620.293 506.933 616.521 501.652 613.127 496.749C606.149 486.754 599.925 477.89 594.456 470.158C589.176 462.614 585.027 456.579 582.009 452.241C580.5 450.167 579.557 448.47 578.615 447.338C578.237 446.772 578.049 446.395 577.672 446.018C577.294 446.018 577.294 445.829 577.294 445.829Z" fill="#455A64"/>
<path d="M673.099 296.088L715.154 265.348L717.229 268.742L675.362 299.86L673.099 296.088Z" fill="#263238"/>
<path d="M683.471 295.145C683.471 295.145 689.129 280.435 690.449 277.229C691.769 274.023 693.844 268.554 694.598 268.554C695.352 268.365 698.37 268.931 694.409 278.172C690.638 287.601 698.936 281.755 698.936 281.755L707.045 275.909C707.045 275.909 713.457 295.145 709.874 300.803C705.913 307.026 700.256 313.061 700.256 313.061L683.471 295.145Z" fill="#FFBE9D"/>
</svg>
