<svg width="1080" height="1920" viewBox="0 0 1080 1920" fill="none" xmlns="http://www.w3.org/2000/svg">
<mask id="mask0_15_1597" style="mask-type:alpha" maskUnits="userSpaceOnUse" x="0" y="0" width="1080" height="1920">
<rect width="1080" height="1920" fill="#58E3A6"/>
</mask>
<g mask="url(#mask0_15_1597)">
<circle cx="532" cy="19" r="986" fill="white"/>
</g>
<path d="M863.422 558.654V638.616C863.422 653.138 851.73 664.83 837.208 664.83H550.361C535.84 664.83 524.147 653.138 524.147 638.616V571.101L488.503 533.571L837.208 532.439C851.541 532.439 863.422 544.132 863.422 558.654Z" fill="#F5F5F5"/>
<path d="M566.391 580.907L826.647 579.587V571.666L566.391 572.798V580.907Z" fill="#E6E6E6"/>
<path d="M566.391 607.121L826.647 605.99V598.069L566.391 599.201V607.121Z" fill="#E6E6E6"/>
<path d="M669.348 624.414L566.378 624.92L566.417 632.841L669.387 632.335L669.348 624.414Z" fill="#E6E6E6"/>
<path d="M355.169 100H524.335C532.633 100 539.423 106.789 539.423 115.087V197.879C539.423 206.177 532.633 212.966 524.335 212.966H380.818C372.52 212.966 365.73 206.177 365.73 197.879V110.373L355.169 100Z" fill="#F5F5F5"/>
<path d="M567.523 250.684V280.482C567.523 284.631 570.917 288.025 575.066 288.025H741.215C745.364 288.025 748.759 284.631 748.759 280.482V264.074L767.807 243.706L575.066 243.141C570.917 243.141 567.523 246.347 567.523 250.684Z" fill="#F0F0F0"/>
<path d="M455.688 191.467V244.461C455.688 254.079 447.956 261.811 438.338 261.811H248.05C238.431 261.811 230.699 254.079 230.699 244.461V199.765L206.937 174.871L438.149 174.116C447.768 174.116 455.688 181.849 455.688 191.467Z" fill="#E0E0E0"/>
<path d="M258.611 206.177L431.36 205.422V200.142L258.611 200.896V206.177Z" fill="#F0F0F0"/>
<path d="M258.611 223.716L431.36 222.961V217.681L258.611 218.435V223.716Z" fill="#F0F0F0"/>
<path d="M326.869 235.054L258.599 235.39L258.625 240.67L326.895 240.335L326.869 235.054Z" fill="#F0F0F0"/>
<path d="M175.253 366.479V446.442C175.253 460.963 186.946 472.656 201.468 472.656H488.315C502.836 472.656 514.529 460.963 514.529 446.442V378.926L550.172 341.397L201.468 340.265C187.135 340.265 175.253 352.146 175.253 366.479Z" fill="#F0F0F0"/>
<path d="M472.284 388.733L212.029 387.601V379.681L472.284 380.812V388.733Z" fill="#E6E6E6"/>
<path d="M472.284 415.136L212.029 414.004V405.895L472.284 407.215V415.136Z" fill="#E6E6E6"/>
<path d="M369.199 432.259L369.16 440.18L472.131 440.687L472.17 432.766L369.199 432.259Z" fill="#E6E6E6"/>
<path d="M738.31 178.059C746.215 160.486 738.376 139.832 720.803 131.928C703.23 124.024 682.576 131.862 674.672 149.436C666.768 167.009 674.607 187.662 692.18 195.566C709.753 203.47 730.406 195.632 738.31 178.059Z" fill="#F5F5F5"/>
<path d="M694.445 155.069C695.765 154.88 696.896 156.389 697.085 158.275C697.273 160.161 696.33 161.858 695.01 161.858C693.69 162.046 692.559 160.538 692.37 158.652C692.181 156.766 693.124 155.069 694.445 155.069Z" fill="#E0E0E0"/>
<path d="M697.651 146.205C697.651 146.582 694.633 146.205 691.427 147.525C688.221 148.656 686.147 150.731 685.958 150.542C685.769 150.354 687.655 147.902 691.239 146.582C694.633 145.073 697.651 146.016 697.651 146.205Z" fill="#E0E0E0"/>
<path d="M716.698 154.503C715.378 154.503 714.247 156.012 714.247 157.897C714.247 159.783 715.19 161.481 716.51 161.481C717.83 161.481 718.961 159.972 718.961 158.086C718.961 156.2 718.018 154.503 716.698 154.503Z" fill="#E0E0E0"/>
<path d="M713.304 145.828C713.115 145.639 716.321 144.696 719.904 145.828C723.488 146.959 725.562 149.411 725.185 149.599C724.996 149.788 722.922 147.714 719.527 146.771C716.133 145.828 713.304 146.205 713.304 145.828Z" fill="#E0E0E0"/>
<path d="M723.676 163.367C723.676 163.367 723.676 164.121 723.488 165.252C723.299 166.384 722.545 168.081 721.413 169.967C720.282 171.853 718.584 173.739 716.133 175.436C713.681 177.134 710.663 178.265 707.269 178.454C703.874 178.642 700.668 177.7 698.216 176.379C695.576 175.059 693.69 173.173 692.37 171.476C691.05 169.779 690.296 168.081 689.918 166.95C689.541 165.818 689.353 165.064 689.541 165.064C689.73 165.064 690.296 167.704 692.936 170.91C694.256 172.608 696.142 174.116 698.594 175.436C701.045 176.757 704.063 177.511 707.269 177.322C710.475 177.134 713.304 176.002 715.567 174.493C717.83 172.985 719.716 171.099 720.847 169.401C723.299 166.195 723.488 163.367 723.676 163.367Z" fill="#E0E0E0"/>
<path d="M227.87 555.259H232.962L243.901 540.549V530.931C243.901 530.931 251.633 530.553 250.69 543C249.747 555.636 250.69 552.43 250.69 552.43C250.69 552.43 267.286 552.43 268.606 553.939C269.549 554.882 270.115 570.723 270.303 579.21C270.303 583.548 267.663 587.508 263.514 588.451C262.948 588.64 262.382 588.64 261.817 588.64C257.668 588.64 236.545 585.433 236.545 585.433H227.87V555.259Z" fill="#F0F0F0"/>
<path d="M213.537 552.619L216.555 585.622H225.23V553.184L213.537 552.619Z" fill="#F0F0F0"/>
<path d="M921.32 268.412C919.057 265.583 914.719 265.772 912.079 268.035C909.438 270.298 908.118 272.938 907.93 276.71C907.175 272.938 905.289 270.675 902.272 268.789C899.255 266.903 894.917 267.28 893.031 270.486C891.899 272.372 891.711 274.635 892.088 276.898C892.465 279.162 893.22 281.425 894.728 282.933C900.009 288.402 902.649 289.345 909.061 293.117C914.908 288.591 916.793 287.271 921.32 281.236C922.64 279.539 923.017 277.087 923.206 275.013C923.206 272.561 922.64 270.109 921.32 268.412Z" fill="#F0F0F0"/>
<path d="M610.522 777.231L414.198 776.288C390.624 776.099 371.577 757.051 371.577 733.289L373.651 241.443C373.84 217.869 393.076 198.822 416.65 198.822L612.973 199.765C636.547 199.953 655.595 219.19 655.595 242.763L653.52 734.798C653.332 758.372 634.095 777.419 610.522 777.231Z" fill="#263238"/>
<path d="M612.596 216.738L574.689 216.549C569.597 216.549 565.448 220.887 565.448 226.167V233.145C565.448 238.426 561.299 242.763 556.207 242.763L482.091 242.386C476.999 242.386 472.85 238.049 472.85 232.768V225.79C472.85 220.51 468.701 216.172 463.609 216.172H450.219L416.839 215.984C400.243 215.984 386.853 229.185 386.664 245.781L384.589 726.122C384.589 742.718 397.791 756.108 414.387 756.108L610.333 757.051C626.929 757.051 640.319 743.85 640.508 727.254L642.582 246.724C642.582 230.316 629.192 216.738 612.596 216.738Z" fill="white"/>
<path d="M505.099 696.325C505.099 698.588 503.213 700.474 500.95 700.474C498.687 700.474 496.801 698.588 496.801 696.325C496.801 694.062 498.687 692.176 500.95 692.176C503.213 692.176 505.099 694.062 505.099 696.325Z" fill="#455A64"/>
<path d="M520.564 696.325C520.564 698.588 518.678 700.474 516.415 700.474C514.152 700.474 512.266 698.588 512.266 696.325C512.266 694.062 514.152 692.176 516.415 692.176C518.678 692.176 520.564 694.062 520.564 696.325Z" fill="#455A64"/>
<path d="M536.217 696.325C536.217 698.588 534.331 700.474 532.068 700.474C529.805 700.474 527.919 698.588 527.919 696.325C527.919 694.062 529.805 692.176 532.068 692.176C534.331 692.176 536.217 694.062 536.217 696.325Z" fill="#455A64"/>
<path d="M423.251 350.638C423.251 350.638 423.251 350.26 423.251 349.506C423.251 348.752 423.439 347.809 423.816 346.489C424.194 345.168 424.948 343.66 426.08 341.962C427.211 340.265 429.097 338.756 431.36 337.625C433.623 336.305 436.829 336.116 439.847 336.305C443.053 336.305 446.447 336.305 450.219 336.305C457.574 336.305 466.061 336.305 475.49 336.305C513.209 336.305 566.014 336.493 626.363 336.682H627.495L626.74 337.436C620.517 343.848 614.105 350.826 607.316 357.804L607.504 357.427C607.504 363.839 607.504 370.817 607.504 377.795C607.504 382.321 607.504 386.658 607.504 391.185C607.504 393.448 607.693 395.711 606.938 397.974C606.373 400.237 605.241 402.312 603.732 403.82C602.224 405.518 600.338 406.838 598.263 407.781C596.189 408.724 593.926 408.912 591.663 408.912C587.325 408.912 583.176 408.912 578.838 408.912C561.865 408.912 545.646 408.912 530.182 408.912C499.064 408.912 471.153 408.912 447.579 408.724C444.561 408.724 441.733 408.724 438.904 408.724C436.075 408.724 433.246 408.535 430.794 407.215C425.891 404.952 422.873 399.86 422.685 395.145C422.685 385.716 422.685 377.795 422.685 371.194C422.685 364.593 422.685 359.501 422.685 356.107C422.685 354.409 422.685 353.089 422.685 352.146C423.251 351.203 423.251 350.638 423.251 350.638C423.251 350.638 423.251 351.015 423.251 351.958C423.251 352.901 423.251 354.221 423.251 355.918C423.251 359.501 423.251 364.405 423.251 371.005C423.251 377.606 423.251 385.715 423.439 394.956C423.628 399.483 426.645 404.197 431.36 406.461C433.623 407.592 436.452 407.969 439.092 407.781C441.921 407.781 444.75 407.781 447.767 407.781C471.341 407.781 499.253 407.781 530.37 407.592C545.835 407.592 562.242 407.592 579.027 407.592C583.176 407.592 587.514 407.592 591.851 407.592C593.926 407.592 596 407.403 598.075 406.649C599.961 405.895 601.658 404.575 603.167 403.066C604.487 401.557 605.618 399.483 606.184 397.597C606.75 395.522 606.561 393.448 606.561 391.185C606.561 386.847 606.561 382.321 606.561 377.795C606.561 370.817 606.561 364.028 606.561 357.427V357.238L606.75 357.05C613.35 350.072 619.951 343.283 626.175 336.682L626.552 337.436C566.203 337.248 513.397 336.87 475.679 336.87C466.249 336.87 457.763 336.682 450.408 336.682C446.636 336.682 443.241 336.682 440.035 336.682C436.829 336.493 434 336.87 431.737 338.002C429.474 339.134 427.588 340.642 426.457 342.151C425.325 343.66 424.571 345.357 424.194 346.489C423.062 349.317 423.251 350.638 423.251 350.638Z" fill="#455A64"/>
<path d="M584.119 362.707L443.053 362.142V357.804L584.119 358.37V362.707Z" fill="#455A64"/>
<path d="M584.119 377.04L443.053 376.286V371.948L584.119 372.703V377.04Z" fill="#455A64"/>
<path d="M528.231 386.378L528.21 390.715L584.033 390.99L584.054 386.652L528.231 386.378Z" fill="#455A64"/>
<path d="M614.859 446.253V489.629C614.859 497.55 608.447 503.774 600.715 503.774H445.316C437.395 503.774 431.171 497.361 431.171 489.629V453.043L411.747 432.675L600.715 432.109C608.447 431.92 614.859 438.332 614.859 446.253Z" fill="#58E3A6"/>
<path d="M453.991 458.323L595.057 457.569V453.231L453.991 453.985V458.323Z" fill="white"/>
<path d="M453.991 472.467L595.057 471.902V467.564L453.991 468.13V472.467Z" fill="white"/>
<path d="M509.807 481.764L453.984 482.039L454.005 486.377L509.828 486.102L509.807 481.764Z" fill="white"/>
<path d="M530.37 280.105C533.011 278.973 534.897 276.333 534.897 273.127C534.897 268.978 531.691 265.583 527.73 265.394C523.77 265.394 520.564 268.789 520.564 272.938C520.564 276.144 522.45 278.973 525.09 280.105C514.152 281.802 514.529 293.683 514.529 293.683L540.554 293.872C540.554 293.872 541.309 281.802 530.37 280.105Z" fill="#58E3A6"/>
<path opacity="0.5" d="M530.37 280.105C533.011 278.973 534.897 276.333 534.897 273.127C534.897 268.978 531.691 265.583 527.73 265.394C523.77 265.394 520.564 268.789 520.564 272.938C520.564 276.144 522.45 278.973 525.09 280.105C514.152 281.802 514.529 293.683 514.529 293.683L540.554 293.872C540.554 293.872 541.309 281.802 530.37 280.105Z" fill="white"/>
<path d="M516.037 280.105C518.678 278.973 520.564 276.333 520.564 273.127C520.564 268.978 517.358 265.583 513.397 265.394C509.437 265.394 506.231 268.789 506.231 272.938C506.231 276.144 508.117 278.973 510.757 280.105C499.819 281.802 500.196 293.683 500.196 293.683L526.221 293.872C526.41 293.872 526.976 281.802 516.037 280.105Z" fill="#58E3A6"/>
<path d="M555.854 299.316L485.887 298.993L485.847 307.668L555.814 307.992L555.854 299.316Z" fill="#58E3A6"/>
<path opacity="0.3" d="M555.854 299.316L485.887 298.993L485.847 307.668L555.814 307.992L555.854 299.316Z" fill="white"/>
<path d="M426.457 544.886C426.457 544.886 426.457 544.509 426.457 543.943C426.457 543.189 426.645 542.246 427.4 541.115C428.154 539.983 429.286 538.663 431.171 537.909C433.057 537.154 435.32 537.343 437.961 537.343C448.145 537.343 462.855 537.343 481.148 537.343C517.923 537.343 569.032 537.531 626.74 537.72H627.872L627.118 538.474C621.083 545.075 614.671 551.864 608.07 558.842L608.258 558.465C608.258 559.031 608.258 559.597 608.258 560.162C608.258 564.123 608.258 568.272 608.258 572.232C608.258 573.175 608.258 574.118 608.258 575.25C608.258 576.381 607.881 577.324 607.504 578.267C606.561 580.153 604.864 581.662 602.978 582.416C602.035 582.793 600.903 582.982 599.96 582.793H596.943C595.057 582.793 592.983 582.793 591.097 582.793C587.136 582.793 583.364 582.793 579.593 582.793C564.317 582.793 549.607 582.793 535.651 582.793C507.739 582.793 482.468 582.793 461.157 582.605C455.877 582.605 450.785 582.605 446.07 582.605C443.618 582.605 441.355 582.605 439.092 582.605C437.961 582.605 436.829 582.605 435.698 582.605C434.566 582.605 433.435 582.605 432.492 582.416C430.417 582.039 428.531 580.53 427.4 578.833C426.834 577.89 426.457 576.947 426.268 576.004C426.08 575.061 426.079 574.118 426.079 573.175C426.079 569.592 426.079 566.197 426.079 563.368C426.079 557.522 426.079 552.807 426.079 549.79C426.079 548.281 426.079 547.15 426.079 546.207C426.457 545.452 426.457 544.886 426.457 544.886C426.457 544.886 426.457 545.264 426.457 546.018C426.457 546.772 426.457 548.092 426.457 549.601C426.457 552.807 426.457 557.333 426.457 563.18C426.457 566.197 426.457 569.403 426.457 572.986C426.457 573.929 426.457 574.872 426.645 575.627C426.834 576.57 427.211 577.324 427.588 578.267C428.531 579.964 430.229 581.096 432.303 581.473C433.246 581.662 434.378 581.662 435.509 581.662C436.641 581.662 437.772 581.662 438.904 581.662C441.167 581.662 443.43 581.662 445.882 581.662C450.596 581.662 455.688 581.662 460.969 581.662C482.091 581.662 507.362 581.662 535.462 581.473C549.418 581.473 564.128 581.473 579.404 581.473C583.176 581.473 587.136 581.473 590.908 581.473C592.794 581.473 594.869 581.473 596.754 581.473H599.772C600.715 581.473 601.658 581.473 602.601 581.096C604.298 580.53 605.807 579.21 606.561 577.513C606.938 576.758 607.127 575.815 607.316 574.872C607.316 573.929 607.316 572.986 607.316 571.855C607.316 567.895 607.316 563.934 607.316 559.785C607.316 559.219 607.316 558.654 607.316 558.088V558.276L607.504 558.088C614.105 551.11 620.517 544.132 626.552 537.72L626.929 538.474C569.22 538.286 518.112 538.097 481.337 537.909C463.043 537.72 448.333 537.72 438.149 537.531C435.698 537.531 433.246 537.154 431.549 538.097C429.851 538.852 428.531 539.983 427.965 541.115C427.211 542.246 427.022 543.189 427.022 543.943C426.457 544.698 426.457 544.886 426.457 544.886Z" fill="#455A64"/>
<path d="M590.342 556.39L449.465 555.825V551.487L590.342 552.053V556.39Z" fill="#455A64"/>
<path d="M533.198 565.761L533.177 570.099L590.32 570.378L590.342 566.041L533.198 565.761Z" fill="#455A64"/>
<path d="M609.956 622.397V652.195C609.956 656.344 606.561 659.738 602.412 659.738H436.263C432.114 659.738 428.72 656.344 428.72 652.195V635.976L409.672 615.608L602.412 615.042C606.561 614.854 609.956 618.06 609.956 622.397Z" fill="#58E3A6"/>
<path d="M446.07 633.713L586.948 633.147V628.809L446.07 629.375V633.713Z" fill="white"/>
<path d="M446.07 647.669L586.948 647.103V642.765L446.07 643.331V647.669Z" fill="white"/>
<path d="M837.208 266.149C849.394 266.149 859.273 256.27 859.273 244.084C859.273 231.897 849.394 222.018 837.208 222.018C825.022 222.018 815.143 231.897 815.143 244.084C815.143 256.27 825.022 266.149 837.208 266.149Z" fill="#E8505B"/>
<path d="M837.208 266.149C849.394 266.149 859.273 256.27 859.273 244.084C859.273 231.897 849.394 222.018 837.208 222.018C825.022 222.018 815.143 231.897 815.143 244.084C815.143 256.27 825.022 266.149 837.208 266.149Z" fill="#C7FCE5"/>
<path d="M829.853 237.86C830.607 237.86 831.362 238.803 831.55 239.935C831.55 241.066 830.985 242.198 830.23 242.198C829.476 242.198 828.722 241.255 828.533 240.123C828.344 238.803 829.099 237.86 829.853 237.86Z" fill="#263238"/>
<path d="M831.928 232.202C831.928 232.58 830.042 232.391 827.967 233.145C825.893 233.9 824.573 235.031 824.384 234.843C824.195 234.654 825.327 232.957 827.59 232.202C830.042 231.259 832.116 232.014 831.928 232.202Z" fill="#263238"/>
<path d="M847.958 241.255C847.769 241.443 846.449 240.123 844.563 239.935C842.677 239.746 841.169 240.689 840.98 240.5C840.791 240.312 841.169 239.935 841.734 239.557C842.3 239.18 843.432 238.803 844.563 238.803C845.695 238.992 846.638 239.557 847.203 240.123C847.958 240.689 848.146 241.066 847.958 241.255Z" fill="#263238"/>
<path d="M849.844 237.483C849.655 237.671 847.958 236.729 845.506 236.729C843.054 236.54 841.169 237.483 841.169 237.106C840.98 236.917 842.866 235.408 845.695 235.597C848.335 235.786 850.032 237.294 849.844 237.483Z" fill="#263238"/>
<path d="M848.335 243.706C848.524 243.706 848.524 245.592 847.015 248.044C845.506 250.307 842.3 253.325 837.774 253.513C833.248 253.702 829.853 251.061 828.156 248.798C826.458 246.535 826.458 244.649 826.458 244.649C826.647 244.649 827.024 246.347 828.722 248.233C830.419 250.307 833.625 252.57 837.585 252.382C841.546 252.193 844.752 249.741 846.261 247.667C847.769 245.404 848.146 243.706 848.335 243.706Z" fill="#263238"/>
<path d="M218.252 635.41C217.686 652.572 203.353 666.15 186.192 665.585C169.03 665.019 155.451 650.686 156.017 633.524C156.583 616.362 170.916 602.784 188.078 603.35C205.239 603.915 218.629 618.248 218.252 635.41Z" fill="#E8505B"/>
<path d="M218.252 635.41C217.686 652.572 203.353 666.15 186.192 665.585C169.03 665.019 155.451 650.686 156.017 633.524C156.583 616.362 170.916 602.784 188.078 603.35C205.239 603.915 218.629 618.248 218.252 635.41Z" fill="#C7FCE5"/>
<path d="M180.911 625.981C179.78 624.472 177.705 624.283 176.196 625.226C174.688 626.169 173.933 627.489 173.556 629.375C173.367 627.489 172.613 626.169 171.104 625.038C169.596 623.906 167.521 623.906 166.201 625.415C165.447 626.358 165.258 627.489 165.447 628.621C165.635 629.752 165.824 630.884 166.578 631.827C169.03 635.033 170.35 635.599 173.556 637.862C176.762 635.787 177.894 635.222 180.345 632.393C181.1 631.638 181.477 630.318 181.665 629.187C181.854 628.055 181.665 626.735 180.911 625.981Z" fill="#58E3A6"/>
<path d="M208.445 626.735C207.314 625.226 205.239 625.038 203.731 625.981C202.222 626.924 201.468 628.244 201.09 630.13C200.902 628.244 200.147 626.924 198.639 625.792C197.13 624.66 195.055 624.66 193.735 626.169C192.981 627.112 192.792 628.244 192.981 629.375C193.169 630.507 193.358 631.638 194.112 632.581C196.564 635.787 197.884 636.353 201.09 638.616C204.296 636.542 205.428 635.976 207.88 633.147C208.634 632.393 209.011 631.073 209.2 629.941C209.2 628.809 209.011 627.678 208.445 626.735Z" fill="#58E3A6"/>
<path d="M197.558 642.871C196.992 647.963 192.043 653.055 186.951 652.866C181.859 652.677 177.333 647.963 177.144 642.871H197.558Z" fill="white"/>
<path d="M305.004 638.993C305.57 635.787 304.25 624.095 304.25 624.095C304.25 624.095 291.991 622.774 291.237 610.705C290.482 598.635 291.237 570.723 291.237 570.723L313.491 559.785L338.007 578.267L334.236 638.805L305.004 638.993Z" fill="#B78876"/>
<path d="M294.82 590.903C294.82 591.846 295.574 592.411 296.329 592.411C297.272 592.411 297.838 591.657 297.838 590.903C297.838 590.148 297.083 589.394 296.329 589.394C295.574 589.394 294.82 590.148 294.82 590.903Z" fill="#263238"/>
<path d="M292.557 589.771C292.746 589.96 293.877 589.017 295.574 588.828C297.272 588.64 298.592 589.582 298.592 589.394C298.592 589.205 298.403 589.017 297.838 588.64C297.272 588.262 296.329 587.885 295.386 588.074C294.254 588.074 293.5 588.639 292.934 589.017C292.557 589.394 292.368 589.771 292.557 589.771Z" fill="#263238"/>
<path d="M314.434 592.223C315.267 592.223 315.942 591.547 315.942 590.714C315.942 589.881 315.267 589.205 314.434 589.205C313.6 589.205 312.925 589.881 312.925 590.714C312.925 591.547 313.6 592.223 314.434 592.223Z" fill="#263238"/>
<path d="M310.473 589.582C310.662 589.771 311.793 588.828 313.491 588.64C315.188 588.451 316.508 589.394 316.508 589.205C316.508 589.017 316.319 588.828 315.754 588.451C315.188 588.074 314.245 587.697 313.302 587.885C312.17 587.885 311.416 588.451 310.85 588.828C310.662 589.017 310.473 589.394 310.473 589.582Z" fill="#263238"/>
<path d="M304.815 603.538C304.815 603.538 303.684 603.35 302.175 603.161C301.798 603.161 301.421 603.161 301.232 602.784C301.044 602.407 301.232 602.029 301.421 601.464C301.798 600.332 302.175 599.201 302.552 598.069C304.061 593.166 305.193 589.017 305.193 589.017C305.004 589.017 303.495 592.977 301.987 597.88C301.609 599.012 301.232 600.332 300.855 601.275C300.666 601.841 300.478 602.407 300.666 602.972C300.855 603.35 301.044 603.538 301.421 603.538C301.609 603.538 301.987 603.538 302.175 603.538C303.684 603.727 304.815 603.538 304.815 603.538Z" fill="#263238"/>
<path d="M310.285 605.047C309.53 605.613 305.57 607.876 302.175 607.876C302.175 607.876 304.25 610.893 307.644 609.385C311.416 607.876 310.285 605.047 310.285 605.047Z" fill="white"/>
<path d="M304.438 624.095C304.438 624.095 312.548 624.095 320.468 618.626C320.468 618.626 316.885 627.489 304.627 627.112L304.438 624.095Z" fill="#A36957"/>
<path d="M354.226 587.319C354.226 587.319 359.13 615.231 335.556 620.323L336.31 586.754L354.226 587.319Z" fill="#263238"/>
<path d="M353.472 581.096C351.586 574.118 348.757 568.837 345.363 564.688C348.757 566.197 351.02 567.517 351.586 567.14C351.775 566.952 351.209 565.82 349.7 564.5C348.191 563.18 345.928 561.86 343.099 560.917C342.722 560.728 342.345 560.728 341.968 560.539C343.477 559.974 344.985 559.031 346.117 557.899C348.946 555.07 350.266 550.544 348.38 546.961C346.871 543.755 343.099 542.058 339.516 542.435C335.933 542.812 332.915 545.075 331.218 548.281C330.841 549.035 330.464 549.79 330.275 550.544C330.275 549.413 330.464 547.904 330.652 546.584C331.407 541.869 333.104 538.474 332.916 538.286C332.727 538.097 330.464 541.492 329.709 546.395C329.709 546.772 329.521 547.338 329.521 547.715C329.144 546.395 328.578 545.264 328.201 544.132C327.069 541.68 325.938 540.36 325.56 540.549C324.806 540.926 327.069 546.018 328.012 552.807C324.995 551.864 322.543 551.676 321.411 551.676C317.262 551.676 310.473 549.79 300.855 557.522C298.026 559.408 295.009 562.048 292.557 565.443C288.785 570.912 287.465 576.947 287.465 581.284C287.465 583.359 287.654 585.245 287.842 586.376C288.031 587.508 288.219 588.262 288.219 588.262C288.408 588.262 287.842 585.622 288.219 581.473C288.408 578.833 288.974 575.627 290.294 572.421C287.842 580.907 291.237 587.697 291.237 587.697L312.736 584.302C311.416 579.587 312.359 572.044 312.925 568.46C316.697 585.999 331.973 594.486 331.973 594.486L354.603 590.903C354.415 588.828 354.038 582.982 353.472 581.096Z" fill="#263238"/>
<path d="M405.712 851.347C406.466 851.724 462.1 862.662 460.026 855.119C457.951 847.764 406.089 835.694 406.089 835.694L405.712 851.347Z" fill="#58E3A6"/>
<path d="M430.983 846.255C431.171 846.255 431.549 847.575 431.549 849.272C431.549 850.97 431.171 852.29 430.794 852.29C430.606 852.29 430.417 850.97 430.417 849.272C430.794 847.764 430.794 846.444 430.983 846.255Z" fill="#263238"/>
<path d="M428.154 845.312C428.343 845.312 428.908 846.821 428.72 848.707C428.531 850.593 427.777 852.101 427.588 852.101C427.4 852.101 427.588 850.593 427.777 848.707C427.777 846.821 427.777 845.312 428.154 845.312Z" fill="#263238"/>
<path d="M424.571 844.935C424.759 844.935 425.137 846.444 425.325 848.329C425.325 850.215 425.137 851.724 424.759 851.724C424.571 851.724 424.382 850.215 424.382 848.329C424.194 846.632 424.194 845.123 424.571 844.935Z" fill="#263238"/>
<path d="M417.593 839.654C417.593 839.654 417.97 839.654 418.536 839.843C419.102 840.031 419.856 840.031 420.988 840.409C423.062 840.786 426.268 841.54 429.851 842.672C433.623 843.615 437.961 844.935 442.864 846.632C445.316 847.386 447.956 848.329 450.408 849.461C453.048 850.593 455.688 851.913 457.763 854.176C457.951 854.364 458.329 854.742 458.517 855.119C458.706 855.685 458.517 856.439 458.14 856.627C457.197 857.193 456.443 857.005 455.688 857.193C454.18 857.382 452.859 857.382 451.351 857.382C448.522 857.382 445.882 857.382 443.241 857.193C438.149 856.816 433.435 856.25 429.663 855.685C425.891 855.119 422.685 854.553 420.61 853.987C419.667 853.799 418.913 853.61 418.159 853.421C417.593 853.233 417.404 853.233 417.404 853.233C417.404 853.233 418.536 853.233 420.799 853.61C423.062 853.987 426.268 854.364 429.851 854.93C433.623 855.496 438.338 856.062 443.43 856.25C446.07 856.439 448.71 856.439 451.539 856.439C452.859 856.439 454.368 856.25 455.688 856.25C456.443 856.25 457.197 856.25 457.574 855.873C457.763 855.684 457.763 855.685 457.763 855.496C457.763 855.307 457.386 855.119 457.197 854.742C455.123 852.667 452.671 851.347 450.031 850.215C447.579 849.084 444.939 848.329 442.487 847.386C437.584 845.689 433.246 844.369 429.474 843.238C425.702 842.106 422.685 841.352 420.61 840.786C418.724 840.031 417.593 839.654 417.593 839.654Z" fill="#263238"/>
<path d="M447.39 847.952C447.579 847.952 447.202 850.215 447.39 852.667C447.579 855.307 448.333 857.382 448.145 857.382C447.956 857.57 446.636 855.496 446.447 852.667C446.07 849.838 447.013 847.764 447.39 847.952Z" fill="#263238"/>
<path d="M221.458 840.22C220.704 840.031 164.504 847.952 168.841 854.364C173.179 860.776 225.984 855.119 225.984 855.119L221.458 840.22Z" fill="#58E3A6"/>
<path d="M199.204 853.233C199.016 853.421 198.261 852.29 197.696 850.593C197.13 849.084 197.13 847.575 197.319 847.575C197.507 847.575 198.073 848.707 198.639 850.215C199.016 851.724 199.393 853.044 199.204 853.233Z" fill="#263238"/>
<path d="M202.222 853.233C202.033 853.421 201.09 852.101 200.525 850.215C199.959 848.329 200.336 846.632 200.525 846.632C200.713 846.632 201.09 848.141 201.468 849.838C202.033 851.536 202.599 853.044 202.222 853.233Z" fill="#263238"/>
<path d="M205.805 852.29C205.617 852.478 204.674 851.158 204.108 849.272C203.542 847.575 203.353 845.878 203.542 845.878C203.731 845.878 204.485 847.198 205.051 848.895C205.617 850.781 205.994 852.101 205.805 852.29Z" fill="#263238"/>
<path d="M214.103 855.119C214.103 855.119 213.726 855.307 213.16 855.307C212.594 855.307 211.84 855.496 210.708 855.685C208.634 855.873 205.428 856.25 201.468 856.439C197.507 856.627 192.981 856.816 187.889 857.005C185.249 857.005 182.608 857.005 179.78 856.816C176.951 856.627 173.933 856.062 171.293 854.742C170.916 854.553 170.539 854.364 170.161 853.987C169.784 853.61 169.784 852.667 170.161 852.29C170.727 851.536 171.67 851.347 172.236 850.97C173.556 850.404 174.876 849.838 176.196 849.461C178.837 848.518 181.477 847.764 183.929 847.009C188.832 845.689 193.547 844.746 197.319 843.992C201.09 843.238 204.296 842.86 206.371 842.483C207.314 842.295 208.257 842.295 208.823 842.106C209.388 842.106 209.766 842.106 209.766 842.106C209.766 842.106 208.634 842.483 206.371 842.86C204.108 843.237 201.09 843.803 197.319 844.558C193.547 845.312 189.02 846.255 184.117 847.764C181.665 848.518 179.025 849.272 176.573 850.215C175.253 850.781 173.933 851.158 172.613 851.724C171.859 852.101 171.293 852.29 170.916 852.667C170.727 852.856 170.727 852.856 170.916 853.044C171.104 853.233 171.293 853.421 171.67 853.421C174.31 854.742 177.139 855.119 179.968 855.307C182.797 855.496 185.437 855.496 188.078 855.496C193.17 855.496 197.884 855.307 201.656 855.307C205.617 855.119 208.634 854.93 210.897 854.742C212.783 855.119 214.103 855.119 214.103 855.119Z" fill="#263238"/>
<path d="M183.363 857.005C182.986 857.005 182.986 854.742 181.854 852.478C180.911 850.027 179.402 848.518 179.591 848.141C179.78 847.952 181.665 849.461 182.797 851.913C183.929 854.742 183.551 857.005 183.363 857.005Z" fill="#263238"/>
<path d="M395.905 771.95H367.239L261.628 774.59L231.454 770.63C226.739 769.687 223.721 769.121 222.59 769.498C219.761 770.441 215.612 773.27 212.217 777.419C200.713 791.186 207.88 812.309 225.23 817.023L241.449 821.361L205.805 832.865L217.875 867C217.875 867 271.058 855.496 322.543 843.426L404.957 865.68L416.839 827.396C416.839 827.396 411.558 825.698 402.883 822.87C411.558 820.229 417.216 818.155 417.97 816.835C423.439 808.725 432.68 771.384 395.905 771.95Z" fill="#455A64"/>
<path opacity="0.2" d="M402.694 823.058L341.402 848.329L322.92 843.426L402.694 823.058Z" fill="black"/>
<path opacity="0.2" d="M242.015 774.779L320.468 797.221L380.063 776.853L242.015 774.779Z" fill="black"/>
<path d="M230.699 864.548C230.511 864.548 229.568 862.662 228.247 859.645C226.927 856.627 225.041 852.101 223.344 847.198C221.647 842.295 220.138 837.768 219.195 834.562C218.252 831.356 217.875 829.282 217.875 829.093C218.064 829.093 218.629 830.979 219.761 834.185C220.892 837.391 222.401 841.917 224.098 846.821C225.796 851.724 227.493 856.062 228.813 859.268C230.133 862.474 230.888 864.548 230.699 864.548Z" fill="#263238"/>
<path d="M419.856 784.774C419.856 784.774 419.667 784.774 419.29 784.963C418.913 785.151 418.347 785.34 417.782 785.529C416.461 786.094 414.575 786.66 412.124 787.603C407.032 789.3 399.865 791.752 391.19 794.77C373.463 800.616 348.946 808.725 321.6 817.212C294.443 825.699 269.549 833.242 251.633 838.523C242.769 841.163 235.414 843.237 230.322 844.746C227.87 845.501 225.984 845.878 224.476 846.444C223.91 846.632 223.344 846.821 222.967 846.821C222.59 846.821 222.401 847.009 222.401 847.009C222.401 847.009 222.59 847.009 222.967 846.821C223.344 846.632 223.91 846.444 224.476 846.255C225.796 845.878 227.87 845.312 230.133 844.558C235.225 843.049 242.392 840.786 251.256 838.146C269.172 832.676 293.877 825.133 321.034 816.646C348.191 808.16 372.897 800.239 390.624 794.392C399.488 791.564 406.655 789.3 411.747 787.603C414.198 786.849 416.084 786.283 417.404 785.717C417.97 785.529 418.536 785.34 418.913 785.34C419.667 784.774 419.856 784.774 419.856 784.774Z" fill="#263238"/>
<path d="M362.713 783.266C362.713 783.266 362.336 783.454 361.581 783.831C360.638 784.209 359.507 784.586 357.998 785.151C354.981 786.283 350.454 787.792 344.985 789.678C334.047 793.449 318.771 798.353 301.798 803.822C284.825 809.291 269.549 814.006 258.422 817.401C252.764 819.098 248.427 820.418 245.221 821.361C243.712 821.738 242.58 822.115 241.637 822.304C240.883 822.492 240.317 822.681 240.317 822.492C240.317 822.492 240.694 822.304 241.449 821.927C242.392 821.55 243.523 821.172 245.032 820.795C248.238 819.852 252.764 818.343 258.233 816.646C269.36 813.063 284.636 808.16 301.421 802.879C318.205 797.41 333.481 792.506 344.608 788.923C350.077 787.226 354.603 785.717 357.621 784.774C359.13 784.397 360.261 784.02 361.204 783.643C362.336 783.454 362.713 783.266 362.713 783.266Z" fill="#263238"/>
<path d="M319.903 797.221C319.903 797.41 302.364 792.695 280.676 786.472C259.176 780.248 241.637 775.156 241.826 774.779C241.826 774.59 259.365 779.305 281.053 785.529C302.741 791.752 320.091 796.844 319.903 797.221Z" fill="#263238"/>
<path d="M405.712 824.944C405.9 825.133 402.883 833.431 398.922 843.615C394.962 853.799 391.567 862.097 391.19 862.097C391.002 861.908 394.019 853.61 397.979 843.426C401.94 833.054 405.334 824.756 405.712 824.944Z" fill="#263238"/>
<path d="M398.357 840.597C398.357 840.786 391.379 839.277 382.892 837.014C374.406 834.751 367.616 832.676 367.805 832.488C367.805 832.299 374.783 833.808 383.269 836.071C391.567 838.334 398.357 840.409 398.357 840.597Z" fill="#263238"/>
<path d="M281.053 809.48C281.053 809.48 279.921 809.291 278.035 808.914C275.961 808.348 273.321 807.782 270.115 807.028C263.514 805.331 254.273 803.068 244.278 800.05C234.282 797.033 225.419 793.638 219.195 790.809C215.989 789.3 213.537 788.169 211.84 787.226C210.143 786.283 209.2 785.717 209.2 785.717C209.2 785.717 210.143 786.094 211.84 786.849C213.537 787.603 216.178 788.735 219.195 790.055C225.419 792.695 234.282 795.901 244.278 798.919C254.273 801.936 263.514 804.388 269.926 806.274C273.132 807.217 275.772 807.971 277.658 808.537C279.921 808.914 281.053 809.291 281.053 809.48Z" fill="#263238"/>
<path d="M338.95 637.296H336.499L336.122 629.187L304.25 631.073C304.25 631.073 304.627 634.844 304.627 637.485C285.013 639.371 253.519 649.366 252.764 693.685L277.847 694.251C275.772 714.43 275.961 726.688 273.886 734.232C270.303 746.867 259.176 773.27 261.439 774.59C263.703 775.911 366.862 777.796 371.765 775.156C376.669 772.516 367.805 737.815 365.542 728.386C364.033 722.351 363.844 708.583 363.844 698.022L392.699 696.702C392.887 696.891 394.962 637.107 338.95 637.296Z" fill="#58E3A6"/>
<path d="M336.499 637.107C336.499 637.296 334.801 637.485 331.784 637.862C328.955 638.239 324.806 638.428 320.28 638.616C315.754 638.616 311.793 638.616 308.776 638.428C305.947 638.239 304.061 637.862 304.061 637.862C304.061 637.673 305.947 637.673 308.776 637.862C311.605 637.862 315.754 637.862 320.091 637.862C324.617 637.862 328.578 637.485 331.407 637.485C334.613 636.919 336.499 636.919 336.499 637.107Z" fill="#263238"/>
<path d="M310.096 630.884C310.285 630.884 310.662 632.393 310.662 634.279C310.662 636.164 310.473 637.673 310.096 637.673C309.907 637.673 309.53 636.164 309.53 634.279C309.719 632.393 309.907 630.884 310.096 630.884Z" fill="#263238"/>
<path d="M318.583 630.318C318.771 630.318 319.148 632.016 319.148 634.09C319.148 636.165 318.96 637.862 318.771 637.862C318.583 637.862 318.205 636.165 318.205 634.09C318.205 632.016 318.394 630.318 318.583 630.318Z" fill="#263238"/>
<path d="M327.446 629.941C327.635 629.941 328.012 631.638 328.201 633.713C328.201 635.787 328.012 637.485 327.635 637.485C327.446 637.485 327.258 635.787 327.258 633.713C327.069 631.827 327.069 630.13 327.446 629.941Z" fill="#263238"/>
<path d="M333.858 629.752C334.047 629.752 334.424 631.45 334.613 633.524C334.801 635.599 334.99 637.296 334.801 637.296C334.613 637.296 333.858 635.787 333.67 633.713C333.293 631.45 333.481 629.752 333.858 629.752Z" fill="#263238"/>
<path d="M281.996 693.873C281.807 693.873 281.43 689.536 281.43 684.444C281.43 679.163 281.619 675.014 281.807 675.014C281.996 675.014 282.373 679.352 282.373 684.444C282.562 689.536 282.373 693.873 281.996 693.873Z" fill="#263238"/>
<path d="M363.09 696.891C362.901 696.891 362.147 692.365 361.77 686.707C361.204 681.049 361.204 676.523 361.393 676.523C361.581 676.523 362.336 681.049 362.713 686.707C363.09 692.365 363.279 696.891 363.09 696.891Z" fill="#263238"/>
<path d="M281.996 693.873C281.996 694.062 280.299 694.062 277.658 694.062C274.641 694.062 271.058 694.062 267.286 694.062C263.514 694.062 259.931 694.062 256.913 694.062C254.273 694.062 252.576 694.062 252.576 693.873C252.576 693.685 254.273 693.496 256.913 693.308C259.554 693.119 263.325 692.93 267.286 692.93C271.435 692.93 275.018 693.119 277.658 693.308C280.487 693.496 281.996 693.685 281.996 693.873Z" fill="#263238"/>
<path d="M392.887 696.891C392.887 697.079 385.91 697.457 377.423 697.457C368.936 697.457 361.959 697.268 361.959 696.891C361.959 696.702 368.936 696.325 377.423 696.325C386.098 696.514 392.887 696.702 392.887 696.891Z" fill="#263238"/>
<path d="M391.567 697.268C391.567 697.268 399.111 767.612 377.612 774.59C356.112 781.568 313.491 748.753 313.491 748.753L325.749 723.859C325.749 723.859 354.038 743.473 360.073 739.135C366.108 734.798 362.901 697.268 362.901 697.268H391.567V697.268Z" fill="#B78876"/>
<path d="M253.33 693.873C253.33 693.873 245.598 763.652 267.286 770.441C288.785 777.419 331.407 744.604 331.407 744.604L319.148 719.71C319.148 719.71 290.671 737.815 284.825 733.289C281.43 730.649 281.242 694.062 281.242 694.062C271.058 693.685 261.817 693.308 253.33 693.873Z" fill="#B78876"/>
<path d="M378.177 708.395L363.844 778.551C363.844 778.551 275.961 777.796 275.018 777.608C274.075 777.419 265.588 708.395 265.588 708.395H378.177Z" fill="#263238"/>
<path d="M314.999 743.85C314.999 746.49 317.451 748.753 320.28 748.753C323.109 748.753 325.56 746.49 325.56 743.85C325.56 741.21 323.109 738.947 320.28 738.947C317.451 738.947 314.999 741.21 314.999 743.85Z" fill="white"/>
<path d="M333.481 589.96C334.424 589.017 337.63 588.828 338.762 589.582C339.893 590.337 340.459 591.657 340.836 593.166C341.214 595.429 340.836 597.88 339.328 599.578C337.819 601.275 334.99 601.841 333.104 600.332" fill="#B78876"/>
<path d="M335.744 598.446C335.744 598.258 336.31 598.258 337.065 597.692C337.819 597.126 338.573 596.183 338.385 594.863C338.196 593.543 337.442 592.6 336.499 592.411C335.744 592.034 335.179 592.034 334.99 591.846C334.99 591.657 335.556 591.468 336.687 591.657C337.63 591.846 339.139 592.977 339.328 594.863C339.516 596.56 338.385 598.069 337.442 598.446C336.499 598.823 335.744 598.635 335.744 598.446Z" fill="#A36957"/>
<path d="M769.692 834.185L766.109 814.194L730.277 820.607L735.557 850.404L737.821 850.215C747.816 849.084 788.363 842.86 794.587 839.654C801.187 836.071 769.692 834.185 769.692 834.185Z" fill="#E8505B"/>
<path d="M794.775 837.768C794.775 838.146 781.574 840.786 764.978 843.803C748.57 846.821 735.18 849.084 734.992 848.707C734.992 848.329 748.193 845.689 764.789 842.672C781.385 839.466 794.775 837.391 794.775 837.768Z" fill="#263238"/>
<path d="M771.013 838.146C770.635 837.957 770.824 837.014 771.39 835.694C771.956 834.562 772.71 833.808 773.087 833.997C773.464 834.185 773.087 835.128 772.521 836.26C771.956 837.391 771.39 838.334 771.013 838.146Z" fill="#263238"/>
<path d="M773.464 839.088C773.087 839.088 773.087 837.768 773.464 836.448C773.841 835.128 774.784 834.185 774.973 834.374C775.35 834.562 774.973 835.694 774.596 836.825C774.407 838.146 773.841 839.088 773.464 839.088Z" fill="#263238"/>
<path d="M745.93 846.632C745.741 846.821 745.176 846.255 744.233 845.689C743.29 844.935 741.97 843.992 740.461 843.049C738.952 842.295 737.443 841.917 736.312 842.106C735.18 842.106 734.426 842.483 734.426 842.295C734.426 842.106 734.992 841.54 736.123 841.163C737.443 840.786 739.329 840.974 741.027 841.917C742.724 842.86 744.044 843.992 744.798 844.935C745.553 845.878 746.119 846.444 745.93 846.632Z" fill="#263238"/>
<path d="M770.447 834.374C770.635 834.562 770.258 835.505 769.315 836.071C768.372 836.637 767.429 836.637 767.241 836.448C767.052 836.071 767.807 835.694 768.561 835.128C769.504 834.562 770.258 834.185 770.447 834.374Z" fill="#263238"/>
<path d="M769.504 832.676C769.504 833.054 768.75 833.431 767.429 833.619C766.298 833.808 765.166 833.808 765.166 833.431C765.166 833.054 766.109 832.676 767.241 832.488C768.372 832.299 769.504 832.299 769.504 832.676Z" fill="#263238"/>
<path d="M812.691 623.717C801.564 601.275 742.347 514.9 742.347 514.9L710.663 518.295V518.106L675.208 522.067L655.595 524.141L726.317 833.054L775.162 832.111L763.469 774.968C771.578 754.788 818.726 635.976 812.691 623.717ZM762.149 637.107L744.61 684.067L724.808 587.885L762.149 637.107Z" fill="#263238"/>
<path d="M722.922 372.137C722.545 368.931 724.242 355.541 724.242 355.541C724.242 355.541 736.5 354.598 737.632 342.528C738.764 330.458 738.952 302.17 738.952 302.17L716.887 290.477L691.616 308.393L685.015 325.366L693.69 346.489L693.502 353.466V369.497L722.922 372.137Z" fill="#FFBE9D"/>
<path d="M737.255 322.537C737.255 323.48 736.5 324.046 735.557 324.046C734.614 324.046 734.049 323.292 734.049 322.349C734.049 321.406 734.803 320.84 735.746 320.84C736.689 321.029 737.255 321.783 737.255 322.537Z" fill="#263238"/>
<path d="M737.443 321.029C737.255 321.217 736.123 320.274 734.426 320.086C732.729 319.897 731.408 320.652 731.22 320.463C731.22 320.274 731.408 320.086 731.974 319.709C732.54 319.331 733.483 318.954 734.426 319.143C735.557 319.331 736.312 319.709 736.878 320.086C737.443 320.463 737.443 320.84 737.443 321.029Z" fill="#263238"/>
<path d="M717.641 320.652C718.396 321.217 718.396 322.16 718.018 322.915C717.453 323.669 716.51 323.669 715.755 323.292C715.001 322.726 715.001 321.783 715.378 321.029C715.944 320.274 716.887 320.274 717.641 320.652Z" fill="#263238"/>
<path d="M718.773 320.463C718.584 320.652 717.453 319.709 715.755 319.52C714.058 319.331 712.738 320.086 712.549 319.897C712.549 319.709 712.738 319.52 713.304 319.143C713.87 318.766 714.812 318.388 715.755 318.577C716.887 318.766 717.641 319.143 718.207 319.52C718.773 319.897 718.961 320.274 718.773 320.463Z" fill="#263238"/>
<path d="M724.431 334.796C724.431 334.796 725.562 334.607 727.259 334.607C727.637 334.607 728.202 334.607 728.202 334.23C728.391 333.853 728.202 333.476 728.014 332.91C727.637 331.778 727.26 330.647 726.882 329.327C725.374 324.235 724.431 320.274 724.619 320.274C724.619 320.274 724.996 321.217 725.562 322.915C726.128 324.612 726.694 326.875 727.448 329.327C727.825 330.647 728.202 331.778 728.391 332.91C728.58 333.476 728.768 334.042 728.58 334.607C728.391 334.984 728.202 335.173 727.825 335.173C727.637 335.173 727.259 335.173 727.071 335.173C725.374 334.984 724.431 334.796 724.431 334.796Z" fill="#263238"/>
<path d="M718.773 336.116C717.076 334.984 723.299 339.134 726.882 339.134C726.882 339.134 724.619 342.151 721.225 340.454C717.641 338.945 718.773 336.116 718.773 336.116Z" fill="white"/>
<path d="M724.242 355.541C724.242 355.541 715.944 355.352 708.212 349.506C708.212 349.506 711.606 358.558 723.865 358.37L724.242 355.541Z" fill="#EB996E"/>
<path d="M695.199 328.761C695.199 328.761 695.01 328.95 694.822 329.138C694.445 329.327 694.067 329.327 693.502 329.327C692.37 328.95 691.427 327.252 691.239 325.366C691.239 324.423 691.239 323.48 691.616 322.726C691.804 321.972 692.37 321.406 692.936 321.217C693.502 321.029 693.879 321.406 694.067 321.595C694.256 321.783 694.256 322.16 694.256 322.16C694.256 322.16 694.445 321.972 694.445 321.595C694.445 321.406 694.256 321.217 694.067 321.029C693.879 320.84 693.502 320.84 693.124 320.84C692.37 321.029 691.616 321.783 691.427 322.538C691.05 323.292 690.861 324.423 691.05 325.555C691.239 327.629 692.37 329.515 693.879 329.893C694.633 330.081 695.199 329.704 695.576 329.515C695.199 329.138 695.199 328.761 695.199 328.761Z" fill="#EB996E"/>
<path d="M742.158 304.244C741.404 304.433 740.65 304.621 740.084 304.621C742.347 303.49 744.233 301.604 745.553 299.341C747.25 296.135 747.439 291.986 745.553 288.968C743.667 285.951 739.141 284.442 736.123 286.328C737.632 283.876 736.5 280.293 734.049 278.784C731.597 277.087 728.391 277.087 725.751 278.03C722.922 278.973 720.659 280.67 718.207 282.368C718.019 280.482 716.51 278.784 714.812 277.841C713.115 276.898 711.041 276.898 708.966 277.087C703.308 278.03 698.405 282.745 697.462 288.403C695.765 286.517 692.936 285.762 690.484 286.328C688.033 286.894 685.958 288.78 685.015 291.231V291.42C684.072 291.797 682.941 292.552 682.375 293.872C681.432 295.569 681.055 297.832 681.809 299.907C682.563 301.981 684.072 303.678 685.581 304.621C686.335 305.187 686.901 305.753 687.278 306.319C687.655 306.884 687.844 307.45 688.033 308.205C687.844 312.354 685.769 316.125 684.827 320.086C683.506 325.555 686.524 333.099 688.221 338.568C689.918 344.037 690.673 346.111 694.067 346.489L694.633 331.967C690.861 334.985 685.769 324.423 689.164 320.274C692.559 316.125 695.953 317.446 696.519 320.086C696.896 321.783 697.462 323.103 697.462 323.103H701.234L700.857 319.897C700.857 319.897 700.102 305.753 706.892 304.81C709.343 304.433 709.909 304.81 711.984 305.753C714.247 306.884 716.51 306.884 718.962 306.696C721.413 306.696 724.619 303.867 724.619 301.604C727.26 304.81 731.786 306.507 735.935 306.13C737.066 305.941 738.009 305.753 739.141 305.376C740.084 305.753 741.592 305.753 743.101 305.187C744.61 304.621 745.741 303.678 746.307 302.924C746.873 302.17 747.062 301.415 746.873 301.415C746.119 301.227 744.798 303.49 742.158 304.244ZM685.958 303.867C684.449 302.735 683.318 301.415 682.563 299.529C681.998 297.643 682.186 295.758 682.941 294.249C683.318 293.494 683.884 292.929 684.638 292.363C684.072 296.701 686.712 301.038 687.467 305.376C687.09 304.81 686.524 304.244 685.958 303.867Z" fill="#263238"/>
<path d="M806.845 321.972V346.3C806.845 351.769 811.371 356.295 816.84 356.295H858.896V370.251L866.44 357.05C871.155 356.672 874.738 352.901 874.738 348.186V322.16C874.738 316.691 870.212 312.165 864.742 312.165H816.84C811.371 311.976 806.845 316.503 806.845 321.972Z" fill="#58E3A6"/>
<path d="M829.853 335.362C829.853 337.625 827.967 339.511 825.704 339.511C823.441 339.511 821.555 337.625 821.555 335.362C821.555 333.099 823.441 331.213 825.704 331.213C827.967 331.401 829.853 333.099 829.853 335.362Z" fill="white"/>
<path d="M845.506 335.362C845.506 337.625 843.62 339.511 841.357 339.511C839.094 339.511 837.208 337.625 837.208 335.362C837.208 333.099 839.094 331.213 841.357 331.213C843.62 331.401 845.506 333.099 845.506 335.362Z" fill="white"/>
<path d="M861.159 335.362C861.159 337.625 859.273 339.511 857.01 339.511C854.747 339.511 852.861 337.625 852.861 335.362C852.861 333.099 854.747 331.213 857.01 331.213C859.273 331.401 861.159 333.099 861.159 335.362Z" fill="white"/>
<path d="M840.226 394.202C839.471 392.316 785.911 439.653 775.162 441.161L743.856 400.426C743.856 400.426 737.443 390.053 723.488 372.514C714.435 361.199 689.73 363.462 683.129 377.418C672.002 400.991 671.625 432.109 663.138 482.274L655.972 524.707C655.972 524.707 666.722 523.387 666.722 523.576L742.724 515.655L744.61 464.735C759.697 480.011 764.223 483.217 772.144 481.897C791.758 478.88 860.593 417.022 860.593 417.022C860.593 417.022 840.98 396.088 840.226 394.202Z" fill="#455A64"/>
<path d="M851.164 425.697C851.164 425.885 849.655 424.754 847.392 422.679C845.129 420.605 842.111 417.776 839.094 414.193C836.077 410.61 833.625 407.215 832.116 404.763C830.419 402.123 829.664 400.614 829.853 400.426C830.042 400.426 830.985 401.934 832.682 404.386C834.379 406.838 836.831 410.044 839.848 413.627C842.866 417.022 845.695 420.039 847.769 422.114C849.844 424.377 851.352 425.508 851.164 425.697Z" fill="#263238"/>
<path d="M771.956 457.38C771.767 457.38 772.144 453.608 772.899 449.271C773.653 444.745 774.596 441.161 774.784 441.35C774.973 441.35 774.596 445.122 773.842 449.459C773.087 453.797 772.333 457.38 771.956 457.38Z" fill="#263238"/>
<path d="M778.933 455.683C778.745 455.683 777.613 452.665 776.482 448.705C775.35 444.745 774.784 441.538 774.973 441.538C775.162 441.538 776.293 444.556 777.425 448.516C778.556 452.288 779.122 455.683 778.933 455.683Z" fill="#263238"/>
<path opacity="0.2" d="M704.063 411.364L743.667 486.235L744.61 463.981L704.063 411.364Z" fill="black"/>
<path d="M701.423 407.781C701.423 407.781 702.177 408.535 703.308 410.044C704.44 411.741 706.137 413.816 708.023 416.456C711.984 421.736 717.641 429.091 723.865 437.201C730.088 445.122 735.746 452.288 739.895 457.757C741.781 460.209 743.478 462.472 744.798 463.981C745.93 465.49 746.496 466.244 746.496 466.433C746.496 466.433 745.741 465.678 744.61 464.358C743.29 462.849 741.592 460.775 739.518 458.323C735.369 453.231 729.523 446.065 723.299 437.955C717.076 429.846 711.606 422.491 707.646 417.022C705.76 414.381 704.251 412.118 703.12 410.421C701.988 408.535 701.423 407.781 701.423 407.781Z" fill="#263238"/>
<path d="M702.743 431.166C702.743 431.166 702.365 430.412 701.988 428.903C701.611 427.394 701.045 425.32 700.48 422.679L701.045 422.868C698.782 424.188 696.142 425.508 693.313 427.206L692.747 427.583L692.559 427.017C692.182 426.074 691.993 424.942 691.616 423.811C691.239 422.114 690.673 420.416 690.296 418.908L691.05 419.096C688.221 420.605 685.581 422.114 683.318 423.434L682.752 423.622V423.057C682.186 418.719 681.809 416.079 681.998 416.079C682.186 416.079 682.752 418.719 683.506 423.057L682.941 422.868C685.204 421.548 687.655 420.039 690.484 418.342L691.05 417.965L691.239 418.53C691.616 420.039 692.182 421.736 692.559 423.434C692.936 424.565 693.124 425.508 693.502 426.64L692.747 426.263C695.576 424.754 698.216 423.434 700.668 422.114L701.234 421.925L701.423 422.491C701.988 425.131 702.365 427.206 702.554 428.714C702.743 430.223 702.743 431.166 702.743 431.166Z" fill="#263238"/>
<path d="M711.984 388.733C711.984 388.733 711.229 388.356 709.909 387.601C708.589 386.847 706.703 385.527 704.629 384.207L705.194 384.018C704.44 386.47 703.497 389.487 702.554 392.505L702.365 393.071L701.8 392.693C700.857 392.128 699.914 391.562 698.971 390.996C697.462 390.053 695.953 389.299 694.633 388.356L695.388 388.167C694.445 391.373 693.69 394.202 692.936 396.654L692.747 397.22L692.37 396.842C688.975 394.202 686.901 392.505 686.901 392.316C686.901 392.128 689.164 393.636 692.747 396.277L692.181 396.465C692.936 394.014 693.69 391.185 694.445 387.979L694.633 387.413L695.199 387.79C696.519 388.544 698.028 389.487 699.537 390.242C700.48 390.807 701.423 391.373 702.365 391.939L701.611 392.128C702.554 389.11 703.497 386.281 704.44 383.641L704.629 383.075L705.006 383.452C707.269 384.961 708.966 386.281 710.098 387.224C711.418 388.167 712.172 388.733 711.984 388.733Z" fill="#263238"/>
<path d="M739.895 403.254C739.895 403.254 739.141 402.689 738.009 401.746C736.878 400.614 735.369 399.105 733.483 397.22H734.049C732.729 399.483 731.22 402.123 729.711 404.952L729.334 405.518L728.957 405.14C728.202 404.386 727.26 403.632 726.505 402.877C725.185 401.746 724.053 400.614 722.733 399.483L723.488 399.294C721.979 402.123 720.47 404.763 719.15 407.026L718.962 407.592L718.584 407.215C715.755 403.82 714.058 401.746 714.247 401.557C714.435 401.369 716.321 403.443 719.15 406.649H718.584C719.716 404.386 721.225 401.746 722.733 398.917L723.111 398.351L723.488 398.728C724.619 399.86 725.939 400.991 727.259 402.123C728.014 402.877 728.957 403.632 729.711 404.386L728.957 404.575C730.654 401.746 732.163 399.294 733.483 397.031L733.672 396.654L734.049 397.031C735.746 399.105 737.255 400.614 738.198 401.746C739.329 402.5 739.895 403.254 739.895 403.254Z" fill="#E0E0E0"/>
<path d="M813.068 450.968C813.068 450.968 812.503 450.402 811.56 449.082C810.617 447.951 809.297 446.065 807.599 443.99H808.165C806.656 446.065 804.77 448.516 802.885 450.968L802.507 451.534L802.13 451.157C801.376 450.402 800.81 449.459 800.056 448.705C798.924 447.385 797.793 446.065 796.85 444.745H797.604C795.718 447.385 793.832 449.836 792.323 451.911L791.946 452.288L791.758 451.911C789.495 448.139 787.986 445.876 788.174 445.876C788.363 445.876 789.872 447.951 792.323 451.534H791.758C793.266 449.459 794.964 447.008 796.85 444.367L797.227 443.802L797.604 444.367C798.736 445.687 799.678 446.819 800.81 448.328C801.564 449.271 802.319 450.025 802.885 450.968H802.13C804.205 448.516 805.902 446.065 807.599 443.99L807.977 443.613L808.354 443.99C809.862 446.253 811.183 447.951 811.937 449.271C812.691 450.214 813.068 450.968 813.068 450.968Z" fill="#263238"/>
<path d="M767.807 447.196C767.807 447.196 767.052 446.819 765.921 445.876C764.789 444.933 763.092 443.613 761.017 441.916L761.583 441.727C760.451 444.179 759.32 446.819 758 449.836L757.811 450.402L757.245 450.025C756.302 449.459 755.548 448.705 754.605 448.139C753.285 447.196 751.776 446.065 750.456 445.122L751.211 444.933C749.89 447.951 748.759 450.591 747.816 453.043L747.627 453.608L747.25 453.231C744.044 450.214 742.158 448.328 742.347 448.139C742.535 447.951 744.61 449.836 747.816 452.665L747.25 452.854C748.193 450.402 749.325 447.762 750.456 444.556L750.645 443.99L751.211 444.367C752.531 445.31 753.851 446.253 755.36 447.385C756.302 448.139 757.245 448.705 758 449.271L757.245 449.459C758.566 446.442 759.886 443.802 760.829 441.35L761.017 440.784L761.394 441.161C763.469 442.859 764.978 444.367 766.109 445.499C767.241 446.442 767.807 447.008 767.807 447.196Z" fill="#E0E0E0"/>
<path d="M832.682 436.446C832.682 436.446 832.493 435.692 832.116 434.183C831.928 432.675 831.55 430.412 831.173 427.771L831.739 428.148C829.287 429.28 826.647 430.412 823.63 431.732L823.064 431.92L822.875 431.355C822.687 430.223 822.498 429.28 822.309 428.148C821.932 426.451 821.744 424.754 821.366 423.245L822.121 423.622C819.103 424.942 816.463 426.074 814.011 427.206L813.446 427.394V426.828C813.257 422.491 813.257 419.662 813.257 419.662C813.446 419.662 813.634 422.302 814.2 426.64L813.634 426.263C815.897 425.131 818.726 423.811 821.555 422.491L822.121 422.302L822.309 422.868C822.687 424.377 822.875 426.074 823.252 427.771C823.441 428.903 823.63 430.034 823.818 430.977L823.064 430.6C826.081 429.469 828.91 428.337 831.173 427.206L831.739 427.017V427.583C831.928 430.223 832.116 432.486 832.305 433.995C832.682 435.692 832.682 436.446 832.682 436.446Z" fill="#E0E0E0"/>
<path d="M742.158 416.456C742.158 416.456 741.404 417.022 740.084 417.776C738.764 418.53 736.878 419.662 734.426 420.793L734.615 420.228C736.5 422.114 738.575 424.188 740.838 426.64L741.215 427.017L740.649 427.394C739.706 427.96 738.764 428.526 737.821 429.091C736.312 430.034 734.803 430.789 733.483 431.732V430.977C735.746 433.24 737.821 435.315 739.706 437.201L740.084 437.578L739.518 437.767C735.557 439.464 732.917 440.596 732.917 440.407C732.917 440.218 735.18 439.087 739.141 437.012L738.952 437.578C737.066 435.881 734.992 433.806 732.54 431.543L732.163 431.166L732.729 430.789C734.049 429.846 735.557 429.091 737.066 428.149C738.009 427.583 738.952 427.017 739.895 426.451L739.706 427.206C737.443 424.942 735.369 422.679 733.672 420.793L733.294 420.416L733.86 420.228C736.312 419.096 738.198 418.153 739.706 417.399C741.404 416.644 742.158 416.267 742.158 416.456Z" fill="#263238"/>
<path d="M776.859 457.38C776.859 457.38 776.105 457.946 774.784 458.7C773.464 459.455 771.578 460.586 769.127 461.718L769.315 461.152C771.201 463.038 773.276 465.112 775.539 467.564L775.916 467.941L775.35 468.318C774.407 468.884 773.464 469.45 772.521 470.016C771.013 470.959 769.504 471.713 768.184 472.656V471.902C770.447 474.165 772.521 476.239 774.407 478.125L774.784 478.502L774.219 478.691C770.258 480.388 767.618 481.52 767.618 481.331C767.618 481.143 769.881 480.011 773.841 477.937L773.653 478.502C771.767 476.805 769.692 474.731 767.241 472.467L766.864 472.09L767.429 471.713C768.75 470.77 770.258 470.016 771.767 469.073C772.71 468.507 773.653 467.941 774.596 467.375L774.407 468.13C772.144 465.678 770.07 463.604 768.372 461.718L767.995 461.341L768.561 461.152C771.013 460.02 772.899 459.077 774.407 458.323C775.916 457.569 776.859 457.38 776.859 457.38Z" fill="#E0E0E0"/>
<path d="M708.023 456.814C708.023 456.814 707.646 456.06 707.269 454.551C706.892 453.043 706.326 450.968 705.76 448.328L706.326 448.516C704.063 449.836 701.423 451.157 698.594 452.854L698.028 453.231L697.839 452.665C697.462 451.722 697.273 450.591 696.896 449.459C696.519 447.762 695.953 446.065 695.576 444.556L696.331 444.745C693.502 446.253 690.861 447.762 688.598 449.082L688.033 449.271V448.705C687.467 444.367 687.09 441.727 687.278 441.727C687.467 441.727 688.033 444.367 688.787 448.705L688.221 448.516C690.484 447.196 692.936 445.687 695.765 443.99L696.331 443.613L696.519 444.179C696.896 445.687 697.462 447.385 697.839 449.082C698.216 450.214 698.405 451.157 698.782 452.288L698.028 451.911C700.857 450.402 703.497 449.082 705.949 447.762L706.514 447.573L706.703 448.139C707.269 450.779 707.646 452.854 707.835 454.363C708.023 455.871 708.212 456.814 708.023 456.814Z" fill="#E0E0E0"/>
<path d="M739.518 474.542C739.518 474.542 739.141 473.788 738.764 472.279C738.386 470.77 737.821 468.696 737.255 466.055L737.821 466.244C735.557 467.564 732.917 468.884 730.088 470.582L729.523 470.959L729.334 470.393C728.957 469.45 728.768 468.318 728.391 467.187C728.014 465.49 727.448 463.792 727.071 462.284L727.825 462.661C724.996 464.169 722.356 465.678 720.093 466.998L719.527 467.187V466.621C718.961 462.283 718.584 459.643 718.773 459.643C718.961 459.643 719.527 462.283 720.282 466.621L719.716 466.433C721.979 465.112 724.431 463.604 727.259 461.906L727.825 461.529L728.014 462.095C728.391 463.604 728.957 465.301 729.334 466.998C729.711 468.13 729.9 469.073 730.277 470.204L729.523 469.827C732.351 468.318 734.992 466.998 737.443 465.678L738.009 465.49L738.198 466.055C738.764 468.696 739.141 470.77 739.329 472.279C739.518 473.788 739.706 474.542 739.518 474.542Z" fill="#263238"/>
<path d="M693.502 513.957C693.502 513.957 693.125 513.203 692.747 511.694C692.37 510.186 691.804 508.111 691.239 505.471L691.804 505.659C689.541 506.98 686.901 508.3 684.072 509.997L683.506 510.374L683.318 509.808C682.941 508.865 682.752 507.734 682.375 506.602C681.998 504.905 681.432 503.208 681.055 501.699L681.809 502.076C678.98 503.585 676.34 505.094 674.077 506.414L673.511 506.602V506.037C672.945 501.699 672.568 499.059 672.757 499.059C672.945 499.059 673.511 501.699 674.265 506.037L673.7 505.848C675.963 504.528 678.414 503.019 681.243 501.322L681.809 500.945L681.998 501.51C682.375 503.019 682.941 504.716 683.318 506.414C683.695 507.545 683.884 508.488 684.261 509.62L683.506 509.243C686.335 507.734 688.975 506.414 691.427 505.094L691.993 504.905L692.182 505.471C692.747 508.111 693.124 510.186 693.313 511.694C693.502 513.014 693.502 513.957 693.502 513.957Z" fill="#E0E0E0"/>
<path d="M694.256 472.656C694.256 472.656 693.502 472.279 692.181 471.336C691.05 470.393 689.164 469.073 687.09 467.375L687.655 467.187C686.712 469.639 685.392 472.467 684.261 475.296L684.072 475.862L683.506 475.485C682.563 474.919 681.809 474.165 680.866 473.599C679.357 472.656 678.037 471.524 676.717 470.581L677.471 470.393C676.34 473.41 675.208 476.239 674.265 478.502L674.077 479.068L673.7 478.691C670.494 475.673 668.608 473.788 668.608 473.599C668.796 473.41 670.871 475.296 674.077 478.125L673.511 478.314C674.454 475.862 675.397 473.033 676.528 470.016L676.717 469.45L677.283 469.827C678.603 470.77 679.923 471.713 681.432 472.845C682.375 473.599 683.318 474.165 684.072 474.73L683.318 474.919C684.638 471.902 685.769 469.261 686.901 466.81L687.09 466.244L687.467 466.621C689.541 468.318 691.05 469.827 692.181 470.77C693.879 472.09 694.445 472.656 694.256 472.656Z" fill="#263238"/>
<path d="M710.852 473.788C710.852 473.788 710.286 474.353 708.966 475.296C707.646 476.239 705.76 477.371 703.497 478.691V478.125C705.383 479.822 707.646 481.897 710.098 483.971L710.475 484.349L709.909 484.726C708.966 485.292 708.212 486.046 707.269 486.612C705.76 487.555 704.44 488.686 703.12 489.629V488.875C705.571 490.949 707.835 493.024 709.72 494.721L710.098 495.098L709.72 495.287C705.949 497.361 703.497 498.493 703.308 498.304C703.308 498.116 705.571 496.796 709.343 494.533V495.098C707.269 493.401 705.006 491.515 702.554 489.441L701.988 489.063L702.554 488.686C703.874 487.743 705.194 486.8 706.703 485.669C707.646 485.103 708.589 484.349 709.343 483.783V484.537C706.892 482.274 704.817 480.388 702.931 478.502L702.554 478.125L702.931 477.937C705.194 476.616 707.08 475.485 708.4 474.73C709.909 474.165 710.852 473.788 710.852 473.788Z" fill="#263238"/>
<path d="M728.957 486.612C728.957 486.612 728.58 487.366 727.637 488.686C726.694 490.006 725.374 491.704 723.676 493.778L723.488 493.212C725.939 494.155 728.768 495.287 731.786 496.418L732.351 496.607L731.974 497.173C731.408 498.116 730.654 499.059 730.088 499.813C729.145 501.322 728.202 502.642 727.259 503.962L727.071 503.208C730.088 504.339 732.917 505.471 735.369 506.414L735.935 506.602L735.557 506.98C732.54 510.186 730.654 512.26 730.654 512.072C730.466 511.883 732.163 509.808 734.992 506.414L735.18 506.98C732.729 506.037 729.9 505.094 726.882 503.962L726.316 503.774L726.694 503.208C727.637 501.888 728.58 500.379 729.523 499.059C730.088 498.116 730.843 497.173 731.408 496.418L731.597 497.173C728.58 495.853 725.939 494.721 723.488 493.778L722.922 493.59L723.299 493.212C724.996 491.138 726.505 489.441 727.448 488.309C728.202 487.177 728.957 486.612 728.957 486.612Z" fill="#E0E0E0"/>
<path d="M718.584 517.352C718.584 517.352 718.584 517.541 718.773 517.918C718.961 518.295 719.15 519.049 719.339 519.804C719.716 521.501 720.47 523.953 721.225 526.97C721.979 530.176 722.922 533.948 723.676 538.474C724.053 540.737 723.865 543.378 722.733 545.829C721.602 548.281 719.904 550.544 717.83 552.619L718.019 552.241C722.922 575.627 729.9 608.63 737.632 645.028C745.176 680.861 751.776 713.11 756.491 736.684C758.754 748.376 760.64 757.994 761.96 764.595C762.526 767.801 763.092 770.441 763.28 772.139C763.658 773.836 763.658 774.779 763.658 774.779C763.658 774.779 763.469 773.836 763.092 772.139C762.715 770.441 762.149 767.801 761.583 764.595C760.263 757.994 758.188 748.565 755.737 736.872C750.833 713.298 744.044 681.049 736.689 645.217C729.145 608.819 722.356 576.004 717.453 552.43V552.241L717.641 552.053C721.602 548.092 724.431 543 723.299 538.474C722.733 533.948 721.79 529.988 721.036 526.97C720.282 523.953 719.716 521.501 719.339 519.804C719.15 519.049 718.961 518.484 718.961 517.918C718.584 517.541 718.584 517.352 718.584 517.352Z" fill="#455A64"/>
<path d="M678.98 521.878C678.98 521.878 679.357 522.255 679.546 523.198C679.923 524.141 680.112 525.273 680.3 526.97C680.489 530.176 679.735 534.891 676.717 539.04C673.511 543 669.173 544.886 665.967 545.452C664.27 545.829 662.95 545.829 662.196 545.641C661.253 545.641 660.875 545.452 660.875 545.452C660.875 545.264 662.95 545.452 665.967 544.886C668.985 544.132 673.134 542.246 676.151 538.474C679.169 534.702 679.923 530.176 679.923 527.159C679.546 523.764 678.792 521.878 678.98 521.878Z" fill="#455A64"/>
<path d="M710.475 523.953C710.475 523.953 710.475 523.764 710.852 523.387C711.229 523.198 711.984 523.01 712.738 523.198C713.492 523.387 714.624 524.141 714.624 525.273C714.812 526.404 714.247 527.725 712.927 528.29C711.606 528.856 710.286 528.29 709.532 527.347C708.778 526.404 708.778 525.273 709.155 524.519C709.909 523.01 711.229 523.01 711.041 523.01C711.041 523.198 710.098 523.387 709.721 524.707C709.532 525.273 709.532 526.027 710.098 526.782C710.663 527.347 711.606 527.725 712.361 527.347C713.115 526.97 713.681 526.027 713.492 525.273C713.492 524.519 712.927 523.953 712.361 523.764C711.418 523.387 710.663 524.141 710.475 523.953Z" fill="#455A64"/>
<path d="M750.456 528.102C750.456 528.102 749.136 529.045 746.873 529.422C744.421 529.799 741.027 529.422 737.821 527.347C734.615 525.273 732.917 522.067 732.351 519.804C731.597 517.541 731.974 516.032 731.974 516.032C732.163 516.032 732.163 517.541 732.917 519.615C733.672 521.69 735.369 524.519 738.386 526.593C741.404 528.479 744.61 528.856 746.873 528.668C748.947 528.479 750.268 527.913 750.456 528.102Z" fill="#455A64"/>
<path d="M771.013 816.458C771.013 816.458 770.258 816.646 769.127 816.646C767.618 816.646 765.921 816.835 764.035 817.023C759.509 817.212 753.662 817.589 747.062 817.778C740.649 818.155 734.803 818.343 730.088 818.721C728.014 818.721 726.317 818.909 724.996 818.909C723.865 818.909 723.111 818.909 723.111 818.909C723.111 818.909 723.676 818.721 724.996 818.532C726.128 818.343 728.014 818.155 730.088 817.966C734.426 817.589 740.461 817.212 747.062 816.835C753.662 816.458 759.697 816.269 764.035 816.269C766.298 816.269 767.995 816.269 769.127 816.269C770.447 816.269 771.013 816.458 771.013 816.458Z" fill="#455A64"/>
<path d="M685.015 543.378C685.204 543.378 700.102 604.481 718.207 680.106C736.312 755.731 750.645 817.023 750.456 817.023C750.268 817.023 735.369 755.92 717.264 680.295C699.159 604.858 684.638 543.566 685.015 543.378Z" fill="#455A64"/>
<path d="M733.294 545.829C733.294 545.829 733.483 546.018 733.672 546.207C733.86 546.584 734.237 546.961 734.615 547.527C735.369 548.658 736.689 550.356 738.198 552.241C741.215 556.579 745.553 562.614 750.833 569.969C756.114 577.513 762.526 586.376 769.504 596.372C773.087 601.275 776.67 606.556 780.631 612.025C784.403 617.494 788.174 623.529 789.117 630.695C790.06 637.862 787.986 644.84 785.911 651.063C783.648 657.287 781.385 663.322 779.122 668.979C774.784 680.295 770.447 690.479 766.864 698.965C763.28 707.452 760.074 714.241 758 718.956C756.868 721.219 756.114 723.105 755.548 724.236C755.36 724.802 754.982 725.179 754.794 725.557C754.605 725.934 754.605 725.934 754.605 725.934C754.605 725.934 754.605 725.745 754.794 725.368C754.982 724.991 755.171 724.614 755.36 723.859C755.925 722.539 756.68 720.653 757.811 718.39C759.886 713.675 762.903 706.886 766.486 698.399C770.07 689.913 774.219 679.729 778.556 668.414C780.819 662.756 782.894 656.721 785.157 650.497C787.231 644.274 789.306 637.485 788.363 630.695C787.42 623.717 783.648 617.871 780.065 612.402C776.293 606.933 772.521 601.652 769.127 596.749C762.149 586.754 755.925 577.89 750.456 570.158C745.176 562.614 741.027 556.579 738.009 552.241C736.5 550.167 735.557 548.47 734.615 547.338C734.237 546.772 734.049 546.395 733.672 546.018C733.294 546.018 733.294 545.829 733.294 545.829Z" fill="#455A64"/>
<path d="M829.099 396.088L871.154 365.348L873.229 368.742L831.362 399.86L829.099 396.088Z" fill="#263238"/>
<path d="M839.471 395.145C839.471 395.145 845.129 380.435 846.449 377.229C847.769 374.023 849.844 368.554 850.598 368.554C851.352 368.365 854.37 368.931 850.409 378.172C846.638 387.601 854.936 381.755 854.936 381.755L863.045 375.909C863.045 375.909 869.457 395.145 865.874 400.803C861.913 407.026 856.256 413.061 856.256 413.061L839.471 395.145Z" fill="#FFBE9D"/>
</svg>
