<svg width="17" height="17" viewBox="0 0 17 17" fill="none" xmlns="http://www.w3.org/2000/svg">
<path d="M16.1932 3.54968H1.66688C1.45285 3.54968 1.24758 3.63304 1.09623 3.78142C0.944888 3.9298 0.859863 4.13104 0.859863 4.34088C0.859863 4.55071 0.944888 4.75196 1.09623 4.90033C1.24758 5.04871 1.45285 5.13207 1.66688 5.13207H3.28092V14.6264C3.28111 15.2558 3.53624 15.8595 3.99024 16.3046C4.44423 16.7497 5.05992 16.9998 5.70197 17H12.1581C12.8002 16.9998 13.4159 16.7497 13.8699 16.3046C14.3239 15.8595 14.579 15.2559 14.5792 14.6264V5.13207H16.1932C16.4072 5.13207 16.6125 5.04871 16.7638 4.90033C16.9152 4.75196 17.0002 4.55071 17.0002 4.34088C17.0002 4.13104 16.9152 3.9298 16.7638 3.78142C16.6125 3.63304 16.4072 3.54968 16.1932 3.54968ZM8.12302 12.2528C8.12302 12.4627 8.038 12.6639 7.88665 12.8123C7.73531 12.9606 7.53004 13.044 7.316 13.044C7.10197 13.044 6.8967 12.9606 6.74536 12.8123C6.59401 12.6639 6.50899 12.4627 6.50899 12.2528V8.29684C6.50899 8.08701 6.59401 7.88576 6.74536 7.73739C6.8967 7.58901 7.10197 7.50565 7.316 7.50565C7.53004 7.50565 7.73531 7.58901 7.88665 7.73739C8.038 7.88576 8.12302 8.08701 8.12302 8.29684V12.2528ZM11.3511 12.2528C11.3511 12.4627 11.2661 12.6639 11.1147 12.8123C10.9634 12.9606 10.7581 13.044 10.5441 13.044C10.33 13.044 10.1248 12.9606 9.97343 12.8123C9.82208 12.6639 9.73706 12.4627 9.73706 12.2528V8.29684C9.73706 8.08701 9.82208 7.88576 9.97343 7.73739C10.1248 7.58901 10.33 7.50565 10.5441 7.50565C10.7581 7.50565 10.9634 7.58901 11.1147 7.73739C11.2661 7.88576 11.3511 8.08701 11.3511 8.29684V12.2528Z" fill="#D5D5D5"/>
<path d="M7.88396 2.65299H10.8729C11.0711 2.65299 11.2612 2.55852 11.4013 2.39036C11.5414 2.2222 11.6201 1.99412 11.6201 1.75631C11.6201 1.51849 11.5414 1.29041 11.4013 1.12225C11.2612 0.954091 11.0711 0.859619 10.8729 0.859619H7.88396C7.68578 0.859619 7.49571 0.954091 7.35558 1.12225C7.21545 1.29041 7.13672 1.51849 7.13672 1.75631C7.13672 1.99412 7.21545 2.2222 7.35558 2.39036C7.49571 2.55852 7.68578 2.65299 7.88396 2.65299Z" fill="#D5D5D5"/>
</svg>
