<svg width="29" height="29" viewBox="0 0 29 29" fill="none" xmlns="http://www.w3.org/2000/svg">
<path d="M14.234 0C6.3736 0 0 6.37235 0 14.2334C0 22.0944 6.37298 28.4667 14.234 28.4667C22.0956 28.4667 28.468 22.0944 28.468 14.2334C28.468 6.37235 22.0956 0 14.234 0ZM14.234 4.25594C16.835 4.25594 18.9426 6.36422 18.9426 8.96393C18.9426 11.5643 16.835 13.6719 14.234 13.6719C11.6343 13.6719 9.52664 11.5643 9.52664 8.96393C9.52664 6.36422 11.6343 4.25594 14.234 4.25594ZM14.2309 24.7454C11.6368 24.7454 9.26091 23.8007 7.42836 22.237C6.98195 21.8562 6.72435 21.2979 6.72435 20.712C6.72435 18.0754 8.85827 15.9653 11.4955 15.9653H16.9738C19.6116 15.9653 21.7374 18.0754 21.7374 20.712C21.7374 21.2985 21.481 21.8556 21.034 22.2363C19.2021 23.8007 16.8256 24.7454 14.2309 24.7454Z" fill="url(#paint0_linear_355_178)"/>
<defs>
<linearGradient id="paint0_linear_355_178" x1="1.58156" y1="5.6025" x2="29.6437" y2="15.1667" gradientUnits="userSpaceOnUse">
<stop stop-color="#55CBF3"/>
<stop offset="1" stop-color="#3084ED"/>
</linearGradient>
</defs>
</svg>
