<svg width="3" height="4" viewBox="0 0 3 4" fill="none" xmlns="http://www.w3.org/2000/svg">
<path d="M1.5 3.20005C1.43619 3.19971 1.37325 3.18421 1.31575 3.15469C1.25825 3.12517 1.20763 3.08237 1.16756 3.02938L0.11527 1.66938C0.05378 1.58751 0.0150855 1.48885 0.00359553 1.38465C-0.00789445 1.28046 0.00828218 1.17491 0.0502822 1.08005C0.0843454 0.997603 0.139933 0.927359 0.210406 0.877708C0.280879 0.828057 0.363258 0.801098 0.447705 0.800049H2.55229C2.63674 0.801098 2.71912 0.828057 2.78959 0.877708C2.86007 0.927359 2.91565 0.997603 2.94972 1.08005C2.99172 1.17491 3.00789 1.28046 2.9964 1.38465C2.98491 1.48885 2.94622 1.58751 2.88473 1.66938L1.83244 3.02938C1.79237 3.08237 1.74175 3.12517 1.68425 3.15469C1.62675 3.18421 1.56381 3.19971 1.5 3.20005Z" fill="#222222"/>
</svg>
