<svg width="23" height="21" viewBox="0 0 23 21" fill="none" xmlns="http://www.w3.org/2000/svg">
<path d="M11.5641 15.6711C11.0854 15.6696 10.6256 15.8558 10.2853 16.1889C9.94504 16.5219 9.75191 16.9748 9.74816 17.4484L9.72924 20.9306L13.3461 20.9503L13.365 17.4681C13.3662 16.9938 13.1773 16.5383 12.8397 16.2015C12.5022 15.8646 12.0434 15.6739 11.5641 15.6711Z" fill="url(#paint0_linear_77_393)"/>
<path d="M22.5293 8.49667L13.2259 1.50841C12.7323 1.142 12.1327 0.942362 11.5157 0.939008C10.8986 0.935654 10.2969 1.12876 9.79928 1.48979L3.32797 6.24153C3.19397 6.33697 3.07122 6.44698 2.96201 6.5695L0.406616 8.50928C0.222569 8.65014 0.102074 8.85712 0.0712637 9.08533C0.0404536 9.31354 0.101819 9.54458 0.242041 9.72834C0.324277 9.83347 0.429731 9.91859 0.550334 9.97719C0.670937 10.0358 0.803488 10.0663 0.937841 10.0664C1.13204 10.0688 1.32124 10.0055 1.47411 9.88699L2.17024 9.35676L2.12291 18.0655C2.11954 18.8137 2.41634 19.5327 2.94814 20.0647C3.47995 20.5966 4.20331 20.8981 4.95947 20.9029L7.86403 20.9187L7.88274 17.476C7.88883 16.5471 8.26705 15.6586 8.93441 15.0054C9.60177 14.3522 10.5038 13.9877 11.4425 13.9918C12.3819 13.997 13.2809 14.3709 13.942 15.0314C14.6032 15.6919 14.9724 16.585 14.9686 17.5145L14.9499 20.9572L17.8588 20.973C18.6148 20.9756 19.3409 20.6818 19.8783 20.1558C20.4156 19.6298 20.7205 18.9146 20.7261 18.1666L20.774 9.35802L21.4688 9.87844C21.6199 9.99226 21.8044 10.0542 21.9943 10.0549C22.1305 10.0557 22.2651 10.025 22.3872 9.96543C22.5094 9.90581 22.6159 9.81885 22.6982 9.71146C22.7683 9.62096 22.8196 9.5176 22.849 9.40736C22.8785 9.29713 22.8856 9.1822 22.8699 9.06923C22.8542 8.95626 22.816 8.84748 22.7575 8.74921C22.6991 8.65093 22.6215 8.5651 22.5293 8.49667Z" fill="url(#paint1_linear_77_393)"/>
<defs>
<linearGradient id="paint0_linear_77_393" x1="1.33095" y1="4.88184" x2="23.1466" y2="13.3486" gradientUnits="userSpaceOnUse">
<stop stop-color="#55CBF3"/>
<stop offset="1" stop-color="#3084ED"/>
</linearGradient>
<linearGradient id="paint1_linear_77_393" x1="1.33095" y1="4.88184" x2="23.1466" y2="13.3486" gradientUnits="userSpaceOnUse">
<stop stop-color="#55CBF3"/>
<stop offset="1" stop-color="#3084ED"/>
</linearGradient>
</defs>
</svg>
