<svg width="36" height="36" viewBox="0 0 36 36" fill="none" xmlns="http://www.w3.org/2000/svg">
<path d="M18 4.28906C17.417 4.28906 16.9453 3.81734 16.9453 3.23438V1.05469C16.9453 0.471727 17.417 0 18 0C18.583 0 19.0547 0.471727 19.0547 1.05469V3.23438C19.0547 3.81734 18.583 4.28906 18 4.28906Z" fill="white"/>
<path d="M28.0474 10.0899C27.7559 9.58515 27.9289 8.94039 28.4336 8.64894L30.2598 7.59425C30.7623 7.3007 31.4082 7.47374 31.7007 7.98048C31.9922 8.48518 31.8191 9.12995 31.3144 9.42139L29.4883 10.4761C28.9853 10.7666 28.339 10.595 28.0474 10.0899Z" fill="white"/>
<path d="M4.29932 23.8008C4.00781 23.2961 4.18085 22.6514 4.68555 22.3599L6.5117 21.3052C7.01226 21.0127 7.66012 21.1858 7.95262 21.6915C8.24413 22.1962 8.07109 22.8409 7.56639 23.1324L5.74024 24.1871C5.23736 24.4776 4.59105 24.306 4.29932 23.8008Z" fill="white"/>
<path d="M23.8008 5.84326C23.2961 5.55174 23.123 4.90705 23.4146 4.40235L24.4692 2.57619C24.7608 2.06839 25.4055 1.89746 25.9102 2.18996C26.4149 2.48148 26.5879 3.12617 26.2964 3.63088L25.2417 5.45703C24.9495 5.96307 24.3027 6.13323 23.8008 5.84326Z" fill="white"/>
<path d="M10.7583 5.45703L9.70362 3.63088C9.4121 3.12617 9.58514 2.48141 10.0898 2.18996C10.5915 1.89746 11.2393 2.06839 11.5308 2.57619L12.5854 4.40235C12.877 4.90705 12.7039 5.55181 12.1992 5.84326C11.6963 6.13379 11.05 5.96216 10.7583 5.45703Z" fill="white"/>
<path d="M30.2598 24.1871L28.4336 23.1324C27.9289 22.8408 27.7559 22.1962 28.0474 21.6915C28.3389 21.1858 28.9846 21.0127 29.4883 21.3052L31.3144 22.3599C31.8191 22.6514 31.9922 23.2961 31.7007 23.8008C31.4084 24.3069 30.7617 24.477 30.2598 24.1871Z" fill="white"/>
<path d="M6.5117 10.4761L4.68555 9.42139C4.18085 9.12988 4.00781 8.48518 4.29932 7.98048C4.58978 7.47374 5.23455 7.3007 5.74024 7.59425L7.56639 8.64894C8.07109 8.94046 8.24413 9.58515 7.95262 10.0899C7.6604 10.5959 7.01367 10.766 6.5117 10.4761Z" fill="white"/>
<path d="M32.7656 16.9453H30.6562C30.0733 16.9453 29.6016 16.4736 29.6016 15.8906C29.6016 15.3077 30.0733 14.8359 30.6562 14.8359H32.7656C33.3486 14.8359 33.8203 15.3077 33.8203 15.8906C33.8203 16.4736 33.3486 16.9453 32.7656 16.9453Z" fill="white"/>
<path d="M5.34375 16.9453H3.23438C2.65141 16.9453 2.17969 16.4736 2.17969 15.8906C2.17969 15.3077 2.65141 14.8359 3.23438 14.8359H5.34375C5.92671 14.8359 6.39844 15.3077 6.39844 15.8906C6.39844 16.4736 5.92671 16.9453 5.34375 16.9453Z" fill="white"/>
<path d="M18 36C20.3267 36 22.2187 34.108 22.2187 31.7812H13.7883C13.8264 34.1523 15.6589 36 18 36Z" fill="white"/>
<path d="M17.9999 6.39955C12.0955 6.38894 9.10503 11.2575 8.6231 14.393C8.23997 16.8866 8.82497 19.3729 10.2711 21.3937C12.197 24.0845 13.2914 26.8385 13.6284 29.6015H22.3627C22.6825 26.7535 23.7443 24.0145 25.5712 21.6079C26.8278 19.9507 27.4921 17.9743 27.4921 15.8906C27.4921 11.9082 24.3822 6.41101 17.9999 6.39955ZM20.8549 16.6363L19.0546 18.4367V22.2187C19.0546 22.8017 18.5829 23.2734 17.9999 23.2734C17.4169 23.2734 16.9452 22.8017 16.9452 22.2187V18.4367L15.1449 16.6364C14.7329 16.2244 14.7329 15.5569 15.1449 15.145C15.5568 14.733 16.2243 14.733 16.6363 15.145L17.9999 16.5086L19.3636 15.1449C19.7756 14.7329 20.4431 14.7329 20.855 15.1449C21.267 15.5568 21.267 16.2243 20.8549 16.6363Z" fill="white"/>
</svg>
