<svg width="66" height="66" viewBox="0 0 66 66" fill="none" xmlns="http://www.w3.org/2000/svg">
<path d="M33 1.43235e-05C51.2259 1.43235e-05 66 14.7741 66 33C66 51.2259 51.2259 66 33 66C14.7741 66 0 51.2259 0 33H6.6C6.60049 39.2081 8.78876 45.2174 12.7803 49.9722C16.7719 54.7269 22.3114 57.9229 28.4256 58.9986C34.5398 60.0743 40.8375 58.9609 46.2122 55.854C51.5869 52.747 55.6948 47.8454 57.8141 42.0103C59.9334 36.1751 59.9285 29.7797 57.8003 23.9478C55.6721 18.1159 51.5568 13.2205 46.1774 10.1218C40.7979 7.0231 34.4986 5.91926 28.386 7.00426C22.2735 8.08926 16.7388 11.2937 12.7545 16.0545L19.8 23.1H0V3.30001L8.0751 11.3718C11.1701 7.79852 14.9981 4.9334 19.299 2.97118C23.5998 1.00895 28.2727 -0.00439432 33 1.43235e-05ZM36.3 16.5V31.6305L47.0019 42.3324L42.3324 47.0019L29.7 34.3629V16.5H36.3Z" fill="#58E3A6"/>
</svg>
