<svg width="69" height="72" viewBox="0 0 69 72" fill="none" xmlns="http://www.w3.org/2000/svg">
<path d="M61.1113 36C61.1113 35.172 61.0759 34.38 61.0049 33.552L67.6045 28.476C69.0238 27.396 69.4141 25.38 68.527 23.796L61.8919 12.168C61.4665 11.4055 60.7784 10.8293 59.9597 10.5502C59.1411 10.2711 58.2496 10.3088 57.4567 10.656L49.8281 13.932C48.5153 12.996 47.1315 12.168 45.6768 11.484L44.6478 3.168C44.4349 1.368 42.9092 0 41.1351 0H27.9004C26.0908 0 24.5651 1.368 24.3522 3.168L23.3232 11.484C21.8685 12.168 20.4847 12.996 19.1719 13.932L11.5433 10.656C9.91112 9.936 7.9951 10.584 7.10806 12.168L0.472965 23.832C-0.41408 25.416 -0.0237801 27.396 1.39549 28.512L7.9951 33.588C7.84802 35.2046 7.84802 36.8314 7.9951 38.448L1.39549 43.524C-0.0237801 44.604 -0.41408 46.62 0.472965 48.204L7.10806 59.832C7.9951 61.416 9.91112 62.064 11.5433 61.344L19.1719 58.068C20.4847 59.004 21.8685 59.832 23.3232 60.516L24.3522 68.832C24.5651 70.632 26.0908 72 27.8649 72H41.0996C42.8737 72 44.3994 70.632 44.6123 68.832L45.6413 60.516C47.096 59.832 48.4798 59.004 49.7926 58.068L57.4212 61.344C59.0534 62.064 60.9694 61.416 61.8564 59.832L68.4915 48.204C69.3786 46.62 68.9883 44.64 67.569 43.524L60.9694 38.448C61.0759 37.62 61.1113 36.828 61.1113 36ZM34.6419 48.6C27.7939 48.6 22.2233 42.948 22.2233 36C22.2233 29.052 27.7939 23.4 34.6419 23.4C41.4899 23.4 47.0606 29.052 47.0606 36C47.0606 42.948 41.4899 48.6 34.6419 48.6Z" fill="#C1C1C1"/>
</svg>
