<svg width="63" height="65" viewBox="0 0 63 65" fill="none" xmlns="http://www.w3.org/2000/svg">
<path d="M22.9186 32.4543C22.9279 34.115 22.563 35.7541 21.8541 37.2357C20.8365 39.3893 19.1618 41.1161 17.1012 42.1365C15.0406 43.1569 12.715 43.4111 10.5009 42.8577C8.28689 42.3044 6.3142 40.976 4.90247 39.0878C3.49073 37.1997 2.72266 34.8622 2.72266 32.4543C2.72266 30.0464 3.49073 27.709 4.90247 25.8208C6.3142 23.9326 8.28689 22.6042 10.5009 22.0509C12.715 21.4976 15.0406 21.7517 17.1012 22.7721C19.1618 23.7925 20.8365 25.5193 21.8541 27.673C22.563 29.1545 22.9279 30.7936 22.9186 32.4543V32.4543Z" stroke="#353535" stroke-width="4" stroke-miterlimit="10" stroke-linecap="round"/>
<path d="M50.1654 23.3789C55.7429 23.3789 60.2644 18.5931 60.2644 12.6895C60.2644 6.78583 55.7429 2 50.1654 2C44.5879 2 40.0664 6.78583 40.0664 12.6895C40.0664 18.5931 44.5879 23.3789 50.1654 23.3789Z" stroke="#353535" stroke-width="4" stroke-miterlimit="10" stroke-linecap="round"/>
<path d="M50.1654 63C55.7429 63 60.2644 58.2142 60.2644 52.3105C60.2644 46.4069 55.7429 41.6211 50.1654 41.6211C44.5879 41.6211 40.0664 46.4069 40.0664 52.3105C40.0664 58.2142 44.5879 63 50.1654 63Z" stroke="#353535" stroke-width="4" stroke-miterlimit="10" stroke-linecap="round"/>
<path d="M33.018 21.7648L21.8545 27.673" stroke="#353535" stroke-width="4" stroke-miterlimit="10" stroke-linecap="round"/>
<path d="M33.018 43.1439L21.8545 37.2358" stroke="#353535" stroke-width="4" stroke-miterlimit="10" stroke-linecap="round"/>
</svg>
