<svg width="49" height="54" viewBox="0 0 49 54" fill="none" xmlns="http://www.w3.org/2000/svg">
<path d="M18.9318 9H30.0682C30.0682 7.50816 29.4815 6.07742 28.4373 5.02252C27.3931 3.96763 25.9768 3.375 24.5 3.375C23.0232 3.375 21.6069 3.96763 20.5627 5.02252C19.5185 6.07742 18.9318 7.50816 18.9318 9ZM15.5909 9C15.5909 6.61305 16.5295 4.32387 18.2003 2.63604C19.8711 0.948212 22.1372 0 24.5 0C26.8628 0 29.1289 0.948212 30.7997 2.63604C32.4705 4.32387 33.4091 6.61305 33.4091 9H47.3295C47.7726 9 48.1975 9.17779 48.5107 9.49426C48.824 9.81072 49 10.2399 49 10.6875C49 11.1351 48.824 11.5643 48.5107 11.8807C48.1975 12.1972 47.7726 12.375 47.3295 12.375H44.4118L41.7012 45.2318C41.504 47.622 40.4248 49.8501 38.6777 51.4742C36.9305 53.0983 34.643 53.9998 32.2687 54H16.7313C14.357 53.9998 12.0695 53.0983 10.3223 51.4742C8.57516 49.8501 7.49598 47.622 7.29877 45.2318L4.58818 12.375H1.67045C1.22742 12.375 0.802536 12.1972 0.489265 11.8807C0.175994 11.5643 0 11.1351 0 10.6875C0 10.2399 0.175994 9.81072 0.489265 9.49426C0.802536 9.17779 1.22742 9 1.67045 9H15.5909ZM21.1591 21.9375C21.1591 21.4899 20.9831 21.0607 20.6698 20.7443C20.3566 20.4278 19.9317 20.25 19.4886 20.25C19.0456 20.25 18.6207 20.4278 18.3074 20.7443C17.9942 21.0607 17.8182 21.4899 17.8182 21.9375V41.0625C17.8182 41.5101 17.9942 41.9393 18.3074 42.2557C18.6207 42.5722 19.0456 42.75 19.4886 42.75C19.9317 42.75 20.3566 42.5722 20.6698 42.2557C20.9831 41.9393 21.1591 41.5101 21.1591 41.0625V21.9375ZM29.5114 20.25C29.0683 20.25 28.6434 20.4278 28.3302 20.7443C28.0169 21.0607 27.8409 21.4899 27.8409 21.9375V41.0625C27.8409 41.5101 28.0169 41.9393 28.3302 42.2557C28.6434 42.5722 29.0683 42.75 29.5114 42.75C29.9544 42.75 30.3793 42.5722 30.6926 42.2557C31.0058 41.9393 31.1818 41.5101 31.1818 41.0625V21.9375C31.1818 21.4899 31.0058 21.0607 30.6926 20.7443C30.3793 20.4278 29.9544 20.25 29.5114 20.25Z" fill="#DDDDDD"/>
</svg>
