<svg width="879" height="655" viewBox="0 0 879 655" fill="none" xmlns="http://www.w3.org/2000/svg">
<path d="M878.463 575.217H0V575.656H878.463V575.217Z" fill="#EBEBEB"/>
<path d="M790.44 603.486H732.251V603.925H790.44V603.486Z" fill="#EBEBEB"/>
<path d="M581.929 608.265H566.661V608.704H581.929V608.265Z" fill="#EBEBEB"/>
<path d="M730.494 587.182H696.779V587.621H730.494V587.182Z" fill="#EBEBEB"/>
<path d="M168.05 590.134H92.1682V590.573H168.05V590.134Z" fill="#EBEBEB"/>
<path d="M194.825 590.134H183.704V590.573H194.825V590.134Z" fill="#EBEBEB"/>
<path d="M395.572 597.548H230.983V597.987H395.572V597.548Z" fill="#EBEBEB"/>
<path d="M416.391 496.858H77.1466C74.4889 496.854 71.9418 495.795 70.0642 493.914C68.1866 492.033 67.1321 489.484 67.1321 486.826V9.94419C67.1552 7.30182 68.22 4.77528 70.095 2.91337C71.9701 1.05145 74.5041 0.00452652 77.1466 0H416.391C419.052 0 421.604 1.05694 423.485 2.93832C425.366 4.81969 426.423 7.37138 426.423 10.032V486.826C426.423 489.487 425.366 492.039 423.485 493.92C421.604 495.801 419.052 496.858 416.391 496.858ZM77.1466 0.351386C74.6054 0.35604 72.17 1.36876 70.3748 3.16726C68.5796 4.96575 67.5713 7.40306 67.5713 9.94419V486.826C67.5713 489.367 68.5796 491.805 70.3748 493.603C72.17 495.402 74.6054 496.414 77.1466 496.419H416.391C418.934 496.414 421.371 495.402 423.169 493.604C424.967 491.806 425.979 489.369 425.984 486.826V9.94419C425.979 7.40145 424.967 4.96418 423.169 3.16618C421.371 1.36819 418.934 0.356031 416.391 0.351386H77.1466Z" fill="#EBEBEB"/>
<path d="M796.432 496.858H457.169C454.51 496.854 451.961 495.795 450.081 493.915C448.201 492.035 447.142 489.486 447.137 486.826V9.94419C447.165 7.30022 448.234 4.7737 450.112 2.91227C451.99 1.05083 454.525 0.00447715 457.169 0H796.432C799.071 0.00914391 801.601 1.05811 803.472 2.91953C805.343 4.78096 806.406 7.30486 806.429 9.94419V486.826C806.429 489.481 805.376 492.027 803.503 493.908C801.629 495.788 799.086 496.849 796.432 496.858ZM457.169 0.351386C454.627 0.356031 452.189 1.36819 450.391 3.16618C448.593 4.96418 447.581 7.40145 447.577 9.94419V486.826C447.581 489.369 448.593 491.806 450.391 493.604C452.189 495.402 454.627 496.414 457.169 496.419H796.432C798.974 496.414 801.412 495.402 803.21 493.604C805.008 491.806 806.02 489.369 806.025 486.826V9.94419C806.02 7.40145 805.008 4.96418 803.21 3.16618C801.412 1.36819 798.974 0.356031 796.432 0.351386H457.169Z" fill="#EBEBEB"/>
<path d="M96.5957 575.2H144.366L144.366 447.928H96.5957L96.5957 575.2Z" fill="#E6E6E6"/>
<path d="M105.661 575.217H96.5781V541.572H115.166L105.661 575.217Z" fill="#F0F0F0"/>
<path d="M369.13 575.2H416.901V447.928H369.13V575.2Z" fill="#E6E6E6"/>
<path d="M96.5958 566.029H377.054V447.928H96.5958V566.029Z" fill="#F0F0F0"/>
<path d="M367.97 575.217H377.054V541.572H358.465L367.97 575.217Z" fill="#F0F0F0"/>
<path d="M368.603 551.815H283.708V460.947H368.603V551.815ZM285.465 550.058H366.846V462.704H285.465V550.058Z" fill="#E6E6E6"/>
<path d="M279.351 551.815H194.368V460.947H279.351V551.815ZM196.213 550.058H277.594V462.704H196.125L196.213 550.058Z" fill="#E6E6E6"/>
<path d="M189.924 551.815H105.029V460.947H189.924V551.815ZM106.786 550.058H188.167V462.704H106.786V550.058Z" fill="#E6E6E6"/>
<path d="M476.935 310.378L758.412 310.378V70.7162L476.935 70.7162L476.935 310.378Z" fill="#E6E6E6"/>
<path d="M470.61 310.378L755.653 310.378V70.7162L470.61 70.7162L470.61 310.378Z" fill="#F5F5F5"/>
<path d="M744.304 298.871V82.2065L481.995 82.2065V298.871H744.304Z" fill="#FAFAFA"/>
<path d="M712.099 298.87L608.862 82.2241H573.794L677.031 298.87H712.099Z" fill="white"/>
<path d="M667.087 298.87L563.85 82.2241H539.71L642.947 298.87H667.087Z" fill="white"/>
<path d="M579.381 298.888V82.2241H565.818V298.888H579.381Z" fill="#E6E6E6"/>
<path d="M669.547 298.888V82.2241H655.983V298.888H669.547Z" fill="#E6E6E6"/>
<path d="M576.922 306.179V73.6679H559.774V306.179H576.922Z" fill="#F5F5F5"/>
<path d="M667.087 306.179V73.6679H649.939V306.179H667.087Z" fill="#F5F5F5"/>
<path d="M483.189 298.888V82.2241H481.977V298.888H483.189Z" fill="#E6E6E6"/>
<path d="M465.831 55.923H770.781C771.169 55.9276 771.54 56.0851 771.813 56.3614C772.086 56.6376 772.239 57.0104 772.239 57.3988C772.239 57.7855 772.085 58.1564 771.812 58.4299C771.538 58.7034 771.167 58.857 770.781 58.857H465.831C465.444 58.857 465.073 58.7034 464.8 58.4299C464.526 58.1564 464.373 57.7855 464.373 57.3988C464.373 57.0104 464.526 56.6376 464.799 56.3614C465.072 56.0851 465.443 55.9276 465.831 55.923Z" fill="#E6E6E6"/>
<path d="M758.412 65.6035C758.937 65.599 759.44 65.3883 759.811 65.017C760.182 64.6457 760.393 64.1434 760.397 63.6182V59.3665C760.393 58.843 760.182 58.3425 759.81 57.974C759.438 57.6055 758.936 57.3987 758.412 57.3987C757.889 57.3987 757.386 57.6055 757.014 57.974C756.643 58.3425 756.431 58.843 756.427 59.3665V63.6182C756.431 64.1434 756.642 64.6457 757.013 65.017C757.385 65.3883 757.887 65.599 758.412 65.6035Z" fill="#E6E6E6"/>
<path d="M487.951 65.6035C488.476 65.599 488.978 65.3883 489.35 65.017C489.721 64.6457 489.932 64.1434 489.936 63.6182V59.3665C489.932 58.843 489.72 58.3425 489.349 57.974C488.977 57.6055 488.474 57.3987 487.951 57.3987C487.427 57.3987 486.925 57.6055 486.553 57.974C486.181 58.3425 485.97 58.843 485.966 59.3665V63.6182C485.97 64.1434 486.181 64.6457 486.552 65.017C486.923 65.3883 487.426 65.599 487.951 65.6035Z" fill="#E6E6E6"/>
<path opacity="0.6" d="M466.288 176.343L751.138 176.343V57.3987L466.288 57.3987V176.343Z" fill="#E0E0E0"/>
<path d="M198.972 363.771H159.142C154.902 363.771 151.464 367.209 151.464 371.449V440.25C151.464 444.491 154.902 447.928 159.142 447.928H198.972C203.212 447.928 206.649 444.491 206.649 440.25V371.449C206.649 367.209 203.212 363.771 198.972 363.771Z" fill="#FAFAFA"/>
<path d="M204.067 357.534H154.047C152.621 357.534 151.464 358.691 151.464 360.117V362.19C151.464 363.616 152.621 364.773 154.047 364.773H204.067C205.493 364.773 206.649 363.616 206.649 362.19V360.117C206.649 358.691 205.493 357.534 204.067 357.534Z" fill="#E6E6E6"/>
<path d="M350.208 386.857H321.306C318.23 386.857 315.737 389.351 315.737 392.427V442.376C315.737 445.452 318.23 447.946 321.306 447.946H350.208C353.284 447.946 355.777 445.452 355.777 442.376V392.427C355.777 389.351 353.284 386.857 350.208 386.857Z" fill="#F0F0F0"/>
<path d="M353.915 382.324H317.599C316.571 382.324 315.737 383.158 315.737 384.187V385.715C315.737 386.744 316.571 387.578 317.599 387.578H353.915C354.943 387.578 355.777 386.744 355.777 385.715V384.187C355.777 383.158 354.943 382.324 353.915 382.324Z" fill="#E6E6E6"/>
<path d="M258.479 398.857H203.733C197.911 398.857 193.191 403.577 193.191 409.399V437.386C193.191 443.208 197.911 447.928 203.733 447.928H258.479C264.301 447.928 269.02 443.208 269.02 437.386V409.399C269.02 403.577 264.301 398.857 258.479 398.857Z" fill="#F0F0F0"/>
<path d="M265.489 390.283H196.723C194.772 390.283 193.191 391.864 193.191 393.815V396.696C193.191 398.646 194.772 400.228 196.723 400.228H265.489C267.439 400.228 269.02 398.646 269.02 396.696V393.815C269.02 391.864 267.439 390.283 265.489 390.283Z" fill="#F5F5F5"/>
<path d="M496.208 575.217H505.063V430.025H496.208V575.217Z" fill="#E6E6E6"/>
<path d="M751.893 401.756H703.947V430.007H751.893V401.756Z" fill="#E6E6E6"/>
<path d="M465.55 430.025L703.929 430.025V401.774H465.55V430.025Z" fill="#F5F5F5"/>
<path d="M751.893 477.216H703.947V505.467H751.893V477.216Z" fill="#E6E6E6"/>
<path d="M465.55 505.467L703.929 505.467V477.216H465.55V505.467Z" fill="#F5F5F5"/>
<path d="M734.587 575.217H743.442V430.025H734.587V575.217Z" fill="#E6E6E6"/>
<path d="M695.074 575.217H703.929V430.025H695.074V575.217Z" fill="#F5F5F5"/>
<path d="M465.55 575.217H474.405V430.025H465.55V575.217Z" fill="#F5F5F5"/>
<path d="M122.423 209.144H235.112L235.112 82.7687L122.423 82.7687L122.423 209.144Z" fill="#F0F0F0"/>
<path d="M114.464 209.144L233.355 209.144L233.355 82.7687L114.464 82.7687L114.464 209.144Z" fill="#F5F5F5"/>
<path d="M124.426 92.7129V199.183H223.393V92.7129H124.426Z" fill="white"/>
<path d="M157.508 115.254C152.908 115.225 148.44 116.794 144.868 119.693C141.297 122.592 138.843 126.642 137.926 131.15C137.009 135.658 137.686 140.344 139.841 144.409C141.996 148.473 145.496 151.662 149.743 153.432L223.41 184.477V141.292L165.151 116.783C162.729 115.775 160.131 115.255 157.508 115.254Z" fill="#F0F0F0"/>
<path d="M272.077 272.323H384.767V145.948H272.077V272.323Z" fill="#F0F0F0"/>
<path d="M264.118 272.323H383.01V145.948H264.118V272.323Z" fill="#F5F5F5"/>
<path d="M274.08 155.892V262.362H373.048V155.892H274.08Z" fill="white"/>
<path d="M334.712 197.074L274.08 171.564V215.715L318.917 234.567C323.889 236.664 329.49 236.7 334.488 234.667C339.487 232.634 343.473 228.699 345.57 223.727C347.666 218.755 347.702 213.154 345.669 208.155C343.636 203.157 339.701 199.171 334.729 197.074H334.712Z" fill="#F0F0F0"/>
<path d="M439.231 654.56C627.367 654.56 779.882 645.656 779.882 634.672C779.882 623.688 627.367 614.783 439.231 614.783C251.096 614.783 98.5813 623.688 98.5813 634.672C98.5813 645.656 251.096 654.56 439.231 654.56Z" fill="#F5F5F5"/>
<path d="M340.967 107.541C342.723 100.145 361.101 93.1171 376.913 104.028C383.923 108.774 389.18 115.69 391.878 123.714C394.576 131.738 394.565 140.426 391.847 148.443C383.361 173.567 427.653 172.636 437.914 214.995C446.013 248.377 438.511 295.655 393.305 293.09C324.311 289.172 330.267 221.742 327.245 186.304C324.223 150.867 286.572 111.126 340.967 107.541Z" fill="#2D2D2D"/>
<path d="M318.179 202.152C317.88 207.282 317.283 211.973 316.615 216.84C315.948 221.706 315.017 226.468 313.98 231.247C312.943 236.025 311.766 240.804 310.273 245.513C308.83 250.291 307.118 254.984 305.143 259.568L303.597 263.082C303.368 263.592 302.946 264.365 302.63 265.015C302.314 265.665 301.892 266.262 301.523 266.895C300.078 269.148 298.469 271.291 296.709 273.307C293.436 277.054 289.914 280.576 286.168 283.849C278.905 290.268 271.177 296.141 263.047 301.418L258.373 295.163C261.676 291.966 265.05 288.663 268.3 285.36C271.55 282.057 274.765 278.701 277.822 275.293C280.834 271.988 283.678 268.534 286.344 264.944C287.562 263.264 288.665 261.503 289.647 259.674C289.84 259.27 290.086 258.848 290.244 258.461C290.402 258.075 290.578 257.759 290.771 257.179L291.966 254.087C294.98 245.597 297.33 236.886 298.993 228.031C299.889 223.569 300.54 219.036 301.207 214.521C301.875 210.005 302.384 205.349 302.771 201.063L318.179 202.152Z" fill="#FFB573"/>
<path d="M307.637 183.704C301.4 185.285 297.096 210.972 297.096 210.972L320.973 227.206C320.973 227.206 330.794 196.758 325.98 189.889C320.92 182.72 316.738 181.385 307.637 183.704Z" fill="#58E3A6"/>
<path opacity="0.2" d="M308.2 189.432L303.404 215.329L313.067 221.882L308.2 189.432Z" fill="black"/>
<path d="M261.219 293.02L245.144 295.585L254.315 305.74C254.315 305.74 263.785 303.579 265.454 297.518L261.219 293.02Z" fill="#FFB573"/>
<path d="M237.536 297.606L246.708 307.532L254.315 305.74L245.144 295.585L237.536 297.606Z" fill="#FFB573"/>
<path d="M341.406 615.978H326.261L325.242 580.91H340.387L341.406 615.978Z" fill="#FFB573"/>
<path d="M446.118 571.352L432.098 577.08L414.335 546.456L428.356 540.729L446.118 571.352Z" fill="#FFB573"/>
<path d="M429.463 574.971L444.08 566.292C444.331 566.136 444.63 566.077 444.921 566.125C445.212 566.174 445.475 566.327 445.662 566.556L454.2 577.097C454.397 577.371 454.534 577.682 454.605 578.012C454.675 578.341 454.676 578.682 454.609 579.012C454.541 579.342 454.406 579.654 454.211 579.929C454.017 580.205 453.768 580.437 453.48 580.611C448.332 583.545 445.697 584.705 439.266 588.535C435.313 590.889 426.002 598.936 420.537 602.186C415.073 605.436 411.577 600.201 413.51 598.356C419.953 592.533 424.834 585.188 427.706 576.992C428.046 576.139 428.665 575.427 429.463 574.971Z" fill="#2D2D2D"/>
<path d="M325.734 614.239H342.758C343.048 614.232 343.33 614.332 343.551 614.52C343.771 614.708 343.914 614.971 343.953 615.258L345.903 628.733C345.938 629.073 345.901 629.415 345.794 629.739C345.688 630.063 345.516 630.362 345.287 630.615C345.059 630.868 344.78 631.071 344.468 631.21C344.157 631.349 343.82 631.421 343.479 631.421C337.54 631.316 334.694 630.965 327.192 630.965C322.589 630.965 313.137 631.439 306.724 631.439C300.311 631.439 300.03 625.167 302.665 624.587C314.542 622.039 319.216 618.526 323.204 615.17C323.911 614.57 324.807 614.24 325.734 614.239Z" fill="#2D2D2D"/>
<g opacity="0.2">
<path d="M325.26 580.927L325.769 599.006H340.914L340.404 580.927H325.26Z" fill="black"/>
<path d="M428.373 540.729L414.335 546.456L423.507 562.251L437.527 556.524L428.373 540.729Z" fill="black"/>
</g>
<path d="M307.638 183.704C307.638 183.704 300.417 186.234 314.876 275.064H376.369C375.332 250.028 375.314 234.655 387.279 183.23C378.668 181.424 369.936 180.25 361.154 179.716C351.86 179.048 342.53 179.048 333.236 179.716C321.236 180.963 307.638 183.704 307.638 183.704Z" fill="#58E3A6"/>
<path opacity="0.2" d="M382.202 203.593C376.632 204.981 371.484 211.059 372.099 222.251C372.446 227.327 374.225 232.201 377.23 236.307C378.213 227.698 379.865 217.701 382.5 204.91L382.202 203.593Z" fill="black"/>
<path d="M336.469 204.383C336.469 204.383 344.463 209.32 346.553 216.682C355.232 210.322 367.021 192.629 367.496 182.035C367.498 181.727 367.439 181.421 367.323 181.135C367.207 180.85 367.035 180.59 366.818 180.371C366.6 180.153 366.342 179.979 366.057 179.86C365.773 179.742 365.467 179.681 365.159 179.681C363.821 179.646 362.483 179.705 361.153 179.856L336.469 204.383Z" fill="#FAFAFA"/>
<path d="M336.469 204.383C336.469 204.383 328.475 209.32 326.384 216.682C317.055 209.847 322.238 187.288 327.579 179.786C329.459 179.588 331.355 179.588 333.236 179.786L336.469 204.383Z" fill="#FAFAFA"/>
<path d="M358.412 148.372C356.655 157.35 354.899 173.813 361.171 179.821C355.344 190.121 346.807 198.628 336.486 204.418C324.029 194.474 333.253 179.821 333.253 179.821C343.268 177.432 343.004 169.983 341.265 163.008L358.412 148.372Z" fill="#FFB573"/>
<path opacity="0.2" d="M351.385 154.346L341.23 163.008C341.669 164.629 341.957 166.288 342.091 167.962C345.921 167.4 351.947 164.15 352.773 159.986C353.142 158.018 351.737 155.277 351.385 154.346Z" fill="black"/>
<path d="M373.452 133.93C369.306 148.372 367.848 154.574 358.782 160.46C345.148 169.245 328.317 161.022 328.071 145.632C327.842 131.769 334.677 110.493 350.313 107.84C353.756 107.239 357.296 107.529 360.596 108.682C363.895 109.835 366.845 111.813 369.164 114.428C371.483 117.043 373.095 120.208 373.845 123.621C374.596 127.035 374.46 130.584 373.452 133.93Z" fill="#FFB573"/>
<path d="M342.266 109.123C342.952 114.007 369.692 129.714 374.769 121.527C379.847 113.339 372.538 107.172 361.153 105.609C354.641 104.587 347.975 105.827 342.266 109.123Z" fill="#2D2D2D"/>
<path d="M359.695 111.776C356.41 116.098 363.367 147.23 373.329 144.296C383.291 141.362 382.834 131.4 375.912 122.212C371.995 116.835 366.212 113.113 359.695 111.776Z" fill="#2D2D2D"/>
<path d="M314.876 275.099C314.876 275.099 302.929 391.794 303.948 437.914C304.985 485.948 322.589 595.51 322.589 595.51H343.057C343.057 595.51 339.825 488.759 341.634 441.586C343.602 390.16 359.941 275.099 359.941 275.099H314.876Z" fill="#848484"/>
<path d="M344.797 596.23H320.779L319.022 588.57L345.921 587.639L344.797 596.23Z" fill="#2D2D2D"/>
<path opacity="0.2" d="M341.406 304.124C326.296 334.501 338.366 389.932 343.707 410.558C346.448 379.584 351.069 341.722 354.67 313.927C352.369 298.185 348.363 290.104 341.406 304.124Z" fill="black"/>
<path d="M331.11 275.099C331.11 275.099 345.043 396.327 355.567 435.296C368.058 481.521 418.816 560.389 418.816 560.389L437.931 552.588C437.931 552.588 405.164 462.792 395.607 438.388C375.226 386.401 392.673 308.955 376.386 274.994L331.11 275.099Z" fill="#848484"/>
<path d="M440.531 552.676L416.813 562.357L411.243 555.944L438.634 543.294L440.531 552.676Z" fill="#2D2D2D"/>
<path d="M160.952 120.806C145.651 134.348 134.71 152.123 129.511 171.883C124.313 191.643 125.091 212.501 131.746 231.818C138.402 251.136 150.637 268.047 166.904 280.411C183.17 292.776 202.738 300.039 223.133 301.282C243.527 302.526 263.832 297.693 281.481 287.396C299.129 277.1 313.327 261.801 322.28 243.434C331.233 225.068 334.539 204.459 331.78 184.214C329.02 163.968 320.319 144.996 306.777 129.696C288.615 109.184 263.051 96.7252 235.705 95.0581C208.359 93.391 181.471 102.653 160.952 120.806ZM287.046 263.293C274.167 274.688 258.197 282.009 241.158 284.328C224.118 286.648 206.773 283.862 191.316 276.324C175.859 268.786 162.985 256.834 154.321 241.979C145.657 227.123 141.592 210.033 142.641 192.868C143.691 175.703 149.806 159.234 160.215 145.545C170.623 131.856 184.858 121.56 201.118 115.961C217.377 110.361 234.933 109.709 251.563 114.087C268.194 118.464 283.153 127.675 294.548 140.554C302.115 149.106 307.923 159.064 311.641 169.86C315.359 180.657 316.915 192.08 316.218 203.477C315.521 214.875 312.587 226.023 307.581 236.286C302.576 246.55 295.598 255.726 287.046 263.293Z" fill="#2D2D2D"/>
<path opacity="0.3" d="M224.57 277.717C208.833 276.77 193.731 271.177 181.173 261.645C168.616 252.114 159.168 239.072 154.024 224.169C148.88 209.266 148.272 193.173 152.276 177.925C156.281 162.677 164.717 148.959 176.52 138.506C188.322 128.054 202.959 121.337 218.58 119.205C234.2 117.073 250.102 119.622 264.273 126.529C278.445 133.436 290.249 144.392 298.194 158.009C306.138 171.627 309.864 187.294 308.902 203.03C307.609 224.112 298.001 243.819 282.189 257.822C266.377 271.826 245.654 278.981 224.57 277.717Z" fill="#58E3A6"/>
<g opacity="0.5">
<path d="M234.269 118.628H232.775L149.989 191.891L149.883 193.385C148.809 210.659 153.412 227.811 162.99 242.227L281.108 137.567C267.975 126.321 251.528 119.671 234.269 118.628Z" fill="#FAFAFA"/>
<path d="M288.821 145.052L169.473 250.661C173.459 255.263 177.963 259.39 182.896 262.959L299.31 159.88C296.39 154.554 292.871 149.579 288.821 145.052Z" fill="#FAFAFA"/>
</g>
<path d="M310.712 276.312L297.114 288.347C296.125 289.22 294.83 289.666 293.513 289.587C292.196 289.508 290.964 288.91 290.086 287.925C289.222 286.932 288.781 285.639 288.86 284.325C288.939 283.011 289.531 281.78 290.508 280.897L304.106 268.862C305.098 267.991 306.394 267.549 307.711 267.631C309.028 267.713 310.259 268.314 311.134 269.302C312.006 270.288 312.452 271.58 312.372 272.894C312.293 274.208 311.696 275.437 310.712 276.312Z" fill="#2D2D2D"/>
<path d="M305.705 274.08C315.948 283.093 325.752 292.511 335.432 302.051C345.113 311.591 354.565 321.377 363.912 331.11C373.259 340.844 382.43 350.893 391.531 360.978C400.07 371.519 411.7 379.32 413.44 395.87C413.576 397.194 413.395 398.531 412.912 399.771C412.429 401.011 411.657 402.118 410.662 403C409.666 403.883 408.474 404.515 407.185 404.846C405.896 405.176 404.547 405.195 403.25 404.901C387.016 401.159 380.708 388.667 371.291 378.899C362.413 368.65 353.663 358.307 345.043 347.871C336.422 337.435 327.96 326.829 319.655 316.053C311.362 305.301 303.21 294.426 295.497 283.164C294.508 281.784 294.063 280.088 294.251 278.4C294.438 276.713 295.243 275.155 296.512 274.026C297.78 272.898 299.421 272.279 301.119 272.289C302.816 272.299 304.45 272.937 305.705 274.08Z" fill="#2D2D2D"/>
<path d="M349.242 132.63C348.978 133.825 348.135 134.651 347.344 134.387C346.554 134.124 346.15 133.105 346.413 131.928C346.677 130.75 347.52 129.907 348.311 130.171C349.101 130.434 349.505 131.436 349.242 132.63Z" fill="#2D2D2D"/>
<path d="M335.766 129.644C335.502 130.838 334.641 131.664 333.868 131.488C333.095 131.313 332.674 130.206 332.937 129.011C333.201 127.816 334.044 126.991 334.835 127.166C335.625 127.342 336.029 128.449 335.766 129.644Z" fill="#2D2D2D"/>
<path d="M335.169 127.307L332.481 125.849C332.481 125.849 333.447 128.414 335.169 127.307Z" fill="#2D2D2D"/>
<path d="M339.438 132.718C337.771 135.198 335.773 137.438 333.5 139.377C334.01 139.949 334.64 140.402 335.344 140.705C336.048 141.009 336.809 141.155 337.576 141.134L339.438 132.718Z" fill="#ED893E"/>
<path d="M343.039 147.23C342.448 147.189 341.86 147.101 341.283 146.967C341.238 146.956 341.195 146.937 341.157 146.91C341.12 146.884 341.088 146.85 341.063 146.811C341.039 146.771 341.022 146.728 341.015 146.682C341.007 146.637 341.009 146.59 341.019 146.545C341.029 146.5 341.049 146.458 341.075 146.42C341.102 146.382 341.136 146.351 341.175 146.326C341.214 146.302 341.258 146.285 341.304 146.277C341.349 146.27 341.396 146.271 341.441 146.282C342.917 146.64 344.457 146.647 345.937 146.302C347.417 145.958 348.796 145.271 349.962 144.296C349.991 144.25 350.031 144.21 350.078 144.181C350.125 144.152 350.178 144.134 350.233 144.128C350.288 144.122 350.343 144.128 350.395 144.147C350.447 144.165 350.495 144.195 350.534 144.234C350.573 144.273 350.602 144.32 350.621 144.372C350.639 144.424 350.646 144.48 350.64 144.535C350.634 144.59 350.615 144.643 350.586 144.689C350.557 144.736 350.518 144.776 350.471 144.806C349.455 145.682 348.274 146.347 346.998 146.763C345.723 147.179 344.377 147.338 343.039 147.23Z" fill="#2D2D2D"/>
<path d="M374.418 148.337C373.609 149.532 372.571 150.555 371.365 151.348C370.159 152.141 368.808 152.688 367.39 152.958C363.595 153.661 362.12 150.182 363.402 146.791C364.597 143.734 368.04 139.763 371.695 140.537C372.491 140.734 373.225 141.127 373.831 141.679C374.436 142.232 374.895 142.926 375.166 143.701C375.436 144.475 375.509 145.304 375.378 146.113C375.248 146.923 374.918 147.687 374.418 148.337Z" fill="#FFB573"/>
<path d="M354.899 127.377C354.756 127.421 354.603 127.419 354.462 127.371C354.32 127.324 354.196 127.234 354.108 127.114C352.158 124.426 347.871 124.461 347.836 124.461C347.645 124.461 347.462 124.385 347.327 124.25C347.192 124.115 347.116 123.931 347.116 123.74C347.113 123.647 347.13 123.553 347.164 123.466C347.198 123.379 347.25 123.299 347.315 123.232C347.381 123.165 347.459 123.112 347.545 123.075C347.632 123.039 347.725 123.02 347.818 123.02C348.029 123.02 352.878 123.02 355.268 126.27C355.379 126.424 355.424 126.616 355.395 126.804C355.365 126.991 355.263 127.159 355.11 127.272L354.899 127.377Z" fill="#2D2D2D"/>
<path d="M332.955 119.77C332.831 119.761 332.711 119.721 332.606 119.653C332.502 119.586 332.416 119.493 332.357 119.383C332.272 119.213 332.257 119.016 332.316 118.835C332.375 118.654 332.504 118.503 332.674 118.417C333.678 117.878 334.796 117.586 335.936 117.565C337.075 117.543 338.203 117.793 339.227 118.294C339.389 118.393 339.507 118.55 339.556 118.733C339.605 118.916 339.581 119.111 339.491 119.278C339.395 119.443 339.238 119.564 339.053 119.613C338.869 119.663 338.672 119.637 338.507 119.541C337.692 119.157 336.797 118.971 335.896 118.998C334.995 119.026 334.114 119.266 333.324 119.699C333.207 119.748 333.081 119.772 332.955 119.77Z" fill="#2D2D2D"/>
<path d="M423.647 580.716H423.419C423.079 580.639 422.765 580.475 422.507 580.241C422.249 580.008 422.055 579.711 421.943 579.381C421.845 579.188 421.801 578.971 421.816 578.754C421.832 578.537 421.906 578.329 422.031 578.151C423.138 576.57 428.62 576.763 429.234 576.799C429.305 576.796 429.375 576.817 429.432 576.858C429.489 576.9 429.531 576.959 429.551 577.027C429.574 577.093 429.579 577.165 429.563 577.233C429.548 577.301 429.513 577.364 429.463 577.413C428.11 578.749 425.527 580.945 423.647 580.716ZM428.391 577.466C426.195 577.466 423.261 577.712 422.681 578.538C422.633 578.621 422.608 578.715 422.608 578.81C422.608 578.906 422.633 579 422.681 579.083C422.753 579.304 422.879 579.503 423.048 579.663C423.217 579.822 423.423 579.937 423.647 579.996C424.649 580.225 426.388 579.258 428.391 577.466Z" fill="#58E3A6"/>
<path d="M428.69 577.466C426.81 577.238 423.419 575.955 422.962 574.479C422.868 574.21 422.869 573.917 422.965 573.648C423.061 573.38 423.246 573.152 423.489 573.004C423.704 572.833 423.954 572.711 424.221 572.648C424.488 572.584 424.766 572.579 425.035 572.635C427.196 573.056 429.445 576.799 429.551 576.957C429.577 577.011 429.591 577.071 429.591 577.132C429.591 577.193 429.577 577.253 429.551 577.308C429.517 577.362 429.471 577.407 429.416 577.437C429.36 577.468 429.298 577.484 429.234 577.484C429.053 577.495 428.87 577.489 428.69 577.466ZM424.807 573.32C424.493 573.284 424.178 573.373 423.928 573.566C423.559 573.847 423.577 574.075 423.647 574.233C423.999 575.235 426.722 576.482 428.549 576.728C427.741 575.516 426.195 573.583 424.912 573.337L424.807 573.32Z" fill="#58E3A6"/>
<path d="M320.059 616.874C318.764 616.996 317.467 616.667 316.387 615.943C316.141 615.727 315.953 615.453 315.84 615.147C315.726 614.84 315.691 614.51 315.737 614.186C315.745 613.989 315.804 613.798 315.909 613.632C316.014 613.465 316.16 613.329 316.334 613.237C318.197 612.201 324.241 615.293 324.908 615.644C324.974 615.679 325.027 615.733 325.062 615.799C325.096 615.865 325.11 615.939 325.101 616.013C325.094 616.087 325.063 616.157 325.012 616.211C324.961 616.265 324.894 616.3 324.82 616.312C323.255 616.651 321.66 616.839 320.059 616.874ZM317.353 613.747C317.124 613.733 316.895 613.775 316.686 613.87C316.616 613.909 316.558 613.965 316.515 614.033C316.472 614.1 316.446 614.177 316.44 614.256C316.413 614.469 316.437 614.685 316.511 614.887C316.584 615.088 316.704 615.27 316.861 615.416C317.775 616.242 320.27 616.382 323.626 615.82C321.666 614.781 319.546 614.08 317.353 613.747Z" fill="#58E3A6"/>
<path d="M324.75 616.347H324.61C322.853 615.539 319.233 612.271 319.514 610.549C319.514 610.145 319.866 609.636 320.85 609.53C321.206 609.492 321.567 609.528 321.909 609.637C322.251 609.746 322.566 609.925 322.835 610.163C324.75 611.744 325.102 615.82 325.102 615.996C325.111 616.056 325.103 616.118 325.078 616.175C325.053 616.231 325.013 616.278 324.961 616.312C324.896 616.346 324.822 616.359 324.75 616.347ZM321.148 610.198H320.92C320.27 610.198 320.235 610.532 320.217 610.619C320.042 611.638 322.466 614.221 324.311 615.328C324.169 613.607 323.493 611.973 322.378 610.655C322.043 610.349 321.602 610.185 321.148 610.198Z" fill="#58E3A6"/>
<path d="M348.644 130.311L345.956 128.835C345.956 128.835 346.922 131.4 348.644 130.311Z" fill="#2D2D2D"/>
<path d="M377.299 271.48L378.863 276.979C379.074 277.419 378.582 277.858 377.862 277.858H314.489C313.945 277.858 313.488 277.577 313.453 277.225L312.891 271.726C312.891 271.34 313.33 271.023 313.945 271.023H376.228C376.431 270.992 376.639 271.019 376.829 271.099C377.018 271.18 377.181 271.312 377.299 271.48Z" fill="#58E3A6"/>
<path opacity="0.2" d="M377.299 271.48L378.863 276.979C379.074 277.419 378.582 277.858 377.862 277.858H314.489C313.945 277.858 313.488 277.577 313.453 277.225L312.891 271.726C312.891 271.34 313.33 271.023 313.945 271.023H376.228C376.431 270.992 376.639 271.019 376.829 271.099C377.018 271.18 377.181 271.312 377.299 271.48Z" fill="black"/>
<path d="M368.726 278.438H370.395C370.729 278.438 370.975 278.279 370.957 278.069L370.166 270.918C370.166 270.707 369.85 270.531 369.534 270.531H367.777C367.443 270.531 367.18 270.707 367.215 270.918L367.988 278.069C368.093 278.279 368.392 278.438 368.726 278.438Z" fill="#58E3A6"/>
<path opacity="0.4" d="M368.726 278.438H370.395C370.729 278.438 370.975 278.279 370.957 278.069L370.166 270.918C370.166 270.707 369.85 270.531 369.534 270.531H367.777C367.443 270.531 367.18 270.707 367.215 270.918L367.988 278.069C368.093 278.279 368.392 278.438 368.726 278.438Z" fill="white"/>
<path d="M319.251 278.438H320.92C321.254 278.438 321.5 278.279 321.482 278.069L320.709 270.918C320.709 270.707 320.393 270.531 320.059 270.531H318.39C318.056 270.531 317.81 270.707 317.828 270.918L318.601 278.069C318.636 278.279 318.917 278.438 319.251 278.438Z" fill="#58E3A6"/>
<path opacity="0.4" d="M319.251 278.438H320.92C321.254 278.438 321.5 278.279 321.482 278.069L320.709 270.918C320.709 270.707 320.393 270.531 320.059 270.531H318.39C318.056 270.531 317.81 270.707 317.828 270.918L318.601 278.069C318.636 278.279 318.917 278.438 319.251 278.438Z" fill="white"/>
<path d="M343.883 278.438H345.64C345.974 278.438 346.22 278.279 346.202 278.069L345.429 270.918C345.429 270.707 345.113 270.531 344.779 270.531H343.11C342.776 270.531 342.53 270.707 342.548 270.918L343.321 278.069C343.268 278.279 343.549 278.438 343.883 278.438Z" fill="#58E3A6"/>
<path opacity="0.4" d="M343.883 278.438H345.64C345.974 278.438 346.22 278.279 346.202 278.069L345.429 270.918C345.429 270.707 345.113 270.531 344.779 270.531H343.11C342.776 270.531 342.53 270.707 342.548 270.918L343.321 278.069C343.268 278.279 343.549 278.438 343.883 278.438Z" fill="white"/>
<path d="M339.42 287.363L324.487 280.686L328.738 295.497C328.738 295.497 338.226 297.641 342.354 292.879L339.42 287.363Z" fill="#FFB573"/>
<path d="M394.447 201.502C395.132 206.685 395.677 211.903 396.292 217.086L397.873 232.722C398.435 237.993 398.857 243.141 399.349 248.359L399.999 256.177L400.175 258.145C400.175 258.338 400.175 259.147 400.175 259.709C400.175 260.271 400.175 260.921 400.175 261.466C399.913 263.699 399.201 265.857 398.084 267.808C396.275 270.814 393.886 273.43 391.056 275.504C388.684 277.293 386.169 278.885 383.537 280.265C378.615 282.808 373.498 284.952 368.234 286.678C363.086 288.434 357.921 289.893 352.738 291.193C347.555 292.493 342.372 293.565 337.013 294.39L335.256 286.924C340.088 285.325 345.025 283.691 349.821 281.846C354.618 280.001 359.414 278.192 364.017 276.101C368.548 274.118 372.939 271.829 377.159 269.249C379.105 268.074 380.95 266.74 382.676 265.261C384.029 264.164 385.157 262.816 385.996 261.29C386.179 260.956 386.276 260.582 386.277 260.201C386.277 260.201 386.277 260.201 386.277 260.06C386.277 259.92 386.277 260.06 386.277 259.674L385.996 257.741L384.872 249.958C384.187 244.687 383.414 239.574 382.781 234.374L380.796 218.79C380.234 213.519 379.584 208.389 379.039 203.171L394.447 201.502Z" fill="#FFB573"/>
<path d="M387.279 183.265C393.428 185.127 400.843 206.351 400.843 206.351L379.285 228.541C379.285 228.541 368.216 205.701 370.799 197.76C373.505 189.467 380.251 181.121 387.279 183.265Z" fill="#58E3A6"/>
<path d="M312.135 283.761L316.352 295.954L328.738 295.497L324.486 280.686L312.135 283.761Z" fill="#FFB573"/>
<path d="M520.682 240.031C524.723 211.147 504.554 187.727 475.67 187.727H686.712C715.613 187.727 735.765 211.147 731.742 240.031H520.682Z" fill="#2D2D2D"/>
<path opacity="0.7" d="M520.682 240.031C524.723 211.147 504.554 187.727 475.67 187.727H686.712C715.613 187.727 735.765 211.147 731.742 240.031H520.682Z" fill="#58E3A6"/>
<path d="M475.67 187.727H686.712C657.828 187.727 631.14 211.147 627.117 240.031L579.399 582.35C575.375 611.252 548.688 634.672 519.804 634.672H413.369C384.485 634.672 364.334 611.252 368.357 582.35L416.057 240.031C420.098 211.147 446.768 187.727 475.67 187.727Z" fill="#58E3A6"/>
<path d="M474.774 582.35C470.75 611.252 490.902 634.672 519.804 634.672H308.744C279.86 634.672 259.709 611.252 263.732 582.35H474.774Z" fill="#2D2D2D"/>
<path opacity="0.7" d="M474.774 582.35C470.75 611.252 490.902 634.672 519.804 634.672H308.744C279.86 634.672 259.709 611.252 263.732 582.35H474.774Z" fill="#58E3A6"/>
<path opacity="0.4" d="M508.612 294.215H590.327C591.517 294.158 592.653 293.7 593.55 292.916C594.446 292.131 595.051 291.065 595.264 289.893C595.357 289.354 595.33 288.802 595.185 288.275C595.04 287.748 594.78 287.26 594.424 286.845C594.068 286.43 593.625 286.099 593.126 285.876C592.628 285.653 592.086 285.542 591.539 285.553H509.825C508.626 285.591 507.478 286.044 506.577 286.836C505.676 287.628 505.079 288.709 504.888 289.893C504.794 290.43 504.821 290.982 504.966 291.508C505.111 292.034 505.371 292.521 505.727 292.935C506.084 293.348 506.527 293.677 507.026 293.899C507.525 294.12 508.067 294.228 508.612 294.215Z" fill="white"/>
<path opacity="0.4" d="M506.363 310.326H566.433C567.629 310.289 568.775 309.837 569.676 309.049C570.576 308.261 571.175 307.184 571.37 306.004C571.463 305.466 571.437 304.914 571.291 304.388C571.146 303.862 570.886 303.375 570.53 302.961C570.174 302.548 569.73 302.219 569.231 301.997C568.732 301.776 568.191 301.668 567.645 301.682H507.576C506.379 301.715 505.231 302.165 504.329 302.954C503.428 303.743 502.83 304.821 502.639 306.004C502.545 306.541 502.572 307.093 502.717 307.619C502.862 308.145 503.122 308.632 503.479 309.046C503.835 309.459 504.278 309.788 504.777 310.01C505.276 310.231 505.818 310.339 506.363 310.326Z" fill="white"/>
<path opacity="0.4" d="M472.48 312.873C483.783 302.329 485.509 285.809 476.335 275.975C467.162 266.141 450.562 266.716 439.259 277.26C427.956 287.804 426.23 304.324 435.404 314.158C444.578 323.992 461.177 323.417 472.48 312.873Z" fill="white"/>
<path d="M432.572 295.163C432.007 298.911 432.444 302.742 433.837 306.267C435.354 309.975 437.966 313.132 441.326 315.314C444.686 317.497 448.632 318.6 452.636 318.478C457.044 318.373 461.361 317.209 465.223 315.083C469.086 312.958 472.379 309.934 474.826 306.267C477.116 302.951 478.607 299.151 479.184 295.163C480.941 282.303 471.998 271.867 459.12 271.867C452.674 272.051 446.496 274.48 441.649 278.733C436.803 282.986 433.593 288.797 432.572 295.163Z" fill="white"/>
<path opacity="0.4" d="M438.915 303.948C440.077 306.79 442.079 309.21 444.654 310.884C447.228 312.557 450.252 313.405 453.322 313.312C456.706 313.234 460.021 312.342 462.987 310.712C465.953 309.082 468.484 306.762 470.364 303.948C465.986 300.787 460.707 299.118 455.307 299.187C449.509 299.236 443.837 300.883 438.915 303.948Z" fill="#2D2D2D"/>
<path opacity="0.4" d="M448.701 289.365C448.523 290.358 448.569 291.378 448.834 292.351C449.1 293.323 449.579 294.224 450.238 294.989C450.896 295.753 451.716 296.36 452.638 296.767C453.561 297.175 454.563 297.371 455.571 297.342C457.775 297.279 459.888 296.447 461.543 294.99C463.199 293.533 464.293 291.544 464.636 289.365C464.814 288.375 464.769 287.358 464.505 286.387C464.24 285.417 463.762 284.517 463.105 283.755C462.449 282.992 461.63 282.386 460.71 281.98C459.79 281.573 458.79 281.378 457.784 281.407C455.581 281.468 453.468 282.297 451.809 283.75C450.151 285.203 449.052 287.189 448.701 289.365Z" fill="#2D2D2D"/>
<path opacity="0.4" d="M498.809 364.615H526.375C527.571 364.578 528.717 364.127 529.618 363.338C530.518 362.55 531.117 361.473 531.312 360.293C531.405 359.755 531.379 359.203 531.233 358.677C531.088 358.151 530.828 357.664 530.472 357.25C530.116 356.837 529.672 356.508 529.173 356.286C528.674 356.065 528.133 355.957 527.587 355.971H500.003C498.808 356.005 497.662 356.455 496.764 357.245C495.866 358.034 495.272 359.112 495.084 360.293C494.99 360.83 495.017 361.382 495.162 361.908C495.307 362.434 495.567 362.921 495.924 363.335C496.28 363.748 496.724 364.077 497.222 364.299C497.721 364.52 498.263 364.628 498.809 364.615Z" fill="white"/>
<path opacity="0.4" d="M543.013 364.615H582.403C583.599 364.578 584.745 364.126 585.646 363.338C586.546 362.55 587.145 361.473 587.34 360.293C587.437 359.754 587.413 359.202 587.269 358.674C587.125 358.147 586.865 357.658 586.508 357.244C586.151 356.83 585.706 356.5 585.205 356.28C584.705 356.06 584.162 355.954 583.615 355.971H544.225C543.028 356.004 541.88 356.454 540.979 357.243C540.077 358.032 539.48 359.11 539.288 360.293C539.194 360.83 539.221 361.382 539.366 361.908C539.511 362.434 539.771 362.921 540.128 363.335C540.484 363.748 540.928 364.077 541.426 364.299C541.925 364.52 542.467 364.628 543.013 364.615Z" fill="white"/>
<path opacity="0.4" d="M496.56 380.743H564.078C565.277 380.705 566.425 380.252 567.326 379.46C568.227 378.668 568.824 377.588 569.015 376.404C569.109 375.866 569.082 375.314 568.937 374.788C568.792 374.262 568.532 373.775 568.175 373.361C567.819 372.948 567.376 372.619 566.877 372.397C566.378 372.176 565.836 372.068 565.291 372.082H497.754C496.561 372.122 495.419 372.575 494.522 373.363C493.625 374.151 493.029 375.226 492.835 376.404C492.738 376.942 492.763 377.496 492.907 378.024C493.051 378.553 493.31 379.042 493.667 379.458C494.024 379.873 494.468 380.204 494.968 380.427C495.469 380.649 496.012 380.757 496.56 380.743Z" fill="white"/>
<path opacity="0.4" d="M462.675 383.28C473.978 372.736 475.704 356.217 466.53 346.383C457.357 336.548 440.757 337.124 429.454 347.667C418.151 358.211 416.425 374.731 425.599 384.565C434.773 394.399 451.372 393.824 462.675 383.28Z" fill="white"/>
<path d="M422.751 365.44C422.191 369.19 422.634 373.021 424.034 376.544C425.537 380.248 428.132 383.406 431.475 385.597C434.818 387.788 438.75 388.908 442.745 388.807C447.153 388.706 451.471 387.543 455.334 385.417C459.197 383.292 462.49 380.266 464.935 376.597C467.24 373.288 468.738 369.485 469.31 365.493C471.067 352.632 462.124 342.196 449.246 342.196C442.817 342.391 436.657 344.817 431.823 349.058C426.988 353.3 423.781 359.092 422.751 365.44Z" fill="white"/>
<path opacity="0.4" d="M429.094 374.401C430.259 377.245 432.264 379.665 434.842 381.338C437.419 383.012 440.446 383.858 443.518 383.765C446.899 383.684 450.21 382.791 453.173 381.161C456.137 379.531 458.664 377.212 460.543 374.401C456.165 371.238 450.886 369.568 445.486 369.639C439.689 369.694 434.018 371.341 429.094 374.401Z" fill="#2D2D2D"/>
<path opacity="0.4" d="M438.897 359.765C438.72 360.757 438.765 361.775 439.03 362.746C439.294 363.718 439.772 364.618 440.428 365.382C441.084 366.145 441.902 366.753 442.823 367.162C443.743 367.57 444.743 367.768 445.749 367.742C447.956 367.679 450.071 366.848 451.729 365.392C453.388 363.935 454.485 361.945 454.833 359.765C455.011 358.775 454.966 357.758 454.701 356.787C454.436 355.817 453.958 354.917 453.301 354.155C452.645 353.392 451.827 352.786 450.906 352.38C449.986 351.973 448.986 351.778 447.981 351.807C445.777 351.868 443.664 352.697 442.006 354.15C440.347 355.603 439.248 357.589 438.897 359.765Z" fill="#2D2D2D"/>
<path opacity="0.4" d="M488.987 435.032H537.004C538.203 434.994 539.351 434.541 540.252 433.749C541.153 432.957 541.75 431.877 541.941 430.693C542.035 430.155 542.008 429.603 541.863 429.077C541.718 428.551 541.457 428.064 541.101 427.65C540.745 427.237 540.301 426.908 539.802 426.686C539.304 426.465 538.762 426.357 538.216 426.371H490.182C488.986 426.407 487.84 426.859 486.939 427.647C486.039 428.435 485.44 429.512 485.245 430.693C485.148 431.233 485.173 431.788 485.318 432.318C485.463 432.847 485.724 433.338 486.082 433.754C486.441 434.17 486.888 434.5 487.39 434.721C487.893 434.942 488.438 435.049 488.987 435.032Z" fill="white"/>
<path opacity="0.4" d="M486.668 451.143H561.53C562.723 451.086 563.861 450.626 564.758 449.837C565.655 449.049 566.258 447.979 566.467 446.804C566.558 446.265 566.529 445.713 566.381 445.187C566.234 444.661 565.972 444.174 565.614 443.761C565.257 443.348 564.812 443.019 564.313 442.798C563.813 442.577 563.271 442.469 562.725 442.482H487.88C486.684 442.518 485.538 442.97 484.637 443.758C483.737 444.546 483.138 445.623 482.943 446.804C482.847 447.342 482.871 447.896 483.015 448.424C483.159 448.953 483.419 449.442 483.775 449.858C484.132 450.273 484.576 450.604 485.077 450.826C485.577 451.049 486.121 451.157 486.668 451.143Z" fill="white"/>
<path opacity="0.2" d="M404.778 519.734H519.4C521.079 519.678 522.687 519.042 523.95 517.933C525.212 516.825 526.051 515.313 526.322 513.655C526.456 512.896 526.419 512.118 526.213 511.376C526.008 510.634 525.639 509.947 525.133 509.366C524.628 508.785 523.999 508.324 523.293 508.017C522.587 507.711 521.821 507.566 521.051 507.593H406.465C404.788 507.642 403.181 508.274 401.921 509.38C400.66 510.487 399.825 511.998 399.56 513.655C399.424 514.41 399.458 515.185 399.659 515.926C399.861 516.666 400.225 517.352 400.724 517.934C401.224 518.516 401.847 518.98 402.548 519.291C403.249 519.602 404.011 519.753 404.778 519.734Z" fill="white"/>
<path opacity="0.2" d="M401.633 542.328H485.86C487.538 542.275 489.145 541.639 490.406 540.53C491.666 539.421 492.5 537.907 492.765 536.249C492.899 535.49 492.862 534.712 492.656 533.97C492.45 533.228 492.081 532.541 491.576 531.96C491.071 531.379 490.442 530.918 489.736 530.611C489.029 530.305 488.263 530.16 487.494 530.187H403.32C401.642 530.238 400.034 530.871 398.771 531.977C397.509 533.082 396.669 534.592 396.397 536.249C396.28 537.002 396.328 537.773 396.538 538.506C396.748 539.239 397.114 539.919 397.612 540.497C398.11 541.075 398.727 541.538 399.421 541.854C400.116 542.17 400.87 542.332 401.633 542.328Z" fill="white"/>
<path opacity="0.2" d="M444.625 243.176H581.296C582.154 243.138 582.973 242.804 583.614 242.23C584.254 241.657 584.677 240.88 584.81 240.031C584.878 239.641 584.858 239.241 584.752 238.86C584.646 238.478 584.457 238.125 584.198 237.826C583.939 237.527 583.617 237.289 583.255 237.129C582.893 236.97 582.5 236.893 582.104 236.904H445.503C444.649 236.948 443.836 237.281 443.197 237.85C442.558 238.419 442.132 239.188 441.989 240.031C441.923 240.416 441.941 240.811 442.043 241.188C442.145 241.565 442.327 241.915 442.578 242.214C442.829 242.514 443.142 242.755 443.495 242.921C443.849 243.087 444.234 243.174 444.625 243.176Z" fill="white"/>
<path opacity="0.4" d="M452.863 453.686C464.166 443.143 465.892 426.623 456.719 416.789C447.545 406.955 430.945 407.53 419.642 418.074C408.34 428.618 406.613 445.137 415.787 454.971C424.961 464.805 441.56 464.23 452.863 453.686Z" fill="white"/>
<path d="M412.877 435.911C412.313 439.659 412.749 443.489 414.142 447.014C415.663 450.718 418.278 453.869 421.637 456.048C424.996 458.227 428.939 459.329 432.941 459.207C437.347 459.103 441.662 457.941 445.524 455.819C449.386 453.697 452.681 450.677 455.131 447.014C457.417 443.697 458.909 439.897 459.488 435.911C461.245 423.032 452.302 412.596 439.424 412.596C432.976 412.782 426.796 415.212 421.949 419.469C417.102 423.726 413.894 429.541 412.877 435.911Z" fill="white"/>
<path opacity="0.4" d="M419.29 444.818C420.455 447.662 422.46 450.083 425.038 451.756C427.616 453.429 430.643 454.276 433.714 454.183C437.095 454.102 440.407 453.208 443.37 451.579C446.333 449.949 448.86 447.63 450.739 444.818C446.365 441.65 441.083 439.979 435.682 440.057C429.883 440.098 424.209 441.746 419.29 444.818Z" fill="#2D2D2D"/>
<path opacity="0.4" d="M429.076 430.183C428.901 431.174 428.949 432.192 429.216 433.163C429.483 434.133 429.963 435.032 430.621 435.794C431.278 436.556 432.097 437.162 433.018 437.568C433.94 437.974 434.939 438.17 435.946 438.142C438.147 438.079 440.258 437.25 441.913 435.797C443.568 434.344 444.664 432.358 445.011 430.183C445.189 429.192 445.144 428.174 444.879 427.202C444.614 426.231 444.136 425.331 443.48 424.567C442.824 423.803 442.006 423.195 441.086 422.787C440.166 422.379 439.166 422.18 438.159 422.207C435.953 422.269 433.838 423.101 432.179 424.557C430.521 426.013 429.423 428.003 429.076 430.183Z" fill="#2D2D2D"/>
</svg>
