<svg width="67" height="67" viewBox="0 0 67 67" fill="none" xmlns="http://www.w3.org/2000/svg">
<path d="M33.2762 39.0376V35.6564C38.8782 35.6564 43.4195 31.1151 43.4195 25.5131C43.4195 19.9111 38.8782 15.3698 33.2762 15.3698C27.6741 15.3698 23.1328 19.9111 23.1328 25.5131" stroke="#353535" stroke-width="4" stroke-linecap="round" stroke-linejoin="round"/>
<path fill-rule="evenodd" clip-rule="evenodd" d="M33.2761 45.7997C35.1435 45.7997 36.6573 47.3135 36.6573 49.1809C36.6573 51.0482 35.1435 52.562 33.2761 52.562C31.4088 52.562 29.895 51.0482 29.895 49.1809C29.895 47.3135 31.4088 45.7997 33.2761 45.7997Z" fill="#353535"/>
<path fill-rule="evenodd" clip-rule="evenodd" d="M64.5507 33.2753C64.5507 50.5461 50.5495 64.5507 33.2753 64.5507C16.0046 64.5507 2 50.5461 2 33.2753C2 16.0012 16.0046 2 33.2753 2C50.5495 2 64.5507 16.0012 64.5507 33.2753Z" stroke="#353535" stroke-width="4" stroke-linecap="round" stroke-linejoin="round"/>
</svg>
