<svg width="66" height="68" viewBox="0 0 66 68" fill="none" xmlns="http://www.w3.org/2000/svg">
<path d="M16.7907 53.462C16.0905 53.462 15.4779 53.462 14.8528 53.462C7.42641 53.4493 1.10021 47.849 0.137526 40.3904C0.0500095 39.7457 0.0125024 39.0883 0.0125024 38.4436C0 30.6183 0 22.7804 0 14.9552C0.0125024 7.5092 5.65107 1.04927 12.94 0.139059C13.6151 0.050567 14.3027 0.0126418 14.9903 0.0126418C26.9801 0 38.9699 0 50.9597 0C58.086 0 64.0121 4.76594 65.6249 11.7821C65.8625 12.8187 65.975 13.9059 65.975 14.9678C66 22.7299 65.9875 30.5046 65.9875 38.2666C65.9875 45.7505 60.8365 51.9576 53.5351 53.2597C52.735 53.3988 51.9223 53.4367 51.1097 53.4493C46.8214 53.462 42.5331 53.4493 38.2447 53.4746C37.8822 53.4746 37.4696 53.6263 37.182 53.8539C31.681 58.3164 26.1925 62.8042 20.7164 67.2921C19.9038 67.9621 19.0411 68.2275 18.0659 67.7598C17.0782 67.2921 16.7657 66.4198 16.7657 65.3705C16.7782 61.6665 16.7657 57.9624 16.7657 54.2584C16.7907 54.0182 16.7907 53.778 16.7907 53.462ZM21.2915 60.9459C21.5666 60.731 21.7291 60.6172 21.8916 60.4782C26.305 56.8753 30.7308 53.2724 35.1442 49.6442C35.7568 49.1385 36.4194 48.9109 37.207 48.9236C41.8079 48.9362 46.4088 48.9615 51.0097 48.9236C56.9733 48.873 61.4991 44.2588 61.5117 38.2413C61.5242 30.5551 61.5242 22.8816 61.5117 15.1954C61.4866 9.17791 56.8608 4.55103 50.9096 4.55103C41.6454 4.55103 32.3936 4.55103 23.1294 4.55103C20.2413 4.55103 17.3408 4.50046 14.4527 4.57632C9.18924 4.70273 4.58837 9.27905 4.53836 14.6012C4.45084 22.7046 4.46335 30.808 4.53836 38.9113C4.58837 43.7405 8.50161 48.1398 13.2275 48.7719C15.0153 49.0121 16.8407 48.9236 18.641 48.9489C20.4664 48.9742 21.304 49.7959 21.304 51.6542C21.304 53.4241 21.304 55.1939 21.304 56.9637C21.2915 58.2153 21.2915 59.5047 21.2915 60.9459Z" fill="#4F4F4F"/>
</svg>
