<svg width="50" height="51" viewBox="0 0 50 51" fill="none" xmlns="http://www.w3.org/2000/svg">
<path d="M19.0603 14.5493C21.4539 14.1057 23.6525 14.159 25.8156 14.7622C26.0106 14.8155 26.3298 14.6735 26.4894 14.5138C27.5886 13.4493 28.6348 12.3314 29.7518 11.3023C32.2518 9.03123 36.0638 9.15543 38.4574 11.5507C40.8156 13.9106 40.9752 17.7608 38.6879 20.2094C36.5957 22.4627 34.4149 24.6451 32.1631 26.7388C29.0248 29.6487 23.9716 28.5131 22.1986 24.6097C21.773 23.6693 21.6667 23.5983 20.6915 23.9886C20.1064 24.2193 19.5567 24.5919 19.0603 24.9645C18.5993 25.3194 18.2269 25.8162 17.766 26.2065C17.3759 26.5436 17.3582 26.8098 17.5887 27.2711C21.0993 34.1554 30.2482 35.7878 35.9043 30.4649C38.1383 28.3534 40.3191 26.1888 42.4291 23.9354C45.0532 21.1498 46.0993 17.7963 45.3901 14.017C44.539 9.42158 41.8085 6.28105 37.3582 4.93258C32.9255 3.5841 28.9716 4.66643 25.6383 7.91341C23.6879 9.81192 21.7908 11.7637 19.8582 13.6799C19.6277 13.9106 19.4149 14.159 19.0603 14.5493ZM28.1206 26.2243C29.2199 26.1888 30.1241 25.7807 30.9043 25.071C31.3475 24.6451 31.7553 24.1661 32.234 23.7757C32.5886 23.4564 32.6241 23.1902 32.4113 22.7644C28.9184 15.8446 19.6631 14.1945 14.0603 19.5529C11.844 21.6643 9.68085 23.8112 7.58865 26.0468C4.85816 28.9567 3.86525 32.4698 4.69858 36.3556C5.6383 40.7736 8.36879 43.7899 12.7128 45.1029C17.0745 46.4336 20.9929 45.3513 24.273 42.2108C26.3298 40.259 28.2801 38.2186 30.2837 36.2136C30.461 36.0362 30.6206 35.841 30.8688 35.5571C30.6206 35.5571 30.5142 35.5394 30.4255 35.5571C28.3511 35.9297 26.2943 35.8055 24.2553 35.2555C24.0426 35.2023 23.7057 35.3442 23.5461 35.5039C22.4468 36.5507 21.4007 37.6863 20.2837 38.7154C17.8014 40.9688 13.9894 40.8446 11.6312 38.4847C9.21986 36.1427 8.98936 32.2924 11.2411 29.8616C13.3688 27.555 15.6206 25.3371 17.9078 23.1902C19.4504 21.7353 21.4007 21.3449 23.4752 21.824C25.8156 22.3918 27.305 23.9177 28.1206 26.2243ZM0 34.2441C0.035461 34.7055 0.070922 35.4684 0.177305 36.2136C1.91489 48.2434 15.7269 54.0454 25.5319 46.8772C26.1702 46.4159 26.773 45.8659 27.3404 45.3158C27.8014 44.8545 27.7837 44.2512 27.3759 43.8254C26.9681 43.3996 26.383 43.3996 25.8865 43.8077C25.7801 43.8964 25.6915 43.9851 25.6028 44.0738C20.2305 49.1483 11.844 49.1483 6.47163 44.0561C0.921986 38.7864 0.673759 29.9503 5.93972 24.3967C5.99291 24.3258 6.06383 24.2725 6.11702 24.2016C6.59574 23.6693 6.61347 23.0305 6.17021 22.6047C5.72695 22.1789 5.08865 22.2143 4.57447 22.7466C1.57801 25.8872 0.070922 29.6309 0 34.2441ZM33.9894 0C31.3121 0 28.7411 0.567779 26.4184 1.91625C25.1064 2.67921 23.9362 3.65507 22.7305 4.6132C22.1986 5.03903 22.1986 5.71327 22.5887 6.13911C22.9965 6.60043 23.6525 6.58268 24.1844 6.12136C24.273 6.05039 24.344 5.96168 24.4326 5.8907C28.4574 2.3066 33.1028 1.17104 38.2447 2.82115C47.9964 5.94393 51.0638 18.1512 44.0425 25.621C43.3865 26.313 43.3156 26.934 43.8475 27.3953C44.3617 27.8566 44.9291 27.7502 45.5674 27.0759C48.2624 24.2016 49.7518 20.7949 49.9645 16.8737C50.4964 7.73598 43.156 0.0177431 33.9894 0Z" fill="white"/>
<path d="M19.0603 14.5493C19.4149 14.159 19.6277 13.9106 19.8582 13.6799C21.7731 11.7459 23.688 9.81192 25.6383 7.91341C28.9539 4.66643 32.9256 3.5841 37.3582 4.93258C41.8263 6.29879 44.539 9.43932 45.3901 14.017C46.0993 17.7786 45.0532 21.1497 42.4468 23.9354C40.3546 26.1888 38.1738 28.3534 35.922 30.4649C30.2483 35.7878 21.0993 34.1554 17.6064 27.2711C17.3759 26.8098 17.3936 26.5436 17.7837 26.2065C18.2447 25.8162 18.5993 25.3194 19.078 24.9645C19.5745 24.5742 20.1241 24.2193 20.7092 23.9886C21.6844 23.5983 21.7908 23.6693 22.2163 24.6097C23.9717 28.5131 29.0426 29.6309 32.1809 26.7388C34.4327 24.6451 36.6135 22.4627 38.7057 20.2094C40.9929 17.7608 40.8334 13.9106 38.4752 11.5507C36.0816 9.15543 32.2695 9.03123 29.7695 11.3023C28.6348 12.3314 27.6064 13.4493 26.5071 14.5138C26.3475 14.6735 26.0284 14.8155 25.8334 14.7622C23.6525 14.159 21.4539 14.1057 19.0603 14.5493Z" fill="#58E3A6"/>
<path d="M28.1205 26.2243C27.3049 23.9177 25.8155 22.3918 23.4574 21.8417C21.3829 21.3449 19.4325 21.753 17.89 23.2079C15.6027 25.3549 13.351 27.5727 11.2233 29.8793C8.98927 32.2924 9.21976 36.1427 11.5602 38.467C13.9361 40.8268 17.7481 40.951 20.2127 38.6977C21.3474 37.6686 22.3758 36.5507 23.4751 35.4862C23.6524 35.3265 23.9893 35.1845 24.1843 35.2378C26.2233 35.7878 28.28 35.912 30.3545 35.5394C30.4609 35.5216 30.5673 35.5394 30.7978 35.5394C30.5495 35.8055 30.39 36.0185 30.2127 36.1959C28.2091 38.2009 26.241 40.2413 24.202 42.193C20.9042 45.3336 17.0035 46.3982 12.6417 45.0852C8.29778 43.7722 5.58501 40.7736 4.62756 36.3378C3.79423 32.4521 4.78714 28.939 7.51764 26.0291C9.60983 23.7935 11.773 21.6466 13.9893 19.5351C19.6098 14.1767 28.8474 15.8268 32.3403 22.7466C32.5531 23.1725 32.5354 23.4386 32.163 23.758C31.702 24.1661 31.2942 24.6274 30.8332 25.0532C30.124 25.7807 29.2198 26.1888 28.1205 26.2243Z" fill="#58E3A6"/>
<path d="M0 34.2441C0.070922 29.6309 1.57801 25.8872 4.57447 22.7644C5.07092 22.2498 5.70922 22.1966 6.17021 22.6224C6.61348 23.0483 6.59575 23.687 6.11702 24.2193C6.06383 24.2903 5.99291 24.3435 5.93972 24.4145C0.673759 29.9681 0.921986 38.8041 6.47163 44.0738C11.844 49.1661 20.2128 49.1661 25.6028 44.0916C25.6915 44.0028 25.7979 43.8964 25.8865 43.8254C26.383 43.4173 26.9681 43.4173 27.3759 43.8432C27.7837 44.269 27.8192 44.8723 27.3404 45.3336C26.7731 45.8836 26.1702 46.4159 25.5319 46.895C15.727 54.0809 1.91489 48.2612 0.177305 36.2314C0.070922 35.4684 0.035461 34.7232 0 34.2441Z" fill="#58E3A6"/>
<path d="M33.9894 0C43.156 0.0177431 50.4964 7.73598 49.9645 16.8737C49.734 20.7949 48.2624 24.2016 45.5674 27.0759C44.9291 27.7502 44.3617 27.8566 43.8475 27.3953C43.3156 26.9163 43.3865 26.313 44.0425 25.621C51.0638 18.1512 47.9964 5.94393 38.2447 2.82115C33.1028 1.17104 28.4752 2.3066 24.4326 5.8907C24.344 5.96168 24.273 6.05039 24.1844 6.12136C23.6525 6.58268 22.9964 6.60043 22.5886 6.13911C22.1986 5.71327 22.1986 5.02129 22.7305 4.6132C23.9184 3.67282 25.1064 2.67921 26.4184 1.91625C28.7411 0.567779 31.312 0 33.9894 0Z" fill="#58E3A6"/>
</svg>
