<svg width="60" height="59" viewBox="0 0 60 59" fill="none" xmlns="http://www.w3.org/2000/svg">
<path fill-rule="evenodd" clip-rule="evenodd" d="M29.6509 2C23.4293 2 22.8411 12.8366 19.1371 16.6654C15.433 20.4941 3.9176 16.1164 2.31767 22.9123C0.721107 29.7117 11.0803 32.0187 12.3575 37.8521C13.6415 43.6856 7.3124 51.8817 12.7205 55.9606C18.1287 60.0361 23.9503 50.8116 29.6509 50.8116C35.3514 50.8116 41.173 60.0361 46.5812 55.9606C51.9893 51.8817 45.6636 43.6856 46.9442 37.8521C48.2248 32.0187 58.5806 29.7117 56.984 22.9123C55.3875 16.1164 43.8687 20.4941 40.168 16.6654C36.464 12.8366 35.8724 2 29.6509 2Z" stroke="#353535" stroke-width="4" stroke-linecap="round" stroke-linejoin="round"/>
</svg>
