<svg width="63" height="77" viewBox="0 0 63 77" fill="none" xmlns="http://www.w3.org/2000/svg">
<path d="M22.8716 55.1071H39.9671" stroke="#353535" stroke-width="4" stroke-miterlimit="10" stroke-linecap="round"/>
<path d="M17.0532 42.501H45.7852" stroke="#353535" stroke-width="4" stroke-miterlimit="10" stroke-linecap="round"/>
<path d="M44.3122 9.45894C48.6988 9.98008 52.7392 12.0997 55.6612 15.4126C58.5832 18.7255 60.1815 22.9992 60.1507 27.4165V56.1485C60.1507 60.9111 58.2588 65.4786 54.8911 68.8463C51.5234 72.214 46.9558 74.106 42.1932 74.106H20.6441C15.8815 74.106 11.314 72.214 7.94629 68.8463C4.57861 65.4786 2.68667 60.9111 2.68667 56.1485V27.4165C2.66843 22.9211 4.33693 18.5823 7.36254 15.2574C10.3882 11.9326 14.5508 9.86349 19.028 9.45894" stroke="#353535" stroke-width="4" stroke-miterlimit="10" stroke-linecap="round"/>
<path d="M35.8719 2.13239H26.929C23.0017 2.13239 19.8179 5.31617 19.8179 9.24356V9.27948C19.8179 13.2069 23.0017 16.3907 26.929 16.3907H35.8719C39.7993 16.3907 42.9831 13.2069 42.9831 9.27948V9.24356C42.9831 5.31617 39.7993 2.13239 35.8719 2.13239Z" stroke="#353535" stroke-width="4" stroke-miterlimit="10" stroke-linecap="round"/>
</svg>
