<svg width="16" height="16" viewBox="0 0 16 16" fill="none" xmlns="http://www.w3.org/2000/svg">
<circle cx="8" cy="8" r="8" fill="url(#paint0_linear_462_178)"/>
<path d="M7.46153 11C7.44907 11 7.43522 11 7.42414 10.9987C7.2261 10.988 7.04468 10.8973 6.92143 10.7493L4.15167 7.4162C3.91348 7.12822 3.96056 6.70957 4.25969 6.47892C4.56021 6.2496 4.99506 6.2976 5.23326 6.58291L7.51831 9.33476L11.8184 5.19499C12.0884 4.935 12.5274 4.935 12.7975 5.19499C13.0675 5.45497 13.0675 5.87762 12.7975 6.1376L7.95039 10.804C7.8216 10.9307 7.64433 11 7.46153 11Z" fill="white"/>
<defs>
<linearGradient id="paint0_linear_462_178" x1="0.888889" y1="3.14894" x2="16.6609" y2="8.52417" gradientUnits="userSpaceOnUse">
<stop stop-color="#55CBF3"/>
<stop offset="1" stop-color="#3084ED"/>
</linearGradient>
</defs>
</svg>
