<svg width="754" height="556" viewBox="0 0 754 556" fill="none" xmlns="http://www.w3.org/2000/svg">
<path d="M167.408 154.082L26.7529 248.123L165.303 455.153L305.958 361.112L167.408 154.082Z" fill="#F5F5F5"/>
<path d="M233.289 351.359L231.66 361.132L161.716 351.109L163.345 341.211L233.289 351.359Z" fill="#E0E0E0"/>
<path d="M198.066 316.028L208.094 317.531L196.938 386.315L186.91 384.936L198.066 316.028Z" fill="#E0E0E0"/>
<path d="M133.637 228.577C133.763 228.702 119.598 238.349 102.175 250.001C84.6264 261.653 70.4621 271.049 70.3368 270.924C70.2114 270.799 84.3757 261.152 101.799 249.5C119.348 237.848 133.512 228.451 133.637 228.577Z" fill="#E0E0E0"/>
<path d="M185.405 215.672C185.531 215.797 162.091 231.709 133.01 251.003C104.055 270.423 80.3641 285.959 80.2388 285.833C80.1134 285.708 103.553 269.796 132.634 250.502C161.715 231.082 185.28 215.547 185.405 215.672Z" fill="#E0E0E0"/>
<path d="M195.81 231.208C195.935 231.333 172.495 247.245 143.414 266.539C114.459 285.959 90.7684 301.494 90.6431 301.369C90.5177 301.244 113.958 285.332 143.038 266.038C171.994 246.618 195.684 230.957 195.81 231.208Z" fill="#E0E0E0"/>
<path d="M206.088 246.618C206.213 246.743 182.773 262.655 153.693 281.949C124.737 301.369 101.047 316.905 100.921 316.78C100.796 316.654 124.236 300.743 153.317 281.448C182.397 262.154 205.963 246.493 206.088 246.618Z" fill="#E0E0E0"/>
<path d="M216.49 262.154C216.616 262.279 193.176 278.191 164.095 297.485C135.14 316.905 111.449 332.441 111.324 332.315C111.198 332.19 134.638 316.278 163.719 296.984C192.8 277.564 216.365 262.029 216.49 262.154Z" fill="#E0E0E0"/>
<path d="M637.682 292.801L519.532 371.796L635.85 545.605L754 466.61L637.682 292.801Z" fill="#F5F5F5"/>
<path d="M693.063 458.481L691.684 466.75L633.021 458.23L634.275 449.961L693.063 458.481Z" fill="#E0E0E0"/>
<path d="M663.482 428.913L671.88 430.04L662.479 487.923L654.081 486.671L663.482 428.913Z" fill="#E0E0E0"/>
<path d="M609.33 355.368C609.456 355.494 597.548 363.637 582.882 373.41C568.216 383.182 556.183 391.076 556.058 390.95C555.932 390.825 567.84 382.681 582.506 372.909C597.297 363.136 609.205 355.243 609.33 355.368Z" fill="#E0E0E0"/>
<path d="M652.825 344.468C652.95 344.594 633.271 357.999 608.953 374.287C584.636 390.574 564.706 403.604 564.706 403.479C564.58 403.354 584.26 389.948 608.703 373.66C632.895 357.498 652.7 344.343 652.825 344.468Z" fill="#E0E0E0"/>
<path d="M661.474 357.498C661.6 357.624 641.92 371.029 617.603 387.317C593.285 403.604 573.355 416.634 573.355 416.509C573.23 416.384 592.909 402.978 617.352 386.69C641.544 370.528 661.349 357.373 661.474 357.498Z" fill="#E0E0E0"/>
<path d="M670.248 370.528C670.373 370.654 650.694 384.059 626.376 400.347C602.059 416.634 582.129 429.664 582.129 429.539C582.003 429.414 601.683 416.008 626.125 399.72C650.318 383.433 670.122 370.403 670.248 370.528Z" fill="#E0E0E0"/>
<path d="M678.898 383.558C679.023 383.684 659.344 397.089 635.027 413.377C610.709 429.664 590.779 442.694 590.779 442.569C590.654 442.444 610.333 429.038 634.776 412.75C658.968 396.463 678.773 383.433 678.898 383.558Z" fill="#E0E0E0"/>
<path d="M450.869 161.739L321.989 92.8447L220.491 282.538L349.37 351.432L450.869 161.739Z" fill="#F5F5F5"/>
<path d="M327.298 292.098L319.15 294.854L298.343 237.472L306.49 234.716L327.298 292.098Z" fill="#E0E0E0"/>
<path d="M339.832 250.878L342.84 259.147L285.807 278.692L282.799 270.423L339.832 250.878Z" fill="#E0E0E0"/>
<path d="M380.318 166.308C380.193 166.559 367.157 159.668 351.112 151.148C335.068 142.629 322.157 135.487 322.282 135.237C322.408 134.986 335.444 141.877 351.488 150.397C367.533 159.042 380.443 166.058 380.318 166.308Z" fill="#E0E0E0"/>
<path d="M411.281 200.387C411.156 200.637 389.596 189.236 363.023 174.953C336.449 160.796 315.015 149.018 315.015 148.893C315.14 148.643 336.7 160.044 363.273 174.327C389.847 188.61 411.281 200.261 411.281 200.387Z" fill="#E0E0E0"/>
<path d="M403.634 214.67C403.509 214.92 381.949 203.519 355.375 189.236C328.802 175.078 307.367 163.301 307.367 163.176C307.493 162.926 329.052 174.327 355.626 188.61C382.325 202.767 403.759 214.419 403.634 214.67Z" fill="#E0E0E0"/>
<path d="M395.987 228.827C395.862 229.078 374.302 217.677 347.729 203.394C321.155 189.236 299.721 177.459 299.721 177.334C299.846 177.083 321.406 188.484 347.979 202.767C374.678 216.925 396.113 228.577 395.987 228.827Z" fill="#E0E0E0"/>
<path d="M388.468 242.985C388.343 243.235 366.783 231.834 340.209 217.551C313.636 203.394 292.201 191.617 292.201 191.491C292.327 191.241 313.886 202.642 340.46 216.925C367.034 231.208 388.593 242.859 388.468 242.985Z" fill="#E0E0E0"/>
<path opacity="0.2" d="M389 1H386V56H389V1Z" fill="black"/>
<path d="M312.008 122.708H463.051C463.051 122.708 449.138 56.0546 386.464 56.0546C330.559 56.0546 312.008 122.708 312.008 122.708Z" fill="#58E3A6"/>
<path d="M389.096 0.927704H385.837V56.0546H389.096V0.927704Z" fill="#58E3A6"/>
<path d="M723.648 551.946C723.648 552.071 561.574 552.322 361.77 552.322C161.966 552.322 0.0175781 552.196 0.0175781 551.946C0.0175781 551.82 161.966 551.57 361.896 551.57C561.699 551.695 723.648 551.82 723.648 551.946Z" fill="#263238"/>
<path d="M40.1282 473.515C44.39 473.641 48.4011 476.021 51.1588 479.153C53.9164 482.285 55.6713 486.295 56.7994 490.429C58.9303 498.322 57.6768 507.719 55.2952 515.612C46.7716 512.605 41.3817 503.459 39.0001 498.573C35.2396 490.93 32.9834 474.893 40.1282 473.515Z" fill="#58E3A6"/>
<path d="M67.5799 525.259C64.8223 521.375 64.8223 515.988 66.9532 511.728C69.0841 507.468 73.2205 504.461 77.733 503.083C79.864 502.457 82.2455 502.206 84.1258 503.334C85.8806 504.461 86.5074 506.717 86.382 508.721C86.1313 510.726 85.1285 512.605 83.8751 514.234C79.6133 519.872 74.5994 524.633 67.5799 525.259Z" fill="#58E3A6"/>
<path d="M68.5835 551.695C68.5835 551.695 68.4582 551.069 68.2075 550.066C67.9568 548.939 67.7061 547.435 67.33 545.556C66.7033 541.797 65.5752 536.41 66.4526 530.396C67.2047 524.508 69.5863 519.371 72.0932 516.364C73.3467 514.86 74.4748 513.733 75.3523 513.106C75.7283 512.73 76.1044 512.48 76.355 512.355C76.6057 512.229 76.7311 512.104 76.7311 512.104C76.8564 512.229 74.7255 513.482 72.3439 516.614C69.9623 519.621 67.7061 524.633 66.954 530.521C66.2019 536.41 67.2047 541.672 67.7061 545.556C67.9568 547.435 68.2075 549.064 68.4582 550.066C68.5835 551.069 68.5835 551.695 68.5835 551.695Z" fill="#263238"/>
<path d="M42.8861 485.543C42.8861 485.543 43.0114 485.794 43.2621 486.169C43.5128 486.671 43.7635 487.297 44.1396 488.049C44.8916 489.677 46.0198 492.183 47.2732 495.19C49.9055 501.204 53.2899 509.473 56.925 518.87C60.5601 528.141 63.5684 536.661 65.6993 542.8C66.8274 545.932 67.5795 548.438 68.2063 550.192C68.457 551.069 68.7077 551.695 68.833 552.196C68.9583 552.698 69.0837 552.948 68.9583 552.948C68.9583 552.948 68.833 552.698 68.7076 552.322C68.457 551.82 68.3316 551.194 67.9556 550.317C67.3288 548.563 66.4514 546.057 65.3233 543.05C63.067 536.911 59.9333 528.517 56.2983 519.12C52.6632 509.849 49.2788 501.455 46.7719 495.441C45.5184 492.434 44.5156 490.053 43.8889 488.299C43.5128 487.548 43.2621 486.796 43.1368 486.295C42.8861 485.794 42.7607 485.543 42.8861 485.543Z" fill="#263238"/>
<path d="M58.3049 534.155C53.291 525.51 43.7646 519.621 33.8622 518.995C31.3553 518.87 28.2216 519.245 27.0934 521.501C25.9653 523.756 27.4695 526.512 29.2243 528.392C36.3691 536.159 48.5278 538.916 58.4303 534.907" fill="#58E3A6"/>
<path d="M37.7461 525.76C37.7461 525.76 38.3728 525.76 39.3756 525.76C39.877 525.76 40.5037 525.886 41.2558 526.011C42.0079 526.136 42.76 526.262 43.6374 526.512C44.5149 526.763 45.5176 526.888 46.5204 527.264C47.5232 527.515 48.6513 528.016 49.7794 528.517C52.0357 529.519 54.2919 530.772 56.5482 532.526C58.8045 534.28 60.6847 536.159 62.1888 538.039C62.9409 539.041 63.5677 539.918 64.1944 540.92C64.8211 541.797 65.1972 542.674 65.6986 543.551C66.2 544.303 66.4506 545.18 66.7013 545.807C66.952 546.433 67.2027 547.06 67.3281 547.561C67.5788 548.563 67.8295 549.064 67.7041 549.064C67.5788 549.064 66.952 546.934 65.3225 543.677C64.8211 542.925 64.4451 542.048 63.8184 541.171C63.317 540.294 62.5649 539.417 61.8128 538.415C60.3086 536.535 58.4284 534.656 56.2975 533.027C54.0413 531.398 51.785 530.02 49.6541 529.018C48.526 528.517 47.5232 528.141 46.5204 527.765C45.5176 527.389 44.5149 527.139 43.6374 526.888C40.0023 526.011 37.7461 525.886 37.7461 525.76Z" fill="#263238"/>
<path d="M606.699 133.107C603.064 133.984 601.184 138.244 600.808 142.002C600.432 145.761 600.933 149.77 599.304 153.153C597.549 157.037 593.287 159.919 593.162 164.178C593.036 166.809 594.666 169.19 594.54 171.821C594.415 176.081 590.028 179.338 589.903 183.598C589.777 186.605 591.783 189.612 591.281 192.619C590.905 194.999 589.025 196.879 588.273 199.134C586.769 203.644 589.777 208.53 593.788 211.162C598.301 214.043 604.067 214.67 609.081 213.041C614.095 211.412 618.356 207.528 620.362 202.642C622.618 197.254 622.117 191.115 621.615 185.352C620.111 167.185 618.983 149.018 618.231 130.726" fill="#263238"/>
<path d="M596.045 197.255C595.919 197.129 597.048 196.879 597.674 195.25C598.05 194.498 598.176 193.371 598.05 192.243C598.05 190.99 597.549 189.737 597.173 188.234C596.797 186.73 596.17 184.976 596.546 183.097C596.922 181.092 598.301 179.589 599.555 177.96C600.181 177.208 600.808 176.331 601.309 175.329C601.685 174.452 601.811 173.324 601.56 172.322C600.933 170.318 598.928 168.814 597.925 166.434C597.424 165.306 597.424 163.928 597.674 162.8C597.925 161.673 598.426 160.545 598.928 159.543C599.931 157.538 600.933 155.659 601.435 153.654C602.312 149.645 601.936 145.886 602.563 142.754C603.064 139.622 604.443 137.241 605.697 136.114C606.323 135.487 606.95 135.112 607.326 134.986C607.702 134.861 607.953 134.736 607.953 134.736C607.953 134.861 607.075 135.112 605.822 136.364C604.568 137.617 603.44 139.872 602.939 142.879C602.688 144.383 602.688 146.137 602.563 147.891C602.438 149.77 602.438 151.775 601.936 153.779C601.56 155.909 600.432 157.789 599.429 159.793C598.426 161.798 597.674 164.053 598.426 166.183C599.178 168.313 601.184 169.816 602.061 172.197C602.437 173.324 602.312 174.577 601.811 175.58C601.309 176.582 600.683 177.459 600.056 178.336C598.802 179.965 597.424 181.468 597.173 183.222C596.797 184.976 597.298 186.605 597.8 188.108C598.176 189.612 598.677 190.99 598.677 192.243C598.677 193.496 598.552 194.623 598.176 195.375C597.8 196.252 597.298 196.753 596.922 197.004C596.295 197.129 596.045 197.255 596.045 197.255Z" fill="#455A64"/>
<path d="M586.141 226.948L574.86 259.523L527.729 262.029L519.832 279.569L569.094 284.58C578.871 288.59 590.152 283.703 593.787 273.68L606.948 236.971L586.141 226.948Z" fill="#B78876"/>
<path d="M683.785 534.28C683.785 534.28 649.189 424.528 648.437 420.894C647.81 417.637 660.972 338.705 662.601 318.283L615.847 320.037C615.847 320.037 615.847 320.162 615.847 320.413L596.042 321.541L613.841 545.932H635.401L633.27 471.385C646.557 506.967 665.484 543.176 665.484 543.176L683.785 534.28Z" fill="#B78876"/>
<path d="M634.149 498.197C634.149 497.571 633.898 473.265 633.898 473.265C633.647 474.768 625.625 452.216 625.876 450.838C625.876 450.086 634.149 498.197 634.149 498.197Z" fill="#A36957"/>
<path d="M624.872 440.063C624.872 440.063 624.747 440.564 624.747 441.441C624.747 442.318 624.747 443.571 624.747 445.2C624.747 445.952 624.872 446.829 624.998 447.706C625.123 448.583 625.248 449.585 625.499 450.588C625.875 452.592 626.502 454.847 627.254 457.103C628.758 461.613 630.513 465.622 631.767 468.504C632.393 469.757 632.895 471.009 633.271 471.887C633.647 472.638 633.897 473.139 633.897 473.139C633.897 473.139 633.772 472.638 633.521 471.887C633.271 471.009 632.769 469.882 632.268 468.378C631.14 465.497 629.51 461.488 628.006 456.977C627.254 454.722 626.627 452.592 626.251 450.588C626.001 449.585 625.875 448.583 625.75 447.706C625.625 446.829 625.499 445.952 625.499 445.2C625.374 443.697 625.248 442.444 625.248 441.567C624.998 440.564 624.998 440.063 624.872 440.063Z" fill="#A36957"/>
<path d="M613.465 547.06V545.055L635.527 544.053V552.322L634.148 552.447C628.131 552.823 603.438 553.825 599.301 552.572C594.914 551.319 613.465 547.06 613.465 547.06Z" fill="#455A64"/>
<path d="M635.902 551.946C635.902 551.946 635.777 551.946 635.526 551.946C635.15 551.946 634.9 551.946 634.398 552.071C633.27 552.071 632.017 552.196 630.387 552.196C627.003 552.322 622.365 552.447 617.226 552.447C612.086 552.447 607.448 552.447 604.064 552.322C602.435 552.322 601.181 552.196 600.053 552.196C599.677 552.196 599.301 552.196 598.925 552.196C598.674 552.196 598.549 552.196 598.549 552.196C598.549 552.196 598.674 552.196 598.925 552.196C599.301 552.196 599.552 552.196 600.053 552.196C601.181 552.196 602.435 552.196 604.064 552.322C607.448 552.322 612.086 552.447 617.226 552.447C622.365 552.447 627.003 552.322 630.387 552.196C632.017 552.196 633.27 552.071 634.398 552.071C634.774 552.071 635.15 552.071 635.526 552.071C635.652 551.946 635.902 551.946 635.902 551.946Z" fill="#263238"/>
<path d="M606.321 552.572C606.196 552.572 606.196 551.57 605.569 550.693C604.943 549.691 604.19 549.189 604.19 549.189C604.19 549.064 605.193 549.565 605.82 550.568C606.447 551.57 606.447 552.697 606.321 552.572Z" fill="#263238"/>
<path d="M612.839 549.315C612.839 549.315 612.463 548.939 612.087 548.438C611.711 547.937 611.586 547.435 611.586 547.435C611.586 547.435 611.962 547.811 612.338 548.312C612.589 548.814 612.839 549.315 612.839 549.315Z" fill="#263238"/>
<path d="M614.594 548.438C614.594 548.438 614.218 548.312 613.842 547.937C613.466 547.561 613.215 547.31 613.215 547.185C613.215 547.185 613.591 547.31 613.967 547.686C614.343 548.062 614.594 548.312 614.594 548.438Z" fill="#263238"/>
<path d="M615.722 546.308C615.722 546.433 615.221 546.433 614.594 546.433C613.967 546.433 613.466 546.433 613.466 546.308C613.466 546.182 613.967 546.183 614.594 546.183C615.095 546.183 615.722 546.182 615.722 546.308Z" fill="#263238"/>
<path d="M616.098 544.804C616.098 544.93 615.597 545.18 614.845 545.18C614.093 545.18 613.466 545.055 613.466 545.055C613.466 544.93 614.093 545.055 614.719 544.93C615.471 544.93 615.973 544.804 616.098 544.804Z" fill="#263238"/>
<path d="M612.087 547.435C612.087 547.435 611.585 547.561 610.708 547.435C610.332 547.435 609.705 547.31 609.204 547.059C608.953 546.934 608.702 546.934 608.326 546.684C608.201 546.558 608.076 546.433 607.95 546.308C607.95 546.057 607.95 545.807 608.201 545.807C609.58 545.055 610.833 545.807 611.335 546.558C611.585 546.934 611.711 547.31 611.836 547.435C611.836 547.686 611.836 547.811 611.836 547.811C611.836 547.811 611.711 547.31 611.209 546.558C610.959 546.182 610.582 545.932 609.956 545.807C609.454 545.681 608.702 545.681 608.326 545.932C608.076 546.057 608.201 546.308 608.452 546.558C608.702 546.684 608.953 546.809 609.204 546.934C609.705 547.059 610.206 547.185 610.708 547.31C611.46 547.435 612.087 547.31 612.087 547.435Z" fill="#263238"/>
<path d="M611.71 547.435C611.71 547.435 611.46 547.06 611.585 546.433C611.585 546.182 611.71 545.807 611.961 545.431C612.212 545.18 612.588 544.679 613.089 544.679C613.465 544.679 613.59 545.055 613.465 545.305C613.465 545.556 613.34 545.807 613.214 545.932C612.964 546.308 612.713 546.558 612.588 546.809C612.086 547.31 611.836 547.435 611.71 547.435C611.836 547.435 612.086 547.185 612.462 546.684C612.713 546.433 612.838 546.182 613.089 545.807C613.34 545.556 613.465 544.93 613.089 544.93C612.713 544.93 612.337 545.306 612.212 545.556C611.961 545.807 611.836 546.182 611.836 546.433C611.585 547.06 611.71 547.435 611.71 547.435Z" fill="#263238"/>
<path d="M635.401 545.932C635.401 545.932 634.775 545.932 633.772 546.057C632.769 546.183 631.39 546.558 630.262 547.561C629.134 548.563 628.382 549.816 628.006 550.693C627.63 551.695 627.63 552.322 627.63 552.196C627.63 552.196 627.63 552.071 627.63 551.695C627.63 551.445 627.755 550.943 627.881 550.568C628.131 549.565 628.883 548.312 630.137 547.31C631.39 546.308 632.769 545.932 633.772 545.807C634.273 545.807 634.649 545.807 635.025 545.807C635.276 545.807 635.401 545.932 635.401 545.932Z" fill="#263238"/>
<path d="M624.873 550.192C624.873 550.317 623.494 550.442 621.614 550.442C619.859 550.442 618.354 550.192 618.354 550.192C618.354 550.066 619.733 550.192 621.614 550.192C623.368 550.192 624.873 550.066 624.873 550.192Z" fill="#263238"/>
<path d="M629.134 550.066C629.134 550.066 629.009 550.317 628.884 550.693C628.758 551.069 628.633 551.319 628.633 551.319C628.508 551.319 628.508 550.943 628.633 550.568C628.758 550.317 629.009 550.066 629.134 550.066Z" fill="#263238"/>
<path d="M630.764 548.062C630.764 548.062 630.639 548.312 630.388 548.563C630.137 548.814 629.887 548.939 629.887 548.939C629.887 548.939 630.012 548.688 630.263 548.438C630.513 548.187 630.639 548.062 630.764 548.062Z" fill="#263238"/>
<path d="M633.019 547.185C633.019 547.31 632.768 547.31 632.392 547.31C632.016 547.435 631.891 547.561 631.766 547.561C631.766 547.561 631.891 547.185 632.267 547.06C632.768 546.934 633.019 547.06 633.019 547.185Z" fill="#263238"/>
<path d="M634.649 546.684C634.649 546.809 634.524 546.809 634.399 546.934C634.273 547.06 634.022 547.06 634.022 546.934C634.022 546.809 634.148 546.809 634.273 546.684C634.524 546.684 634.649 546.684 634.649 546.684Z" fill="#263238"/>
<path d="M665.108 545.18L664.231 543.301L683.911 533.403L687.42 540.92L686.167 541.547C680.777 544.303 658.716 555.454 654.454 555.955C649.816 556.581 665.108 545.18 665.108 545.18Z" fill="#455A64"/>
<path d="M687.423 540.419C687.423 540.419 687.297 540.545 687.047 540.67C686.796 540.795 686.42 541.046 686.044 541.171C685.041 541.672 683.913 542.299 682.534 542.925C679.526 544.428 675.39 546.433 670.626 548.563C665.988 550.693 661.727 552.572 658.593 553.825C657.089 554.452 655.961 554.953 654.958 555.329C654.582 555.454 654.206 555.579 653.955 555.704C653.704 555.83 653.579 555.83 653.579 555.83C653.579 555.83 653.704 555.704 653.955 555.704C654.206 555.579 654.582 555.454 654.958 555.329C655.961 554.953 657.214 554.326 658.593 553.7C661.727 552.322 665.988 550.568 670.626 548.438C675.264 546.308 679.526 544.303 682.534 542.925C683.913 542.299 685.167 541.672 686.169 541.171C686.545 541.046 686.796 540.795 687.172 540.67C687.298 540.419 687.423 540.419 687.423 540.419Z" fill="#263238"/>
<path d="M660.85 553.073C660.725 553.073 660.349 552.322 659.346 551.695C658.469 551.069 657.466 550.943 657.466 550.818C657.466 550.693 658.469 550.693 659.471 551.445C660.474 552.196 660.85 553.073 660.85 553.073Z" fill="#263238"/>
<path d="M665.361 547.435C665.361 547.435 664.859 547.31 664.358 546.934C663.857 546.558 663.48 546.308 663.48 546.182C663.48 546.182 663.982 546.308 664.483 546.684C664.985 547.06 665.361 547.435 665.361 547.435Z" fill="#263238"/>
<path d="M666.614 545.932C666.614 546.057 666.238 545.932 665.737 545.807C665.235 545.681 664.859 545.431 664.859 545.431C664.859 545.305 665.235 545.431 665.737 545.556C666.238 545.681 666.614 545.807 666.614 545.932Z" fill="#263238"/>
<path d="M666.739 543.551C666.739 543.677 666.363 543.927 665.736 544.178C665.11 544.428 664.734 544.554 664.608 544.554C664.608 544.428 664.984 544.178 665.611 543.927C666.238 543.677 666.739 543.426 666.739 543.551Z" fill="#263238"/>
<path d="M666.49 542.048C666.49 542.048 666.114 542.549 665.487 542.925C664.86 543.301 664.233 543.426 664.233 543.301C664.233 543.176 664.735 543.05 665.361 542.674C665.988 542.299 666.49 542.048 666.49 542.048Z" fill="#263238"/>
<path d="M663.858 546.057C663.858 546.057 663.357 546.308 662.605 546.684C662.229 546.809 661.728 546.934 661.101 547.06C660.85 547.06 660.474 547.185 660.223 547.06C660.098 547.06 659.847 546.934 659.722 546.809C659.597 546.684 659.597 546.433 659.722 546.183C660.599 544.93 662.229 545.18 662.981 545.556C663.357 545.807 663.608 546.057 663.733 546.183C663.858 546.433 663.984 546.558 663.984 546.558C663.984 546.558 663.608 546.057 662.856 545.681C662.48 545.556 661.978 545.431 661.477 545.431C660.975 545.556 660.349 545.807 659.973 546.183C659.847 546.433 659.973 546.684 660.349 546.684C660.599 546.684 660.975 546.684 661.226 546.684C661.728 546.684 662.229 546.558 662.73 546.433C663.357 546.183 663.858 545.932 663.858 546.057Z" fill="#263238"/>
<path d="M663.606 546.182C663.606 546.182 663.23 545.932 663.105 545.305C662.979 545.055 662.979 544.679 662.979 544.178C663.105 543.802 663.23 543.301 663.732 543.05C664.108 542.925 664.734 543.551 664.86 543.802C664.985 544.053 664.484 543.927 664.484 544.053C664.484 544.428 664.358 544.804 664.233 545.055C663.982 545.932 663.732 546.182 663.606 546.182C663.606 546.057 663.857 545.807 663.982 545.18C664.108 544.93 664.108 544.554 664.108 544.178C664.108 543.802 664.108 543.301 663.732 543.426C663.356 543.551 663.23 544.053 663.105 544.303C662.979 544.679 663.105 545.055 663.105 545.305C663.356 545.932 663.606 546.182 663.606 546.182Z" fill="#263238"/>
<path d="M684.539 535.157C684.539 535.157 683.912 535.408 683.035 535.909C682.157 536.41 681.155 537.287 680.403 538.665C679.776 540.043 679.651 541.422 679.651 542.424C679.776 543.426 680.027 544.053 679.901 544.053C679.901 544.053 679.776 543.927 679.776 543.677C679.65 543.426 679.525 543.05 679.525 542.549C679.4 541.547 679.525 540.043 680.152 538.665C680.904 537.287 682.032 536.285 682.91 535.784C683.411 535.533 683.787 535.408 684.038 535.282C684.414 535.157 684.539 535.157 684.539 535.157Z" fill="#263238"/>
<path d="M676.644 543.301C676.644 543.301 675.516 544.178 673.886 544.93C672.257 545.681 670.878 546.057 670.878 546.057C670.878 545.932 672.257 545.431 673.761 544.804C675.39 543.927 676.644 543.176 676.644 543.301Z" fill="#263238"/>
<path d="M680.653 541.547C680.778 541.547 680.653 541.923 680.653 542.173C680.653 542.549 680.653 542.8 680.653 542.8C680.528 542.8 680.402 542.549 680.402 542.173C680.402 541.797 680.528 541.422 680.653 541.547Z" fill="#263238"/>
<path d="M681.279 539.041C681.404 539.041 681.279 539.292 681.154 539.667C681.028 539.918 680.903 540.169 680.777 540.169C680.652 540.169 680.778 539.918 680.903 539.542C681.028 539.166 681.154 538.916 681.279 539.041Z" fill="#263238"/>
<path d="M682.91 537.162C682.91 537.287 682.66 537.412 682.409 537.538C682.158 537.788 682.033 538.039 681.908 538.039C681.782 538.039 681.908 537.663 682.158 537.412C682.66 537.162 682.91 537.162 682.91 537.162Z" fill="#263238"/>
<path d="M684.287 536.159C684.287 536.159 684.287 536.41 684.161 536.535C684.036 536.661 683.911 536.786 683.785 536.661C683.785 536.661 683.785 536.41 683.91 536.285C684.036 536.159 684.287 536.034 684.287 536.159Z" fill="#263238"/>
<path d="M659.594 281.072L655.958 236.344L674.761 236.72C674.761 236.72 675.638 230.08 672.88 215.672C671.126 206.776 665.234 201.389 658.591 198.132V198.006L657.964 197.881C649.566 193.997 640.666 193.371 640.666 193.371L617.602 193.621C617.602 193.621 599.928 191.366 590.151 204.02C586.391 208.906 574.733 242.108 574.733 242.108L602.435 255.514L599.803 237.096C599.803 237.096 600.304 250.377 602.059 254.637C603.062 257.017 605.694 264.284 605.694 264.284L605.318 286.335L659.594 281.072Z" fill="#58E3A6"/>
<path d="M646.934 229.955L643.424 244.488H675.763L673.633 220.057L646.934 229.955Z" fill="#58E3A6"/>
<path d="M675.764 244.488C675.764 244.363 674.134 244.238 671.502 244.112C668.87 243.987 665.235 243.862 661.098 243.862C657.087 243.862 653.327 244.112 650.694 244.238C648.062 244.488 646.433 244.614 646.433 244.739C646.433 244.864 648.062 244.739 650.694 244.739C653.327 244.614 656.962 244.614 661.098 244.488C665.109 244.488 668.744 244.488 671.502 244.488C674.134 244.614 675.764 244.614 675.764 244.488Z" fill="#263238"/>
<path d="M645.43 219.932C645.305 219.932 645.305 221.31 645.305 223.69C645.305 225.946 645.43 229.203 645.555 232.586C645.681 236.094 645.806 239.226 646.057 241.481C646.182 243.736 646.307 245.24 646.433 245.24C646.558 245.24 646.558 243.862 646.558 241.481C646.558 239.226 646.433 235.969 646.307 232.586C646.182 229.078 646.057 225.946 645.806 223.69C645.681 221.31 645.555 219.932 645.43 219.932Z" fill="#263238"/>
<g opacity="0.3">
<path d="M615.972 232.586C615.972 232.586 623.116 285.959 643.423 284.455C643.423 284.455 652.573 284.33 655.456 278.316V275.936L615.972 232.586Z" fill="black"/>
</g>
<g opacity="0.3">
<path d="M645.429 223.064L641.669 249.124L644.176 253.76L648.187 244.739H646.432L645.429 223.064Z" fill="black"/>
</g>
<path d="M605.945 264.284C605.945 264.284 605.694 263.908 605.443 263.031C605.067 262.154 604.691 261.026 604.19 259.523C603.187 256.516 602.059 252.381 601.056 247.746C600.179 243.11 599.677 238.725 599.552 235.593C599.427 234.089 599.427 232.711 599.427 231.834C599.427 230.957 599.427 230.456 599.552 230.456C599.677 230.456 599.677 232.335 600.053 235.467C600.304 238.6 600.806 242.859 601.808 247.495C602.686 252.131 603.814 256.265 604.691 259.272C605.067 260.65 605.443 261.903 605.694 262.78C605.819 263.783 605.945 264.158 605.945 264.284Z" fill="#263238"/>
<path d="M614.093 279.569C613.967 279.569 613.466 278.441 612.965 276.938C612.463 275.434 612.338 274.182 612.463 274.182C612.589 274.182 613.09 275.309 613.591 276.813C613.967 278.316 614.218 279.569 614.093 279.569Z" fill="#263238"/>
<path d="M616.85 279.318C616.724 279.318 616.098 277.69 616.098 275.434C616.098 273.179 616.599 271.425 616.724 271.551C616.85 271.551 616.724 273.305 616.724 275.434C616.85 277.564 617.1 279.318 616.85 279.318Z" fill="#263238"/>
<path d="M603.188 256.015C603.062 256.14 596.67 253.133 588.773 249.124C580.876 245.24 574.608 241.857 574.608 241.732C574.734 241.607 581.126 244.613 589.023 248.623C596.92 252.507 603.188 255.889 603.188 256.015Z" fill="#263238"/>
<path d="M614.596 198.006C614.721 191.617 614.721 184.976 614.721 184.976C614.721 184.976 606.573 183.348 605.195 172.698C603.816 162.55 607.576 138.62 607.576 138.62C619.484 134.109 631.768 138.244 639.916 147.766L637.91 199.259C637.659 205.273 632.395 209.783 626.002 209.533C619.484 209.157 614.47 204.02 614.596 198.006Z" fill="#B78876"/>
<path d="M606.951 157.663C606.951 158.415 607.453 159.042 608.205 159.042C608.957 159.042 609.583 158.54 609.583 157.789C609.583 157.037 609.082 156.411 608.33 156.411C607.703 156.411 607.077 156.912 606.951 157.663Z" fill="#263238"/>
<path d="M606.445 155.909C606.571 156.035 607.699 155.408 609.078 155.408C610.582 155.408 611.585 156.16 611.71 156.035C611.835 155.909 611.585 155.659 611.209 155.283C610.707 154.907 609.955 154.531 609.078 154.531C608.2 154.531 607.323 154.782 606.947 155.158C606.571 155.408 606.445 155.784 606.445 155.909Z" fill="#263238"/>
<path d="M621.866 158.54C621.866 159.292 622.368 159.919 623.12 159.919C623.872 159.919 624.499 159.417 624.499 158.666C624.499 157.914 623.997 157.288 623.245 157.288C622.618 157.288 621.992 157.914 621.866 158.54Z" fill="#263238"/>
<path d="M621.864 156.786C621.989 156.912 623.117 156.285 624.496 156.285C626 156.285 627.003 157.037 627.128 156.912C627.253 156.786 627.003 156.536 626.627 156.16C626.125 155.784 625.373 155.408 624.496 155.408C623.618 155.408 622.741 155.659 622.365 156.035C621.864 156.411 621.738 156.661 621.864 156.786Z" fill="#263238"/>
<path d="M616.225 167.561C616.225 167.436 615.348 167.311 613.844 167.06C613.468 167.06 613.092 166.935 613.092 166.684C612.966 166.434 613.217 166.058 613.342 165.557C613.718 164.68 614.094 163.677 614.47 162.675C616.1 158.666 617.353 155.283 617.103 155.283C616.977 155.158 615.473 158.415 613.844 162.424C613.468 163.427 613.092 164.304 612.716 165.306C612.59 165.682 612.339 166.183 612.465 166.809C612.59 167.06 612.841 167.311 613.092 167.436C613.342 167.561 613.593 167.561 613.718 167.561C615.222 167.561 616.225 167.686 616.225 167.561Z" fill="#263238"/>
<path d="M614.722 184.976C614.722 184.976 621.866 185.603 629.137 181.593C629.137 181.593 625.502 188.86 614.847 187.607L614.722 184.976Z" fill="#A36957"/>
<path d="M626.504 152.527C626.254 153.028 625.125 152.777 623.872 152.527C622.619 152.276 621.49 152.025 621.365 151.524C621.24 151.023 622.493 150.271 624.248 150.647C625.878 151.023 626.88 152.151 626.504 152.527Z" fill="#263238"/>
<path d="M611.838 150.397C611.713 150.898 610.584 151.148 609.206 151.148C607.827 151.148 606.573 151.148 606.448 150.647C606.323 150.146 607.451 149.269 609.08 149.269C610.835 149.144 611.963 149.896 611.838 150.397Z" fill="#263238"/>
<path d="M616.225 171.069C615.974 170.944 615.598 171.195 615.472 171.445C615.347 171.821 615.347 172.197 615.723 172.447C615.974 172.698 616.475 172.698 616.726 172.447C616.977 172.197 617.102 171.696 616.977 171.445C616.851 171.069 616.35 170.944 615.974 171.069" fill="#A36957"/>
<path d="M616.6 171.195C616.726 171.195 616.35 170.819 615.723 170.944C615.472 171.069 615.096 171.32 614.971 171.696C614.846 172.072 614.971 172.698 615.472 173.074C615.974 173.45 616.475 173.324 616.851 173.074C617.227 172.823 617.353 172.322 617.353 172.072C617.227 171.445 616.726 171.32 616.726 171.445C616.726 171.57 616.851 171.696 616.851 172.197C616.851 172.447 616.726 172.573 616.6 172.698C616.475 172.823 616.099 172.823 615.974 172.698C615.848 172.573 615.723 172.322 615.723 172.072C615.723 171.821 615.848 171.696 616.099 171.57C616.224 171.195 616.475 171.32 616.6 171.195Z" fill="#263238"/>
<path d="M635.027 160.294C633.774 163.176 630.64 165.557 631.142 168.689C631.392 170.693 632.771 172.698 632.52 174.703C632.144 177.334 629.512 179.088 629.136 181.593C628.635 184.726 631.768 187.231 632.896 190.113C634.651 194.373 632.395 199.259 632.395 203.769C632.27 210.911 638.412 217.551 645.431 218.052C648.314 218.303 651.573 217.426 652.952 214.92C654.206 212.916 653.955 210.284 654.707 208.029C655.835 204.647 658.969 202.266 659.721 198.758C660.974 192.494 653.328 187.231 653.829 180.842C654.08 178.085 655.71 175.705 656.462 173.074C657.465 169.566 656.587 165.682 654.206 162.926C652.325 160.67 649.568 159.167 647.938 156.786C646.058 154.03 646.058 150.522 645.431 147.264C643.802 139.371 637.785 132.48 630.264 129.724C622.618 126.968 613.718 128.346 607.326 133.232C607.326 133.232 605.445 141.501 613.969 142.879C622.493 144.258 626.378 142.629 627.381 146.012C627.381 146.012 626.378 150.021 629.888 153.779C633.273 157.663 636.532 156.912 635.027 160.294Z" fill="#263238"/>
<path d="M648.564 217.551C648.564 217.551 648.313 217.551 647.812 217.426C647.31 217.301 646.558 217.175 645.681 216.799C643.926 216.173 641.294 214.67 639.163 211.913C638.035 210.535 637.032 208.906 636.405 206.902C635.653 205.022 635.277 202.767 635.277 200.512C635.277 198.257 635.528 195.751 636.155 193.371C636.531 192.118 636.907 190.99 637.408 189.737C637.909 188.484 638.411 187.357 638.787 186.104C639.163 184.851 639.038 183.598 638.787 182.47C638.411 181.218 637.909 180.09 637.408 179.088C636.907 177.96 636.28 176.833 635.904 175.705C635.528 174.577 635.402 173.324 635.653 172.072C636.155 169.691 637.533 167.937 638.411 166.183C639.288 164.429 639.539 162.55 639.539 160.796C639.414 157.413 637.909 154.907 636.781 153.404C635.528 151.9 634.65 151.399 634.65 151.274C634.65 151.274 635.653 151.775 637.032 153.153C638.285 154.531 639.915 157.162 640.04 160.67C640.166 162.424 639.79 164.429 638.912 166.308C638.035 168.188 636.656 169.942 636.28 172.072C635.779 174.201 636.907 176.457 638.035 178.712C638.536 179.839 639.163 180.967 639.539 182.22C639.915 183.473 639.915 184.976 639.539 186.229C639.163 187.482 638.536 188.735 638.16 189.862C637.659 190.99 637.283 192.243 637.032 193.371C636.405 195.751 636.029 198.132 636.155 200.387C636.155 204.897 637.659 208.906 639.79 211.537C641.921 214.294 644.302 215.672 646.057 216.424C647.561 217.426 648.564 217.551 648.564 217.551Z" fill="#455A64"/>
<path d="M647.311 154.406C647.311 154.406 646.684 154.531 645.43 154.656C644.177 154.782 642.422 154.907 640.291 154.531C638.16 154.155 635.528 153.153 633.773 150.522C632.896 149.269 632.645 147.766 632.018 146.262C631.517 144.884 630.514 143.631 629.135 142.754C626.378 141 623.118 140.749 620.361 140.499C617.478 140.123 614.846 139.622 613.091 138.244C611.211 136.991 610.333 135.237 610.082 134.109C609.957 133.483 609.957 132.982 609.957 132.731C609.957 132.355 610.082 132.23 610.082 132.23C610.208 132.23 609.957 132.856 610.333 134.109C610.584 135.237 611.587 136.74 613.341 137.993C615.096 139.246 617.603 139.747 620.486 139.998C623.244 140.374 626.628 140.499 629.511 142.378C631.015 143.255 632.144 144.759 632.645 146.262C633.146 147.766 633.522 149.269 634.274 150.397C635.779 152.777 638.286 153.779 640.416 154.281C642.547 154.656 644.302 154.656 645.43 154.656C646.684 154.281 647.311 154.281 647.311 154.406Z" fill="#455A64"/>
<path d="M644.178 144.132C644.178 144.132 643.677 144.383 642.674 144.383C641.671 144.383 640.292 144.258 638.663 143.506C637.911 143.13 637.033 142.629 636.281 141.877C635.529 141.125 634.902 140.248 634.276 139.246C633.147 137.367 632.019 134.986 629.763 133.984C627.507 132.982 624.874 133.232 622.744 133.357C620.487 133.608 618.482 133.608 616.727 133.357C614.972 133.107 613.719 132.355 612.966 131.729C612.59 131.353 612.34 131.102 612.214 130.852C612.089 130.601 611.964 130.476 612.089 130.476C612.089 130.476 612.465 130.852 613.217 131.478C613.969 132.105 615.223 132.606 616.852 132.856C618.482 133.107 620.487 132.982 622.744 132.731C625 132.606 627.507 132.23 630.139 133.357C631.393 133.859 632.395 134.861 633.147 135.863C633.899 136.866 634.401 137.993 635.028 138.87C635.529 139.872 636.156 140.749 636.782 141.376C637.409 142.002 638.161 142.629 638.913 143.005C640.418 143.756 641.796 144.007 642.674 144.007C643.677 144.132 644.178 144.132 644.178 144.132Z" fill="#455A64"/>
<path d="M652.325 214.92C652.199 214.92 652.701 214.043 653.077 212.54C653.578 211.036 653.954 208.656 653.954 205.774C653.829 202.892 653.202 199.51 651.322 196.252C650.444 194.623 649.065 193.12 647.937 191.366C647.436 190.489 646.935 189.487 646.684 188.359C646.433 187.231 646.558 186.104 646.935 184.976C647.687 182.846 648.94 180.967 649.191 178.962C649.567 176.958 648.564 175.204 647.561 173.575C647.06 172.698 646.559 171.946 646.182 171.069C645.806 170.192 645.556 169.315 645.43 168.438C645.18 166.684 645.43 165.055 645.556 163.677C645.932 160.796 645.681 158.415 644.929 157.037C644.302 155.533 643.425 155.158 643.425 155.032C643.425 155.032 643.425 155.032 643.55 155.158C643.676 155.158 643.801 155.283 643.926 155.408C644.302 155.659 644.678 156.16 645.054 156.912C645.806 158.415 646.182 160.796 645.932 163.677C645.806 165.181 645.681 166.684 645.806 168.313C645.932 169.942 646.809 171.57 647.812 173.199C648.313 174.076 648.815 174.828 649.191 175.83C649.567 176.833 649.692 177.96 649.567 178.962C649.316 181.092 647.937 182.972 647.311 185.102C646.935 186.104 646.809 187.106 647.06 188.108C647.311 189.111 647.687 189.988 648.188 190.865C649.316 192.619 650.695 194.122 651.572 195.751C653.453 199.134 654.205 202.642 654.205 205.649C654.205 208.53 653.703 210.911 653.202 212.414C652.951 213.166 652.701 213.793 652.45 214.168C652.45 214.67 652.325 214.92 652.325 214.92Z" fill="#455A64"/>
<path d="M601.308 448.332C601.308 448.332 592.909 368.398 592.408 338.83C591.906 309.262 605.695 280.07 605.695 280.07L659.719 277.815C659.719 277.815 670.374 307.759 670.625 320.413C671.001 344.844 664.107 369.025 664.859 388.444L666.614 448.332" fill="#263238"/>
<path d="M668.37 349.981C668.37 349.981 668.119 350.232 667.492 350.607C667.367 350.733 667.116 350.858 666.991 350.983C666.865 351.109 666.615 351.359 666.489 351.484C666.113 351.86 665.612 352.236 665.236 352.863C663.481 354.992 662.228 358.751 660.974 363.512C660.347 365.893 659.595 368.524 658.217 371.155C657.84 371.781 657.464 372.408 656.963 373.034C656.712 373.285 656.462 373.66 656.211 373.911L655.334 374.788C654.205 375.916 652.827 376.793 651.322 377.419C648.314 378.797 644.93 379.424 641.796 380.927C638.662 382.431 636.281 385.438 634.902 388.82C633.398 392.203 632.52 395.836 631.142 399.094C629.888 402.351 628.259 405.609 625.501 407.614C622.869 409.743 619.484 410.245 616.601 410.37C613.718 410.495 610.961 410.495 608.579 410.871C606.197 411.247 604.066 411.999 602.562 413.126C601.058 414.254 600.181 415.757 599.805 417.136C599.429 418.388 599.429 419.516 599.554 420.268C599.679 421.019 599.93 421.27 599.805 421.27C599.805 421.27 599.554 420.894 599.429 420.268C599.178 419.516 599.178 418.388 599.554 417.136C599.93 415.757 600.807 414.254 602.437 413.001C603.941 411.748 606.197 410.871 608.579 410.495C611.086 410.119 613.718 410.119 616.601 409.994C619.484 409.743 622.618 409.242 625.125 407.238C627.632 405.358 629.261 402.226 630.515 398.969C631.768 395.711 632.646 392.078 634.275 388.695C635.779 385.187 638.286 382.055 641.545 380.551C644.804 378.923 648.189 378.296 651.197 377.043C652.701 376.417 654.08 375.665 655.083 374.537L655.835 373.786C656.086 373.535 656.336 373.159 656.462 372.909C656.963 372.408 657.214 371.656 657.59 371.029C658.969 368.524 659.721 365.893 660.347 363.512C661.601 358.751 662.98 354.867 664.86 352.737C665.236 352.111 665.737 351.735 666.113 351.359C666.364 351.234 666.489 350.983 666.615 350.858C666.74 350.733 666.991 350.607 667.116 350.482C668.119 350.106 668.37 349.981 668.37 349.981Z" fill="#FAFAFA"/>
<path d="M668.746 313.021C668.746 313.021 668.746 313.397 668.871 314.149C668.871 314.9 668.746 315.903 668.495 317.155C667.869 319.786 665.988 323.295 662.353 326.552C660.598 328.181 658.468 329.81 656.086 331.188C653.704 332.566 650.947 333.944 648.314 335.573C645.557 337.076 642.799 338.83 640.292 341.211C637.785 343.466 635.905 346.473 634.275 349.73C632.521 352.863 631.016 356.12 629.011 359.002C628.008 360.38 626.88 361.633 625.627 362.76C624.373 363.888 622.994 364.765 621.49 365.517C618.607 367.02 615.724 367.897 613.092 368.774C610.459 369.651 607.953 370.278 605.696 371.28C603.565 372.157 601.56 373.159 600.056 374.287C598.552 375.415 597.298 376.542 596.546 377.544C594.916 379.549 594.54 381.052 594.415 381.052C594.415 381.052 594.54 380.677 594.791 380.05C595.042 379.424 595.543 378.421 596.421 377.419C597.173 376.292 598.426 375.164 599.93 374.036C601.434 372.909 603.44 371.781 605.571 370.904C607.827 369.902 610.334 369.15 612.966 368.398C615.599 367.521 618.482 366.644 621.239 365.141C622.618 364.389 623.997 363.512 625.25 362.51C626.504 361.382 627.632 360.255 628.51 358.876C630.515 356.12 632.019 352.863 633.649 349.73C635.404 346.473 637.284 343.466 639.791 341.085C642.298 338.705 645.181 336.951 647.938 335.448C650.696 333.944 653.328 332.566 655.835 331.188C658.217 329.81 660.348 328.306 662.103 326.677C665.612 323.545 667.618 320.037 668.245 317.531C668.871 314.524 668.621 313.021 668.746 313.021Z" fill="#FAFAFA"/>
<path d="M592.66 342.965C592.66 342.965 592.66 342.84 592.534 342.714C592.534 342.589 592.409 342.338 592.284 341.963C592.158 341.336 592.033 340.208 592.409 338.956C593.161 336.45 595.919 333.192 600.306 331.689C602.562 330.937 605.069 330.436 607.701 329.81C610.334 329.058 613.091 328.181 615.222 325.926C616.225 324.798 617.102 323.545 617.854 322.167C618.606 320.789 619.108 319.285 619.735 317.657C620.863 314.524 621.74 311.142 623.746 308.009C625.626 304.877 628.76 302.747 631.893 301.62C635.027 300.492 638.286 299.991 641.294 299.239C644.303 298.613 647.06 297.736 649.442 296.483C651.824 295.105 653.704 293.351 654.957 291.471C657.715 287.713 658.342 283.829 658.467 281.323C658.467 278.692 658.091 277.314 658.216 277.314C658.216 277.314 658.718 278.692 658.718 281.323C658.718 283.954 658.091 287.838 655.333 291.722C653.954 293.601 652.074 295.481 649.693 296.859C647.311 298.237 644.428 299.114 641.42 299.74C638.411 300.492 635.278 300.993 632.144 302.121C629.01 303.248 626.127 305.253 624.247 308.26C622.367 311.267 621.489 314.65 620.361 317.782C619.735 319.411 619.233 320.914 618.481 322.418C617.729 323.921 616.726 325.174 615.724 326.301C613.467 328.557 610.584 329.559 607.952 330.185C605.32 330.812 602.813 331.313 600.556 332.065C596.169 333.568 593.412 336.575 592.66 338.956C592.284 340.208 592.284 341.211 592.409 341.837C592.534 342.714 592.66 342.965 592.66 342.965Z" fill="#FAFAFA"/>
<path d="M664.108 410.621C664.108 410.621 664.108 410.871 664.233 411.372C664.233 411.873 664.233 412.625 663.983 413.627C663.481 415.507 662.102 418.138 659.219 420.393C657.841 421.521 656.211 422.523 654.206 423.4C652.325 424.277 650.194 424.903 647.938 425.53C645.682 426.156 643.426 426.908 641.169 428.036C638.913 429.038 636.782 430.541 635.027 432.546C633.147 434.425 631.643 436.555 629.888 438.435C628.133 440.314 626.128 441.817 624.122 442.945C619.986 445.2 615.724 445.952 612.214 446.077C608.704 446.077 605.821 445.325 604.067 444.699C603.189 444.323 602.437 444.073 601.936 443.822C601.434 443.571 601.184 443.446 601.184 443.446C601.184 443.446 601.434 443.571 601.936 443.697C602.437 443.947 603.064 444.198 604.067 444.448C605.947 445.075 608.704 445.701 612.214 445.576C615.724 445.451 619.86 444.699 623.871 442.444C625.877 441.316 627.757 439.813 629.512 438.059C631.267 436.179 632.771 434.175 634.651 432.17C636.532 430.166 638.662 428.537 641.044 427.534C643.3 426.407 645.682 425.78 647.938 425.029C650.194 424.402 652.2 423.776 654.206 422.899C656.086 422.147 657.715 421.145 659.094 420.142C661.852 418.013 663.356 415.507 663.857 413.627C664.233 411.748 663.983 410.621 664.108 410.621Z" fill="#FAFAFA"/>
<path d="M657.965 244.614L647.561 244.864C646.934 248.372 645.179 250.753 645.179 250.753C636.405 235.593 629.636 215.296 628.007 207.152C628.258 206.275 628.508 205.398 628.884 204.396C629.26 203.268 628.884 201.013 628.759 199.76C628.508 198.006 628.007 195.501 627.756 194.373C627.255 190.865 626.753 190.364 625.5 190.74C623.87 191.241 626.127 200.387 624.873 200.637C624.121 200.763 623.244 197.631 622.993 194.999C622.742 192.368 621.614 184.475 620.737 183.974C619.483 183.222 618.355 184.475 618.731 186.981C619.107 189.612 619.483 197.255 618.104 197.38C616.726 197.505 615.597 184.35 615.597 184.35C615.597 184.35 615.848 181.468 614.219 181.594C611.336 181.719 613.592 195.501 613.843 196.879C613.968 197.756 612.589 198.006 612.464 197.004C612.338 196.002 611.586 183.849 608.703 183.974C606.447 184.099 610.458 195.375 609.205 198.006C607.951 200.637 607.074 189.111 604.943 189.236C604.191 189.236 603.564 189.487 605.068 196.002C605.82 199.51 608.077 206.025 610.082 211.287C613.467 229.328 628.132 287.337 651.321 276.687C664.232 270.799 669.497 244.488 669.497 244.488L657.965 244.614Z" fill="#B78876"/>
<path d="M613.342 197.881C613.342 197.881 613.467 197.881 613.592 197.881C613.718 197.881 614.094 197.63 614.094 197.129C614.094 196.377 613.968 195.25 613.718 193.746C613.592 192.243 613.091 190.489 613.091 188.359C613.091 187.357 613.091 186.229 613.216 184.976C613.216 184.35 613.216 183.723 613.342 183.222C613.467 182.596 613.843 181.969 614.219 182.095C614.72 182.095 614.971 182.47 615.097 182.972C615.222 183.473 615.347 184.099 615.222 184.6C615.473 187.858 615.849 191.366 616.601 194.999C616.726 195.5 616.851 195.876 616.977 196.377C617.102 196.628 617.102 196.879 617.227 197.129C617.353 197.254 617.353 197.38 617.478 197.505C617.603 197.63 617.729 197.756 617.979 197.881C618.481 197.881 618.606 197.505 618.732 197.254C618.857 197.004 618.857 196.753 618.982 196.503C619.108 196.002 619.108 195.5 619.233 194.999C619.358 192.995 619.358 190.865 619.108 188.735C619.108 187.607 618.732 186.605 618.982 185.603C619.108 185.102 619.233 184.6 619.609 184.475C619.734 184.35 619.985 184.35 620.11 184.35C620.236 184.35 620.361 184.475 620.361 184.475C620.486 184.6 620.486 184.475 620.486 184.6C620.862 185.477 621.113 186.605 621.364 187.733C621.615 188.86 621.74 189.988 621.991 191.115C622.116 192.243 622.367 193.371 622.492 194.623C622.617 195.751 622.743 197.004 623.119 198.131C623.244 198.758 623.495 199.259 623.745 199.886C623.871 200.136 623.996 200.512 624.247 200.763C624.372 200.888 624.623 201.138 624.999 201.013C625.375 200.888 625.5 200.637 625.5 200.512C625.751 199.76 625.626 199.134 625.626 198.507C625.626 197.881 625.5 197.254 625.5 196.628C625.375 195.626 625.25 194.498 625.25 193.496C625.25 192.995 625.25 192.494 625.25 191.992C625.25 191.742 625.375 191.491 625.375 191.366C625.375 191.241 625.5 191.241 625.5 191.241H625.626C626.503 190.865 626.754 191.992 627.005 192.995C627.255 193.997 627.381 194.999 627.506 196.002C627.882 198.006 628.258 199.886 628.509 201.765C628.634 202.642 628.634 203.644 628.383 204.521C628.133 205.398 627.757 206.275 627.506 207.152V207.278V207.403C629.01 214.168 631.141 220.182 633.147 225.57C635.152 230.957 637.158 235.593 638.913 239.351C640.667 243.11 642.172 245.992 643.3 247.996C643.801 248.999 644.302 249.625 644.553 250.251C644.804 250.753 645.055 251.003 645.055 251.003C645.055 251.003 644.929 250.753 644.678 250.251C644.428 249.625 643.926 248.873 643.425 247.996C642.422 245.992 640.918 242.985 639.163 239.226C637.408 235.467 635.528 230.832 633.648 225.444C631.768 220.057 629.637 214.043 628.133 207.403V207.528C628.383 206.651 628.759 205.774 629.01 204.897C629.386 203.895 629.261 202.892 629.135 201.89C628.885 199.886 628.509 198.006 628.133 196.002C627.882 194.999 627.882 193.997 627.631 192.995C627.506 192.494 627.381 191.992 627.13 191.491C627.004 191.241 626.754 190.99 626.378 190.739C626.002 190.614 625.626 190.614 625.375 190.739H625.124C624.999 190.739 624.874 190.865 624.874 190.865C624.748 190.99 624.623 191.115 624.498 191.366C624.372 191.617 624.372 191.992 624.247 192.243C624.247 192.744 624.247 193.371 624.247 193.872C624.247 194.874 624.372 196.002 624.498 197.004C624.498 197.63 624.623 198.257 624.623 198.883C624.623 199.51 624.623 200.136 624.498 200.512C624.498 200.637 624.372 200.637 624.498 200.637C624.498 200.637 624.498 200.763 624.498 200.637C624.498 200.637 624.498 200.637 624.372 200.512C624.247 200.387 624.122 200.136 623.996 199.886C623.745 199.384 623.62 198.758 623.495 198.257C623.244 197.129 622.993 196.002 622.868 194.749C622.743 193.621 622.617 192.368 622.367 191.241C622.241 190.113 621.991 188.985 621.74 187.858C621.489 186.73 621.364 185.603 620.737 184.475C620.737 184.35 620.486 184.099 620.361 183.974C620.236 183.849 620.11 183.849 619.86 183.723C619.484 183.598 619.108 183.723 618.857 183.849C618.23 184.225 618.105 184.851 617.979 185.477C617.854 186.104 617.854 186.605 617.979 187.231C618.105 187.733 618.105 188.234 618.105 188.86C618.23 190.99 618.356 192.995 618.23 194.999C618.23 195.5 618.105 196.002 618.105 196.503C618.105 196.753 617.979 197.004 617.854 197.129C617.854 197.254 617.729 197.254 617.729 197.38C617.729 197.505 617.603 197.38 617.603 197.505C617.729 197.38 617.603 197.505 617.603 197.38C617.603 197.38 617.478 197.254 617.478 197.129C617.353 196.879 617.353 196.753 617.227 196.503C617.102 196.002 616.977 195.626 616.851 195.125C616.099 191.491 615.723 187.983 615.473 184.726C615.473 184.099 615.473 183.473 615.222 182.846C615.096 182.596 614.971 182.22 614.72 181.969C614.47 181.719 614.094 181.593 613.843 181.593H613.968C613.467 181.468 613.091 181.844 612.84 182.095C612.59 182.345 612.59 182.721 612.464 183.097C612.339 183.723 612.339 184.35 612.339 184.976C612.339 186.229 612.339 187.357 612.339 188.359C612.339 190.489 612.84 192.243 613.091 193.746C613.342 195.25 613.467 196.377 613.592 197.129C613.718 197.505 613.342 197.756 613.216 197.756C613.467 197.881 613.342 197.881 613.342 197.881Z" fill="#A36957"/>
<path d="M531.74 261.778C531.74 261.778 528.23 261.653 524.47 262.655C517.952 264.409 506.796 271.175 506.42 279.444H514.568C514.568 279.444 510.055 289.091 511.308 288.214C514.818 285.833 521.712 278.942 521.712 278.942L531.74 261.778Z" fill="#B78876"/>
<path d="M642.423 116.193C642.297 116.193 641.545 109.553 640.793 101.158C640.041 92.8893 639.665 86.1238 639.79 86.1238C639.916 86.1238 640.668 92.764 641.42 101.158C642.172 109.553 642.673 116.193 642.423 116.193Z" fill="#263238"/>
<path d="M678.02 86.6249C678.145 86.7502 672.63 94.6434 665.736 104.416C658.842 114.188 653.076 121.956 652.95 121.831C652.825 121.706 658.34 113.812 665.234 104.04C672.128 94.2675 677.894 86.4996 678.02 86.6249Z" fill="#263238"/>
<path d="M692.811 122.708C692.811 122.833 686.418 124.337 678.521 125.965C670.625 127.594 664.106 128.722 664.106 128.597C664.106 128.471 670.499 126.968 678.396 125.339C686.418 123.71 692.811 122.457 692.811 122.708Z" fill="#263238"/>
<path d="M266.507 294.729L222.134 522.503L216.368 552.322L512.313 550.818C525.6 550.693 537.383 538.916 541.645 521.501L594.165 306.506C597.424 293.225 590.279 279.444 580.252 279.444L280.797 279.82C274.028 279.694 268.262 285.833 266.507 294.729Z" fill="#58E3A6"/>
<g opacity="0.5">
<path d="M266.507 294.729L222.134 522.503L216.368 552.322L512.313 550.818C525.6 550.693 537.383 538.916 541.645 521.501L594.165 306.506C597.424 293.225 590.279 279.444 580.252 279.444L280.797 279.82C274.028 279.694 268.262 285.833 266.507 294.729Z" fill="black"/>
</g>
<path d="M483.984 507.092L452.648 254.762C451.394 244.363 443.121 236.72 433.344 236.72L364.654 236.971C359.514 236.971 354.751 239.101 351.116 242.985L318.526 277.69L127.496 278.692C115.839 278.692 106.814 289.843 108.444 302.246L137.524 535.533C138.778 545.807 147.051 553.574 156.702 553.574L489.625 552.948C526.728 553.7 530.238 542.8 530.238 542.8C487.745 551.946 483.984 507.092 483.984 507.092Z" fill="#58E3A6"/>
<g opacity="0.5">
<path d="M340.336 456.601L329.055 468.629L242.565 390.95L253.847 378.797L340.336 456.601Z" fill="white"/>
<path d="M324.417 376.166L336.826 387.317L258.61 471.385L246.2 460.235L324.417 376.166Z" fill="white"/>
</g>
<path d="M531.491 130.977C530.738 130.601 530.112 129.849 530.112 128.972L529.61 117.321C529.61 116.569 529.861 115.942 530.488 115.441C531.114 114.94 531.741 114.815 532.493 114.94C534.373 115.441 536.379 114.94 538.134 113.812C539.763 112.81 540.766 111.181 541.017 109.553C541.268 107.924 540.766 106.045 539.638 104.541C538.385 102.912 536.504 101.785 534.75 101.534C530.989 101.158 526.853 104.04 525.85 107.799C525.474 109.052 524.22 109.803 522.967 109.427C521.713 109.052 520.961 107.799 521.337 106.546C522.967 100.532 529.234 96.1468 535.251 96.7733C538.385 97.1491 541.393 98.9032 543.399 101.534C545.279 104.04 546.156 107.172 545.655 110.179C545.153 113.061 543.399 115.817 540.766 117.571C538.886 118.824 536.63 119.576 534.373 119.701L534.75 128.722C534.75 129.975 533.747 131.102 532.493 131.102C532.117 131.102 531.741 131.102 531.491 130.977Z" fill="#58E3A6"/>
<path d="M534.876 135.738C535.001 136.74 534.124 137.743 533.121 137.743C532.118 137.868 531.115 136.991 531.115 135.989C530.99 134.986 531.868 133.984 532.87 133.984C533.873 133.984 534.876 134.61 534.876 135.738Z" fill="#58E3A6"/>
<path d="M491.254 114.564C491.254 114.564 491.254 114.314 491.379 113.812C491.379 113.311 491.505 112.56 491.63 111.557C491.63 110.555 491.881 109.427 492.257 107.924C492.382 107.172 492.507 106.42 492.758 105.669C493.009 104.917 493.26 104.04 493.51 103.163C494.764 99.6549 496.644 95.3951 499.778 91.2606C502.911 87.1261 507.298 82.9915 512.939 79.8593C515.697 78.2306 518.956 77.103 522.215 75.9754C525.599 75.2237 529.234 74.4719 532.869 74.5972C534.75 74.4719 536.63 74.7225 538.51 74.9731C539.513 75.0984 540.39 75.349 541.393 75.4742C542.396 75.5995 543.273 75.8501 544.276 76.226C548.162 77.2283 551.922 78.9823 555.432 81.3628C562.577 85.8732 568.719 93.2652 571.978 102.161C573.607 106.671 574.485 111.557 574.485 116.444C574.61 121.455 573.607 126.467 571.852 131.102L571.226 132.48L571.1 132.731L571.226 132.856C574.359 140.123 577.493 147.139 580.501 154.03L581.003 153.404C574.485 150.898 568.217 148.517 562.201 146.137L561.95 146.012L561.825 146.137C556.56 151.148 550.418 154.531 544.151 156.41C537.883 158.165 531.49 158.29 525.725 157.288C519.959 156.285 514.694 154.03 510.307 151.148C505.92 148.267 502.41 144.884 499.778 141.251C497.145 137.743 495.39 133.984 494.012 130.726C492.884 127.344 492.131 124.462 491.755 121.956C491.63 120.703 491.505 119.701 491.379 118.699C491.379 117.822 491.379 116.945 491.379 116.318C491.379 115.692 491.379 115.191 491.379 114.815C491.254 114.689 491.254 114.564 491.254 114.564C491.254 114.564 491.254 114.689 491.254 115.065C491.254 115.441 491.254 115.942 491.254 116.569C491.254 117.195 491.254 118.072 491.254 118.949C491.379 119.952 491.505 120.954 491.63 122.207C491.881 124.713 492.633 127.719 493.761 131.102C495.014 134.36 496.769 138.118 499.527 141.752C502.285 145.385 505.794 148.893 510.181 151.775C514.569 154.656 519.833 157.037 525.725 158.039C531.616 159.167 538.009 159.042 544.527 157.288C550.919 155.533 557.312 152.025 562.577 146.889L562.201 147.014C568.217 149.394 574.485 151.775 581.003 154.281L582.005 154.656L581.629 153.654C578.621 146.763 575.613 139.622 572.479 132.48V132.856L573.106 131.353C574.861 126.467 575.863 121.33 575.738 116.318C575.738 111.307 574.861 106.295 573.231 101.66C569.847 92.5135 563.579 85.1214 556.309 80.4858C552.674 78.2306 548.788 76.3513 544.903 75.349C543.9 74.9731 542.897 74.8478 542.02 74.5972C541.017 74.4719 540.014 74.2214 539.137 74.0961C537.131 73.9708 535.251 73.7202 533.371 73.7202C529.61 73.5949 525.975 74.3467 522.465 75.2237C519.081 76.226 515.822 77.4789 513.064 79.1076C507.298 82.3651 502.911 86.4996 499.778 90.7594C496.644 95.0192 494.764 99.279 493.636 102.912C493.385 103.789 493.134 104.666 492.884 105.418C492.633 106.17 492.507 107.047 492.382 107.673C492.131 109.052 491.881 110.304 491.881 111.307C491.755 112.309 491.755 113.061 491.755 113.562C491.129 114.314 491.129 114.564 491.254 114.564Z" fill="#263238"/>
</svg>
