<svg width="16" height="16" viewBox="0 0 16 16" fill="none" xmlns="http://www.w3.org/2000/svg">
<path d="M14.7658 1.23419C13.1202 -0.411398 10.443 -0.411398 8.79736 1.23419L6.3452 3.68635C5.91729 4.11425 5.57057 4.66019 5.34711 5.32672C5.34335 5.32797 5.33973 5.32988 5.33598 5.33113C4.82773 6.86009 5.2132 8.52275 6.3452 9.65475C6.68342 9.99296 7.08136 10.2715 7.51236 10.4771L7.67151 10.3179C8.22195 9.76746 8.22195 8.87887 7.67151 8.3284C6.75636 7.41325 6.75636 5.92775 7.67151 5.01263L10.1237 2.56047C11.0388 1.64532 12.5243 1.64532 13.4395 2.56047C14.3546 3.47563 14.3546 4.9611 13.4395 5.87625L11.5775 7.73819C11.8258 8.50584 11.8784 9.31875 11.7582 10.11C11.9543 9.97328 12.143 9.82534 12.3136 9.65475L14.7658 7.20259C16.4114 5.557 16.4114 2.87975 14.7658 1.23419Z" fill="url(#paint0_linear_77_825)"/>
<path d="M9.6609 6.33896C9.32268 6.00074 8.9248 5.72221 8.48715 5.52324L8.33458 5.67581C7.78418 6.22621 7.78414 7.11483 8.33458 7.6653C9.24974 8.58046 9.24974 10.066 8.33458 10.9811C7.55996 11.7557 6.61489 12.7009 5.87633 13.4395C4.96117 14.3546 3.4757 14.3546 2.56054 13.4395C1.64539 12.5243 1.64539 11.0389 2.56054 10.1237L4.42858 8.25552C4.18029 7.48787 4.12773 6.67493 4.24789 5.88371C4.05176 6.02046 3.86308 6.16837 3.69245 6.33896L1.2342 8.79736C-0.411399 10.443 -0.411399 13.1202 1.2342 14.7658C2.87979 16.4114 5.55702 16.4114 7.20264 14.7658L9.6609 12.3074C10.0888 11.8795 10.4355 11.3335 10.659 10.667C10.6627 10.6658 10.6664 10.6639 10.6701 10.6626C11.1784 9.13361 10.7929 7.47096 9.6609 6.33896Z" fill="url(#paint1_linear_77_825)"/>
<path d="M13.6399 12.9705L12.9767 12.3074C12.7934 12.1241 12.4968 12.1241 12.3136 12.3074C12.1303 12.4906 12.1303 12.7873 12.3136 12.9705L12.9767 13.6337C13.16 13.817 13.4566 13.817 13.6399 13.6337C13.8231 13.4504 13.8231 13.1538 13.6399 12.9705Z" fill="url(#paint2_linear_77_825)"/>
<path d="M3.69248 3.02316L3.02929 2.36C2.84601 2.17672 2.54938 2.17672 2.36613 2.36C2.18285 2.54328 2.18285 2.83991 2.36613 3.02316L3.02929 3.68631C3.21257 3.86959 3.50919 3.86959 3.69248 3.68631C3.87576 3.50303 3.87576 3.20641 3.69248 3.02316Z" fill="url(#paint3_linear_77_825)"/>
<path d="M15.3715 9.48568L14.4655 9.24281C14.2152 9.17577 13.9581 9.32409 13.891 9.5744C13.824 9.82624 13.974 10.0823 14.2226 10.1489L15.1287 10.3917C15.379 10.4587 15.6361 10.3104 15.7031 10.0601C15.7694 9.80981 15.6218 9.55143 15.3715 9.48568Z" fill="url(#paint4_linear_77_825)"/>
<path d="M1.78345 5.84483L0.877415 5.60196C0.627102 5.53493 0.370008 5.68324 0.302976 5.93355C0.235883 6.18533 0.385914 6.44143 0.634571 6.50799L1.5406 6.75086C1.79092 6.8179 2.04801 6.66958 2.11504 6.41927C2.18173 6.16865 2.03279 5.91021 1.78345 5.84483Z" fill="url(#paint5_linear_77_825)"/>
<path d="M10.3979 15.1225L10.155 14.2165C10.0877 13.9652 9.8309 13.8179 9.58059 13.8849C9.33027 13.9519 9.18196 14.209 9.24899 14.4594L9.49187 15.3654C9.55843 15.614 9.81452 15.764 10.0663 15.697C10.3166 15.6299 10.4649 15.3729 10.3979 15.1225Z" fill="url(#paint6_linear_77_825)"/>
<path d="M6.75697 1.53427L6.51409 0.628243C6.44737 0.376962 6.18997 0.230275 5.93965 0.29665C5.68934 0.363681 5.54103 0.620774 5.60806 0.871087L5.85094 1.77712C5.87294 1.85937 5.91572 1.93062 5.97203 1.98696C6.08665 2.10158 6.25762 2.1534 6.42534 2.10871C6.67569 2.04171 6.824 1.78459 6.75697 1.53427Z" fill="url(#paint7_linear_77_825)"/>
<defs>
<linearGradient id="paint0_linear_77_825" x1="0.888889" y1="3.14894" x2="16.6609" y2="8.52417" gradientUnits="userSpaceOnUse">
<stop stop-color="#55CBF3"/>
<stop offset="1" stop-color="#3084ED"/>
</linearGradient>
<linearGradient id="paint1_linear_77_825" x1="0.888889" y1="3.14894" x2="16.6609" y2="8.52417" gradientUnits="userSpaceOnUse">
<stop stop-color="#55CBF3"/>
<stop offset="1" stop-color="#3084ED"/>
</linearGradient>
<linearGradient id="paint2_linear_77_825" x1="0.888889" y1="3.14894" x2="16.6609" y2="8.52417" gradientUnits="userSpaceOnUse">
<stop stop-color="#55CBF3"/>
<stop offset="1" stop-color="#3084ED"/>
</linearGradient>
<linearGradient id="paint3_linear_77_825" x1="0.888889" y1="3.14894" x2="16.6609" y2="8.52417" gradientUnits="userSpaceOnUse">
<stop stop-color="#55CBF3"/>
<stop offset="1" stop-color="#3084ED"/>
</linearGradient>
<linearGradient id="paint4_linear_77_825" x1="0.888889" y1="3.14894" x2="16.6609" y2="8.52417" gradientUnits="userSpaceOnUse">
<stop stop-color="#55CBF3"/>
<stop offset="1" stop-color="#3084ED"/>
</linearGradient>
<linearGradient id="paint5_linear_77_825" x1="0.888889" y1="3.14894" x2="16.6609" y2="8.52417" gradientUnits="userSpaceOnUse">
<stop stop-color="#55CBF3"/>
<stop offset="1" stop-color="#3084ED"/>
</linearGradient>
<linearGradient id="paint6_linear_77_825" x1="0.888889" y1="3.14894" x2="16.6609" y2="8.52417" gradientUnits="userSpaceOnUse">
<stop stop-color="#55CBF3"/>
<stop offset="1" stop-color="#3084ED"/>
</linearGradient>
<linearGradient id="paint7_linear_77_825" x1="0.888889" y1="3.14894" x2="16.6609" y2="8.52417" gradientUnits="userSpaceOnUse">
<stop stop-color="#55CBF3"/>
<stop offset="1" stop-color="#3084ED"/>
</linearGradient>
</defs>
</svg>
